<svg width="76" height="42" viewBox="0 0 76 42" fill="none" xmlns="http://www.w3.org/2000/svg">
<path fill-rule="evenodd" clip-rule="evenodd" d="M23.7603 41.3697V41.1997H24.0503V39.4297H23.7603V39.2197H24.8403V39.4297H24.5603V41.1997H24.7803C25.3503 41.1997 25.5103 40.9797 25.5103 40.4197H25.6703V41.3697H23.7603Z" fill="white"/>
<path fill-rule="evenodd" clip-rule="evenodd" d="M29.1 41.4098C28.8718 41.4198 28.6459 41.361 28.4515 41.241C28.2572 41.1211 28.1033 40.9456 28.0099 40.7371C27.9164 40.5287 27.8878 40.297 27.9276 40.0721C27.9674 39.8472 28.0739 39.6395 28.2332 39.4758C28.3925 39.3121 28.5973 39.2 28.821 39.1541C29.0448 39.1082 29.2771 39.1306 29.488 39.2183C29.6989 39.306 29.8786 39.4551 30.0037 39.6461C30.1289 39.8372 30.1938 40.0614 30.19 40.2898C30.194 40.4354 30.1688 40.5804 30.1158 40.7161C30.0628 40.8518 29.9832 40.9756 29.8816 41.08C29.7799 41.1844 29.6584 41.2674 29.5242 41.324C29.3899 41.3807 29.2457 41.4098 29.1 41.4098ZM29.45 39.4098C29.39 39.3298 29.3 39.3298 29.1 39.3298C28.9903 39.3175 28.88 39.346 28.79 39.4098C28.66 39.5898 28.6 39.7198 28.6 40.2698C28.6 40.8198 28.66 40.9598 28.79 41.0898C28.8332 41.1245 28.8828 41.1503 28.936 41.1658C28.9892 41.1812 29.0449 41.1859 29.1 41.1798C29.3 41.1798 29.39 41.1798 29.45 41.0898C29.51 40.9998 29.68 40.8798 29.68 40.2698C29.68 39.6598 29.61 39.5898 29.45 39.4098Z" fill="white"/>
<path fill-rule="evenodd" clip-rule="evenodd" d="M34.7003 39.4397V41.4097H34.4203L33.0203 39.4397V41.1997H33.3003V41.3697H32.5703V41.1997H32.8303V39.4397H32.5703V39.2197H33.5303L34.5403 40.6797V39.4397H34.1903V39.2197H34.9903V39.4397H34.7003Z" fill="white"/>
<path fill-rule="evenodd" clip-rule="evenodd" d="M42.9403 41.4099C42.6379 41.4099 42.348 41.2898 42.1342 41.076C41.9204 40.8622 41.8003 40.5722 41.8003 40.2699C41.8003 39.9676 41.9204 39.6776 42.1342 39.4638C42.348 39.25 42.6379 39.1299 42.9403 39.1299C43.2401 39.1427 43.5236 39.2702 43.732 39.4861C43.9405 39.702 44.058 39.9898 44.0603 40.2899C44.0577 40.5861 43.9388 40.8695 43.7294 41.0789C43.5199 41.2884 43.2365 41.4073 42.9403 41.4099ZM43.2603 39.4099C43.2603 39.3299 43.1003 39.3299 42.9403 39.3299C42.7803 39.3299 42.7203 39.3299 42.6603 39.4099C42.6003 39.4899 42.4303 39.7199 42.4303 40.2699C42.4303 40.8199 42.5003 40.9599 42.6603 41.0899C42.8203 41.2199 42.8103 41.1799 42.9403 41.1799C43.0703 41.1799 43.2303 41.1799 43.2603 41.0899C43.4503 40.9599 43.5103 40.8799 43.5103 40.2699C43.5103 39.6599 43.4503 39.5899 43.2603 39.4099Z" fill="white"/>
<path fill-rule="evenodd" clip-rule="evenodd" d="M48.5704 39.4397V41.4097H48.3504L46.8904 39.4397V41.1997H47.1704V41.3697H46.4404V41.1997H46.7304V39.4397H46.4404V39.2197H47.4004L48.4104 40.6797V39.4397H48.0604V39.2197H48.8604V39.4397H48.5704Z" fill="white"/>
<path fill-rule="evenodd" clip-rule="evenodd" d="M38.3003 41.3698H37.3003V41.1999H37.5603V39.4298H37.3003V39.2198H38.3003C38.4502 39.2054 38.6014 39.2224 38.7443 39.2698C38.8873 39.3173 39.0187 39.3941 39.1301 39.4953C39.2416 39.5966 39.3307 39.72 39.3916 39.8577C39.4526 39.9954 39.4841 40.1443 39.4841 40.2949C39.4841 40.4454 39.4526 40.5944 39.3916 40.7321C39.3307 40.8697 39.2416 40.9932 39.1301 41.0944C39.0187 41.1956 38.8873 41.2724 38.7443 41.3199C38.6014 41.3673 38.4502 41.3843 38.3003 41.3698ZM38.6503 39.5199C38.5803 39.4299 38.4903 39.4298 38.3003 39.4298H38.0803V41.1999H38.3003C38.3692 41.2026 38.4376 41.1874 38.499 41.1559C38.5603 41.1243 38.6124 41.0775 38.6503 41.0199C38.8103 40.8999 38.8703 40.8999 38.8703 40.2899C38.8703 39.6799 38.8103 39.6899 38.6503 39.5199Z" fill="white"/>
<path fill-rule="evenodd" clip-rule="evenodd" d="M4.73999 33.8101H0V33.5101H1.2V27.2801H0V26.8901H4.2C5.57 26.8901 6.58 27.4101 6.58 28.5701C6.58 29.5701 5.72999 30.0701 4.67999 30.0701C5.94999 30.0701 7.09 30.7601 7.09 31.9601C7.09 32.9101 6.29999 33.8101 4.70999 33.8101H4.73999ZM3.73999 27.2801H2.73999V29.9401H4.02C4.75 29.9401 5.31999 29.7701 5.31999 28.5701C5.31999 27.3701 4.74999 27.2801 3.75999 27.2801H3.73999ZM3.95999 30.2801H2.72V33.5001H4C4.79 33.5001 5.70999 33.2801 5.70999 31.9501C5.70999 30.4501 4.97999 30.2801 3.95999 30.2801Z" fill="white"/>
<path fill-rule="evenodd" clip-rule="evenodd" d="M32.4402 33.8101H27.7002V33.5101H28.9502V27.2801H27.7002V26.8901H31.9402C33.3002 26.8901 34.3202 27.4101 34.3202 28.5701C34.3202 29.5701 33.4602 30.0701 32.3802 30.0701C33.6902 30.0701 34.8302 30.7601 34.8302 31.9601C34.8302 32.9101 34.0402 33.8101 32.4402 33.8101ZM31.4402 27.2801H30.4402V29.9401H31.7402C32.4702 29.9401 33.0502 29.7701 33.0502 28.5701C33.0502 27.3701 32.4702 27.2801 31.4602 27.2801H31.4402ZM31.6602 30.2801H30.4202V33.5001H31.7202C32.5202 33.5001 33.3502 33.2801 33.3502 31.9501C33.3502 30.4501 32.6802 30.2801 31.6602 30.2801Z" fill="white"/>
<path fill-rule="evenodd" clip-rule="evenodd" d="M15.7405 27.2801V31.5301C15.7405 33.2901 14.6605 34.0201 12.9405 34.0201C11.7005 34.0201 9.7605 33.5901 9.7605 31.6201V27.2801H8.52051V26.8901H12.5205V27.2801H11.2005V31.6201C11.2005 33.2901 12.2005 33.5101 13.2005 33.5101C14.4105 33.5101 15.4605 32.9901 15.4605 31.5101V27.2601H14.2005V26.8701H17.0605V27.2601L15.7405 27.2801Z" fill="white"/>
<path fill-rule="evenodd" clip-rule="evenodd" d="M25.6102 34.0702C25.3518 34.079 25.0946 34.032 24.856 33.9325C24.6174 33.833 24.4031 33.6832 24.2276 33.4935C24.052 33.3037 23.9194 33.0784 23.8388 32.8328C23.7581 32.5872 23.7313 32.327 23.7602 32.0702V31.6402C23.7602 30.7802 23.1902 30.3902 22.3602 30.3902H20.9002V33.5302H22.0702V33.8302H18.2002V33.5302H19.4402V27.3002H18.2002V26.9102H22.5602C24.0902 26.9102 24.9802 27.6402 24.9802 28.6302C24.9693 28.8653 24.9104 29.0957 24.8069 29.3071C24.7034 29.5185 24.5576 29.7064 24.3786 29.8592C24.1995 30.012 23.991 30.1264 23.766 30.1954C23.5409 30.2644 23.3041 30.2864 23.0702 30.2602C24.6602 30.2602 25.3302 31.1701 25.3302 32.1501V32.9301C25.3302 33.3601 25.4902 33.6602 25.9002 33.6602C26.0089 33.6638 26.1167 33.6378 26.2118 33.585C26.3069 33.5321 26.3859 33.4544 26.4402 33.3602L26.6302 33.6602C26.5047 33.7972 26.349 33.9029 26.1753 33.9689C26.0017 34.0349 25.815 34.0593 25.6302 34.0402L25.6102 34.0702ZM21.9502 27.3302H20.9002V30.0402H22.0102C22.8702 30.0402 23.4702 29.8202 23.4702 28.6602C23.4702 27.5002 23.0302 27.3302 21.9502 27.3302Z" fill="white"/>
<path fill-rule="evenodd" clip-rule="evenodd" d="M62.7903 34.0702C62.5334 34.0799 62.2774 34.0332 62.0405 33.9334C61.8035 33.8336 61.5913 33.683 61.4187 33.4924C61.2462 33.3018 61.1176 33.0756 61.0418 32.8299C60.9661 32.5842 60.9451 32.3249 60.9803 32.0702V31.6402C60.9803 30.7802 60.3703 30.3902 59.5203 30.3902H58.0503V33.5302H59.2003V33.8302H55.3203V33.5302H56.5603V27.3002H55.3203V26.9102H59.7103C61.1703 26.9102 62.1303 27.6402 62.1303 28.6302C62.1148 28.8718 62.0495 29.1077 61.9386 29.323C61.8277 29.5383 61.6736 29.7284 61.4859 29.8814C61.2981 30.0344 61.0808 30.147 60.8476 30.2122C60.6144 30.2774 60.3702 30.2937 60.1303 30.2602C61.7903 30.2602 62.3903 31.1701 62.3903 32.1501V32.9301C62.3903 33.3601 62.6103 33.6602 62.9603 33.6602C63.0819 33.6571 63.2016 33.6289 63.3118 33.5772C63.4219 33.5256 63.5202 33.4517 63.6003 33.3602L63.7003 33.6602C63.5749 33.7972 63.4191 33.9029 63.2454 33.9689C63.0718 34.0349 62.8851 34.0593 62.7003 34.0402L62.7903 34.0702ZM59.1303 27.3302H58.0503V30.0402H59.2003C60.0503 30.0402 60.7203 29.8202 60.7203 28.6602C60.7203 27.5002 60.2103 27.3302 59.1603 27.3302H59.1303Z" fill="white"/>
<path fill-rule="evenodd" clip-rule="evenodd" d="M53.2505 34.0702C52.9922 34.079 52.735 34.032 52.4964 33.9325C52.2578 33.833 52.0434 33.6832 51.8679 33.4935C51.6924 33.3037 51.5598 33.0784 51.4791 32.8328C51.3985 32.5872 51.3717 32.327 51.4005 32.0702V31.6402C51.4005 30.7802 50.7706 30.3902 49.9406 30.3902H48.5105V33.5302H49.7206V33.8302H45.8105V33.5302H47.0506V27.3002H45.8105V26.9102H50.2005C51.7305 26.9102 52.6205 27.6402 52.6205 28.6302C52.6042 28.8633 52.5415 29.0909 52.4362 29.2996C52.331 29.5083 52.1852 29.694 52.0074 29.8457C51.8296 29.9974 51.6233 30.1123 51.4007 30.1834C51.178 30.2546 50.9434 30.2807 50.7105 30.2602C52.2705 30.2602 52.9706 31.1701 52.9706 32.1501V32.9301C52.9706 33.3601 53.1305 33.6602 53.5105 33.6602C53.6241 33.6683 53.7376 33.6445 53.8384 33.5915C53.9391 33.5385 54.023 33.4584 54.0806 33.3602L54.2105 33.6602C54.0979 33.7914 53.9558 33.8941 53.796 33.9602C53.6361 34.0262 53.463 34.0536 53.2905 34.0402L53.2505 34.0702ZM49.5905 27.3302H48.5105V30.0402H49.6505C50.4805 30.0402 51.1205 29.8202 51.1205 28.6602C51.1205 27.5002 50.6105 27.3302 49.5905 27.3302Z" fill="white"/>
<path fill-rule="evenodd" clip-rule="evenodd" d="M36.5205 33.8101V33.5101H37.7905V27.2801H36.5205V26.8901H43.3205V29.0701H43.0405C43.0596 28.8302 43.0269 28.5889 42.9446 28.3626C42.8623 28.1364 42.7324 27.9305 42.5636 27.7589C42.3948 27.5872 42.1911 27.4538 41.9663 27.3678C41.7414 27.2818 41.5008 27.245 41.2605 27.2601H39.2605V30.0701H40.0605C40.2306 30.0813 40.401 30.0551 40.5599 29.9935C40.7188 29.9319 40.8623 29.8363 40.9804 29.7134C41.0985 29.5906 41.1884 29.4434 41.2437 29.2822C41.2989 29.121 41.3184 28.9496 41.3005 28.7801H41.5805V31.7801H41.3005C41.3184 31.6106 41.2989 31.4393 41.2437 31.2781C41.1884 31.1169 41.0985 30.9697 40.9804 30.8468C40.8623 30.724 40.7188 30.6284 40.5599 30.5668C40.401 30.5052 40.2306 30.479 40.0605 30.4901H39.2005V33.5401H41.2705C41.5592 33.5782 41.8528 33.5528 42.1307 33.4656C42.4086 33.3784 42.6641 33.2316 42.8793 33.0354C43.0945 32.8392 43.2643 32.5984 43.3768 32.3297C43.4893 32.0611 43.5417 31.7712 43.5305 31.4801H43.8105V33.8401L36.5205 33.8101Z" fill="white"/>
<path fill-rule="evenodd" clip-rule="evenodd" d="M71.4102 27.2801L69.1201 30.9301V33.5101H70.3902V33.8101H66.3902V33.5101H67.6902V30.8501L65.3401 27.2801H63.9102V26.8901H68.2001V27.2801H66.9001L69.0602 30.3701L71.1001 27.2801H69.8501V26.8901H72.5602V27.2801H71.4102Z" fill="white"/>
<path fill-rule="evenodd" clip-rule="evenodd" d="M74.6901 23.9697C74.0201 23.9697 73.4501 24.6597 73.4501 25.6097C73.4075 25.9843 73.5136 26.3607 73.7454 26.658C73.9773 26.9553 74.3165 27.1498 74.6901 27.1997C75.3601 27.1997 75.8701 26.5097 75.8701 25.6097C75.8701 24.7097 75.3301 23.9697 74.6901 23.9697ZM74.6301 24.2297H74.6901C75.2001 24.2297 75.6401 24.8297 75.6401 25.6097C75.6401 26.3897 75.2001 26.8897 74.6901 26.8897C74.1801 26.8897 73.6901 26.3397 73.6901 25.6097C73.6901 24.8797 74.0701 24.2797 74.5801 24.2297H74.6301ZM74.2401 24.6597V26.5097H74.4001V25.7397H74.6301L75.0401 26.5097H75.2601L74.8501 25.6497C75.1001 25.6497 75.2001 25.4297 75.2001 25.2197C75.2001 24.8297 75.0401 24.6597 74.7501 24.6597H74.2401ZM74.4001 25.4297V24.9197H74.6901C74.9101 24.9197 75.0401 24.9197 75.0401 25.2197C75.0401 25.5197 74.9101 25.4297 74.7501 25.4297H74.4001Z" fill="white"/>
<path fill-rule="evenodd" clip-rule="evenodd" d="M28.9302 1.68003C28.9302 1.68003 30.7202 -0.529954 34.6502 2.04005C34.5482 2.5269 34.3584 2.99113 34.0902 3.41004C34.0902 3.41004 32.7302 2.54005 32.3702 3.11005C32.2582 3.26858 32.1075 3.39586 31.9325 3.47987C31.7575 3.56387 31.5639 3.60178 31.3702 3.59003C30.7302 3.16003 28.9402 1.68003 28.9402 1.68003H28.9302Z" fill="white"/>
<path fill-rule="evenodd" clip-rule="evenodd" d="M34.5103 3.52014C34.5103 3.52014 34.5103 2.91013 35.3003 2.91013C35.1141 2.82697 34.9139 2.77949 34.7103 2.77014C34.9203 2.36014 34.9503 2.14014 35.6403 2.14014C36.3303 2.14014 36.6403 3.05014 36.6403 3.05014C36.5162 3.37193 36.5162 3.72835 36.6403 4.05014C36.1903 3.91014 35.3403 3.23012 35.2803 3.50012L34.5103 3.52014Z" fill="white"/>
<path fill-rule="evenodd" clip-rule="evenodd" d="M36.8005 2.91019C38.161 3.54271 39.6508 3.84754 41.1505 3.8002C43.4805 3.6602 44.8705 6.07019 44.8705 6.07019C45.4743 6.67696 46.2151 7.12968 47.0305 7.3902C46.5841 7.35325 46.1347 7.39041 45.7005 7.50019C45.1027 7.36578 44.5571 7.05996 44.1305 6.62018C43.5805 6.12018 40.8805 5.91019 40.8805 5.91019H38.7905C38.3548 5.89114 37.9382 5.72586 37.608 5.44101C37.2778 5.15616 37.0532 4.76835 36.9705 4.34018C36.6705 2.82018 36.8005 2.91019 36.8005 2.91019Z" fill="white"/>
<path fill-rule="evenodd" clip-rule="evenodd" d="M46.3901 7.82013C46.8657 8.0974 47.2378 8.52221 47.4501 9.03012C48.1301 9.39012 48.8201 9.53015 49.0501 9.71015C49.3055 9.86557 49.5866 9.97393 49.8801 10.0301C49.6601 9.89012 49.5901 9.55014 49.3901 9.39014C49.0001 9.07014 48.6501 9.39013 48.2801 8.85013C47.9101 8.31013 47.8401 7.94013 47.4201 7.85013C47.0989 7.72313 46.7414 7.72313 46.4201 7.85013L46.3901 7.82013Z" fill="white"/>
<path fill-rule="evenodd" clip-rule="evenodd" d="M35.2006 4.26999H34.4706C34.4706 4.26999 34.2905 3.72998 35.3505 3.72998C35.2005 3.95998 35.1106 4.01999 35.2006 4.26999Z" fill="white"/>
<path fill-rule="evenodd" clip-rule="evenodd" d="M36.2503 4.07028C36.2503 4.07028 35.4403 3.98028 35.3703 4.07028C35.3452 4.10335 35.3315 4.14373 35.3315 4.18527C35.3315 4.22681 35.3452 4.26723 35.3703 4.30029L36.1803 4.35028V4.03027L36.2503 4.07028Z" fill="white"/>
<path fill-rule="evenodd" clip-rule="evenodd" d="M36.4 4.64004C36.4 4.64004 36.97 4.39004 37.46 5.64004C37.4196 6.07299 37.2642 6.48726 37.01 6.84002C36.7404 7.01059 36.528 7.25786 36.4 7.55004C36.3701 7.14493 36.4642 6.74031 36.67 6.39004C36.804 5.95608 36.828 5.49561 36.74 5.05004C36.6412 4.90188 36.5273 4.76446 36.4 4.64004Z" fill="white"/>
<path fill-rule="evenodd" clip-rule="evenodd" d="M35.8799 1.82008C36.1211 1.79847 36.364 1.8364 36.5872 1.93055C36.8104 2.0247 37.007 2.17221 37.1599 2.36009C37.5299 2.98009 37.8799 2.54008 37.8799 2.54008C37.9051 2.22922 37.8082 1.92075 37.6099 1.68007C37.9259 1.97353 38.1748 2.33168 38.3399 2.73008C38.3899 2.86008 38.9399 3.30007 38.9399 2.18007C39.2999 2.68007 39.3499 2.73008 39.3999 2.91008C39.4499 3.09008 39.8899 3.77009 40.3099 3.30009C40.7299 2.83009 40.7599 2.18007 39.8499 1.68007C39.9899 2.29007 39.9399 2.79007 39.5299 2.25007C39.1199 1.71007 38.7099 1.43007 38.1699 1.68007C37.8122 1.49047 37.4092 1.40323 37.0052 1.42793C36.6012 1.45263 36.2118 1.58833 35.8799 1.82008Z" fill="white"/>
<path fill-rule="evenodd" clip-rule="evenodd" d="M36.2001 7.78012C36.2001 7.78012 36.4501 7.96012 36.6901 7.34012C36.9601 7.34012 37.4801 7.12012 37.5101 6.12012C37.6225 6.89473 37.656 7.67877 37.6101 8.46014V8.64014C37.6586 8.65862 37.7106 8.66609 37.7623 8.66202C37.814 8.65794 37.8642 8.64242 37.9092 8.61658C37.9541 8.59074 37.9928 8.55523 38.0224 8.5126C38.0519 8.46998 38.0717 8.4213 38.0801 8.37012C38.4501 8.64012 44.0801 13.0301 44.0801 13.0301L43.9801 13.2101L37.7801 8.98013C37.5465 8.9013 37.3051 8.84766 37.0601 8.82013C37.1385 8.77376 37.2035 8.708 37.2491 8.62918C37.2946 8.55036 37.3191 8.46114 37.3201 8.37012C37.3201 8.37012 36.7201 8.64014 36.6801 8.64014C36.6801 8.23014 36.6801 7.96014 36.5501 7.96014C36.4201 7.96014 36.6501 8.64014 36.2301 8.64014C35.8101 8.64014 36.2301 8.23012 36.2301 7.78012H36.2001Z" fill="white"/>
<path fill-rule="evenodd" clip-rule="evenodd" d="M37.7305 7.68971V6.56972C37.7305 6.38972 38.1705 7.06971 38.2405 7.49971C38.0305 7.58971 37.8605 7.54971 37.7305 7.68971Z" fill="white"/>
<path fill-rule="evenodd" clip-rule="evenodd" d="M37.8604 8.07007C37.8604 8.07007 38.0704 7.36007 38.5204 7.97007C38.9704 8.58007 38.6904 8.47007 38.6904 8.47007C38.4277 8.30941 38.1497 8.17542 37.8604 8.07007Z" fill="white"/>
<path fill-rule="evenodd" clip-rule="evenodd" d="M27.6405 1.11035L27.5205 1.43033L33.2805 5.59033L33.4205 5.32034L27.6405 1.11035Z" fill="white"/>
<path fill-rule="evenodd" clip-rule="evenodd" d="M25.9902 0L26.7802 1.11002C26.7802 1.11002 27.3502 1.43001 27.3502 0.790009C27.3502 0.150009 26.4602 0.25 25.9902 0Z" fill="white"/>
<path fill-rule="evenodd" clip-rule="evenodd" d="M28.6498 5.50012C28.6498 5.50012 27.9398 5.82014 27.8398 4.64014C28.3098 5.14014 28.4798 5.37012 28.6498 5.50012Z" fill="white"/>
<path fill-rule="evenodd" clip-rule="evenodd" d="M27.7705 4.36035C27.7705 4.36035 28.5005 4.96033 28.7705 5.12033C28.5905 4.59033 29.1805 4.59035 27.7705 4.36035Z" fill="white"/>
<path fill-rule="evenodd" clip-rule="evenodd" d="M28.5798 5.76978C28.5798 5.76978 28.1098 5.86975 28.0698 6.61975C28.4798 6.79975 28.6798 6.93976 28.6798 7.24976C28.3798 7.38976 28.1098 7.11977 28.0098 6.97977C27.5898 6.97977 26.8398 7.06976 26.8398 7.06976C27.3034 7.30158 27.7988 7.46335 28.3098 7.54977C28.2098 7.86977 28.0098 7.95977 28.0098 8.22977C28.0098 8.49977 28.0098 9.47977 28.0098 9.47977C28.0098 9.47977 28.1798 9.25977 28.1498 9.47977C28.1198 9.69977 27.9498 9.70978 27.9498 9.70978C27.9498 9.70978 27.6298 10.4098 27.8798 10.6398C28.1298 10.8698 28.4498 10.2498 28.4498 10.2498H28.9398C29.0398 10.2498 29.0798 9.64976 28.9398 9.37976C28.8789 9.13348 28.8789 8.87604 28.9398 8.62976C29.0398 9.19976 29.1698 9.19977 29.3098 9.19977C29.5168 8.66419 29.6643 8.10752 29.7498 7.53976C29.7498 7.53976 30.0998 6.23975 29.1098 5.89975C28.7998 5.89975 28.6498 5.89975 28.6498 6.14975C28.5198 6.14975 28.5499 5.75977 28.5499 5.75977L28.5798 5.76978Z" fill="white"/>
<path fill-rule="evenodd" clip-rule="evenodd" d="M28.8298 10.5497C28.7831 10.5275 28.732 10.5158 28.6802 10.5156C28.6285 10.5155 28.5773 10.5268 28.5304 10.5488C28.4836 10.5708 28.4422 10.6029 28.4092 10.6429C28.3762 10.6828 28.3526 10.7295 28.3398 10.7797C28.6098 10.9197 28.7698 10.7797 28.8298 10.5497Z" fill="white"/>
<path fill-rule="evenodd" clip-rule="evenodd" d="M29.0703 10.1201C29.0703 10.1201 29.4103 10.1701 29.4403 9.71014C29.6803 9.89014 29.8903 10.2101 29.7803 10.3901C29.6703 10.5701 29.0703 11.0501 29.5103 11.7301C29.9503 12.4101 30.3703 11.9401 30.5103 11.9401C30.1103 11.7801 29.6203 11.9401 29.8403 11.3301C30.0603 10.7201 30.1703 10.6401 30.1703 10.6401C30.057 10.4068 30.0021 10.1494 30.0103 9.89014C30.0103 9.89014 29.5503 9.39014 29.1503 9.39014C29.2103 9.76014 29.2503 9.98012 29.0803 10.1201H29.0703Z" fill="white"/>
<path fill-rule="evenodd" clip-rule="evenodd" d="M30 8C30 8 30 8.46002 29.71 8.55002C29.8152 8.753 29.8571 8.98297 29.83 9.21002C30.1 9.26002 30.06 8.69 30.06 8.69L30 8Z" fill="white"/>
<path fill-rule="evenodd" clip-rule="evenodd" d="M29.6401 5.99977C29.8623 6.43418 30.0046 6.90502 30.0601 7.38979C30.0601 8.04979 30.2301 7.77977 30.2301 7.77977C30.2301 7.77977 30.3301 10.1698 30.3301 10.5098C30.3301 10.8498 30.5001 10.8198 30.5001 10.8198C31.3801 10.3498 32.0701 9.04978 32.9601 8.72978C32.6728 7.78696 32.1964 6.91253 31.5601 6.15978C31.2822 5.96725 30.9585 5.85116 30.6215 5.82307C30.2846 5.79499 29.9461 5.85591 29.6401 5.99977Z" fill="white"/>
<path fill-rule="evenodd" clip-rule="evenodd" d="M29.5405 5.72983C29.5405 5.72983 29.4105 5.90985 29.0705 5.45985C28.7305 5.00985 28.7305 5.11982 28.7305 5.11982C28.7305 5.11982 29.1705 4.90985 29.2705 4.95985C29.3705 5.00985 29.3705 5.58983 29.5405 5.72983Z" fill="white"/>
<path fill-rule="evenodd" clip-rule="evenodd" d="M29.86 5.59043C29.86 5.59043 29.7401 5.75045 29.5201 5.27045C29.3001 4.79045 29.29 4.91043 29.29 4.91043C29.29 4.91043 29.64 4.73045 29.71 4.77045C29.78 4.81045 29.71 5.43043 29.86 5.59043Z" fill="white"/>
<path fill-rule="evenodd" clip-rule="evenodd" d="M31.3401 5.81973C31.2959 5.56552 31.2758 5.30772 31.2801 5.04974C31.2801 4.79974 31.1901 4.72971 30.8001 4.67971C30.8901 4.97971 30.9601 5.11972 30.9201 5.24972C30.8801 5.37972 30.8501 5.33974 30.6401 4.76974C30.4501 4.58974 30.3301 4.67971 30.3301 4.67971C30.4558 4.96434 30.5465 5.26322 30.6001 5.56973C30.8644 5.58672 31.1196 5.67294 31.3401 5.81973Z" fill="white"/>
<path fill-rule="evenodd" clip-rule="evenodd" d="M30.4205 5.38991C30.4205 5.26991 30.3006 5.17991 30.2706 5.06991C30.2406 4.95991 30.2705 4.79992 30.2105 4.70992C30.1505 4.61992 29.8905 4.70992 29.8105 4.70992C29.8702 4.86092 29.9105 5.0188 29.9305 5.17989C29.9476 5.30952 29.9883 5.43495 30.0506 5.54992H30.4305C30.4429 5.52505 30.4493 5.49766 30.4493 5.4699C30.4493 5.44215 30.4429 5.41478 30.4305 5.38991H30.4205Z" fill="white"/>
<path fill-rule="evenodd" clip-rule="evenodd" d="M30.4001 11.2302C30.902 10.854 31.3797 10.4466 31.8301 10.0102C32.1701 9.71016 32.6601 9.16016 33.0801 9.16016C33.5001 9.16016 33.1801 9.71017 32.8901 9.71017C33.0801 9.89017 33.1501 9.98015 33.0301 10.0302C32.9101 10.0802 32.7301 10.3902 32.5201 10.2602C32.3101 10.1302 32.1901 10.3902 32.2501 10.6002C32.3101 10.8102 32.0201 11.1002 31.6601 10.9602C31.3001 10.8202 31.3901 11.3302 31.3901 11.5502C31.0669 11.6662 30.7134 11.6662 30.3901 11.5502V11.1801L30.4001 11.2302Z" fill="white"/>
<path fill-rule="evenodd" clip-rule="evenodd" d="M30.3303 11.4598C30.3332 11.5033 30.3192 11.5463 30.2912 11.5798C30.2633 11.6133 30.2236 11.6348 30.1803 11.6398C30.1379 11.6326 30.0995 11.6106 30.072 11.5775C30.0445 11.5445 30.0297 11.5028 30.0303 11.4598C30.0302 11.4191 30.0457 11.3798 30.0736 11.35C30.1014 11.3203 30.1396 11.3024 30.1803 11.2998C30.2009 11.2998 30.2212 11.3039 30.2401 11.3121C30.259 11.3203 30.276 11.3322 30.2901 11.3472C30.3041 11.3622 30.3149 11.38 30.3219 11.3993C30.3288 11.4187 30.3317 11.4393 30.3303 11.4598Z" fill="white"/>
<path fill-rule="evenodd" clip-rule="evenodd" d="M33.2805 10.2998C33.2805 10.2998 32.4905 10.9598 32.2805 11.1398C32.0631 11.3682 31.8054 11.5546 31.5205 11.6898C31.8169 11.8864 32.1649 11.9908 32.5205 11.9898C32.5396 11.3618 32.7846 10.7617 33.2105 10.2998H33.2805Z" fill="white"/>
<path fill-rule="evenodd" clip-rule="evenodd" d="M33.3501 10.6904C33.0829 10.9381 32.9187 11.2772 32.8901 11.6404L33.3801 11.7804C33.3801 11.7804 33.6501 11.3704 33.8201 11.3704C33.6978 11.2971 33.5926 11.1985 33.5116 11.0813C33.4305 10.964 33.3755 10.8307 33.3501 10.6904Z" fill="white"/>
<path fill-rule="evenodd" clip-rule="evenodd" d="M33.2002 12.17C33.3871 12.0227 33.5463 11.8432 33.6702 11.64C33.8402 11.37 34.0102 11.69 34.0102 11.69C34.0025 12.0022 33.9691 12.3133 33.9102 12.62C33.6638 12.4859 33.4266 12.3356 33.2002 12.17Z" fill="white"/>
<path fill-rule="evenodd" clip-rule="evenodd" d="M31.5 5.84015C31.553 5.53241 31.553 5.21789 31.5 4.91016C31.636 5.00339 31.7489 5.12655 31.83 5.27017V6.00015L31.53 5.84015H31.5Z" fill="white"/>
<path fill-rule="evenodd" clip-rule="evenodd" d="M31.8003 5.99997C31.9671 6.18712 32.1084 6.39561 32.2203 6.61996C32.4223 6.47579 32.5702 6.26806 32.6403 6.02997C32.5546 5.88821 32.4778 5.74125 32.4103 5.58997C32.4103 5.99997 32.2903 6.15997 32.2003 6.15997C32.1103 6.15997 32.2003 5.38998 32.2003 5.38998L31.8803 5.22998C31.8803 5.22998 31.9503 5.99997 31.7803 5.99997H31.8003Z" fill="white"/>
<path fill-rule="evenodd" clip-rule="evenodd" d="M32.3901 6.86993C32.4527 6.95236 32.5032 7.04329 32.5401 7.13995C32.7279 6.91985 32.8706 6.66503 32.9601 6.38995L32.7801 6.20996C32.6931 6.41445 32.5787 6.60617 32.4401 6.77994L32.3901 6.86993Z" fill="white"/>
<path fill-rule="evenodd" clip-rule="evenodd" d="M32.6699 7.33997C32.6699 7.33997 33.0299 6.88998 33.0299 6.72998C33.1273 6.84941 33.1957 6.98973 33.2299 7.13998C33.2299 7.13998 32.9299 7.56998 32.8299 7.56998C32.7299 7.56998 32.6699 7.33997 32.6699 7.33997Z" fill="white"/>
<path fill-rule="evenodd" clip-rule="evenodd" d="M35.8098 8.70977C35.8098 8.70977 35.7399 8.36976 35.6599 8.88976C35.5799 9.40976 35.4898 9.38975 35.3998 9.34975C35.1874 9.92271 34.8872 10.4591 34.5098 10.9397C34.6062 10.9515 34.7035 10.9515 34.7999 10.9397L34.8498 10.8898C34.9943 10.8349 35.1176 10.7357 35.2021 10.6063C35.2866 10.4769 35.3278 10.3241 35.3198 10.1698L35.6098 9.56975C35.6148 9.97774 35.4948 10.3775 35.266 10.7153C35.0372 11.0531 34.7105 11.3129 34.3298 11.4598C34.1198 11.5498 34.1198 12.2097 34.0898 12.7797C34.2563 12.7892 34.4209 12.8194 34.5798 12.8697C34.5798 12.4597 35.0998 12.0098 35.0998 12.0098C34.6498 12.0098 34.4099 12.5498 34.4099 12.5498C34.4099 12.5498 34.2798 12.6898 34.2598 12.5498C34.2686 12.2509 34.3191 11.9547 34.4099 11.6698C34.8185 11.5295 35.1754 11.2694 35.434 10.9234C35.6926 10.5773 35.841 10.1614 35.8598 9.72976C35.9017 9.39774 35.9017 9.06178 35.8598 8.72976L35.8098 8.70977Z" fill="white"/>
<path fill-rule="evenodd" clip-rule="evenodd" d="M35.4902 11.21C35.4902 11.21 35.6902 10.5499 35.8302 10.5099C36.0149 9.99603 36.1162 9.45586 36.1302 8.90994C36.2802 8.81994 36.4502 8.90996 36.5302 8.70996C36.6187 9.19933 36.6187 9.70057 36.5302 10.1899C36.4302 10.1899 36.2402 10.3499 36.1602 10.5999C36.1265 10.669 36.0789 10.7304 36.0204 10.7803C35.9619 10.8302 35.8937 10.8675 35.8202 10.89C35.8202 10.89 35.8202 11.26 35.4502 11.21H35.4902Z" fill="white"/>
<path fill-rule="evenodd" clip-rule="evenodd" d="M35.9802 11.0698C36.1249 10.9784 36.2533 10.8635 36.3602 10.7298C36.4502 10.5698 36.7202 10.5498 36.7202 10.5498C36.7202 10.5498 37.0402 11.2298 37.2902 11.3498C37.0167 11.6118 36.8138 11.9385 36.7002 12.2998C36.623 12.5136 36.5224 12.7181 36.4002 12.9098L36.1502 12.9598C36.0129 12.9414 35.8732 12.9595 35.745 13.0121C35.6169 13.0648 35.5049 13.1502 35.4202 13.2598C35.3702 12.6198 35.3502 11.6898 35.8302 11.4798C36.3102 11.2698 35.9802 11.0698 35.9802 11.0698Z" fill="white"/>
<path fill-rule="evenodd" clip-rule="evenodd" d="M37.1103 10.64C37.1185 10.4909 37.0972 10.3417 37.0474 10.201C36.9976 10.0602 36.9204 9.93073 36.8203 9.81998C36.8203 9.15998 36.8203 8.97998 37.0403 8.97998C37.2603 8.97998 37.7003 9.11999 37.7003 9.45999C37.7003 9.79999 37.3103 10.64 37.1103 10.64Z" fill="white"/>
<path fill-rule="evenodd" clip-rule="evenodd" d="M36.7903 10.0703C36.7903 10.0703 36.7903 10.4303 36.9703 10.4803C36.8954 10.5021 36.8153 10.4981 36.7428 10.4691C36.6703 10.4402 36.6096 10.3878 36.5703 10.3203C36.6304 10.311 36.6854 10.2808 36.7256 10.2352C36.7658 10.1895 36.7887 10.1311 36.7903 10.0703Z" fill="white"/>
<path fill-rule="evenodd" clip-rule="evenodd" d="M37.71 10.1699C37.6489 10.695 37.4894 11.2039 37.24 11.6699C36.95 12.0099 37.46 11.8699 37.46 11.8699C37.3909 12.1523 37.2375 12.407 37.02 12.5999C36.911 12.7271 36.8447 12.8852 36.8303 13.052C36.816 13.2189 36.8543 13.386 36.94 13.5299C36.94 13.5299 37.06 14.0799 36.65 13.7599C36.72 14.1899 36.74 14.2799 36.5 14.2599C36.63 14.5799 37.14 14.9699 37.44 14.3099C37.74 13.6499 38 12.7999 38.08 12.5999C37.81 12.7099 37.85 12.7999 37.49 12.6699C37.13 12.5399 38.05 12.2599 38.29 11.5299C38.3737 11.3434 38.4813 11.1687 38.61 11.0099C38.37 10.9199 38.29 11.0099 38.39 10.7099C38.13 10.7599 38.1 10.9599 37.93 10.8899C37.76 10.8199 38.12 10.4799 38.12 10.4799C38.2664 10.4332 38.4236 10.4332 38.57 10.4799C38.4721 10.3658 38.345 10.2803 38.2024 10.2328C38.0597 10.1852 37.9068 10.1773 37.76 10.2099L37.71 10.1699Z" fill="white"/>
<path fill-rule="evenodd" clip-rule="evenodd" d="M35.0205 13.6504C35.1775 13.6443 35.3308 13.6013 35.4681 13.5249C35.6053 13.4484 35.7226 13.3407 35.8105 13.2105C36.2105 13.1205 36.4305 13.2105 36.4705 13.5505C36.5105 13.8905 36.2105 13.9604 36.2105 14.1004C36.2105 14.2404 36.5305 14.7804 36.3605 14.7804C36.1905 14.7804 36.0105 14.9905 35.5705 14.4605C35.1305 13.9305 35.0205 14.1904 35.0205 14.1904V13.6504Z" fill="white"/>
<path fill-rule="evenodd" clip-rule="evenodd" d="M35.96 15.15C35.805 15.0514 35.6831 14.9086 35.61 14.74C35.49 14.49 34.95 14.58 34.92 14.74C34.8396 15.2679 34.709 15.787 34.53 16.29C34.3834 16.7582 34.2698 17.236 34.19 17.72C34.11 17.9 34.71 18.18 34.71 18.18C34.8148 17.6627 35.0112 17.1682 35.29 16.72C35.6037 16.2328 35.8304 15.6948 35.96 15.13V15.15Z" fill="white"/>
<path fill-rule="evenodd" clip-rule="evenodd" d="M35.2005 13.0704C35.0144 12.9994 34.8492 12.8824 34.7205 12.7304C34.5905 12.5304 34.9805 12.4604 35.1105 12.5504C35.2405 12.6404 35.2105 12.8904 35.2005 13.0704Z" fill="white"/>
<path fill-rule="evenodd" clip-rule="evenodd" d="M34.9698 14.3101C34.8117 14.6317 34.6812 14.9663 34.5798 15.3101C34.5798 15.6301 34.3398 15.2401 34.3398 15.2401C34.4508 14.8996 34.581 14.5658 34.7298 14.2401C34.7998 14.1701 34.9698 14.2401 34.9698 14.2401V14.3101Z" fill="white"/>
<path fill-rule="evenodd" clip-rule="evenodd" d="M34.2601 15.7598C34.2601 15.7598 34.6301 15.7598 34.4801 16.0998C34.3301 16.4398 34.1401 16.2198 34.1401 16.2198C34.2189 16.0792 34.2602 15.9208 34.2601 15.7598Z" fill="white"/>
<path fill-rule="evenodd" clip-rule="evenodd" d="M34.2002 16.6504C34.026 17.2603 33.8957 17.8819 33.8102 18.5104C33.8102 18.9504 33.3902 18.2904 33.2402 18.2904C33.4402 17.7404 33.8802 16.6504 34.0302 16.6504H34.2002Z" fill="white"/>
<path fill-rule="evenodd" clip-rule="evenodd" d="M34.5803 18.4501C34.4076 18.3741 34.2434 18.2802 34.0903 18.1701C34.0203 18.0801 33.8503 18.9501 34.2403 18.9701C34.6303 18.9901 34.6503 18.8501 34.6303 18.5401L34.5803 18.4501Z" fill="white"/>
<path fill-rule="evenodd" clip-rule="evenodd" d="M36.6504 14.7402C36.6504 14.7402 35.6504 16.7402 35.4404 16.8802C35.7604 17.0602 36.2604 17.3802 36.4404 17.1502C36.7662 16.5424 37.0276 15.9023 37.2204 15.2402C37.2204 14.9402 36.9004 14.8702 36.6604 14.7402H36.6504Z" fill="white"/>
<path fill-rule="evenodd" clip-rule="evenodd" d="M34.9202 18.13C34.9202 18.13 35.0502 17.4 35.3002 17.4C35.5502 17.4 36.2002 17.26 36.5002 17.67C36.7298 17.7497 36.9456 17.8644 37.1402 18.01C37.3068 18.192 37.5347 18.3059 37.7802 18.33C37.9823 18.3358 38.1819 18.3764 38.3702 18.45C37.9821 18.4577 37.5948 18.4877 37.2102 18.54C36.9704 18.6739 36.7152 18.778 36.4502 18.85C35.9279 18.8212 35.4125 18.7168 34.9202 18.54L34.7002 18.38C35.4902 18.38 35.9402 18.63 36.1502 18.38C36.3602 18.13 34.9202 18.09 34.9202 18.09V18.13Z" fill="white"/>
<path fill-rule="evenodd" clip-rule="evenodd" d="M33.3501 17.6904C32.7884 17.7424 32.2243 17.7658 31.6602 17.7604C32.1438 17.9816 32.6551 18.1363 33.1801 18.2204C33.2801 18.2204 33.3501 17.6904 33.3501 17.6904Z" fill="white"/>
<path fill-rule="evenodd" clip-rule="evenodd" d="M29.7803 9.3501C29.8791 9.36723 29.9709 9.41202 30.0453 9.47928C30.1196 9.54654 30.1734 9.63352 30.2003 9.7301C30.2803 10.0701 29.9603 9.7301 29.9603 9.7301L29.7803 9.39011V9.3501Z" fill="white"/>
<path fill-rule="evenodd" clip-rule="evenodd" d="M33.2002 7.73019C33.2002 7.73019 32.8302 7.59019 32.8202 7.73019C32.8102 7.87019 33.0002 8.16018 33.0002 8.41018C33.0002 8.66018 33.0002 7.9102 33.1902 7.8602L33.2002 7.73019Z" fill="white"/>
<path fill-rule="evenodd" clip-rule="evenodd" d="M32.5103 12.9598C32.5103 12.9598 30.4003 12.7998 30.1003 12.7998C29.8003 12.7998 29.3904 13.9898 29.3004 14.3098L29.2204 14.6498C29.1704 14.5998 29.0903 14.7098 28.9803 14.8998C28.9447 14.9583 28.8967 15.0083 28.8397 15.0463C28.7827 15.0843 28.7181 15.1094 28.6503 15.1198C28.2092 15.2462 27.7415 15.2462 27.3004 15.1198C26.8104 14.8898 26.6604 15.9798 26.5804 15.9798C26.5004 15.9798 26.6404 16.9798 26.6404 16.9798C26.698 17.9119 26.8284 18.838 27.0304 19.7498C27.1604 19.7498 27.3804 19.6598 27.5504 20.2098C27.7204 20.7598 28.5504 20.7798 28.5504 20.7798V20.2798C28.5504 20.2798 28.4003 20.2798 28.2303 20.0298C28.0603 19.7798 27.8904 19.2498 27.5004 19.0298C27.1104 18.8098 27.6404 18.7798 27.6404 18.7798C27.5275 18.5238 27.3794 18.2848 27.2004 18.0698C26.8604 17.7798 27.0203 16.5298 27.1203 16.4398C27.2407 16.2682 27.3256 16.0745 27.3703 15.8698C27.3703 15.6598 28.8204 15.9798 29.1104 15.7298C29.4004 15.4798 29.4903 15.7298 29.2103 15.2798C28.9303 14.8298 30.4404 15.2098 30.4404 15.2098C30.8561 15.214 31.267 15.2989 31.6503 15.4598C32.3775 15.8225 33.0851 16.223 33.7704 16.6598C33.9804 16.8898 34.3603 14.4798 34.6003 14.0698C34.8403 13.6598 32.7804 12.9998 32.7804 12.9998C32.5309 13.7318 32.2336 14.4467 31.8904 15.1398C31.7804 15.1398 31.7504 15.0298 32.5304 12.9298L32.5103 12.9598Z" fill="white"/>
<path fill-rule="evenodd" clip-rule="evenodd" d="M31.63 16.9003C31.63 16.9003 30.97 16.6303 30.91 16.3303C30.85 16.0303 31.83 16.9003 31.98 16.9003C32.13 16.9003 31.98 17.4203 31.88 17.4903C31.78 17.5603 32.37 17.4203 32.46 17.4003C32.55 17.3803 33.38 17.4703 33.38 16.8103C33.1144 16.8264 32.8495 16.7686 32.6147 16.6433C32.3799 16.5179 32.1845 16.33 32.05 16.1003C31.5692 16.0255 31.1226 15.8057 30.77 15.4703C30.53 15.2603 29.77 15.4703 29.77 15.4703C29.77 15.4703 29.68 15.8103 30.52 15.7903C30.79 15.9503 30.9 16.0803 30.78 16.0803C30.0889 16.0089 29.391 16.0426 28.71 16.1803C28.4686 16.2229 28.2215 16.2229 27.98 16.1803C27.73 16.0903 27.34 16.7303 27.34 16.7303C27.223 17.0267 27.2055 17.3531 27.29 17.6603C27.744 18.3841 28.1322 19.1472 28.45 19.9403C28.7907 20.1496 29.1033 20.4017 29.38 20.6903C29.5 20.8703 29.73 20.8503 29.82 20.9603C29.91 21.0703 30.91 20.6403 30.91 20.6403C30.91 20.6403 30.84 19.4803 29.8 19.4603C29.63 19.6603 29.61 20.0303 29.41 19.8903C29.21 19.7503 29.46 19.5903 29.46 19.4103C29.46 19.2303 29.21 19.2503 29.14 19.2303C28.9741 19.1042 28.8517 18.9294 28.79 18.7303C28.624 18.425 28.419 18.1426 28.18 17.8903C28.18 17.8903 27.93 17.3403 28.71 17.5703C29.49 17.8003 29.46 18.3403 31.01 18.0903C31.1935 17.968 31.3448 17.8033 31.451 17.61C31.5572 17.4168 31.6152 17.2007 31.62 16.9803L31.63 16.9003Z" fill="white"/>
<path fill-rule="evenodd" clip-rule="evenodd" d="M36.8003 17.0704C37.0378 16.4378 37.2316 15.7896 37.3802 15.1304C37.3802 14.7904 38.2403 13.2704 38.2003 13.0004C38.7903 12.9504 42.1403 13.4704 42.7203 14.2904C43.3381 15.5111 43.6536 16.8623 43.6403 18.2304C43.0816 18.3897 42.5989 18.7446 42.2803 19.2304C41.9803 19.2304 41.3503 19.0104 41.1503 19.0104C40.9929 19.0266 40.8343 18.9965 40.6939 18.9236C40.5535 18.8508 40.4375 18.7384 40.3603 18.6004C40.0513 18.5674 39.7409 18.5508 39.4303 18.5504C39.2344 18.4964 39.051 18.4047 38.8903 18.2804C38.5713 18.019 38.1726 17.8743 37.7603 17.8704C37.4783 17.6017 37.135 17.4061 36.7603 17.3004L36.8003 17.0704Z" fill="white"/>
<path fill-rule="evenodd" clip-rule="evenodd" d="M38.3002 12.6198C38.3002 12.6198 41.5902 12.7598 42.7202 14.0598C42.2502 13.2098 40.1902 12.2998 38.3702 12.2998C38.2002 12.4898 38.3002 12.6198 38.3002 12.6198Z" fill="white"/>
<path fill-rule="evenodd" clip-rule="evenodd" d="M39.6201 18.7199C39.6201 18.7199 39.8901 19.5099 39.9901 19.7199C40.5061 20.322 41.2113 20.731 41.9901 20.8799C42.8001 20.9699 44.5901 21.0199 44.7201 21.1099C44.8501 21.1999 45.4101 22.9099 45.7201 23.2299C45.7201 23.6999 45.7201 23.9799 46.1601 24.1099C46.6001 24.2399 46.3501 24.8399 46.9501 25.1099C47.5501 25.3799 47.1201 24.8599 47.4701 24.8599C47.8201 24.8599 47.4701 24.9999 47.9501 24.8599C48.4301 24.7199 47.6401 23.5599 47.4701 23.4699C47.3001 23.3799 46.9501 23.8499 46.9501 23.8499C46.9501 23.8499 46.6501 24.1699 46.7201 23.2399C46.4101 22.7899 46.3801 23.0099 46.3101 22.6499C46.0197 21.5287 45.6418 20.4321 45.1801 19.3699C44.8301 18.7599 44.7601 19.5599 43.9701 19.2799C43.1801 18.9999 43.2301 18.7099 43.2301 18.7099C43.0794 18.8731 42.9039 19.0115 42.7101 19.1199C42.5401 19.1899 42.4401 19.6899 42.4401 19.6899C42.2125 19.5404 41.9673 19.4195 41.7101 19.3299C41.619 19.3047 41.5234 19.2998 41.4302 19.3153C41.3369 19.3309 41.2482 19.3665 41.1701 19.4199C41.1701 19.4199 40.9701 19.5999 40.3801 18.9899C39.9101 18.6699 39.9401 18.6699 39.7101 18.6699L39.6201 18.7199Z" fill="white"/>
<path fill-rule="evenodd" clip-rule="evenodd" d="M43.3701 18.72C43.5428 18.8063 43.704 18.9138 43.8501 19.04C43.928 19.0976 44.0186 19.1358 44.1142 19.1515C44.2099 19.1671 44.3079 19.1598 44.4001 19.13C44.4001 19.13 44.0001 18.13 43.4001 18.72H43.3701Z" fill="white"/>
<path fill-rule="evenodd" clip-rule="evenodd" d="M43.7803 21.27C43.9214 22.0271 44.0182 22.7917 44.0703 23.56C44.3303 23.9 44.5403 23.86 44.6003 24.18C44.6603 24.5 44.9403 24.72 45.1603 24.5C45.3803 24.28 45.3603 24.86 45.3603 24.86L45.8003 25.25C45.8003 25.25 45.9403 24.41 45.8003 24.31C45.5518 24.0064 45.3465 23.6699 45.1903 23.31C45.1303 23.54 44.9803 23.4 44.9103 22.99C44.8403 22.58 44.6003 21.74 44.6003 21.51C44.6003 21.28 43.7803 21.29 43.7803 21.29V21.27Z" fill="white"/>
<path fill-rule="evenodd" clip-rule="evenodd" d="M39.7202 19.3799C39.6164 19.1828 39.4652 19.0146 39.2801 18.8907C39.095 18.7667 38.8819 18.6908 38.6602 18.6699C38.6602 18.9899 38.8201 18.8499 38.9301 18.9899C39.0401 19.1299 39.4001 19.3299 39.4001 19.5099C39.4001 19.6899 39.7202 19.8299 39.7202 19.3799Z" fill="white"/>
<path fill-rule="evenodd" clip-rule="evenodd" d="M43.02 14.0097C43.02 14.0097 43.32 14.4397 43.36 14.4597C43.4563 14.5497 43.5832 14.5998 43.715 14.5998C43.8468 14.5998 43.9737 14.5497 44.07 14.4597C44.15 14.6197 44.28 14.7597 44.37 14.9197C44.4919 15.1868 44.5761 15.4695 44.62 15.7597C44.77 16.7097 45.33 17.8697 46.51 17.8697C46.7494 17.9245 46.9811 18.0085 47.2 18.1197C47.1822 17.9727 47.1169 17.8356 47.014 17.7291C46.9111 17.6226 46.7763 17.5526 46.63 17.5297C46.8646 17.3489 47.1539 17.2537 47.45 17.2597C47.6245 17.2911 47.79 17.3602 47.9351 17.4621C48.0801 17.564 48.2013 17.6963 48.29 17.8497C48.29 17.8497 48.7 17.8497 47.79 16.8497C47.22 16.5697 46.79 16.5097 46.74 16.3197C47.13 16.2597 47.52 16.1397 47.92 16.5697C48.32 16.9997 48.29 17.1897 48.7 17.1897C48.5299 16.8981 48.3988 16.5855 48.31 16.2597C48.18 15.8897 47.74 15.7797 47.1 15.9397C46.46 16.0997 46.49 15.9397 46.49 15.9397L46.56 16.2097C46.56 16.2097 45.85 16.3197 45.56 15.2097C45.4825 15.0926 45.4156 14.9687 45.36 14.8397C45.5555 14.9597 45.7038 15.1434 45.78 15.3597C45.85 15.5197 46.13 15.6397 46.25 15.6797C46.67 15.8397 47.06 15.4997 47.48 15.5497C47.7938 15.6119 48.0926 15.7341 48.36 15.9097C48.3312 15.7292 48.2612 15.5576 48.1554 15.4085C48.0497 15.2593 47.9109 15.1366 47.75 15.0497C47.52 15.0497 47.43 15.1597 47.11 15.2097C46.79 15.2597 46.2 15.2997 45.31 13.9997C44.9609 13.7909 44.5618 13.6807 44.155 13.6807C43.7482 13.6807 43.3491 13.7909 43 13.9997L43.02 14.0097Z" fill="white"/>
<path fill-rule="evenodd" clip-rule="evenodd" d="M30.45 12.4601C30.45 12.5801 30.35 12.6401 30.21 12.6401C30.1842 12.6428 30.1582 12.6403 30.1335 12.6326C30.1087 12.6249 30.0858 12.6123 30.0661 12.5954C30.0465 12.5785 30.0305 12.5579 30.0191 12.5346C30.0077 12.5113 30.0012 12.486 30 12.4601C30.0073 12.4097 30.0326 12.3637 30.0712 12.3306C30.1098 12.2975 30.1591 12.2795 30.21 12.2801C30.2653 12.2741 30.3209 12.2894 30.3654 12.3228C30.41 12.3562 30.4402 12.4053 30.45 12.4601Z" fill="white"/>
<path fill-rule="evenodd" clip-rule="evenodd" d="M30.8003 12.2999C30.8003 12.3899 30.8003 12.4599 30.6703 12.4599C30.6314 12.455 30.5957 12.436 30.5699 12.4065C30.5441 12.377 30.53 12.3391 30.5303 12.2999C30.5349 12.2654 30.5514 12.2335 30.5769 12.2097C30.6025 12.186 30.6355 12.1719 30.6703 12.1699C30.7048 12.1699 30.7378 12.1836 30.7622 12.208C30.7866 12.2324 30.8003 12.2654 30.8003 12.2999Z" fill="white"/>
<path fill-rule="evenodd" clip-rule="evenodd" d="M31.28 12.3299C31.28 12.4199 31.21 12.5099 31.16 12.5099C31.11 12.5099 31.04 12.4199 31.04 12.3299C31.04 12.2399 31.04 12.1699 31.16 12.1699C31.1953 12.179 31.2263 12.1998 31.2481 12.2289C31.2699 12.2579 31.2812 12.2936 31.28 12.3299Z" fill="white"/>
<path fill-rule="evenodd" clip-rule="evenodd" d="M31.7602 12.3303C31.7615 12.3526 31.7585 12.375 31.7511 12.3961C31.7438 12.4173 31.7324 12.4368 31.7175 12.4535C31.7027 12.4702 31.6847 12.4838 31.6645 12.4936C31.6444 12.5033 31.6225 12.509 31.6002 12.5103C31.5542 12.5077 31.5109 12.4876 31.4793 12.4542C31.4477 12.4207 31.4301 12.3763 31.4302 12.3303C31.4327 12.287 31.4518 12.2462 31.4834 12.2165C31.515 12.1867 31.5568 12.1702 31.6002 12.1703C31.6216 12.1688 31.643 12.1719 31.6631 12.1794C31.6832 12.187 31.7014 12.1987 31.7166 12.2139C31.7318 12.229 31.7435 12.2472 31.751 12.2673C31.7585 12.2874 31.7617 12.3089 31.7602 12.3303Z" fill="white"/>
<path fill-rule="evenodd" clip-rule="evenodd" d="M32.2904 12.3898C32.2904 12.4598 32.2004 12.5298 32.1004 12.5298C32.0004 12.5298 31.9004 12.4598 31.9004 12.3898C31.9004 12.3198 32.0004 12.2598 32.1004 12.2598C32.2004 12.2598 32.2904 12.2598 32.2904 12.3898Z" fill="white"/>
<path fill-rule="evenodd" clip-rule="evenodd" d="M32.7803 12.4603C32.7816 12.4834 32.7783 12.5066 32.7703 12.5284C32.7624 12.5502 32.7501 12.5701 32.7342 12.587C32.7182 12.6039 32.699 12.6173 32.6777 12.6265C32.6564 12.6356 32.6335 12.6403 32.6103 12.6403C32.5866 12.642 32.5629 12.6384 32.5409 12.6298C32.5188 12.6212 32.4989 12.6078 32.4826 12.5905C32.4664 12.5733 32.4541 12.5527 32.4468 12.5302C32.4395 12.5077 32.4373 12.4838 32.4403 12.4603C32.4402 12.4142 32.4578 12.3699 32.4894 12.3364C32.521 12.3029 32.5643 12.2828 32.6103 12.2803C32.6554 12.285 32.6974 12.3058 32.7286 12.3388C32.7598 12.3718 32.7781 12.4149 32.7803 12.4603Z" fill="white"/>
<path fill-rule="evenodd" clip-rule="evenodd" d="M33.25 12.8301C33.25 12.9401 33.18 13.0301 33.1 13.0301C33.0514 13.0251 33.0066 13.0015 32.9749 12.9642C32.9433 12.927 32.9272 12.8789 32.93 12.8301C32.9297 12.783 32.947 12.7375 32.9784 12.7024C33.0098 12.6673 33.0532 12.6451 33.1 12.6401C33.18 12.6401 33.25 12.7401 33.25 12.8301Z" fill="white"/>
<path fill-rule="evenodd" clip-rule="evenodd" d="M33.6699 12.9403C33.6699 13.0303 33.5999 13.1203 33.5299 13.1203C33.4599 13.1203 33.4199 13.0303 33.4199 12.9403C33.4199 12.8503 33.4699 12.7803 33.5299 12.7803C33.5688 12.7852 33.6045 12.8042 33.6303 12.8337C33.6561 12.8632 33.6702 12.9011 33.6699 12.9403Z" fill="white"/>
<path fill-rule="evenodd" clip-rule="evenodd" d="M34.09 13.2101C34.0851 13.2455 34.0667 13.2776 34.0389 13.2999C34.011 13.3222 33.9756 13.333 33.94 13.3301C33.85 13.3301 33.79 13.2801 33.79 13.2101C33.79 13.1401 33.85 13.1201 33.94 13.1201C34.03 13.1201 34.09 13.1701 34.09 13.2101Z" fill="white"/>
<path fill-rule="evenodd" clip-rule="evenodd" d="M34.0703 13.3702C34.0703 13.4602 34.1703 13.5102 34.2903 13.5102C34.4103 13.5102 34.5103 13.4602 34.5103 13.3702C34.5103 13.2802 34.4103 13.2402 34.2903 13.2402C34.1703 13.2402 34.0703 13.3002 34.0703 13.3702Z" fill="white"/>
<path fill-rule="evenodd" clip-rule="evenodd" d="M34.8804 13.6502C34.8768 13.6818 34.8632 13.7114 34.8416 13.7348C34.82 13.7582 34.7916 13.7741 34.7604 13.7802C34.7295 13.7754 34.7014 13.7596 34.6811 13.7357C34.6609 13.7119 34.65 13.6815 34.6504 13.6502C34.6504 13.5502 34.7004 13.4902 34.7604 13.4902C34.7966 13.4975 34.8288 13.5178 34.851 13.5473C34.8731 13.5768 34.8836 13.6134 34.8804 13.6502Z" fill="white"/>
<path fill-rule="evenodd" clip-rule="evenodd" d="M36.4703 4.96005C35.6385 4.74118 34.771 4.69353 33.9203 4.82004C33.7203 5.46004 33.5503 5.82004 33.4803 6.07004C33.8903 6.12004 34.1203 6.07003 34.1203 6.34003C34.1203 6.61003 33.5203 7.21003 33.2803 7.50003C33.3103 8.57437 33.4476 9.64303 33.6903 10.69C34.2403 10.35 35.5903 9.45004 36.4503 5.04004L36.5403 5.16003C36.3226 6.27203 36.0081 7.36287 35.6003 8.42004C35.2594 9.39064 34.6229 10.23 33.7803 10.82V10.89C34.627 10.2865 35.269 9.43868 35.6203 8.46005C36.0359 7.39098 36.3539 6.28646 36.5703 5.16003L36.4803 5.03003L36.4703 4.96005Z" fill="white"/>
</svg>
