<svg width="55" height="32" viewBox="0 0 55 32" fill="none" xmlns="http://www.w3.org/2000/svg">
<path d="M6.3999 11.832V16.392L10.3899 14.112L6.3999 11.832Z" fill="white"/>
<path d="M4.40018 25.1416C4.40018 24.8764 4.50552 24.6221 4.69305 24.4345C4.88059 24.247 5.13496 24.1416 5.40018 24.1416H14.8602C16.0714 24.139 17.2322 23.6567 18.0887 22.8002C18.9452 21.9437 19.4275 20.7828 19.4302 19.5716C19.3567 18.565 18.9952 17.6009 18.3888 16.7941C17.7824 15.9873 16.9567 15.372 16.0102 15.0216C15.859 14.9544 15.7269 14.8506 15.6256 14.7197C15.5244 14.5888 15.4573 14.4349 15.4302 14.2716C15.4042 14.1068 15.4199 13.9382 15.4758 13.781C15.5317 13.6238 15.626 13.483 15.7502 13.3716C16.2713 12.9013 16.689 12.3277 16.9765 11.6873C17.264 11.0469 17.4151 10.3536 17.4202 9.65163C17.3915 8.70901 16.9961 7.81477 16.3182 7.15923C15.6402 6.50369 14.7332 6.13858 13.7902 6.14162H6.40018V9.57164L12.9102 13.2916C13.0641 13.3789 13.1921 13.5053 13.2811 13.6582C13.3702 13.811 13.4171 13.9847 13.4171 14.1616C13.4171 14.3385 13.3702 14.5122 13.2811 14.6651C13.1921 14.8179 13.0641 14.9444 12.9102 15.0316L5.91016 19.0316C5.75814 19.1194 5.58569 19.1656 5.41016 19.1656C5.23462 19.1656 5.06218 19.1194 4.91016 19.0316C4.75755 18.9435 4.63096 18.8167 4.54315 18.6639C4.45535 18.5111 4.40946 18.3379 4.41016 18.1616V10.6516L2.41016 9.51162V20.1016C2.41016 20.3669 2.30482 20.6212 2.11728 20.8087C1.92974 20.9963 1.67537 21.1016 1.41016 21.1016C1.14494 21.1016 0.8906 20.9963 0.703064 20.8087C0.515528 20.6212 0.410156 20.3669 0.410156 20.1016V28.1016C0.410554 28.6259 0.548355 29.1409 0.809784 29.5954C1.07121 30.0498 1.44716 30.4277 1.90018 30.6916C2.35393 30.9613 2.87231 31.1031 3.40018 31.1016C3.91893 31.1018 4.42884 30.9674 4.88016 30.7116L13.0102 26.0916H5.42017C5.15995 26.0972 4.90784 26.001 4.71738 25.8236C4.52692 25.6462 4.41313 25.4016 4.40018 25.1416Z" fill="white"/>
<path d="M26.9198 13.0119L19.3198 8.69189C19.3832 8.99116 19.4167 9.296 19.4198 9.6019C19.4256 11.1313 18.9303 12.6205 18.0098 13.8419C19.0148 14.4325 19.8543 15.2674 20.4504 16.2691C21.0466 17.2708 21.38 18.4069 21.4198 19.5719C21.421 20.2294 21.3233 20.8834 21.1298 21.5119L26.9198 18.2119C27.3767 17.9488 27.7563 17.57 28.0202 17.1136C28.2842 16.6571 28.4231 16.1391 28.4231 15.6119C28.4231 15.0846 28.2842 14.5667 28.0202 14.1102C27.7563 13.6538 27.3767 13.2749 26.9198 13.0119Z" fill="white"/>
<path d="M1.09012 7.28177C1.30109 7.15878 1.54089 7.09396 1.7851 7.09396C2.0293 7.09396 2.26913 7.15878 2.4801 7.28177L4.40012 8.37177V5.09177C4.40012 4.82655 4.50546 4.57218 4.69299 4.38464C4.88053 4.19711 5.1349 4.09177 5.40012 4.09177H11.2301L4.86011 0.48175C4.40611 0.212429 3.88798 0.0703125 3.36011 0.0703125C2.83224 0.0703125 2.3141 0.212429 1.86011 0.48175C1.40709 0.74563 1.03114 1.12363 0.769714 1.57806C0.508285 2.03249 0.370515 2.54751 0.370117 3.07178V8.49176C0.372556 8.24445 0.440455 8.00221 0.566925 7.78967C0.693395 7.57713 0.873923 7.40188 1.09012 7.28177Z" fill="white"/>
<path d="M34.64 8.26202C34.6488 7.93357 34.5443 7.61212 34.3439 7.35168C34.1436 7.09125 33.8597 6.90774 33.54 6.83203C33.7596 6.72128 33.9437 6.55094 34.071 6.34048C34.1983 6.13003 34.2638 5.88797 34.26 5.64203C34.26 4.64203 33.55 4.08203 32.26 4.08203H29.48V9.90204H32.41C33.73 9.90204 34.64 9.34202 34.64 8.26202ZM31.08 5.34204H31.98C32.38 5.34204 32.6 5.54205 32.6 5.85205C32.6 6.16205 32.39 6.36203 31.98 6.36203H31.08V5.34204ZM31.08 8.64203V7.55203H32.31C32.73 7.55203 32.97 7.75204 32.97 8.09204C32.97 8.43204 32.73 8.64203 32.31 8.64203H31.08Z" fill="white"/>
<path d="M37.5498 7.10196L36.4498 7.35196C35.4498 7.57196 35.0498 8.04194 35.0498 8.74194C35.0498 9.46194 35.6098 10.002 36.5698 10.002C36.8008 10.0182 37.0323 9.97853 37.2447 9.88626C37.4571 9.794 37.644 9.65188 37.7898 9.47195C37.8498 9.38195 37.8798 9.34195 37.9298 9.34195C37.9798 9.34195 38.0098 9.34194 38.0398 9.45194C38.1236 9.63908 38.2675 9.79289 38.4487 9.88892C38.6298 9.98494 38.8379 10.0177 39.0398 9.98193C39.2588 9.98007 39.4769 9.95324 39.6898 9.90195V8.75195H39.5398C39.3698 8.75195 39.2898 8.68194 39.2898 8.52194V7.15195C39.3242 6.89252 39.2975 6.62865 39.2119 6.38135C39.1263 6.13405 38.9841 5.91015 38.7966 5.72754C38.6092 5.54493 38.3817 5.40866 38.1322 5.32956C37.8827 5.25046 37.6182 5.23073 37.3598 5.27194C36.9081 5.25294 36.4597 5.35628 36.062 5.57102C35.6642 5.78575 35.3317 6.10392 35.0998 6.49194L36.2098 7.15195C36.319 6.95872 36.4774 6.79775 36.6688 6.68536C36.8602 6.57298 37.0778 6.51315 37.2998 6.51193C37.6698 6.51193 37.8298 6.63195 37.8298 6.84195C37.8298 7.05195 37.7398 7.05196 37.5498 7.10196ZM37.8098 7.97196C37.8098 8.63196 37.4398 8.90195 36.9898 8.90195C36.6998 8.90195 36.5298 8.74194 36.5298 8.55194C36.5298 8.36194 36.6798 8.23194 36.9398 8.17194L37.5098 8.05194C37.6698 8.05194 37.7598 7.97194 37.8098 7.89194V7.97196Z" fill="white"/>
<path d="M42.3099 10.0419C43.7299 10.0419 44.4899 9.33185 44.4899 8.11185V5.40186H42.9199V7.99185C42.9199 8.44185 42.6899 8.69186 42.2999 8.69186C41.9099 8.69186 41.6899 8.44185 41.6899 7.99185V5.40186H40.1299V8.11185C40.1399 9.33185 40.9199 10.0419 42.3099 10.0419Z" fill="white"/>
<path d="M48.4096 8.29178C48.3061 8.43773 48.1677 8.55536 48.0069 8.63398C47.8462 8.71259 47.6683 8.74965 47.4896 8.74176C47.2633 8.77679 47.0323 8.72223 46.8456 8.58966C46.6588 8.45709 46.5311 8.25696 46.4896 8.03177H49.6096V7.65177C49.6336 7.34377 49.5925 7.03416 49.4889 6.74311C49.3853 6.45205 49.2216 6.18607 49.0084 5.9625C48.7952 5.73892 48.5373 5.56276 48.2515 5.44547C47.9657 5.32818 47.6584 5.27241 47.3496 5.28177C46.7237 5.29636 46.1292 5.55897 45.6969 6.01187C45.2647 6.46477 45.03 7.07087 45.0446 7.69678C45.0592 8.32269 45.3218 8.91716 45.7747 9.34943C46.2276 9.7817 46.8337 10.0164 47.4596 10.0018C47.8418 10.0167 48.2222 9.94112 48.5697 9.78125C48.9173 9.62139 49.2221 9.38171 49.4596 9.08176L48.4096 8.29178ZM47.4096 6.48175C47.5859 6.46962 47.7609 6.52017 47.9036 6.62445C48.0463 6.72874 48.1476 6.88007 48.1896 7.05176H46.5996C46.6462 6.88464 46.7473 6.73785 46.8867 6.63462C47.0262 6.53138 47.1961 6.47759 47.3696 6.48175H47.4096Z" fill="white"/>
<path d="M51.78 7.85184C51.78 7.18184 52.08 6.85184 52.71 6.85184H53.04V5.28183C52.837 5.27522 52.636 5.32499 52.4595 5.4256C52.283 5.52621 52.1378 5.67375 52.04 5.85184C51.95 5.99184 51.9301 6.02182 51.8801 6.02182C51.8301 6.02182 51.8201 6.02184 51.8201 5.94184V5.36182H50.27V9.86182H51.8201L51.78 7.85184Z" fill="white"/>
<path d="M32.7 14.6519L30.7699 12.2119H29.46V18.0219H30.92V14.6919L32.5 16.6919C32.56 16.7719 32.5999 16.7919 32.6499 16.7919C32.6999 16.7919 32.74 16.7919 32.8 16.6919L34.31 14.7519V18.0219H35.8V12.2119H34.5299L32.7 14.6519Z" fill="white"/>
<path d="M40.8399 17.2318L39.7499 16.4318C39.6491 16.5788 39.5129 16.698 39.3539 16.7784C39.1948 16.8588 39.018 16.8978 38.8399 16.8918C38.6132 16.9295 38.3809 16.876 38.1935 16.743C38.0062 16.61 37.879 16.4082 37.8399 16.1818H40.9499V15.8118C40.9755 15.5034 40.9355 15.1932 40.8325 14.9014C40.7295 14.6096 40.5659 14.343 40.3523 14.1191C40.1388 13.8952 39.8803 13.719 39.5937 13.6023C39.3072 13.4855 38.9991 13.4308 38.6899 13.4418C38.38 13.449 38.0745 13.5172 37.7909 13.6425C37.5074 13.7678 37.2512 13.9477 37.0372 14.1719C36.8232 14.3962 36.6554 14.6604 36.5435 14.9495C36.4316 15.2386 36.3777 15.5469 36.3849 15.8568C36.3921 16.1667 36.4603 16.4722 36.5856 16.7557C36.7109 17.0393 36.8908 17.2954 37.115 17.5095C37.3393 17.7235 37.6035 17.8912 37.8925 18.0032C38.1816 18.1151 38.49 18.169 38.7999 18.1618C39.1895 18.1811 39.5781 18.1068 39.933 17.9449C40.288 17.7831 40.5989 17.5386 40.8399 17.2318ZM38.7099 14.6318C38.8875 14.6192 39.0638 14.6694 39.2082 14.7736C39.3526 14.8778 39.4558 15.0293 39.4999 15.2018H37.9199C37.974 15.0368 38.0804 14.8939 38.2229 14.7947C38.3654 14.6955 38.5363 14.6453 38.7099 14.6518V14.6318Z" fill="white"/>
<path d="M41.48 15.8018C41.4453 16.0906 41.4704 16.3835 41.5538 16.6621C41.6372 16.9408 41.777 17.1994 41.9646 17.4217C42.1522 17.644 42.3836 17.8253 42.6443 17.9544C42.9049 18.0834 43.1894 18.1575 43.48 18.1718C43.843 18.1698 44.1949 18.0466 44.48 17.8218C44.57 17.7518 44.62 17.7118 44.67 17.7118C44.6801 17.7117 44.69 17.7138 44.6992 17.7179C44.7085 17.7221 44.7167 17.7281 44.7234 17.7357C44.73 17.7433 44.735 17.7522 44.7378 17.7619C44.7407 17.7716 44.7414 17.7818 44.74 17.7918V18.0418H46.2899V11.8818H44.74V13.8118C44.7414 13.8218 44.7407 13.832 44.7378 13.8417C44.735 13.8514 44.73 13.8603 44.7234 13.8679C44.7167 13.8755 44.7085 13.8816 44.6992 13.8857C44.69 13.8898 44.6801 13.8919 44.67 13.8918C44.67 13.8918 44.57 13.8918 44.48 13.7818C44.1981 13.5513 43.844 13.4274 43.48 13.4318C43.1894 13.4462 42.9049 13.5202 42.6443 13.6493C42.3836 13.7783 42.1522 13.9597 41.9646 14.182C41.777 14.4043 41.6372 14.6628 41.5538 14.9415C41.4704 15.2202 41.4453 15.513 41.48 15.8018ZM44.87 15.8018C44.8858 15.9284 44.8741 16.057 44.8359 16.1787C44.7977 16.3004 44.7337 16.4125 44.6483 16.5074C44.563 16.6022 44.4582 16.6776 44.3412 16.7284C44.2241 16.7792 44.0975 16.8043 43.9699 16.8018C43.8412 16.8055 43.7131 16.7815 43.5945 16.7314C43.4758 16.6813 43.3692 16.6063 43.282 16.5115C43.1948 16.4167 43.1289 16.3043 43.0889 16.1819C43.0489 16.0594 43.0356 15.9298 43.05 15.8018C43.0373 15.6741 43.0517 15.5452 43.0923 15.4235C43.133 15.3018 43.1989 15.19 43.2858 15.0956C43.3727 15.0011 43.4786 14.9261 43.5965 14.8755C43.7144 14.8249 43.8416 14.7998 43.9699 14.8018C44.1012 14.7937 44.2326 14.8144 44.355 14.8625C44.4773 14.9106 44.5876 14.9849 44.6782 15.0802C44.7687 15.1756 44.8374 15.2895 44.8791 15.4142C44.9209 15.5389 44.9348 15.6712 44.92 15.8018H44.87Z" fill="white"/>
<path d="M48.8298 13.5518H47.2798V18.0418H48.8298V13.5518Z" fill="white"/>
<path d="M48.0599 11.5919C47.906 11.6074 47.7599 11.6671 47.6393 11.7639C47.5186 11.8606 47.4286 11.9903 47.3802 12.1371C47.3317 12.284 47.3268 12.4417 47.3661 12.5913C47.4054 12.7409 47.4873 12.8758 47.6017 12.9798C47.7162 13.0839 47.8583 13.1525 48.0109 13.1774C48.1635 13.2023 48.3201 13.1825 48.4616 13.1203C48.6032 13.0581 48.7238 12.9562 48.8086 12.8269C48.8935 12.6976 48.9391 12.5465 48.9399 12.3919C48.9404 12.2797 48.9174 12.1688 48.8723 12.0661C48.8272 11.9634 48.761 11.8714 48.678 11.7959C48.595 11.7205 48.4971 11.6634 48.3906 11.6282C48.2841 11.5931 48.1714 11.5807 48.0599 11.5919Z" fill="white"/>
<path d="M50.6698 15.2916C50.7785 15.0972 50.9365 14.9348 51.1278 14.8207C51.3191 14.7066 51.5371 14.6448 51.7598 14.6416C52.1298 14.6416 52.2998 14.7716 52.2998 14.9816C52.2998 15.1916 52.2298 15.2016 52.0298 15.2416L50.9298 15.5016C49.9298 15.7216 49.5298 16.1916 49.5298 16.8816C49.5298 17.5916 50.0898 18.1416 51.0598 18.1416C51.2903 18.1576 51.5212 18.1167 51.7322 18.0226C51.9432 17.9284 52.1278 17.7839 52.2698 17.6016C52.3298 17.5216 52.3598 17.4816 52.4098 17.4816C52.4598 17.4816 52.4898 17.4816 52.5298 17.5916C52.6121 17.7799 52.7558 17.9347 52.9374 18.031C53.119 18.1272 53.3277 18.1591 53.5298 18.1216C53.752 18.119 53.9734 18.0922 54.1898 18.0416V16.8816H54.0398C53.8598 16.8816 53.7798 16.8216 53.7798 16.6516V15.2916C53.8142 15.0322 53.7876 14.7683 53.702 14.521C53.6163 14.2737 53.4741 14.0498 53.2866 13.8672C53.0992 13.6846 52.8717 13.5483 52.6222 13.4692C52.3727 13.3901 52.1082 13.3704 51.8498 13.4116C51.3978 13.3904 50.9485 13.4928 50.5504 13.7077C50.1522 13.9227 49.8201 14.2421 49.5898 14.6316L50.6698 15.2916ZM52.2998 16.1116C52.2998 16.7816 51.9298 17.0516 51.4798 17.0516C51.1898 17.0516 51.0098 16.8916 51.0098 16.7016C51.0098 16.5116 51.1598 16.3816 51.4198 16.3216L51.9898 16.1916C52.1076 16.1799 52.2175 16.1267 52.2998 16.0416V16.1116Z" fill="white"/>
<path d="M32.52 22.9821C32.5248 23.0182 32.537 23.0528 32.556 23.0838C32.5749 23.1148 32.6002 23.1415 32.6301 23.1621L33.5601 24.0421C33.4406 24.2836 33.2526 24.4844 33.0196 24.6196C32.7866 24.7548 32.519 24.8183 32.2501 24.8022C31.8514 24.7705 31.4794 24.5897 31.2081 24.296C30.9368 24.0022 30.786 23.617 30.786 23.2171C30.786 22.8172 30.9368 22.432 31.2081 22.1383C31.4794 21.8445 31.8514 21.6638 32.2501 21.6321C32.5189 21.6169 32.7864 21.6796 33.0205 21.8126C33.2546 21.9457 33.4455 22.1434 33.5701 22.3821L34.9201 21.6521C34.6388 21.1952 34.242 20.8205 33.7697 20.5659C33.2974 20.3114 32.7664 20.1858 32.2301 20.2021C31.8178 20.1786 31.4051 20.2405 31.0178 20.3839C30.6306 20.5273 30.2771 20.7491 29.9796 21.0354C29.682 21.3217 29.4467 21.6664 29.2885 22.0478C29.1303 22.4292 29.0525 22.8392 29.0601 23.2521C29.0594 23.6608 29.1423 24.0653 29.3035 24.4408C29.4648 24.8163 29.7011 25.155 29.9979 25.4359C30.2948 25.7168 30.6459 25.9341 31.0297 26.0745C31.4136 26.2149 31.822 26.2753 32.2301 26.2521C32.6491 26.271 33.0672 26.1986 33.4554 26.0396C33.8436 25.8807 34.1926 25.6392 34.478 25.3318C34.7635 25.0245 34.9786 24.6586 35.1085 24.2598C35.2383 23.8609 35.2798 23.4386 35.2301 23.0221V22.8221H32.6301C32.5701 22.8421 32.52 22.9121 32.52 22.9821Z" fill="white"/>
<path d="M38.6299 21.5616C38.4277 21.5528 38.227 21.6007 38.0504 21.6996C37.8737 21.7985 37.7282 21.9446 37.6299 22.1216C37.5399 22.2616 37.5099 22.2916 37.4699 22.2916C37.4299 22.2916 37.4099 22.2916 37.4099 22.2116V21.6516H35.9199V26.1416H37.4699V24.1416C37.4699 23.4716 37.7699 23.1416 38.3899 23.1416H38.7299V21.5716L38.6299 21.5616Z" fill="white"/>
<path d="M41.3601 21.5219C40.8962 21.5435 40.4489 21.7008 40.0737 21.9745C39.6985 22.2481 39.4119 22.6259 39.2496 23.0609C39.0873 23.496 39.0564 23.9692 39.1607 24.4217C39.265 24.8742 39.4999 25.2861 39.8363 25.6062C40.1727 25.9264 40.5957 26.1406 41.0528 26.2224C41.5099 26.3041 41.981 26.2498 42.4076 26.0661C42.8341 25.8824 43.1972 25.5775 43.4519 25.1892C43.7065 24.8009 43.8415 24.3463 43.84 23.8819C43.8449 23.5604 43.783 23.2413 43.6585 22.9449C43.534 22.6484 43.3495 22.3809 43.1165 22.1592C42.8836 21.9375 42.6072 21.7664 42.3049 21.6568C42.0027 21.5471 41.681 21.5012 41.3601 21.5219ZM41.3601 24.8819C41.1602 24.8939 40.9612 24.8457 40.7891 24.7434C40.6169 24.6411 40.4795 24.4894 40.3945 24.308C40.3096 24.1267 40.281 23.924 40.3125 23.7262C40.3441 23.5285 40.4343 23.3447 40.5714 23.1988C40.7086 23.0529 40.8864 22.9516 41.0819 22.9079C41.2773 22.8642 41.4813 22.8801 41.6676 22.9537C41.8538 23.0273 42.0137 23.1552 42.1265 23.3206C42.2393 23.4861 42.2997 23.6817 42.3001 23.8819C42.313 24.0113 42.2981 24.142 42.2562 24.2652C42.2144 24.3883 42.1467 24.5011 42.0576 24.5959C41.9686 24.6906 41.8602 24.7652 41.7399 24.8145C41.6196 24.8639 41.49 24.8869 41.3601 24.8819Z" fill="white"/>
<path d="M47.08 24.2319C47.08 24.6819 46.85 24.9219 46.46 24.9219C46.07 24.9219 45.85 24.6819 45.85 24.2319V21.6519H44.29V24.3519C44.29 25.5719 45.04 26.2819 46.46 26.2819C47.88 26.2819 48.64 25.5719 48.64 24.3519V21.6519H47.08V24.2319Z" fill="white"/>
<path d="M52.1699 21.5117C51.8048 21.5118 51.4512 21.6391 51.1699 21.8717C51.0799 21.9417 51.0399 21.9717 50.9799 21.9717C50.9199 21.9717 50.9099 21.9717 50.9099 21.8917V21.6517H49.3599V27.9017H50.9199V25.9017C50.9199 25.8417 50.9199 25.8217 50.9899 25.8217C51.0599 25.8217 51.0899 25.8218 51.1799 25.9218C51.4612 26.1544 51.8148 26.2816 52.1799 26.2817C52.7505 26.1987 53.2722 25.913 53.6495 25.4769C54.0267 25.0407 54.2344 24.4834 54.2344 23.9067C54.2344 23.3301 54.0267 22.7727 53.6495 22.3365C53.2722 21.9004 52.7505 21.6148 52.1799 21.5317L52.1699 21.5117ZM51.7098 24.8917C51.5827 24.8925 51.457 24.8664 51.3407 24.815C51.2244 24.7637 51.1204 24.6883 51.0353 24.5938C50.9503 24.4993 50.8863 24.3879 50.8474 24.2669C50.8086 24.1459 50.7958 24.018 50.8099 23.8917C50.7941 23.7651 50.8057 23.6366 50.8439 23.5148C50.8822 23.3931 50.9461 23.2811 51.0315 23.1862C51.1169 23.0914 51.2216 23.016 51.3386 22.9651C51.4557 22.9143 51.5823 22.8893 51.7098 22.8917C51.9751 22.8917 52.2295 22.9971 52.417 23.1846C52.6045 23.3722 52.7098 23.6265 52.7098 23.8917C52.7098 24.1569 52.6045 24.4113 52.417 24.5988C52.2295 24.7864 51.9751 24.8917 51.7098 24.8917Z" fill="white"/>
</svg>
