<svg width="62" height="25" viewBox="0 0 62 25" fill="none" xmlns="http://www.w3.org/2000/svg">
<path d="M17.3997 0.97168C17.3865 1.03919 17.3698 1.10596 17.3496 1.17169C16.4721 3.85754 15.0065 6.31384 13.0597 8.36169C11.8017 9.69 10.3359 10.8046 8.71964 11.6617C8.15217 11.953 7.5678 12.2101 6.96964 12.4316L6.81964 12.4916L6.92966 12.5516C9.0641 13.3396 11.002 14.5816 12.6096 16.1917C14.7768 18.3059 16.3997 20.9136 17.3397 23.7917C17.3703 23.8659 17.3937 23.9429 17.4096 24.0217H14.5897C14.5671 23.9704 14.5503 23.9167 14.5396 23.8617C13.5827 20.9541 11.8297 18.3731 9.47964 16.4117C7.96566 15.1284 6.18647 14.1961 4.26965 13.6816C3.28985 13.4257 2.28228 13.2914 1.26965 13.2817C1.13965 13.2817 1.01965 13.2817 0.889648 13.2817V11.7917C1.02282 11.7823 1.15647 11.7823 1.28964 11.7917C2.13794 11.7819 2.98277 11.6813 3.80966 11.4916C5.46362 11.1197 7.02719 10.4229 8.40964 9.44165C11.0037 7.62369 13.0038 5.08092 14.1596 2.13165C14.2996 1.77165 14.4096 1.41164 14.5396 1.05164L17.3997 0.97168Z" fill="white"/>
<path d="M11.8597 0.971436C11.7697 1.21144 11.6797 1.45141 11.5797 1.69141C10.3715 4.74163 8.11691 7.26209 5.21967 8.80139C4.0808 9.41367 2.84684 9.82955 1.56967 10.0314L1.06967 10.1014H0.929688V8.46143C2.97809 7.99461 4.85115 6.95401 6.32968 5.46143C7.5883 4.24269 8.56749 2.76535 9.19968 1.13141C9.19968 1.07141 9.19966 1.00141 9.24966 0.941406L11.8597 0.971436Z" fill="white"/>
<path d="M0.929688 14.9118C0.986251 14.907 1.04311 14.907 1.09967 14.9118C2.3917 15.0595 3.64945 15.4246 4.81967 15.9918C6.8505 16.9837 8.60301 18.4648 9.91968 20.3018C10.7042 21.3805 11.3305 22.5658 11.7797 23.8218L11.8297 23.9918H9.28967C9.28967 23.9418 9.23967 23.8918 9.21967 23.8318C8.18528 21.1196 6.20286 18.8742 3.63968 17.5118C2.84342 17.0699 1.99291 16.7337 1.10968 16.5118H0.939667L0.929688 14.9118Z" fill="white"/>
<path d="M46.4599 18.5817V23.9916C45.8506 24.0318 45.2392 24.0318 44.6299 23.9916V10.9916H46.4299C46.4501 11.1242 46.4501 11.2591 46.4299 11.3917C46.4299 11.5217 46.4299 11.6617 46.4299 11.7917V12.2017H46.4899V12.1216C47.1452 11.3655 48.0723 10.8984 49.0699 10.8217C50.0357 10.7074 51.0101 10.9489 51.8108 11.5011C52.6114 12.0533 53.1835 12.8782 53.4199 13.8217C53.7782 15.0533 53.6715 16.3736 53.1199 17.5317C52.8701 18.1099 52.4808 18.6172 51.987 19.0081C51.4931 19.399 50.91 19.6613 50.2899 19.7717C49.6195 19.9221 48.9214 19.8942 48.2651 19.6906C47.6089 19.4871 47.0175 19.1151 46.5499 18.6117L46.4599 18.5817ZM51.7999 15.4017C51.8041 15.0362 51.7535 14.6722 51.6499 14.3217C51.5024 13.8203 51.2066 13.3752 50.8015 13.045C50.3963 12.7149 49.9007 12.515 49.3799 12.4717C48.8444 12.4124 48.304 12.5235 47.8354 12.7892C47.3667 13.055 46.9939 13.4617 46.7699 13.9517C46.5367 14.4173 46.4153 14.9309 46.4153 15.4517C46.4153 15.9724 46.5367 16.486 46.7699 16.9517C46.9591 17.3543 47.2547 17.6975 47.6248 17.9443C47.9949 18.191 48.4255 18.3319 48.8699 18.3517C49.3644 18.3986 49.8617 18.2983 50.2994 18.0635C50.7371 17.8286 51.0956 17.4697 51.3299 17.0317C51.6352 16.5464 51.7981 15.9851 51.7999 15.4117V15.4017Z" fill="white"/>
<path d="M22.48 8.73164H24.28C24.28 9.28164 24.28 9.84161 24.28 10.3916V13.7616C24.3258 13.7209 24.3692 13.6775 24.41 13.6316L28.41 8.91163L28.51 8.79164C28.5269 8.76816 28.5496 8.74938 28.5759 8.73713C28.6021 8.72488 28.6311 8.71955 28.66 8.72163H30.78H30.85L26.03 14.2716L30.94 19.8116H28.71C28.6601 19.8149 28.6101 19.8056 28.5647 19.7846C28.5193 19.7637 28.4799 19.7317 28.45 19.6916L24.5 15.1316L24.29 14.8816V19.7816H22.48V8.73164Z" fill="white"/>
<path d="M61.2899 13.7016H59.4899C59.486 13.6784 59.486 13.6547 59.4899 13.6315C59.4563 13.3523 59.3343 13.0912 59.1419 12.8861C58.9494 12.6811 58.6965 12.5428 58.4199 12.4915C58.0044 12.3765 57.5655 12.3765 57.1499 12.4915C56.9936 12.5391 56.8452 12.6099 56.7099 12.7016C56.6083 12.7747 56.5245 12.8698 56.4649 12.9799C56.4053 13.0899 56.3713 13.212 56.3655 13.337C56.3597 13.4621 56.3823 13.5868 56.4316 13.7019C56.4808 13.8169 56.5555 13.9194 56.6499 14.0015C56.8157 14.149 57.0095 14.2612 57.2199 14.3316C57.6199 14.4716 58.0199 14.6016 58.4299 14.7116C58.8915 14.8393 59.3456 14.9929 59.7899 15.1716C60.157 15.3091 60.4959 15.5124 60.7899 15.7716C60.9971 15.9634 61.1633 16.1951 61.2785 16.453C61.3936 16.7108 61.4554 16.9892 61.4599 17.2716C61.4833 17.6968 61.3881 18.1201 61.1851 18.4944C60.982 18.8687 60.6791 19.1793 60.3099 19.3916C59.8339 19.6856 59.2968 19.8669 58.7399 19.9216C58.0174 20.0209 57.2817 19.9524 56.5899 19.7216C55.907 19.5134 55.3103 19.0887 54.8899 18.5115C54.6307 18.1485 54.4689 17.725 54.4199 17.2816V17.1116H56.2799V17.1616C56.3247 17.4244 56.442 17.6695 56.6187 17.8692C56.7954 18.0689 57.0244 18.2152 57.2799 18.2916C57.8246 18.4965 58.4252 18.4965 58.9699 18.2916C59.1194 18.2314 59.258 18.147 59.3799 18.0416C59.4718 17.9596 59.5441 17.858 59.5914 17.7443C59.6387 17.6306 59.6597 17.5077 59.653 17.3847C59.6463 17.2618 59.6119 17.1419 59.5526 17.034C59.4932 16.9261 59.4102 16.833 59.3099 16.7615C59.0991 16.6068 58.8619 16.4916 58.6099 16.4216L57.0399 15.9616C56.6277 15.8564 56.2286 15.7054 55.8499 15.5115C55.5714 15.3707 55.318 15.1849 55.0999 14.9616C54.7691 14.6136 54.5709 14.1606 54.5399 13.6815C54.4964 13.2475 54.579 12.8101 54.7776 12.4217C54.9762 12.0333 55.2825 11.7104 55.6599 11.4915C56.1404 11.1863 56.6842 10.9948 57.2499 10.9315C57.9185 10.8394 58.5988 10.8837 59.2499 11.0615C59.8538 11.2225 60.3901 11.5731 60.7799 12.0615C61.1205 12.5067 61.3222 13.0424 61.3599 13.6016L61.2899 13.7016Z" fill="white"/>
<path d="M33.7799 19.8316H31.96V11.0416H33.77C33.77 11.4216 33.77 11.8116 33.77 12.2516C33.88 12.1116 33.95 12.0016 34.05 11.8916C34.1421 11.781 34.2424 11.6774 34.3499 11.5816L34.7 11.3216L35.0999 11.1216C35.2315 11.0636 35.369 11.02 35.5099 10.9916C35.6513 10.9553 35.795 10.9286 35.9399 10.9116C36.0799 10.9116 36.2299 10.9116 36.3799 10.9116V12.8016H36.08C35.7608 12.7923 35.4417 12.8225 35.1299 12.8916C34.8577 12.9495 34.6054 13.078 34.3983 13.264C34.1913 13.45 34.0366 13.6871 33.95 13.9516C33.8124 14.3466 33.748 14.7634 33.7599 15.1816V19.8616L33.7799 19.8316Z" fill="white"/>
<path d="M37.4697 11.0312H39.2697V19.8112C38.6704 19.8517 38.069 19.8517 37.4697 19.8112V11.0312Z" fill="white"/>
<path d="M41.0498 11.0312H42.8498V19.8112C42.2505 19.8517 41.6491 19.8517 41.0498 19.8112V11.0312Z" fill="white"/>
<path d="M13.9001 14.0812C13.5865 14.0773 13.2811 13.9807 13.0223 13.8036C12.7634 13.6265 12.5627 13.3769 12.4454 13.086C12.3282 12.7951 12.2995 12.476 12.3631 12.1689C12.4267 11.8618 12.5797 11.5804 12.8028 11.36C13.026 11.1397 13.3093 10.9902 13.6172 10.9305C13.925 10.8707 14.2437 10.9034 14.5331 11.0243C14.8225 11.1452 15.0696 11.349 15.2434 11.61C15.4173 11.871 15.5101 12.1776 15.5101 12.4912C15.5048 12.9147 15.3329 13.3191 15.0315 13.6168C14.7301 13.9144 14.3237 14.0813 13.9001 14.0812Z" fill="white"/>
<path d="M38.37 8.69154C38.1378 8.69151 37.9108 8.62234 37.718 8.49287C37.5251 8.3634 37.3752 8.17951 37.2873 7.96455C37.1994 7.74959 37.1774 7.51333 37.2242 7.28584C37.271 7.05835 37.3844 6.84995 37.55 6.68715C37.7157 6.52434 37.926 6.41452 38.1543 6.37166C38.3825 6.32879 38.6184 6.35486 38.8318 6.44648C39.0452 6.53811 39.2265 6.69116 39.3526 6.88618C39.4788 7.0812 39.544 7.30936 39.54 7.54158C39.54 7.69429 39.5096 7.8455 39.4506 7.98634C39.3916 8.12718 39.3051 8.25484 39.1961 8.36189C39.0872 8.46894 38.9581 8.55321 38.8163 8.60981C38.6744 8.66642 38.5227 8.6942 38.37 8.69154Z" fill="white"/>
<path d="M41.9496 8.69139C41.7181 8.68119 41.4948 8.60249 41.3081 8.46525C41.1214 8.32801 40.9797 8.13841 40.9008 7.92051C40.822 7.70261 40.8097 7.46624 40.8653 7.24131C40.921 7.01639 41.0423 6.81309 41.2137 6.65715C41.3851 6.5012 41.5989 6.39966 41.8281 6.3654C42.0573 6.33114 42.2914 6.3657 42.5009 6.4647C42.7104 6.5637 42.8858 6.72268 43.0049 6.92149C43.1239 7.1203 43.1812 7.34998 43.1696 7.5814C43.1659 7.73554 43.131 7.88736 43.067 8.02763C43.003 8.16789 42.9111 8.29368 42.7971 8.39744C42.683 8.5012 42.5491 8.58074 42.4035 8.63127C42.2578 8.68179 42.1034 8.70225 41.9496 8.69139Z" fill="white"/>
</svg>
