<svg width="62" height="19" viewBox="0 0 62 19" fill="none" xmlns="http://www.w3.org/2000/svg">
<path d="M17.2299 16.8903V17.9402C17.2299 18.3702 17.2299 18.3102 16.8499 18.3102H14.21V0.0102539H17.05C17.26 0.0102539 17.3 0.0802539 17.3 0.260254C17.3 2.43025 17.3 4.61024 17.3 6.78024C17.3 6.87024 17.3 6.96026 17.3 7.08026C17.54 6.88026 17.7499 6.70024 17.9799 6.53024C18.5228 6.12219 19.1415 5.82643 19.8 5.66025C20.339 5.5063 20.9004 5.44543 21.46 5.48026C22.5017 5.53356 23.5116 5.85755 24.39 6.42026C25.3337 7.02021 26.0947 7.86763 26.59 8.87024C26.8182 9.38467 27.0054 9.91635 27.15 10.4603C27.3176 11.0275 27.3819 11.6203 27.34 12.2103C27.2864 13.9342 26.57 15.5711 25.34 16.7802C24.4891 17.6308 23.3957 18.1967 22.21 18.4003C21.6706 18.5098 21.1181 18.5402 20.5699 18.4903C19.3291 18.3579 18.1713 17.8037 17.2899 16.9203L17.2299 16.8903ZM17.2299 11.9903C17.2778 12.4176 17.3513 12.8417 17.45 13.2603C17.5749 13.6851 17.7826 14.0811 18.0611 14.4254C18.3397 14.7697 18.6835 15.0556 19.0729 15.2666C19.4623 15.4775 19.8896 15.6094 20.3301 15.6547C20.7707 15.6999 21.2158 15.6576 21.64 15.5302C22.3029 15.3701 22.9004 15.0097 23.3513 14.498C23.8022 13.9862 24.0845 13.3481 24.1599 12.6703C24.3087 11.8833 24.2109 11.0696 23.8799 10.3402C23.6163 9.71569 23.1657 9.18819 22.59 8.83026C21.8137 8.34108 20.8752 8.17927 19.9799 8.38025C19.3602 8.49215 18.7887 8.78839 18.34 9.23026C17.6179 9.9686 17.2094 10.9576 17.2 11.9903H17.2299Z" fill="white"/>
<path d="M62.0002 18.31H58.1002C58.0396 18.3131 57.9792 18.3021 57.9236 18.2778C57.8681 18.2535 57.8189 18.2166 57.7802 18.17C56.6502 16.84 55.5102 15.51 54.3802 14.17L53.1502 12.73C53.1046 12.6788 53.0544 12.6319 53.0002 12.59V18.04C53.0002 18.31 53.0002 18.31 52.7402 18.31H49.9102V0H52.7202C53.0002 0 53.0002 1.95205e-05 53.0002 0.27002V9.94C53.0002 10.03 53.0002 10.12 53.0002 10.27L53.9302 9.33002L57.3902 5.82001C57.4579 5.76271 57.5418 5.72777 57.6302 5.72H61.5202H61.6802L61.5902 5.84L57.1702 10.26C56.8402 10.59 56.5102 10.94 56.1702 11.26C56.0402 11.38 56.0702 11.45 56.1702 11.57L58.6302 14.39L61.4602 17.65L62.0002 18.31Z" fill="white"/>
<path d="M39.4503 18.2597H36.6503C36.5203 18.2597 36.4503 18.2597 36.4303 18.0997L36.3403 17.2497C36.3403 17.1697 36.3403 17.0997 36.3403 16.9897C36.1503 17.1697 36.0003 17.3197 35.8403 17.4597C35.2951 17.9342 34.6316 18.2521 33.9203 18.3797C33.3709 18.4932 32.8063 18.5135 32.2502 18.4397C31.597 18.3922 30.9653 18.185 30.4109 17.8362C29.8564 17.4875 29.396 17.008 29.0703 16.4397C28.7557 15.8829 28.5903 15.2542 28.5903 14.6147C28.5903 13.9752 28.7557 13.3465 29.0703 12.7897C29.4129 12.1654 29.9404 11.6623 30.5803 11.3497C31.5086 10.8692 32.5351 10.6091 33.5803 10.5897C34.1903 10.5897 34.7903 10.5897 35.3903 10.5897C35.5034 10.5996 35.6171 10.5996 35.7303 10.5897C36.3603 10.4497 36.4803 9.97972 36.3703 9.45972C36.2965 9.13974 36.1301 8.8486 35.8917 8.62272C35.6534 8.39683 35.3537 8.2462 35.0302 8.1897C34.3523 7.99636 33.6284 8.04227 32.9803 8.31971C32.6464 8.45098 32.3521 8.66638 32.1261 8.94498C31.9 9.22359 31.7499 9.55593 31.6902 9.9097C31.6902 10.0597 31.6203 10.1397 31.4303 10.0997C30.6003 9.89971 29.7603 9.7197 28.9203 9.5297C28.7703 9.5297 28.8303 9.37972 28.8403 9.29972C28.9053 8.84464 29.0581 8.40652 29.2903 8.00971C29.825 7.07095 30.6495 6.33069 31.6403 5.89973C32.0992 5.70742 32.5791 5.5698 33.0703 5.48972C33.6024 5.40468 34.1419 5.37452 34.6803 5.39973C35.8371 5.39697 36.961 5.78451 37.8703 6.4997C38.3895 6.92758 38.7949 7.47724 39.0503 8.09971C39.3169 8.73264 39.453 9.41291 39.4503 10.0997C39.4503 12.0997 39.4503 14.0997 39.4503 16.1597C39.4503 16.9097 39.4503 17.5897 39.4503 18.2597ZM36.4503 12.9697H34.0302H33.6103C33.1215 13.0098 32.6522 13.1789 32.2502 13.4597C32.0733 13.5811 31.9303 13.7456 31.8348 13.9377C31.7392 14.1299 31.6944 14.3432 31.7044 14.5576C31.7144 14.7719 31.779 14.9801 31.892 15.1625C32.005 15.3449 32.1628 15.4954 32.3503 15.5997C32.8198 15.8581 33.3573 15.9663 33.8903 15.9097C34.468 15.8992 35.0292 15.7144 35.5002 15.3797C35.8645 15.1038 36.1458 14.7331 36.3133 14.308C36.4809 13.8829 36.5283 13.4199 36.4503 12.9697Z" fill="white"/>
<path d="M44.1599 7.06995C44.5345 6.67488 44.9659 6.33785 45.4399 6.06995C45.8259 5.86969 46.2409 5.73133 46.6699 5.65995C47.1091 5.57494 47.5606 5.57494 47.9999 5.65995C48.1099 5.65995 48.1799 5.70994 48.1799 5.83994V8.74994C48.1826 8.77988 48.1826 8.81 48.1799 8.83994C48.0599 8.83994 47.9499 8.83994 47.8399 8.83994C47.2304 8.75129 46.6087 8.79912 46.0199 8.97995C45.6698 9.08862 45.3492 9.27572 45.0823 9.52698C44.8154 9.77825 44.6094 10.0871 44.4799 10.43C44.2876 10.9578 44.2026 11.5188 44.2299 12.08V18.08C44.2299 18.36 44.2299 18.36 43.9499 18.36H41.3399C41.1699 18.36 41.1299 18.31 41.1299 18.15V5.92997C41.1299 5.75997 41.1299 5.70997 41.3399 5.70997H43.9499C44.1299 5.70997 44.1799 5.76995 44.1699 5.93995C44.1599 6.10995 44.1699 6.56995 44.1699 6.87995C44.1613 6.9429 44.158 7.00645 44.1599 7.06995Z" fill="white"/>
<path d="M11.86 0.0800781V0.330078C11.86 1.33008 11.86 2.25006 11.86 3.22006C11.8626 3.29034 11.8474 3.36014 11.816 3.42303C11.7845 3.48593 11.7378 3.53994 11.6801 3.58008L8.68005 5.82007L3.93005 9.39008L1.15005 11.4801C1.03005 11.5701 0.970045 11.5701 0.890045 11.4801C0.809171 11.3472 0.718955 11.2202 0.620056 11.1001C0.595217 11.0814 0.575043 11.0573 0.561157 11.0295C0.547272 11.0017 0.540039 10.9711 0.540039 10.9401C0.540039 10.909 0.547272 10.8784 0.561157 10.8506C0.575043 10.8228 0.595217 10.7987 0.620056 10.7801L3.78003 7.78006L8.02005 3.73007L11.66 0.250061L11.86 0.0800781Z" fill="white"/>
<path d="M0.700195 15.7196C0.860195 15.4896 0.970199 15.3096 1.1102 15.1396C1.13185 15.1137 1.15972 15.0937 1.19119 15.0815C1.22267 15.0692 1.25672 15.0652 1.29019 15.0696L5.29019 15.2296L7.29019 15.2996L11.6202 15.4496C11.7502 15.4496 11.8302 15.4496 11.8302 15.6296C11.8302 16.4796 11.8302 17.3297 11.8302 18.1797C11.8333 18.2329 11.8333 18.2863 11.8302 18.3396L0.700195 15.7196Z" fill="white"/>
<path d="M1.90039 13.57C1.90039 13.33 1.90039 13.13 1.90039 12.93C1.91168 12.8953 1.92991 12.8632 1.95398 12.8357C1.97804 12.8082 2.00743 12.7858 2.04037 12.77L4.13037 11.77L6.94037 10.44L9.82037 9.08002L10.0204 9C10.0204 9.23 10.1104 9.44002 10.1504 9.65002C10.2504 10.26 10.3504 10.87 10.4604 11.48C10.4604 11.73 10.4604 11.76 10.2404 11.82L7.75037 12.33L5.68039 12.77L3.45038 13.26L1.90039 13.57Z" fill="white"/>
</svg>
