<svg width="75" height="20" viewBox="0 0 75 20" fill="none" xmlns="http://www.w3.org/2000/svg">
<path d="M21.45 0.369929H24.02V5.67993C24.0426 6.14444 23.9781 6.60909 23.83 7.04992C23.15 8.64992 20.3099 8.77993 18.6599 8.77993C17.0099 8.77993 14.1299 8.64992 13.4799 7.04992C13.3409 6.60715 13.28 6.14358 13.3 5.67993V0.369929H15.86V5.17993C15.8142 5.42975 15.8652 5.68763 16.0027 5.90121C16.1401 6.11479 16.3536 6.26804 16.5999 6.32992C17.9562 6.63659 19.3637 6.63659 20.7199 6.32992C21.1799 6.17992 21.45 5.87993 21.45 5.17993V0.369929ZM52.66 0.369929H53.9899V8.47994H51.48V0.369929H52.66ZM47.1199 0.369929H49.5499V8.47994H47.22L41.41 3.57992V8.47994H38.89V0.369929H41.45L47.1699 5.12994V0.369929H47.1199ZM35.3699 0.459925C37.0199 1.00993 37.15 2.37995 37.2 4.38995C37.25 6.39995 37.0599 7.76994 35.4199 8.31994C34.1162 8.66723 32.7682 8.81886 31.4199 8.76992C30.0718 8.81522 28.7243 8.66365 27.42 8.31994C25.72 7.76994 25.59 6.39995 25.64 4.38995C25.69 2.37995 25.7699 1.00993 27.4699 0.459925C30.0556 -0.140288 32.7443 -0.140288 35.33 0.459925M28.09 4.39993C28.09 5.72993 28.22 6.17993 29.14 6.39993C29.8663 6.52661 30.6027 6.58685 31.34 6.57992C32.0906 6.58845 32.8404 6.52821 33.58 6.39993C34.5 6.20993 34.58 5.75993 34.58 4.39993C34.58 2.84993 34.45 2.51993 33.58 2.33993C32.8407 2.20917 32.0906 2.1489 31.34 2.15994C30.6024 2.14527 29.8653 2.20557 29.14 2.33993C28.22 2.56993 28.09 2.88993 28.09 4.39993ZM9.69995 5.81994C10.4214 6.28526 11.2733 6.50614 12.1299 6.44995V8.32992C11.7707 8.423 11.4011 8.47006 11.0299 8.46993C9.98527 8.45047 8.96823 8.13111 8.09995 7.54992L5.09995 5.54992L3.44995 6.86993V8.46993H0.959961V0.359919H3.42996V4.25994L8.31995 0.359919H11.9799L7.17996 4.11993L9.69995 5.81994Z" fill="white"/>
<path d="M46.45 17.4495C45.7068 17.5756 44.9539 17.6358 44.2 17.6295C43.4658 17.6443 42.732 17.584 42.01 17.4495C41.09 17.2695 40.9601 16.8095 40.9601 15.4495C40.9601 13.8995 41.09 13.5695 42.01 13.3895C42.733 13.2627 43.4661 13.2024 44.2 13.2095C44.9542 13.1934 45.708 13.2537 46.45 13.3895C47.36 13.5695 47.45 13.8895 47.45 15.4495C47.45 16.8195 47.31 17.2395 46.45 17.4495ZM50.01 15.4495C50.01 13.4495 49.88 12.0695 48.18 11.5195C46.8763 11.1722 45.5283 11.0206 44.18 11.0695C42.8319 11.0242 41.4844 11.1758 40.18 11.5195C38.54 12.0695 38.4001 13.4395 38.3501 15.4495C38.3001 17.4595 38.49 18.8295 40.13 19.3795C41.4337 19.7268 42.7818 19.8784 44.13 19.8295C45.4784 19.8821 46.827 19.7304 48.13 19.3795C49.88 18.8495 50.01 17.4695 50.01 15.4495Z" fill="white"/>
<path d="M20.7801 15.4399V16.8499H22.4501C22.4501 16.8499 22.5401 17.3499 21.9101 17.4899C20.9538 17.6329 19.9869 17.6931 19.0201 17.67C18.2861 17.6796 17.5528 17.6193 16.8301 17.4899C15.9101 17.2999 15.8301 16.8499 15.8301 15.4899C15.8301 13.9399 15.9601 13.6099 16.8301 13.4299C17.5525 13.2985 18.286 13.2382 19.0201 13.2499C19.801 13.2245 20.5828 13.2512 21.3601 13.3299C21.9101 13.4199 22.1701 13.5099 22.3601 14.1499H24.7901C24.7001 12.8199 24.2901 11.9 23.0001 11.54C21.6974 11.1866 20.349 11.0315 19.0001 11.0799C17.6514 11.0348 16.3034 11.1899 15.0001 11.54C13.3501 12.09 13.2101 13.4499 13.1601 15.4699C13.1101 17.4899 13.3001 18.8499 14.9501 19.3999C16.2535 19.7487 17.6018 19.9004 18.9501 19.8499C20.2986 19.9045 21.6475 19.7528 22.9501 19.3999C24.6501 18.8499 24.7401 17.4799 24.7401 15.3999H20.7401L20.7801 15.4399Z" fill="white"/>
<path d="M59.6904 11.3096H62.2504V16.6196C62.2703 17.0832 62.2094 17.5468 62.0704 17.9896C61.3804 19.5896 58.5404 19.7196 56.8904 19.7196C55.2404 19.7196 52.3704 19.5896 51.7204 17.9896C51.577 17.5478 51.516 17.0834 51.5404 16.6196V11.3096H54.1004V16.1196C54.0543 16.368 54.1039 16.6247 54.2393 16.8381C54.3748 17.0514 54.5859 17.2056 54.8304 17.2696C55.5047 17.4325 56.1968 17.5098 56.8904 17.4996C57.5875 17.5134 58.2834 17.4361 58.9604 17.2696C59.2049 17.2056 59.416 17.0514 59.5515 16.8381C59.6869 16.6247 59.7365 16.368 59.6904 16.1196V11.3096Z" fill="white"/>
<path d="M66.5001 13.4198H70.5801C71.1701 13.4198 71.7601 13.4698 71.7601 14.3398C71.7601 15.2098 71.26 15.3398 70.61 15.3398H66.4501V13.4598L66.5001 13.4198ZM74.1001 13.4198C73.9201 11.3198 72.19 11.3198 70.67 11.3198H64.0801V19.4298H66.6001V17.3598H70.67C72.19 17.3598 73.9701 17.3598 74.1001 15.2598C74.1688 14.6484 74.1688 14.0312 74.1001 13.4198Z" fill="white"/>
<path d="M29.1605 15.2896V13.4096H33.2404C33.8404 13.4096 34.4204 13.4096 34.4204 14.3196C34.4204 15.2296 33.9205 15.3196 33.2805 15.3196L29.1605 15.2896ZM35.7505 16.9396C36.056 16.774 36.3106 16.5282 36.4868 16.2286C36.6631 15.9291 36.7542 15.5871 36.7505 15.2396C36.8005 14.4196 36.7505 13.6396 36.7505 13.4096C36.5605 11.3096 34.8305 11.3096 33.3205 11.3096H26.7305V19.4096H29.2405V17.3496H32.4005C32.7816 17.3195 33.1633 17.3993 33.5005 17.5796C33.7904 17.7989 34.0247 18.0834 34.1845 18.4099C34.3443 18.7365 34.4251 19.096 34.4204 19.4596H37.0305C36.9705 19.4596 37.0305 17.4596 35.7805 16.9396" fill="white"/>
</svg>
