<svg width="64" height="19" viewBox="0 0 64 19" fill="none" xmlns="http://www.w3.org/2000/svg">
<path fill-rule="evenodd" clip-rule="evenodd" d="M56.3899 0.319763C51.7599 0.319763 49.1199 3.00976 49.1199 6.31976C49.1199 9.62976 51.7599 12.3198 56.3899 12.3198C61.0199 12.3198 63.6499 9.60976 63.6499 6.31976C63.6499 3.02976 60.9899 0.319763 56.3899 0.319763ZM56.3899 10.4998C55.538 10.5805 54.6817 10.4016 53.9333 9.98651C53.185 9.57146 52.5798 8.93971 52.1973 8.17429C51.8147 7.40886 51.6727 6.54558 51.7899 5.69794C51.9071 4.8503 52.278 4.05795 52.8539 3.42505C53.4298 2.79215 54.1837 2.34832 55.0166 2.15189C55.8495 1.95546 56.7223 2.01564 57.5203 2.32449C58.3183 2.63335 59.0042 3.17645 59.4878 3.88239C59.9714 4.58832 60.2301 5.42405 60.2299 6.27975C60.268 6.8119 60.1976 7.34625 60.0229 7.85037C59.8483 8.35449 59.5731 8.8179 59.2141 9.21249C58.855 9.60709 58.4195 9.92466 57.9341 10.1459C57.4486 10.3672 56.9233 10.4876 56.3899 10.4998ZM0.919922 0.499756H13.7699V3.31976C12.8599 2.53976 10.9299 2.23978 8.86993 2.23978V9.90976C8.82189 10.2616 8.84397 10.6195 8.93494 10.9628C9.0259 11.306 9.18395 11.6279 9.39993 11.9098H5.29993C5.51818 11.6293 5.67688 11.3073 5.7663 10.9634C5.85571 10.6195 5.87395 10.261 5.81992 9.90976V2.23978C3.75992 2.23978 1.81992 2.53976 0.919922 3.31976V0.499756ZM19.9199 10.2098C21.2299 10.2098 23.4399 9.90976 24.2899 9.12976V11.9398H14.9399C15.3899 11.4198 15.4699 11.0398 15.4699 9.93976V2.48978C15.4699 1.38978 15.3899 1.03978 14.9399 0.489777H23.8199V3.29977C22.9399 2.51977 20.7499 2.19977 19.4199 2.19977H18.4199V5.19977H19.1999C20.1001 5.23814 21.0007 5.13693 21.8699 4.89975V7.15976C21.0007 6.92258 20.1001 6.8214 19.1999 6.85977H18.4499V10.1497H19.9799L19.9199 10.2098ZM32.1999 4.93976C34.4399 5.23976 36.2699 6.04978 36.2699 8.45978C36.2699 11.3298 33.5799 12.2298 30.6699 12.2098C28.9729 12.2691 27.2791 12.0218 25.6699 11.4798V8.93976C27.1547 9.92398 28.8889 10.4651 30.6699 10.4998C32.0699 10.4998 33.3799 10.1498 33.3799 9.06976C33.3799 7.98976 32.1699 7.72977 29.7099 7.35977C27.5699 7.02977 25.6399 6.11977 25.6399 4.00977C25.6399 1.16977 28.2999 0.319763 30.8699 0.319763C32.4791 0.297179 34.0818 0.526616 35.6199 0.999756V3.75977C34.2487 2.62698 32.5183 2.02063 30.7399 2.04977C29.5099 2.04977 28.3499 2.44977 28.3499 3.35977C28.3499 4.48977 30.0599 4.66976 32.1999 4.93976ZM44.8999 0.319763C46.0524 0.30524 47.2019 0.43968 48.3199 0.719757V3.55975C47.8904 3.08421 47.3658 2.7041 46.7802 2.444C46.1945 2.1839 45.5607 2.0496 44.9199 2.04977C44.3478 2.02193 43.776 2.11057 43.2391 2.31033C42.7023 2.51009 42.2116 2.81682 41.7968 3.21188C41.3821 3.60695 41.0519 4.08211 40.8263 4.60861C40.6006 5.13511 40.4843 5.70195 40.4843 6.27475C40.4843 6.84755 40.6006 7.41439 40.8263 7.94089C41.0519 8.46739 41.3821 8.94258 41.7968 9.33765C42.2116 9.73271 42.7023 10.0394 43.2391 10.2392C43.776 10.439 44.3478 10.5276 44.9199 10.4998C45.5593 10.4998 46.1915 10.3654 46.7755 10.1052C47.3595 9.84509 47.8823 9.46505 48.3099 8.98978V11.8298C47.1935 12.1213 46.0438 12.2658 44.8899 12.2598C40.4199 12.2598 37.1699 10.0198 37.1699 6.25977C37.1699 2.49977 40.3899 0.259766 44.8699 0.259766L44.8999 0.319763Z" fill="white"/>
<path d="M63.5005 15.0703H55.7605C55.2335 15.0898 54.7166 15.2212 54.2442 15.4557C53.7718 15.6901 53.3547 16.0223 53.0205 16.4303C52.4164 17.0697 51.746 17.6429 51.0205 18.1403V18.1903H58.4105C58.9839 18.1929 59.5506 18.0676 60.0695 17.8237C60.5885 17.5798 61.0466 17.2234 61.4105 16.7803C62.0295 16.1275 62.7403 15.5683 63.5205 15.1203V15.0703H63.4705" fill="white"/>
<path d="M50.8601 15.0703H43.1101C42.5831 15.0898 42.0662 15.2212 41.5938 15.4557C41.1215 15.6901 40.7043 16.0223 40.3701 16.4303C39.766 17.0697 39.0956 17.6429 38.3701 18.1403V18.1903H45.7701C46.3435 18.1929 46.9102 18.0676 47.4292 17.8237C47.9481 17.5798 48.4062 17.2234 48.7701 16.7803C49.3912 16.1257 50.1056 15.5663 50.8901 15.1203V15.0703" fill="white"/>
<path d="M38.2002 15.0703H30.4602C29.9332 15.0898 29.4164 15.2212 28.944 15.4557C28.4716 15.6901 28.0544 16.0223 27.7202 16.4303C27.1161 17.0697 26.4457 17.6429 25.7202 18.1403V18.1903H33.0902C33.6633 18.1908 34.2293 18.0646 34.7479 17.8209C35.2665 17.5771 35.7249 17.2218 36.0902 16.7803C36.7066 16.1246 37.4179 15.565 38.2002 15.1203V15.0703Z" fill="white"/>
<path d="M25.5901 15.0703H17.8401C17.3134 15.0911 16.7969 15.223 16.3247 15.4574C15.8525 15.6917 15.4352 16.0233 15.1001 16.4303C14.4985 17.0722 13.8277 17.6457 13.1001 18.1403V18.1903H20.4901C21.0631 18.1908 21.6292 18.0646 22.1478 17.8209C22.6664 17.5771 23.1248 17.2218 23.4901 16.7803C24.1065 16.1246 24.8177 15.565 25.6001 15.1203V15.0703H25.5501" fill="white"/>
<path d="M12.9699 15.07H5.19995C4.67281 15.0889 4.15574 15.22 3.68326 15.4545C3.21077 15.689 2.79374 16.0216 2.45996 16.43C1.85711 17.0707 1.18652 17.6441 0.459961 18.14V18.19H7.84995C8.42298 18.1905 8.98905 18.0643 9.50766 17.8206C10.0263 17.5768 10.4846 17.2215 10.8499 16.78C11.469 16.1272 12.1798 15.568 12.96 15.12V15.04" fill="white"/>
</svg>
