<svg width="76" height="13" viewBox="0 0 76 13" fill="none" xmlns="http://www.w3.org/2000/svg">
<path d="M10.0205 11.7003C11.3805 11.5703 12.7405 11.1103 12.7405 9.70032V5.07031L12.0905 4.42032L11.3805 5.07031V8.50031L11.9605 9.01031L10.6605 10.1803H10.6005L9.3105 9.08032L9.6305 8.75031V1.75031C9.62052 1.55074 9.54583 1.35987 9.41773 1.20651C9.28964 1.05316 9.11511 0.945659 8.92051 0.900299V0.770325C9.10167 0.684118 9.29987 0.639687 9.5005 0.64032C9.70785 0.622369 9.91566 0.669569 10.0949 0.77533C10.2742 0.88109 10.4159 1.04014 10.5005 1.23032H10.5605C10.684 1.05188 10.8482 0.905342 11.0394 0.802765C11.2307 0.700188 11.4435 0.64451 11.6605 0.64032C11.7944 0.629233 11.9288 0.653372 12.0505 0.710327V0.840302C11.8622 0.92642 11.7053 1.06889 11.6014 1.24802C11.4975 1.42714 11.4517 1.63408 11.4705 1.8403V4.76031L13.2205 3.14032H13.3505C13.6684 3.45704 14.0022 3.75741 14.3505 4.04031C14.4205 4.11031 14.4805 4.11032 14.6105 4.11032C14.7481 4.09446 14.8809 4.05019 15.0005 3.98032V4.17032C14.905 4.25058 14.8273 4.34981 14.7722 4.4617C14.7171 4.5736 14.6859 4.69571 14.6805 4.82031V8.77032C14.6805 10.5203 12.7405 11.6203 10.1505 11.7703V11.5803L10.0205 11.7003ZM9.37052 0.89032C9.52251 0.973323 9.65034 1.09436 9.7415 1.24161C9.83265 1.38886 9.88399 1.55726 9.89051 1.73032V8.91031L9.6305 9.17032L10.7305 10.0803L11.0505 9.82031L10.2005 9.07031L10.3305 8.94031V1.76031C10.294 1.51671 10.1746 1.29314 9.99244 1.12735C9.81026 0.961564 9.57647 0.863711 9.33051 0.850311M12.3305 11.2003C12.6167 11.0688 12.8614 10.8613 13.0377 10.6003C13.214 10.3393 13.3153 10.0349 13.3305 9.72031V4.80032L12.5505 3.96033L12.1605 4.2803L12.8105 4.99033V9.6503C12.8599 9.92854 12.8499 10.2141 12.7809 10.4882C12.712 10.7623 12.5857 11.0186 12.4105 11.2403L12.3305 11.2003ZM15.5705 4.80032C16.4935 4.32808 17.3794 3.7865 18.2205 3.1803H18.3505C18.8705 3.7003 19.5805 4.5403 20.2305 5.1203V5.25031L17.4605 7.07031V8.24033C17.9751 8.5473 18.5175 8.8051 19.0805 9.01031L20.2405 7.91031L20.3705 8.04031L18.1105 10.2403H17.9805C17.2005 9.92033 16.2305 9.47032 15.5805 9.14032C15.6798 8.62987 15.7234 8.11015 15.7105 7.5903V4.8103L15.5705 4.80032ZM18.2205 9.80032C17.4405 9.48032 16.8005 9.15032 16.1505 8.80032C16.2177 8.39399 16.2378 7.98126 16.2105 7.57031V4.66031L15.7605 4.92032V7.57031C15.7847 8.04448 15.7646 8.51989 15.7005 8.99033C16.4139 9.36593 17.1485 9.69983 17.9005 9.99033L18.2205 9.80032ZM17.3805 6.89032L18.6705 6.05032C18.2205 5.53032 17.7705 5.0503 17.3805 4.6203V6.89032ZM17.7705 4.04031L17.4405 4.30032L18.8705 5.92032L19.2605 5.66031C18.6705 5.08031 18.1605 4.49031 17.7705 4.04031ZM71.0305 11.6803C72.3905 11.5503 73.7505 11.0903 73.7505 9.6803V5.07031L73.1005 4.42032L72.3905 5.07031V8.50031L72.9705 9.01031L71.6805 10.1803H71.5505L70.2505 9.08032L70.5805 8.75031V1.75031C70.5689 1.55123 70.4937 1.36115 70.3658 1.2081C70.238 1.05505 70.0644 0.947136 69.8705 0.900299V0.770325C70.0517 0.684118 70.2499 0.639687 70.4505 0.64032C70.6579 0.622369 70.8656 0.669569 71.0449 0.77533C71.2242 0.88109 71.366 1.04014 71.4505 1.23032H71.5105C71.634 1.05188 71.7982 0.905342 71.9894 0.802765C72.1807 0.700188 72.3935 0.64451 72.6105 0.64032C72.7444 0.629233 72.8788 0.653372 73.0005 0.710327V0.840302C72.8122 0.92642 72.6553 1.06889 72.5514 1.24802C72.4475 1.42714 72.4018 1.63408 72.4205 1.8403V4.76031L74.1005 3.14032H74.2305C74.5465 3.45906 74.8804 3.75954 75.2305 4.04031C75.2905 4.11031 75.3605 4.11032 75.4905 4.11032C75.6247 4.09313 75.7539 4.0489 75.8705 3.98032V4.24033C75.7741 4.31975 75.6957 4.41878 75.6405 4.53085C75.5853 4.64293 75.5547 4.76547 75.5505 4.89032V8.77032C75.5505 10.5203 73.6105 11.6203 71.0205 11.7703L71.0305 11.6803ZM70.3805 0.8703C70.5325 0.953303 70.6603 1.07437 70.7515 1.22162C70.8426 1.36887 70.894 1.53727 70.9005 1.71033V8.83032L70.6405 9.0903L71.7405 9.99033L72.0705 9.74033L71.2205 9.02032L71.3505 8.89032V1.7803C71.314 1.53669 71.1946 1.31312 71.0125 1.14734C70.8303 0.981553 70.5965 0.8837 70.3505 0.8703M73.3505 11.1603C73.6382 11.0281 73.8838 10.819 74.0602 10.5561C74.2367 10.2932 74.3371 9.98666 74.3505 9.67032V4.82031L73.5705 3.98032L73.2505 4.30032L73.8905 5.01031V9.67032C73.9474 9.93957 73.936 10.2188 73.8574 10.4825C73.7788 10.7462 73.6355 10.9861 73.4405 11.1803L73.3505 11.1603ZM32.3505 4.82031C33.276 4.35261 34.1623 3.81085 35.0005 3.20032H35.2005C35.7205 3.72032 36.4305 4.56032 37.0105 5.08032V5.21033L34.2005 7.07031V8.23032C34.7219 8.52739 35.2631 8.78801 35.8205 9.01031L36.9805 7.91031L37.1105 8.04031L34.8505 10.2403H34.7205C33.9405 9.91033 32.9705 9.46032 32.3205 9.14032C32.4202 8.62656 32.4638 8.10349 32.4505 7.58032V4.8703L32.3505 4.82031ZM34.9405 9.82031C34.1605 9.50031 33.5105 9.17031 32.8705 8.82031C32.9377 8.41398 32.9578 8.00125 32.9305 7.5903V4.6803L32.5405 4.8703V7.52032C32.5646 7.99782 32.5445 8.47652 32.4805 8.95032C33.1959 9.32174 33.9303 9.65553 34.6805 9.95032L34.9405 9.82031ZM34.1605 6.82031L35.4605 5.98032C35.0005 5.46032 34.5505 4.9803 34.1605 4.5603V6.82031ZM34.5505 4.04031L34.1605 4.30032L35.5905 5.92032L35.9705 5.66031L34.6105 4.07031M39.6105 1.61032V8.41031C39.6252 8.55612 39.6823 8.69446 39.7747 8.8082C39.8671 8.92194 39.9908 9.00612 40.1305 9.05032L40.5205 8.67032L40.6505 8.79031L39.2005 10.2703H39.0805C38.7327 10.1942 38.4185 10.0083 38.1845 9.73999C37.9504 9.47169 37.8087 9.13524 37.7805 8.7803V2.44031L37.3905 2.05032L36.9405 2.51031L36.8105 2.38031L38.4305 0.690308H38.5605L39.6105 1.61032ZM39.4205 9.77032C39.1431 9.72345 38.891 9.58061 38.7082 9.36676C38.5254 9.15291 38.4236 8.88162 38.4205 8.60031V2.19031L37.8405 1.61032L37.5205 1.9303L38.0405 2.39032V8.79031C38.0537 9.0983 38.169 9.39315 38.3681 9.62848C38.5672 9.86381 38.839 10.0263 39.1405 10.0903L39.4205 9.77032ZM41.3005 4.85031C42.2235 4.37807 43.1094 3.83652 43.9505 3.23032H44.0805C44.6005 3.75032 45.3105 4.59032 45.8905 5.11032V5.24033L43.0905 7.07031V8.23032C43.6046 8.54105 44.147 8.80223 44.7105 9.01031L45.8705 7.91031L46.0005 8.04031L43.7305 10.2403H43.6105C42.8305 9.91033 41.8605 9.46032 41.2105 9.14032C41.3102 8.62656 41.3538 8.10349 41.3405 7.58032V4.8703L41.3005 4.85031ZM43.8805 9.85031C43.1105 9.53031 42.4605 9.20031 41.8105 8.85031C41.8888 8.44529 41.9123 8.03159 41.8805 7.6203V4.71033L41.4905 4.9003V7.55032C41.5146 8.02782 41.4945 8.50652 41.4305 8.98032C42.1459 9.35174 42.8803 9.68553 43.6305 9.98032L43.8805 9.85031ZM43.1105 6.85031L44.4005 6.01031C43.9505 5.49031 43.5005 5.0103 43.1105 4.5903V6.85031ZM43.5005 4.07031L43.1705 4.33032L44.6005 5.95032L44.9205 5.69031C44.4005 5.11031 43.9205 4.52031 43.5005 4.07031ZM55.0205 5.07031V8.3703C55.0255 8.51098 55.0791 8.6456 55.172 8.75131C55.265 8.85702 55.3916 8.92733 55.5305 8.95032L55.9205 8.5603L56.0505 8.69031L54.6305 10.1803H54.5605C54.21 10.1115 53.8926 9.92752 53.6589 9.6575C53.4251 9.38748 53.2884 9.04701 53.2705 8.69031V4.97031L52.8805 4.58032L52.4305 4.97031L52.3005 4.8403L53.9205 3.22031H54.0505L55.0505 4.22031V4.8103L56.3405 3.25031H56.4705C56.7755 3.5834 57.1102 3.888 57.4705 4.16031L56.3705 5.45032C56.0505 5.20032 55.6605 4.81032 55.3705 4.61032L55.0205 5.07031ZM54.8905 9.73032C54.6131 9.68345 54.361 9.54061 54.1782 9.32675C53.9954 9.1129 53.8936 8.84161 53.8905 8.5603V4.6803L53.3705 4.0903L53.0505 4.42032L53.5005 4.8703V8.69031C53.5159 8.99655 53.6321 9.28911 53.8311 9.52243C54.03 9.75575 54.3005 9.91673 54.6005 9.98032L54.8905 9.73032ZM55.6005 4.48032C55.8429 4.73515 56.1 4.97557 56.3705 5.20032L56.6305 4.8703C56.3705 4.6803 55.9905 4.29031 55.7905 4.16031L55.6005 4.48032ZM59.2005 10.2703L57.6505 9.27032V7.17032L59.2705 6.07031C58.6873 5.80525 58.1763 5.40398 57.7805 4.9003V4.77032C58.5557 4.34984 59.272 3.82864 59.9105 3.22031H60.0405C60.0405 3.22031 62.0405 4.12031 62.0405 4.22031C62.1205 4.26258 62.2101 4.28326 62.3005 4.2803C62.4391 4.26914 62.5729 4.22452 62.6905 4.1503V4.35031C62.6 4.42051 62.5243 4.50789 62.4677 4.60742C62.4111 4.70695 62.3746 4.81666 62.3605 4.9303V8.36032C62.3717 8.51913 62.436 8.66953 62.543 8.78741C62.65 8.9053 62.7935 8.9838 62.9505 9.01031L63.3305 8.6203L63.4605 8.75031L62.0405 10.2403H61.9805C61.6563 10.1621 61.3613 9.99228 61.1308 9.75116C60.9004 9.51004 60.7441 9.20776 60.6805 8.88031L59.3205 10.2403H59.2005V10.2703ZM59.5305 9.76031L58.2305 8.91031V6.97031L57.8405 7.23032V9.07031L59.2705 9.97031L59.5305 9.76031ZM60.6305 6.39032V5.39032L58.7505 4.39032C58.6205 4.52032 58.1005 4.78031 57.9705 4.91031C58.7173 5.62342 59.6323 6.13598 60.6305 6.4003M62.3105 9.77032C61.7905 9.57032 61.3105 9.25031 61.3105 8.54031V4.97031L59.3705 3.97031C59.3105 4.03031 59.1105 4.16031 59.0505 4.22031L60.9305 5.22031V8.71033C60.9745 9.01504 61.0999 9.30222 61.2935 9.5416C61.4871 9.78097 61.7417 9.96364 62.0305 10.0703L62.3105 9.77032ZM60.6305 8.67032V6.5903C60.2093 6.47301 59.798 6.32256 59.4005 6.14032V8.73032L60.1105 9.1803L60.6305 8.67032ZM46.5805 9.1803V4.85031L48.9105 3.23032H49.0405L51.1105 4.13031C51.1805 4.13031 51.2405 4.20032 51.3705 4.20032C51.5256 4.17711 51.6769 4.13339 51.8205 4.07031V4.33032C51.6578 4.48697 51.5462 4.68913 51.5005 4.91031V8.60031C51.4711 8.90085 51.5019 9.20423 51.5912 9.49271C51.6805 9.78118 51.8265 10.0489 52.0205 10.2803V10.4103C51.5005 10.9303 50.3405 12.1603 49.8205 12.7403H49.7505C49.1267 12.4313 48.4458 12.2542 47.7505 12.2203C47.2161 12.2004 46.6907 12.3626 46.2605 12.6803L46.1305 12.6103C46.3037 12.1111 46.6143 11.6708 47.0264 11.34C47.4385 11.0092 47.9356 10.8014 48.4605 10.7403C49.2838 10.7813 50.0842 11.0252 50.7905 11.4503C50.1928 10.7371 49.842 9.84949 49.7905 8.92032L48.4305 10.2203H48.3005L46.5805 9.1803ZM47.6805 11.7103C47.4456 11.7114 47.2137 11.7639 47.0013 11.8641C46.7888 11.9643 46.6008 12.1098 46.4505 12.2903V12.3503C46.8283 12.1515 47.2551 12.0647 47.6805 12.1003C48.3718 12.1045 49.054 12.2581 49.6805 12.5503L49.9405 12.2203C49.2244 11.9038 48.4532 11.7306 47.6705 11.7103M48.2005 10.0703L48.5205 9.8103L47.1605 8.8103V4.67032L46.7805 4.9303V9.07031L48.2005 10.0703ZM50.2705 4.70032L48.3305 3.92032V4.3103L49.8205 4.96033V8.8403C49.8702 9.74887 50.2222 10.6148 50.8205 11.3003L51.1405 10.9703C50.6119 10.3577 50.3147 9.57932 50.3005 8.77032L50.2705 4.70032ZM49.6905 8.6503V5.07031L48.3905 4.48032V8.5603L49.2405 9.08032L49.6905 8.6503ZM66.2605 4.83032L67.9405 3.21033H68.0705C68.3865 3.52905 68.7204 3.82953 69.0705 4.11032C69.0963 4.13652 69.1277 4.15644 69.1624 4.16858C69.197 4.18072 69.234 4.18472 69.2705 4.1803C69.4081 4.16444 69.5409 4.1202 69.6605 4.05032V4.3103C69.4726 4.47773 69.3548 4.70986 69.3305 4.96033V9.07031C68.5702 9.29829 67.8949 9.74735 67.3905 10.3603H67.3305L66.2305 10.1003V11.0703L66.8105 11.5903L65.4505 12.7503H65.3905L64.0905 11.6503L64.4105 11.2603V9.71033C64.2339 9.69915 64.0609 9.65506 63.9005 9.58032V9.39032C64.0305 9.32032 64.4805 8.93032 64.4805 8.61032V5.07031L64.0905 4.6803L63.6405 5.14032L63.5105 5.01031L65.1305 3.39032H65.2605L66.2605 4.39032V4.85031V4.83032ZM64.6405 11.3603L64.3805 11.6203L65.3805 12.5303L65.7005 12.2703L64.8605 11.5603L64.9905 11.4303V4.70032L64.4005 4.11032L64.1505 4.3703L64.6005 4.83032V11.3603H64.6405ZM67.5505 8.8403V5.07031L66.9005 4.42032L66.2005 5.07031V8.50031C66.5305 8.63031 67.4305 8.75031 67.5605 8.82031M67.3705 10.1803C67.4389 10.057 67.5266 9.94561 67.6305 9.85031L66.2005 9.60031V9.98032L67.3705 10.1803ZM67.0405 4.35031L67.7605 5.07031V8.82031L68.1405 8.63031V4.8103L67.3705 4.0303L67.0405 4.35031ZM0.770517 6.42032C0.804243 5.69589 1.04954 4.99724 1.47608 4.41074C1.90263 3.82423 2.49172 3.37559 3.17051 3.1203L3.23051 3.25031C2.98833 3.51968 2.80536 3.83687 2.6934 4.18137C2.58144 4.52587 2.54298 4.89002 2.58051 5.25031C2.5272 6.1355 2.80524 7.00887 3.36051 7.70032C3.51404 7.49379 3.60437 7.24716 3.62052 6.99033V5.3103L5.6905 3.82031L5.76051 3.95032C5.58715 4.19576 5.4961 4.48986 5.5005 4.79031V5.89032C5.5005 6.67032 4.2705 7.51032 3.5005 7.77032C3.76959 8.01619 4.08519 8.20567 4.42869 8.32761C4.77219 8.44955 5.13661 8.50148 5.5005 8.48032C5.75862 8.49016 6.01703 8.47003 6.27052 8.42032V3.67032C5.6102 3.6211 4.95855 3.49009 4.33051 3.2803C3.74615 3.07592 3.13774 2.94818 2.52052 2.9003C1.68052 2.9003 0.640512 3.15031 0.640512 4.38031V4.77032L0.45051 4.8403C0.327281 4.4862 0.259798 4.11514 0.250498 3.74033C0.243378 3.36687 0.312717 2.9959 0.454203 2.65021C0.595688 2.30452 0.806337 1.9914 1.07325 1.7301C1.34017 1.46881 1.65771 1.26487 2.00633 1.13077C2.35495 0.996668 2.72729 0.935254 3.1005 0.950317C3.80551 0.981489 4.5025 1.11279 5.17051 1.3403C5.79455 1.56476 6.44822 1.69618 7.11051 1.73032C7.18073 1.73829 7.25184 1.73032 7.31855 1.707C7.38527 1.68369 7.44589 1.64561 7.49586 1.59564C7.54583 1.54567 7.58387 1.48508 7.60719 1.41837C7.6305 1.35165 7.63847 1.28055 7.6305 1.21033C7.64764 1.08967 7.61619 0.967123 7.54307 0.869629C7.46995 0.772135 7.36115 0.707642 7.24052 0.690308V0.570312C7.64861 0.582716 8.03674 0.749704 8.32636 1.03748C8.61599 1.32525 8.78549 1.71229 8.80052 2.1203C8.86052 3.1203 8.0205 3.67032 6.6005 3.67032H6.4705V8.46033C6.88501 8.39963 7.28036 8.2457 7.62678 8.01013C7.9732 7.77456 8.26167 7.46348 8.4705 7.10031L8.6005 7.17032C8.39522 8.05331 7.90309 8.84337 7.20106 9.41693C6.49903 9.9905 5.62669 10.3152 4.7205 10.3403C4.19721 10.3781 3.67188 10.3039 3.17954 10.1226C2.68721 9.94134 2.23918 9.65717 1.86537 9.28903C1.49155 8.9209 1.20056 8.47727 1.01176 7.98776C0.822961 7.49826 0.740716 6.97412 0.770517 6.45032M6.6005 3.0903C5.0405 3.0903 3.60052 2.3103 2.52052 2.3103C2.12262 2.27481 1.72397 2.36977 1.38481 2.58084C1.04564 2.79191 0.784394 3.10765 0.640512 3.48032H0.71052C0.919185 3.20508 1.19557 2.98856 1.51277 2.85187C1.82996 2.71518 2.17715 2.66297 2.52052 2.70032C3.68052 2.70032 5.0405 3.48032 6.6005 3.48032C7.8305 3.48032 8.60051 3.02032 8.67051 2.05032H8.6005C8.4705 2.83032 7.8305 3.05032 6.6005 3.05032M2.1305 4.05032C1.79535 4.35384 1.52512 4.72206 1.33607 5.13281C1.14702 5.54356 1.04306 5.98832 1.0305 6.44031C0.993659 6.93951 1.06591 7.44075 1.2422 7.90924C1.41848 8.37773 1.69461 8.80224 2.0514 9.15332C2.40819 9.5044 2.83709 9.77364 3.30836 9.94235C3.77963 10.1111 4.28196 10.1752 4.7805 10.1303C5.29333 10.119 5.79861 10.0041 6.266 9.79279C6.73339 9.58143 7.15327 9.27786 7.5005 8.9003L7.4405 8.8403C6.68284 9.47902 5.70998 9.8045 4.7205 9.75031C4.2794 9.77667 3.83775 9.70904 3.42475 9.55188C3.01176 9.39472 2.63686 9.15165 2.32487 8.83871C2.01288 8.52578 1.77094 8.15013 1.61503 7.73666C1.45912 7.3232 1.39281 6.88132 1.42051 6.44031C1.42969 5.6007 1.67205 4.78017 2.12052 4.07031L2.1305 4.05032ZM4.20051 6.83032V5.07031L3.8105 5.39032V7.07031C3.8105 7.26031 3.7505 7.39032 3.7505 7.52032H3.8105C4.02076 7.36323 4.16085 7.12975 4.20051 6.8703M23.8105 6.48032C23.8442 5.75589 24.0895 5.05724 24.5161 4.47073C24.9426 3.88423 25.5317 3.43558 26.2105 3.1803L26.2705 3.3103C26.016 3.57351 25.821 3.88826 25.6985 4.23328C25.576 4.57829 25.5289 4.94555 25.5605 5.3103C25.5023 6.19611 25.7809 7.07122 26.3405 7.76031C26.491 7.55293 26.5779 7.30624 26.5905 7.05032V5.3703L28.7305 3.82031L28.8005 3.95032C28.605 4.20758 28.5123 4.52842 28.5405 4.85031V5.95032C28.5405 6.73032 27.3105 7.57032 26.5405 7.83032C26.8096 8.07619 27.1252 8.26566 27.4687 8.3876C27.8122 8.50954 28.1766 8.56148 28.5405 8.54031C28.7986 8.55016 29.057 8.53002 29.3105 8.48032V3.67032C28.6502 3.6211 27.9986 3.49009 27.3705 3.2803C26.7862 3.07592 26.1777 2.94818 25.5605 2.9003C24.7205 2.9003 23.6805 3.15031 23.6805 4.38031V4.77032L23.5505 4.8403C23.4301 4.48583 23.3659 4.11467 23.3605 3.74033C23.3534 3.36687 23.4227 2.9959 23.5642 2.65021C23.7057 2.30452 23.9164 1.9914 24.1833 1.7301C24.4502 1.46881 24.7677 1.26487 25.1163 1.13077C25.4649 0.996668 25.8373 0.935254 26.2105 0.950317C26.9154 0.982425 27.6122 1.1137 28.2805 1.3403C28.904 1.56662 29.558 1.69809 30.2205 1.73032C30.2903 1.73642 30.3607 1.72716 30.4265 1.70319C30.4924 1.67921 30.5522 1.64111 30.6018 1.59155C30.6513 1.54199 30.6894 1.48218 30.7134 1.41632C30.7374 1.35046 30.7466 1.28015 30.7405 1.21033C30.7577 1.08967 30.7262 0.967123 30.6531 0.869629C30.58 0.772135 30.4711 0.707642 30.3505 0.690308V0.570312C30.7568 0.585193 31.1425 0.753283 31.43 1.0408C31.7176 1.32832 31.8856 1.71396 31.9005 2.1203C31.9005 3.2803 31.0605 3.80032 29.6405 3.80032H29.5105V8.5903C29.925 8.52961 30.3204 8.3757 30.6668 8.14014C31.0132 7.90457 31.3017 7.59349 31.5105 7.23032L31.6405 7.30032C31.4337 8.18251 30.9411 8.9716 30.2394 9.54489C29.5377 10.1182 28.6662 10.4435 27.7605 10.4703C27.2341 10.4829 26.7106 10.3877 26.2224 10.1905C25.7341 9.99332 25.2914 9.69832 24.9214 9.32364C24.5514 8.94896 24.262 8.50254 24.0709 8.01184C23.8799 7.52114 23.7912 6.99653 23.8105 6.47031M29.6405 3.11032C28.0805 3.11032 26.6405 2.33032 25.5605 2.33032C25.1667 2.31851 24.7783 2.42323 24.4438 2.63138C24.1094 2.83952 23.8438 3.14181 23.6805 3.50031H23.7505C23.9592 3.22507 24.2355 3.00858 24.5527 2.87189C24.8699 2.7352 25.2171 2.68296 25.5605 2.72031C26.7205 2.72031 28.0805 3.50031 29.6405 3.50031C30.8705 3.50031 31.6405 3.04031 31.7105 2.07031H31.6405C31.4505 2.85031 30.8705 3.07031 29.6405 3.07031M25.2005 4.07031C24.8654 4.37383 24.5951 4.74205 24.4061 5.1528C24.217 5.56355 24.1131 6.00834 24.1005 6.46033C24.0637 6.95953 24.1359 7.46074 24.3122 7.92923C24.4885 8.39772 24.7646 8.82223 25.1214 9.17331C25.4782 9.52439 25.9071 9.79363 26.3784 9.96234C26.8496 10.131 27.352 10.1952 27.8505 10.1503C28.3631 10.1378 28.868 10.0225 29.3353 9.81122C29.8025 9.59993 30.2226 9.29698 30.5705 8.92032L30.5105 8.86032C29.7528 9.49904 28.78 9.82452 27.7905 9.77032C27.3494 9.79669 26.9078 9.72903 26.4948 9.57187C26.0818 9.41471 25.7069 9.17164 25.3949 8.8587C25.0829 8.54577 24.8409 8.17012 24.685 7.75665C24.5291 7.34318 24.4628 6.90134 24.4905 6.46033C24.499 5.61293 24.745 4.78489 25.2005 4.07031ZM27.2705 6.85031V5.07031L26.8805 5.33032V7.01031C26.8805 7.21031 26.8205 7.34031 26.8205 7.47031H26.8805C26.9896 7.41233 27.0824 7.32797 27.1506 7.22491C27.2187 7.12186 27.2599 7.00339 27.2705 6.88031" fill="white"/>
</svg>
