<svg width="70" height="21" viewBox="0 0 70 21" fill="none" xmlns="http://www.w3.org/2000/svg">
<path d="M6.60033 4.12842H6.09033V5.44843H6.60033V4.12842Z" fill="white"/>
<path d="M12.4904 2.36865V2.92865H11.8804C11.2004 2.92865 10.5104 2.92865 9.8304 2.92865C9.19824 2.92833 8.58617 3.15062 8.10158 3.55658C7.61699 3.96254 7.29086 4.52619 7.1804 5.14862C7.1804 5.24862 7.1804 5.34862 7.1804 5.45862H6.92041V4.15863L7.03041 3.97864C7.31209 3.48653 7.72023 3.07868 8.21254 2.79736C8.70485 2.51604 9.26342 2.37144 9.8304 2.3786C10.7004 2.3786 11.6504 2.3786 12.5404 2.3786" fill="white"/>
<path d="M12.4903 3.38844V3.95845H9.98029C9.76318 3.93501 9.54357 3.95515 9.33435 4.01772C9.12514 4.08028 8.93053 4.18404 8.76193 4.32283C8.59334 4.46162 8.45417 4.63265 8.35257 4.82594C8.25097 5.01924 8.189 5.23087 8.17029 5.44844H7.65029C7.62738 4.98192 7.77355 4.52282 8.06197 4.15541C8.35038 3.788 8.76166 3.53696 9.22028 3.44844C10.3072 3.34772 11.3997 3.32103 12.4903 3.36848" fill="white"/>
<path d="M5.83018 4.14843V5.44842H5.52019C5.49048 4.92823 5.30751 4.42848 4.99432 4.01208C4.68113 3.59568 4.25173 3.28129 3.76019 3.10846C3.4396 2.99287 3.10098 2.93526 2.76019 2.93841C2.02019 2.93841 0.950195 2.93841 0.200195 2.93841V2.38842H2.88019C3.67689 2.37851 4.44682 2.67576 5.0302 3.21844C5.30978 3.53603 5.57023 3.86995 5.8102 4.21844" fill="white"/>
<path d="M5.04024 5.44861H4.49023C4.48036 5.21187 4.41222 4.98125 4.29185 4.77716C4.17149 4.57307 4.00262 4.40183 3.80023 4.27862C3.51263 4.10142 3.187 3.99516 2.85023 3.96863C2.31023 3.96863 0.800234 3.96863 0.240234 3.96863V3.3786H1.65024C2.22107 3.37177 2.79188 3.39514 3.36024 3.44861C3.8335 3.52528 4.26345 3.76938 4.57181 4.13647C4.88017 4.50357 5.04641 4.96923 5.04024 5.44861Z" fill="white"/>
<path d="M10.73 6.02832L10.07 6.70831H2.69003L2.04004 6.02832H10.73Z" fill="white"/>
<path d="M7.29034 2.99854L6.62035 3.90857H6.09035L5.36035 2.99854H7.29034Z" fill="white"/>
<path d="M7.33008 0.648438C7.03908 0.761786 6.7885 0.95937 6.61037 1.21588C6.43223 1.47239 6.33464 1.77618 6.33008 2.08844C6.32823 1.77553 6.23173 1.47052 6.05324 1.2135C5.87475 0.956478 5.62264 0.759468 5.33008 0.648438C5.38463 0.553094 5.45193 0.465614 5.53009 0.388428C5.74244 0.184316 6.02554 0.0703125 6.32008 0.0703125C6.61462 0.0703125 6.89774 0.184316 7.11009 0.388428C7.18825 0.465614 7.25553 0.553094 7.31009 0.648438" fill="white"/>
<path d="M6.33031 2.08856V2.76856H5.64032C5.43546 2.76987 5.23233 2.73081 5.04256 2.65363C4.85278 2.57644 4.68008 2.46266 4.53429 2.31873C4.3885 2.17479 4.2725 2.00359 4.19289 1.81482C4.11328 1.62605 4.07162 1.42343 4.07031 1.21857V0.538575H4.76031C4.96209 0.538407 5.16215 0.575691 5.35031 0.64856C5.64287 0.759591 5.89498 0.956601 6.07347 1.21362C6.25196 1.47065 6.34846 1.77565 6.35031 2.08856" fill="white"/>
<path d="M8.60008 0.538574V1.21857C8.59878 1.42428 8.55681 1.62771 8.47658 1.81714C8.39634 2.00656 8.27944 2.17826 8.13258 2.32233C7.98573 2.46639 7.81184 2.57997 7.62091 2.65656C7.42998 2.73314 7.22578 2.7712 7.02008 2.76855H6.33008V2.09857C6.33464 1.78631 6.43223 1.48246 6.61037 1.22595C6.7885 0.969441 7.03908 0.771918 7.33008 0.658569C7.51504 0.586689 7.71164 0.549418 7.91008 0.548584L8.60008 0.538574Z" fill="white"/>
<path d="M2.26034 8.42871V17.4287C1.96171 16.9875 1.73553 16.5013 1.59034 15.9887C1.39495 15.4749 1.29991 14.9283 1.31035 14.3787C1.31035 12.8487 1.31035 11.3787 1.31035 9.75867V8.48871L2.26034 8.42871Z" fill="white"/>
<path d="M5.19043 8.44824H7.73044V11.1982L5.19043 12.8282V8.44824Z" fill="white"/>
<path d="M2.76025 8.43817H4.69025V13.1482L2.76025 14.4082V8.4082V8.43817Z" fill="white"/>
<path d="M10.0402 17.9883C9.72498 18.3327 9.36114 18.6292 8.96017 18.8683C8.71227 19.0157 8.45113 19.1396 8.18018 19.2383V14.1783L10.0402 13.0083V18.0083V17.9883Z" fill="white"/>
<path d="M4.81032 15.8685V19.2785C4.49709 19.1815 4.19531 19.0507 3.91031 18.8885H3.82031C3.45647 18.647 3.12102 18.3652 2.82031 18.0485V14.8085L8.22031 11.3485V8.43848H10.0103V12.6085L4.85031 15.8785" fill="white"/>
<path d="M7.67044 19.3882C7.24393 19.5062 6.80293 19.5634 6.36044 19.5583C5.96671 19.5606 5.57404 19.517 5.19043 19.4283V16.0583C5.97043 15.5783 6.72044 15.0583 7.67044 14.4883C7.67044 16.2083 7.67044 17.8182 7.67044 19.3882Z" fill="white"/>
<path d="M11.42 8.42865C11.42 10.8087 11.42 14.5186 11.42 14.9886C11.3335 15.5432 11.1579 16.0801 10.9 16.5786C10.8 16.8153 10.6796 17.0428 10.54 17.2586V8.36865L11.42 8.42865Z" fill="white"/>
<path d="M12.4802 7.33838H0.240206C0.240206 9.71838 0.240206 12.0284 0.240206 14.3384C0.225743 14.947 0.320578 15.5532 0.520205 16.1284C0.570205 16.2584 0.61021 16.3784 0.65021 16.5084C1.04037 17.7495 1.83182 18.8259 2.90021 19.5684C3.55813 20.0475 4.30664 20.3877 5.10021 20.5684C5.51081 20.6576 5.93002 20.7012 6.35021 20.6984C6.82131 20.6962 7.29078 20.6426 7.75022 20.5384C8.55403 20.3433 9.30947 19.986 9.9702 19.4884C10.7735 18.8911 11.4077 18.095 11.8102 17.1784C11.9498 16.9272 12.0637 16.6624 12.1502 16.3884C12.3516 15.7409 12.4528 15.0664 12.4502 14.3884C12.4502 12.9384 12.4502 9.45837 12.4502 7.38837M11.8202 8.01837C11.8202 10.0884 11.8202 13.0884 11.8202 14.3684C11.824 14.9755 11.7329 15.5794 11.5502 16.1584C11.4793 16.3904 11.3855 16.6149 11.2702 16.8284V16.9284C10.8445 17.8661 10.1581 18.6616 9.29285 19.2201C8.42762 19.7786 7.42004 20.0765 6.39022 20.0784C6.01363 20.0791 5.63808 20.0389 5.27021 19.9584C4.55356 19.8111 3.87358 19.5222 3.27021 19.1084C2.32672 18.4377 1.62521 17.4801 1.27021 16.3784C1.27021 16.2484 1.19022 16.1184 1.14022 15.9784C0.965843 15.4702 0.881247 14.9356 0.890215 14.3984C0.890215 12.7484 0.890215 11.1384 0.890215 9.39838V7.9884L11.8202 8.01837Z" fill="white"/>
<path d="M29.25 17.9482H28.73V19.7183H29.25V17.9482Z" fill="white"/>
<path d="M32.4402 17.9482V19.7183H32.0102L31.1902 18.7783V19.7183H30.6802V17.9482H31.1102L31.9302 18.8882V17.9482H32.4402Z" fill="white"/>
<path d="M33.7402 19.5583L33.9102 19.1882C34.0933 19.3029 34.3043 19.3652 34.5202 19.3683C34.7402 19.3683 34.8202 19.3083 34.8202 19.2183C34.8202 18.9383 33.7702 19.1483 33.7702 18.4883C33.7702 18.1783 34.0402 17.9183 34.5902 17.9183C34.8224 17.9135 35.0523 17.9649 35.2602 18.0682L35.1002 18.4382C34.9428 18.3554 34.7681 18.3109 34.5902 18.3083C34.3702 18.3083 34.2902 18.3783 34.2902 18.4683C34.2902 18.7383 35.3402 18.5283 35.3402 19.1783C35.3402 19.4883 35.0702 19.7482 34.5202 19.7482C34.2476 19.7585 33.9776 19.6928 33.7402 19.5583Z" fill="white"/>
<path d="M37.0104 18.3483H36.4404V17.9482H38.0904V18.3483H37.5304V19.7183H37.0104V18.3483Z" fill="white"/>
<path d="M39.8701 17.9482H39.3501V19.7183H39.8701V17.9482Z" fill="white"/>
<path d="M41.7004 18.3483H41.1304V17.9482H42.7904V18.3483H42.2204V19.7183H41.7004V18.3483Z" fill="white"/>
<path d="M44.04 18.9287V17.9287H44.57V18.9287C44.57 19.2287 44.7 19.3487 44.92 19.3487C45.14 19.3487 45.27 19.2287 45.27 18.9287V17.9287H45.78V18.9287C45.78 19.1594 45.6884 19.3807 45.5252 19.5439C45.3621 19.707 45.1408 19.7987 44.91 19.7987C44.6793 19.7987 44.458 19.707 44.2949 19.5439C44.1317 19.3807 44.04 19.1594 44.04 18.9287Z" fill="white"/>
<path d="M47.5104 18.3483H46.9404V17.9482H48.6004V18.3483H48.0304V19.7183H47.5104V18.3483Z" fill="white"/>
<path d="M50.3701 17.9482H49.8501V19.7183H50.3701V17.9482Z" fill="white"/>
<path d="M53.2401 18.8385C53.2401 18.7396 53.2108 18.643 53.1559 18.5607C53.1009 18.4785 53.0228 18.4144 52.9315 18.3766C52.8401 18.3387 52.7396 18.3288 52.6426 18.3481C52.5456 18.3674 52.4565 18.415 52.3866 18.4849C52.3166 18.5549 52.269 18.644 52.2497 18.741C52.2304 18.838 52.2403 18.9385 52.2782 19.0298C52.316 19.1212 52.3801 19.1993 52.4623 19.2542C52.5446 19.3092 52.6412 19.3385 52.7401 19.3385C52.8061 19.3399 52.8718 19.3279 52.9331 19.3032C52.9943 19.2786 53.05 19.2418 53.0967 19.1951C53.1434 19.1484 53.1802 19.0927 53.2048 19.0314C53.2295 18.9702 53.2415 18.9045 53.2401 18.8385ZM51.7101 18.8385C51.692 18.6379 51.7349 18.4365 51.8332 18.2606C51.9314 18.0848 52.0805 17.9427 52.2609 17.853C52.4413 17.7634 52.6446 17.7303 52.8441 17.7581C53.0436 17.7859 53.2301 17.8733 53.3791 18.0089C53.5281 18.1445 53.6327 18.3219 53.6791 18.5179C53.7256 18.714 53.7117 18.9194 53.6394 19.1074C53.5671 19.2954 53.4397 19.4573 53.2739 19.5717C53.1081 19.686 52.9116 19.7477 52.7101 19.7485C52.4598 19.7495 52.2182 19.6566 52.033 19.4881C51.8479 19.3196 51.7326 19.0878 51.7101 18.8385Z" fill="white"/>
<path d="M56.8601 17.9482V19.7183H56.4301L55.6201 18.7783V19.7183H55.1001V17.9482H55.5301L56.3501 18.8882V17.9482H56.8601Z" fill="white"/>
<path d="M58.1602 19.5583L58.3302 19.1882C58.5132 19.3029 58.7242 19.3652 58.9402 19.3683C59.1602 19.3683 59.2502 19.3083 59.2502 19.2183C59.2502 18.9383 58.1902 19.1483 58.1902 18.4883C58.1902 18.1783 58.4602 17.9183 59.0102 17.9183C59.2423 17.9135 59.4722 17.9649 59.6802 18.0682L59.5202 18.4382C59.3748 18.3483 59.2104 18.2936 59.0402 18.2783C58.8202 18.2783 58.7402 18.3482 58.7402 18.4382C58.7402 18.7082 59.7902 18.4983 59.7902 19.1483C59.7902 19.4583 59.5202 19.7183 58.9702 19.7183C58.6977 19.727 58.4281 19.6613 58.1902 19.5283" fill="white"/>
<path d="M51.9104 10.8683H49.9804C49.8704 10.4083 49.6704 10.2282 49.1304 10.2082C48.3704 10.2082 47.6004 10.2082 46.8404 10.2082C46.6996 10.2214 46.5614 10.2551 46.4304 10.3083C46.3609 10.3267 46.2999 10.3686 46.258 10.427C46.216 10.4853 46.1957 10.5565 46.2004 10.6282C46.2004 10.7982 46.2604 10.9382 46.4104 10.9782C46.6319 11.0614 46.8643 11.1119 47.1004 11.1282C47.9104 11.1882 48.7104 11.1982 49.5204 11.2682C49.9612 11.3061 50.3969 11.3899 50.8204 11.5182C51.1398 11.5971 51.4245 11.7788 51.6305 12.0354C51.8365 12.292 51.9524 12.6092 51.9604 12.9382C52.0017 13.3313 51.9503 13.7286 51.8104 14.0982C51.7072 14.3484 51.5452 14.57 51.338 14.7441C51.1308 14.9182 50.8846 15.0397 50.6204 15.0982C50.1207 15.2357 49.6078 15.3195 49.0904 15.3482C48.2204 15.3482 47.3404 15.3482 46.4704 15.3482C45.9623 15.3256 45.4677 15.1779 45.0304 14.9182C44.8383 14.8145 44.6699 14.672 44.5356 14.4999C44.4014 14.3278 44.3043 14.1298 44.2504 13.9182C44.2004 13.6782 44.1704 13.4482 44.1304 13.1882H46.0404C46.0404 13.6382 46.4204 13.7782 46.8004 13.8182C47.6769 13.9282 48.5638 13.9282 49.4404 13.8182C49.5432 13.7939 49.6436 13.7605 49.7404 13.7182C49.8368 13.6966 49.9215 13.6391 49.9772 13.5574C50.0329 13.4757 50.0555 13.3759 50.0404 13.2782C50.0541 13.1901 50.0379 13.0999 49.9944 13.0219C49.9509 12.944 49.8826 12.8829 49.8004 12.8482C49.5179 12.7544 49.2263 12.6907 48.9304 12.6582C48.1504 12.5982 47.3704 12.5782 46.5804 12.5282C46.0872 12.509 45.6021 12.397 45.1504 12.1982C44.8941 12.0967 44.6733 11.9223 44.5151 11.6966C44.3569 11.4708 44.2684 11.2038 44.2604 10.9283C44.2143 10.6441 44.2356 10.3532 44.3224 10.0788C44.4093 9.80435 44.5593 9.55414 44.7604 9.34823C45.0461 9.09567 45.3895 8.9171 45.7604 8.82821C46.437 8.68202 47.1283 8.61489 47.8204 8.6282C48.6527 8.58785 49.4867 8.65849 50.3004 8.83822C50.6612 8.89625 50.9965 9.06039 51.2636 9.30972C51.5308 9.55905 51.7176 9.88232 51.8004 10.2382C51.8004 10.4482 51.8504 10.6682 51.8804 10.9182" fill="white"/>
<path d="M38.0403 11.9683H38.2303H40.5803C40.6734 11.978 40.7673 11.978 40.8604 11.9683C41.0249 11.9261 41.1718 11.8326 41.2796 11.7014C41.3875 11.5701 41.4508 11.408 41.4603 11.2383C41.4702 11.128 41.4567 11.0168 41.4208 10.912C41.3849 10.8073 41.3273 10.7112 41.2519 10.6301C41.1765 10.549 41.0848 10.4847 40.9829 10.4413C40.881 10.398 40.7711 10.3765 40.6603 10.3783H38.2403H38.0803V11.9683H38.0403ZM36.1104 8.77832H36.3203C37.9003 8.77832 39.4903 8.77832 41.0703 8.77832C41.578 8.78987 42.0688 8.96283 42.4716 9.27209C42.8743 9.58136 43.1681 10.0108 43.3103 10.4983C43.4433 10.9387 43.444 11.4085 43.3125 11.8494C43.181 12.2902 42.9229 12.6828 42.5703 12.9783L42.4303 13.0983C42.4303 13.0983 42.4303 13.0983 42.4303 13.1683L43.4303 15.1683H41.2504C40.9804 14.6483 40.7003 14.1683 40.4203 13.6083H38.0403V15.1683H36.1104V8.77832Z" fill="white"/>
<path d="M24.6303 11.1583V8.77832H26.5503V15.1483H24.6303V12.7783H21.0103V15.1483H19.0903V8.77832H21.0103V11.1583H24.6303Z" fill="white"/>
<path d="M60.3902 15.1583H58.4802V12.7783H54.8702V15.1483H52.9302V8.77832H54.8502V11.1583H58.4602V8.77832H60.3902V15.1583Z" fill="white"/>
<path d="M66.14 12.8583L65.22 10.9683H65.15C64.85 11.5883 64.54 12.1983 64.22 12.8483L66.14 12.8583ZM69.4 15.1483H67.29L66.94 14.4683H63.45L63.1 15.1483H61.04L64.17 8.77832H66.32L69.45 15.1483" fill="white"/>
<path d="M30.3804 12.8586H32.3004C31.9704 12.2086 31.7104 11.5686 31.3704 10.9686H31.3104L30.3804 12.8486M30.2804 8.76855H32.4304L35.5604 15.1385H33.4504C33.3304 14.9185 33.2204 14.6986 33.1004 14.4586H29.6104C29.4904 14.6786 29.3804 14.9085 29.2604 15.1385H27.1504C28.1504 13.0085 29.2404 10.8986 30.2804 8.76855Z" fill="white"/>
<path d="M27.1503 18.8486H19.0903V19.1786H27.1503V18.8486Z" fill="white"/>
<path d="M69.4003 18.8486H61.3403V19.1786H69.4003V18.8486Z" fill="white"/>
</svg>
