<svg width="66" height="14" viewBox="0 0 66 14" fill="none" xmlns="http://www.w3.org/2000/svg">
<path d="M64.0404 12.5802C64.3787 12.3792 64.6911 12.1374 64.9704 11.8602C65.2089 11.61 65.4201 11.3351 65.6004 11.0402C65.7222 10.8539 65.8325 10.6601 65.9304 10.4602V13.1602H58.6704L62.9804 4.76019H61.7704C61.3466 4.75347 60.9288 4.86052 60.5604 5.07019C60.2221 5.27116 59.9097 5.51301 59.6304 5.79022C59.3945 6.03904 59.1835 6.31033 59.0004 6.60022C58.8747 6.79466 58.7644 6.9986 58.6704 7.21021V4.49023H65.9304L61.6404 12.8902H62.8304C63.2544 12.8984 63.6726 12.7913 64.0404 12.5802Z" fill="white"/>
<path d="M6.2402 12.6505C6.72505 12.5081 7.18657 12.2959 7.6102 12.0204C8.01162 11.766 8.37521 11.4563 8.69022 11.1005C8.98714 10.7671 9.22396 10.3848 9.3902 9.97046V13.1505H0.200195C0.454836 13.044 0.671072 12.8627 0.82019 12.6304C0.97858 12.3939 1.06222 12.1151 1.06021 11.8304V2.54047C1.06393 2.26174 0.979953 1.98886 0.82019 1.76044C0.671175 1.52574 0.455213 1.34116 0.200195 1.23047H8.9902V4.42047C8.82397 4.00616 8.58711 3.62382 8.29019 3.29047C7.97286 2.93411 7.60971 2.6214 7.21021 2.36047C6.33854 1.80178 5.32553 1.50345 4.29019 1.50049H3.7402V6.92047H3.9202C4.38256 6.92526 4.84443 6.88846 5.3002 6.81049C5.65316 6.75425 5.99239 6.63208 6.3002 6.45044C6.57702 6.27432 6.82072 6.05095 7.0202 5.79047C7.24873 5.47699 7.44632 5.14209 7.6102 4.79047V9.25049C7.44362 8.9003 7.24617 8.56564 7.0202 8.25049C6.8231 7.99057 6.57885 7.77005 6.3002 7.60046C5.99091 7.41993 5.65251 7.29473 5.3002 7.23047C4.84407 7.15632 4.38225 7.12282 3.9202 7.13043H3.7402V12.8304H4.69022C5.21312 12.8519 5.73614 12.7912 6.2402 12.6505Z" fill="white"/>
<path d="M16.1301 4.51019H16.9301V4.7702H16.1301V10.0202C16.1186 10.4881 16.1691 10.9555 16.2801 11.4102C16.3444 11.7032 16.482 11.975 16.6801 12.2002C16.7509 12.28 16.8392 12.3423 16.9381 12.3822C17.037 12.4221 17.1438 12.4386 17.2501 12.4302C17.4875 12.4089 17.7135 12.3185 17.9001 12.1702C17.6993 12.4684 17.428 12.7123 17.1101 12.8802C16.8055 13.0558 16.4616 13.1521 16.1101 13.1602C15.804 13.1592 15.5 13.1085 15.2101 13.0102C14.9069 12.8961 14.6334 12.7149 14.4101 12.4802C14.1536 12.1895 13.9596 11.8491 13.8401 11.4802C13.6759 11.0011 13.598 10.4966 13.6101 9.99023V4.74023H13.1201V4.48022C13.3787 4.46226 13.6307 4.39073 13.8601 4.2702C14.189 4.12435 14.4954 3.93242 14.7701 3.7002C15.0837 3.44776 15.3627 3.15527 15.6001 2.8302C15.8521 2.50989 16.0297 2.13761 16.1201 1.74023V4.48022L16.1301 4.51019Z" fill="white"/>
<path d="M29.8702 12.6303C30.0244 12.8605 30.2389 13.0439 30.4902 13.1603H26.2702C26.5216 13.0439 26.7361 12.8605 26.8902 12.6303C27.0457 12.3929 27.1258 12.1141 27.1202 11.8303V7.12036C27.1368 6.8085 27.0378 6.50144 26.8423 6.25793C26.6467 6.01443 26.3683 5.85156 26.0602 5.80035C25.7538 5.73938 25.4361 5.77427 25.1502 5.90033C24.816 6.03366 24.5373 6.27708 24.3602 6.59033V11.8303C24.3593 12.1134 24.4391 12.3909 24.5902 12.6303C24.7415 12.863 24.9568 13.0471 25.2102 13.1603H20.9902C21.2456 13.0502 21.4617 12.8654 21.6102 12.6303C21.7686 12.3937 21.8522 12.115 21.8502 11.8303V1.98035C21.8585 1.71024 21.7737 1.44549 21.6102 1.23035C21.4574 1.02588 21.2382 0.880898 20.9902 0.820312L25.2102 0.0703125C24.9562 0.22775 24.7436 0.443789 24.5902 0.700317C24.4424 0.955774 24.3631 1.24519 24.3602 1.54034V6.20032C24.6764 5.67511 25.1202 5.23831 25.6502 4.93036C26.1164 4.65176 26.6473 4.50006 27.1902 4.49036C27.509 4.48903 27.825 4.55017 28.1202 4.67035C28.4167 4.78143 28.6837 4.95933 28.9002 5.19031C29.1359 5.44944 29.3192 5.75166 29.4402 6.08032C29.5794 6.48557 29.647 6.91192 29.6402 7.34033V11.8303C29.6346 12.1141 29.7148 12.3929 29.8702 12.6303Z" fill="white"/>
<path d="M43.1805 12.6302C43.3322 12.8625 43.5474 13.0465 43.8005 13.1602H39.5505C39.8019 13.0438 40.0164 12.8604 40.1705 12.6302C40.3216 12.3908 40.4014 12.1133 40.4005 11.8302V7.12024C40.4167 6.79154 40.3057 6.46921 40.0905 6.22022C39.8944 6.00046 39.6304 5.85263 39.3405 5.80023C39.0341 5.73926 38.7164 5.77415 38.4305 5.90021C38.0963 6.03354 37.8176 6.27696 37.6405 6.59021V11.8302C37.6396 12.1133 37.7194 12.3908 37.8705 12.6302C38.0218 12.8629 38.2371 13.047 38.4905 13.1602H34.2705C34.5259 13.0501 34.742 12.8653 34.8905 12.6302C35.0459 12.3927 35.1261 12.1139 35.1205 11.8302V6.42023C35.1322 6.14505 35.0512 5.87388 34.8905 5.65021C34.7344 5.44924 34.5166 5.3052 34.2705 5.24024L38.4905 4.49024C38.236 4.65141 38.0235 4.87073 37.8705 5.13019C37.7243 5.3827 37.6451 5.66845 37.6405 5.96021V6.2002C37.9513 5.67077 38.3963 5.23274 38.9305 4.93024C39.3966 4.65164 39.9276 4.49994 40.4705 4.49024C40.7892 4.48992 41.105 4.55103 41.4005 4.67023C41.697 4.78131 41.9639 4.95921 42.1805 5.19019C42.4127 5.45185 42.5957 5.75339 42.7205 6.0802C42.8596 6.48545 42.9273 6.9118 42.9205 7.34021V11.8302C42.9285 12.1163 43.0188 12.394 43.1805 12.6302Z" fill="white"/>
<path d="M53.2601 8.49017C52.5014 8.12137 51.6687 7.92969 50.8251 7.92969C49.9815 7.92969 49.1489 8.12137 48.3901 8.49017C47.8255 8.77355 47.3119 9.14863 46.8701 9.60016C46.9089 9.89415 46.969 10.1849 47.0501 10.4702C47.1728 10.8747 47.3548 11.2589 47.5901 11.6102C47.8705 11.1184 48.2564 10.6949 48.7201 10.3702C49.3403 9.94625 50.0739 9.71942 50.8251 9.71942C51.5763 9.71942 52.31 9.94625 52.9301 10.3702C53.3968 10.6945 53.786 11.118 54.0701 11.6102C54.3112 11.2623 54.4937 10.8771 54.6101 10.4702C54.6924 10.1858 54.7493 9.89462 54.7801 9.60016C54.3383 9.14863 53.8247 8.77355 53.2601 8.49017Z" fill="white"/>
<path d="M49.9805 7.47009C50.262 7.42997 50.5461 7.40993 50.8305 7.4101C51.1824 7.41024 51.5337 7.44038 51.8805 7.50012C52.0657 7.09078 52.3231 6.71813 52.6405 6.40009C52.9551 6.09031 53.3203 5.83665 53.7205 5.65009C53.4105 5.32446 53.0447 5.05694 52.6405 4.86011C52.4258 4.7578 52.2013 4.67741 51.9705 4.62012C51.7615 4.77926 51.5612 4.94945 51.3705 5.13007C50.7218 5.78389 50.2443 6.58765 49.9805 7.47009Z" fill="white"/>
<path d="M52.6402 10.8005C52.1079 10.4288 51.4744 10.2295 50.8252 10.2295C50.176 10.2295 49.5424 10.4288 49.0102 10.8005C48.5528 11.1122 48.1869 11.5402 47.9502 12.0405C48.1482 12.2527 48.3735 12.4376 48.6202 12.5905C48.8992 12.7508 49.1941 12.8815 49.5002 12.9805C49.5971 12.7052 49.7771 12.4667 50.0154 12.298C50.2536 12.1293 50.5383 12.0387 50.8302 12.0387C51.1221 12.0387 51.4068 12.1293 51.6451 12.298C51.8833 12.4667 52.0633 12.7052 52.1602 12.9805C52.4683 12.8824 52.7637 12.7481 53.0402 12.5805C53.1571 12.5542 53.2676 12.5052 53.3656 12.4362C53.4635 12.3672 53.5469 12.2796 53.611 12.1784C53.675 12.0772 53.7185 11.9643 53.739 11.8463C53.7594 11.7283 53.7565 11.6074 53.7302 11.4905C53.7039 11.3737 53.6549 11.2631 53.5859 11.1652C53.5169 11.0672 53.4293 10.9839 53.3281 10.9198C53.2269 10.8557 53.114 10.8122 52.996 10.7917C52.878 10.7713 52.7571 10.7743 52.6402 10.8005Z" fill="white"/>
<path d="M52.3906 7.62036C52.7692 7.72271 53.1374 7.85994 53.4906 8.03033C53.6793 8.12394 53.8629 8.22742 54.0406 8.34033C54.1026 8.22989 54.1801 8.12888 54.2706 8.04034C54.3997 7.90488 54.5566 7.7991 54.7306 7.73035C54.7306 7.56035 54.6506 7.39033 54.6006 7.21033C54.4865 6.80249 54.3039 6.417 54.0606 6.07031C53.6614 6.22531 53.3 6.464 53.0006 6.77032C52.7523 7.01851 52.5463 7.30567 52.3906 7.62036Z" fill="white"/>
<path d="M47.8504 7.77026C47.6223 7.54597 47.345 7.37817 47.0404 7.28027C46.8912 7.7833 46.8171 8.30558 46.8204 8.83026V8.94025C47.207 8.59989 47.6334 8.30776 48.0904 8.07025C48.0216 7.96179 47.9411 7.86121 47.8504 7.77026Z" fill="white"/>
<path d="M48.5504 7.85028C48.8256 7.73629 49.1099 7.64594 49.4004 7.58026C49.4909 7.20531 49.6182 6.84024 49.7804 6.4903C49.6804 6.3703 49.5804 6.25026 49.4704 6.14026C49.1211 5.80312 48.7233 5.52004 48.2904 5.30029C47.797 5.68952 47.4171 6.20409 47.1904 6.79028C47.564 6.92351 47.905 7.13488 48.1904 7.41028C48.3267 7.54284 48.4475 7.69045 48.5504 7.85028Z" fill="white"/>
<path d="M54.46 8.6405C54.59 8.73191 54.7136 8.83213 54.83 8.94049V8.83051C54.8402 8.64398 54.8402 8.45703 54.83 8.27051C54.767 8.30487 54.7096 8.34872 54.6599 8.40051C54.5811 8.46954 54.5136 8.55052 54.46 8.6405Z" fill="white"/>
<path d="M50.83 12.54C50.6529 12.5399 50.4796 12.592 50.332 12.6898C50.1844 12.7877 50.0689 12.9269 50 13.09C50.2744 13.1349 50.5519 13.1583 50.83 13.16C51.1047 13.1583 51.3789 13.1349 51.65 13.09C51.5818 12.9284 51.4678 12.7903 51.3221 12.6926C51.1765 12.5949 51.0054 12.5418 50.83 12.54Z" fill="white"/>
<path d="M50.0601 6.00042C50.3238 5.55481 50.6394 5.1419 51.0001 4.77038L51.29 4.51037H50.82C50.1963 4.49297 49.5769 4.61958 49.01 4.88036L48.79 5.00042C49.1785 5.21711 49.5351 5.4863 49.85 5.80041L50.0601 6.00042Z" fill="white"/>
</svg>
