<svg width="63" height="13" viewBox="0 0 63 13" fill="none" xmlns="http://www.w3.org/2000/svg">
<path d="M6.85973 0.401825H2.39973C2.12387 0.377947 1.84697 0.434095 1.60221 0.563568C1.35746 0.693041 1.15522 0.890359 1.01973 1.13184C0.87568 1.49915 0.81358 1.89348 0.837761 2.28729C0.861942 2.6811 0.971826 3.0649 1.15973 3.41183L3.07973 6.52182C3.13452 6.59189 3.16831 6.67608 3.17716 6.76459C3.18601 6.8531 3.16956 6.94229 3.12973 7.02182C3.08711 7.09163 3.02666 7.14883 2.95459 7.1875C2.88253 7.22617 2.80145 7.24491 2.71973 7.24182H0.719727L1.27973 10.1618H5.83973C6.17858 10.1823 6.51543 10.0971 6.80381 9.91794C7.09218 9.73882 7.31787 9.47465 7.44973 9.16183C7.58473 8.84828 7.63723 8.50539 7.60222 8.1658C7.56721 7.82622 7.44587 7.50125 7.24973 7.22183L5.27973 3.65182C5.26393 3.62086 5.25569 3.58658 5.25569 3.55182C5.25569 3.51705 5.26393 3.48278 5.27973 3.45181C5.29833 3.43082 5.32157 3.41447 5.34762 3.40405C5.37366 3.39364 5.40178 3.38944 5.42973 3.39182H7.42973L6.85973 0.401825ZM13.9797 10.1718C12.9158 10.1974 11.8643 9.93941 10.9329 9.42453C10.0016 8.90965 9.22393 8.15635 8.67973 7.24182C7.49973 5.45182 7.21973 0.511836 11.8997 0.381836C13.1097 0.381836 14.0997 0.381836 14.0997 0.381836L14.6997 3.38184H12.6197C12.4376 3.36312 12.2536 3.38368 12.0801 3.44214C11.9067 3.5006 11.7477 3.59559 11.6141 3.7207C11.4804 3.84581 11.3752 3.99813 11.3054 4.16739C11.2357 4.33664 11.203 4.51887 11.2097 4.70181C11.2097 5.38181 11.2997 6.70182 13.5397 7.21182C13.9771 7.31486 14.4324 7.31486 14.8697 7.21182L13.9797 10.1218V10.1718ZM15.6997 3.74182H19.0897V10.1618H15.6997V3.74182ZM38.0397 0.411835L37.1197 4.76181L36.2797 0.411835H32.9197L35.3197 10.1718H38.7397L39.4997 6.39182L40.1697 9.5618L41.5597 3.80182L41.0597 0.411835H38.0397Z" fill="white"/>
<path d="M42.9196 0.412109L42.6396 1.80209H48.8096L49.2096 0.412109H42.9196Z" fill="white"/>
<path d="M42.5198 2.27197L42.0698 3.98196H44.9898L45.5298 2.27197H42.5198Z" fill="white"/>
<path d="M41.9196 4.65186L41.5996 5.99185H47.2596L47.6696 4.65186H41.9196Z" fill="white"/>
<path d="M41.57 6.52197H44.57L43.73 10.162H40.73L41.57 6.52197Z" fill="white"/>
<path d="M48.3599 10.1716H50.2499L52.7199 0.411621H50.9199L48.3599 10.1716ZM53.9199 0.391602H55.7799L57.1199 3.7016L60.3299 0.391602H62.3299L57.8399 5.3316L59.9699 10.1616H58.0499L56.5499 6.7616L53.3499 10.1616H51.2199L55.8499 5.06161L53.9199 0.391602Z" fill="white"/>
<path d="M25.2602 0.391602H32.2602L33.0502 3.31161H28.9702V3.85162H32.4502L31.5402 6.74161H28.9202V7.21161H33.2602L32.3402 10.1616H25.2702L25.2602 0.391602ZM27.3802 11.3216C26.2213 10.8787 25.1511 10.2318 24.2202 9.41162C23.4208 8.7122 22.8495 7.78908 22.5802 6.7616C22.5802 6.7616 24.9202 4.9516 24.3902 2.7616C23.7802 0.331597 22.2602 0.411621 19.9202 0.411621H15.7902L15.2402 3.41162H19.7902C20.3102 3.41162 20.9202 3.4116 20.9102 4.2616C20.9002 5.1116 19.3802 5.79163 19.3802 5.79163C19.3802 5.79163 19.1402 7.52164 21.2902 10.1816C22.1134 11.1563 23.0276 12.0503 24.0202 12.8516L27.3802 11.3216Z" fill="white"/>
</svg>
