<svg width="230" height="143" viewBox="0 0 230 143" fill="none" xmlns="http://www.w3.org/2000/svg">
<g clip-path="url(#clip0_1_95)">
<mask id="mask0_1_95" style="mask-type:luminance" maskUnits="userSpaceOnUse" x="0" y="0" width="230" height="143">
<path d="M229.19 0H0V142.08H229.19V0Z" fill="white"/>
</mask>
<g mask="url(#mask0_1_95)">
<path d="M11.85 115.25H18.53V119.9H14C12.9792 119.921 11.9651 119.73 11.0219 119.34C10.0786 118.949 9.2267 118.367 8.51998 117.63C7.79554 116.909 7.22068 116.052 6.82843 115.108C6.43617 114.164 6.23425 113.152 6.23425 112.13C6.23425 111.108 6.43617 110.096 6.82843 109.152C7.22068 108.208 7.79554 107.351 8.51998 106.63C9.23076 105.9 10.0841 105.325 11.0269 104.94C11.9697 104.554 12.9817 104.367 14 104.39C15.0195 104.369 16.0322 104.562 16.9726 104.957C17.913 105.351 18.7603 105.938 19.46 106.68L19.84 107.06L24.25 102.67L23.86 102.28C22.1279 100.564 19.9776 99.33 17.6221 98.7003C15.2665 98.0706 12.7873 98.0671 10.43 98.69C8.06004 99.3042 5.90042 100.548 4.17998 102.29C2.88646 103.584 1.86038 105.119 1.16033 106.809C0.460286 108.499 0.0999756 110.311 0.0999756 112.14C0.0999756 113.969 0.460286 115.781 1.16033 117.471C1.86038 119.161 2.88646 120.696 4.17998 121.99C5.45548 123.299 6.98373 124.334 8.67186 125.034C10.36 125.733 12.1727 126.083 14 126.06H24.7V109.06H11.85V115.25Z" fill="#1C75BC"/>
<path d="M27 126.06H51.59V119.9H33.16V115.25H51.59V109.05H33.16V104.39H51.59V98.23H27V126.06Z" fill="#1C75BC"/>
<path d="M69.53 111.39L60.49 98.23H54.01V126.06H60.17V108.72L69.53 122.31L78.89 108.72V126.06H85.05V98.23H78.57L69.53 111.39Z" fill="#1C75BC"/>
<path d="M114.09 98.23H99.52V126.06H105.68V118.92H113.74C115.1 118.944 116.451 118.69 117.709 118.175C118.968 117.659 120.108 116.892 121.06 115.92C122.985 114.006 124.077 111.409 124.1 108.695C124.122 105.98 123.073 103.366 121.18 101.42C119.328 99.4698 116.778 98.3334 114.09 98.26M116.69 111.57C116.302 111.969 115.834 112.283 115.318 112.492C114.801 112.7 114.247 112.798 113.69 112.78H105.63V104.42H113.69C114.239 104.414 114.783 104.521 115.289 104.734C115.795 104.947 116.251 105.263 116.63 105.66C117.413 106.444 117.854 107.507 117.854 108.615C117.854 109.723 117.413 110.786 116.63 111.57" fill="#1C75BC"/>
<path d="M132.24 98.23H126.08V126.06H150.67V119.9H132.24V98.23Z" fill="#1C75BC"/>
<path d="M162 98.23L152.46 126.06H159L160.34 122.13H169.88L171.22 126.06H177.75L168.21 98.23H162ZM167.72 116H162.42L165.07 108.31L167.72 116Z" fill="#1C75BC"/>
<path d="M194 98.23H186.44C184.257 98.3359 182.198 99.2777 180.691 100.86C179.183 102.443 178.342 104.544 178.342 106.73C178.342 108.916 179.183 111.017 180.691 112.6C182.198 114.182 184.257 115.124 186.44 115.23H194C194.309 115.23 194.615 115.291 194.9 115.41C195.179 115.529 195.433 115.699 195.65 115.91C195.858 116.126 196.027 116.376 196.15 116.65C196.303 117.005 196.365 117.393 196.33 117.778C196.296 118.163 196.166 118.533 195.953 118.856C195.739 119.178 195.449 119.442 195.108 119.625C194.767 119.807 194.387 119.902 194 119.9H186.44C186.134 119.901 185.83 119.842 185.547 119.725C185.264 119.609 185.006 119.437 184.789 119.22C184.573 119.004 184.401 118.746 184.285 118.463C184.168 118.18 184.109 117.876 184.11 117.57V117H178V117.54C177.999 118.655 178.217 119.76 178.644 120.791C179.07 121.821 179.695 122.758 180.484 123.546C181.272 124.335 182.209 124.96 183.239 125.386C184.27 125.813 185.375 126.031 186.49 126.03H194C195.151 126.086 196.301 125.907 197.381 125.505C198.461 125.103 199.448 124.486 200.282 123.692C201.117 122.897 201.781 121.941 202.235 120.882C202.688 119.823 202.922 118.682 202.922 117.53C202.922 116.378 202.688 115.237 202.235 114.178C201.781 113.119 201.117 112.163 200.282 111.368C199.448 110.574 198.461 109.957 197.381 109.555C196.301 109.153 195.151 108.974 194 109.03H186.44C186.132 109.034 185.827 108.976 185.543 108.857C185.259 108.738 185.003 108.562 184.79 108.34C184.355 107.905 184.111 107.315 184.111 106.7C184.111 106.085 184.355 105.495 184.79 105.06C185.003 104.838 185.259 104.662 185.543 104.543C185.827 104.424 186.132 104.365 186.44 104.37H194C194.617 104.373 195.208 104.619 195.645 105.055C196.081 105.492 196.327 106.083 196.33 106.7V107.24H202.53V106.7C202.512 104.449 201.605 102.296 200.008 100.71C198.41 99.1238 196.251 98.2325 194 98.23Z" fill="#1C75BC"/>
<path d="M204.51 98.23V104.39H213.72V126.06H219.88V104.39H229.09V98.23H204.51Z" fill="#1C75BC"/>
<path d="M8.17 141.22C7.94467 141.491 7.66178 141.71 7.34182 141.858C7.02186 142.007 6.67283 142.083 6.32 142.08C5.79535 142.046 5.28442 141.898 4.82315 141.646C4.36187 141.394 3.96144 141.044 3.65 140.62C3.14452 140.621 2.64412 140.519 2.17872 140.322C1.71331 140.125 1.29246 139.836 0.941318 139.472C0.590175 139.108 0.315953 138.678 0.135043 138.206C-0.045866 137.734 -0.129747 137.23 -0.111586 136.725C-0.0934246 136.22 0.0264064 135.723 0.240743 135.266C0.45508 134.808 0.759522 134.398 1.13587 134.061C1.51222 133.723 1.95274 133.465 2.43111 133.302C2.90948 133.138 3.41587 133.073 3.92 133.11C4.42648 133.087 4.93236 133.167 5.40674 133.346C5.88111 133.525 6.31402 133.799 6.67903 134.151C7.04403 134.503 7.33346 134.925 7.52963 135.393C7.7258 135.86 7.82461 136.363 7.82 136.87C7.83623 137.718 7.55664 138.545 7.02925 139.209C6.50186 139.874 5.7596 140.334 4.93 140.51C5.09548 140.728 5.30649 140.907 5.54829 141.035C5.79009 141.162 6.05686 141.236 6.33 141.25C6.58752 141.251 6.84203 141.195 7.07539 141.086C7.30874 140.977 7.51519 140.818 7.68 140.62L8.17 141.22ZM3.92 139.69C4.30512 139.713 4.69086 139.657 5.05353 139.525C5.41619 139.394 5.74811 139.189 6.0289 138.925C6.3097 138.66 6.53343 138.341 6.68635 137.987C6.83927 137.633 6.91815 137.251 6.91815 136.865C6.91815 136.479 6.83927 136.097 6.68635 135.743C6.53343 135.389 6.3097 135.07 6.0289 134.805C5.74811 134.541 5.41619 134.336 5.05353 134.205C4.69086 134.073 4.30512 134.017 3.92 134.04C3.53488 134.017 3.14914 134.073 2.78648 134.205C2.42381 134.336 2.09189 134.541 1.8111 134.805C1.53031 135.07 1.30658 135.389 1.15366 135.743C1.00073 136.097 0.921849 136.479 0.921849 136.865C0.921849 137.251 1.00073 137.633 1.15366 137.987C1.30658 138.341 1.53031 138.66 1.8111 138.925C2.09189 139.189 2.42381 139.394 2.78648 139.525C3.14914 139.657 3.53488 139.713 3.92 139.69Z" fill="#231F20"/>
<path d="M14 137.37V133.19H15V137.33C15 138.96 15.75 139.69 17.07 139.69C18.39 139.69 19.15 138.96 19.15 137.33V133.19H20.15V137.37C20.15 139.51 18.98 140.63 17.04 140.63C15.1 140.63 14 139.51 14 137.37Z" fill="#231F20"/>
<path d="M31.4799 138.71H27.5799L26.7699 140.55H25.6899L28.9999 133.19H29.9999L33.3499 140.55H32.2899L31.4799 138.71ZM31.1199 137.87L29.5299 134.26L27.9399 137.87H31.1199Z" fill="#231F20"/>
<path d="M39.1 133.19H40.15V139.63H44.13V140.55H39.1V133.19Z" fill="#231F20"/>
<path d="M51 133.19H49.95V140.54H51V133.19Z" fill="#231F20"/>
<path d="M59.28 134.11H56.76V133.19H62.85V134.11H60.33V140.55H59.28V134.11Z" fill="#231F20"/>
<path d="M71.34 138V140.55H70.3V137.98L67.38 133.19H68.5L70.85 137.07L73.22 133.19H74.26L71.34 138Z" fill="#231F20"/>
<path d="M90.19 138V140.55H89.15V137.98L86.23 133.19H87.35L89.71 137.07L92.07 133.19H93.11L90.19 138Z" fill="#231F20"/>
<path d="M97.8701 136.87C97.8402 136.091 98.0436 135.322 98.4542 134.659C98.8648 133.997 99.4639 133.473 100.175 133.154C100.885 132.834 101.675 132.734 102.443 132.867C103.211 133 103.921 133.359 104.484 133.898C105.046 134.438 105.434 135.133 105.599 135.894C105.764 136.656 105.697 137.449 105.407 138.173C105.118 138.896 104.619 139.516 103.974 139.954C103.33 140.392 102.569 140.627 101.79 140.63C101.282 140.655 100.775 140.575 100.299 140.397C99.8227 140.219 99.3879 139.945 99.0211 139.593C98.6542 139.242 98.3629 138.819 98.165 138.35C97.9671 137.882 97.8668 137.378 97.8701 136.87ZM104.63 136.87C104.638 136.302 104.477 135.744 104.166 135.268C103.856 134.792 103.411 134.42 102.888 134.197C102.365 133.975 101.788 133.914 101.23 134.022C100.672 134.129 100.158 134.4 99.7552 134.801C99.352 135.201 99.0772 135.712 98.9658 136.27C98.8544 136.827 98.9116 137.404 99.1299 137.929C99.3482 138.454 99.7178 138.901 100.192 139.215C100.665 139.529 101.222 139.694 101.79 139.69C102.164 139.701 102.537 139.636 102.885 139.498C103.233 139.36 103.55 139.154 103.815 138.89C104.081 138.626 104.29 138.311 104.43 137.964C104.57 137.616 104.638 137.244 104.63 136.87Z" fill="#231F20"/>
<path d="M111.84 137.37V133.19H112.84V137.33C112.84 138.96 113.59 139.69 114.91 139.69C116.23 139.69 117 139 117 137.33V133.19H118V137.37C118 139.51 116.83 140.63 114.89 140.63C112.95 140.63 111.78 139.51 111.78 137.37" fill="#231F20"/>
<path d="M131.67 136.87C131.664 136.363 131.762 135.859 131.957 135.391C132.153 134.923 132.442 134.5 132.808 134.148C133.173 133.795 133.607 133.522 134.082 133.343C134.557 133.165 135.063 133.085 135.57 133.11C136.089 133.09 136.607 133.182 137.088 133.379C137.569 133.575 138.003 133.872 138.36 134.25L137.68 134.91C137.29 134.5 136.786 134.216 136.234 134.095C135.681 133.974 135.104 134.022 134.579 134.232C134.054 134.442 133.603 134.804 133.286 135.273C132.969 135.741 132.799 136.294 132.799 136.86C132.799 137.426 132.969 137.979 133.286 138.447C133.603 138.916 134.054 139.278 134.579 139.488C135.104 139.698 135.681 139.746 136.234 139.625C136.786 139.504 137.29 139.22 137.68 138.81L138.36 139.47C138.004 139.854 137.57 140.156 137.087 140.356C136.604 140.556 136.083 140.65 135.56 140.63C135.054 140.653 134.549 140.573 134.075 140.394C133.601 140.215 133.169 139.941 132.804 139.589C132.44 139.237 132.152 138.814 131.957 138.346C131.762 137.879 131.664 137.377 131.67 136.87Z" fill="#231F20"/>
<path d="M149 138.71H145.09L144.29 140.55H143.2L146.53 133.19H147.53L150.87 140.55H149.77L149 138.71ZM148.63 137.87L147 134.26L145.41 137.87H148.63Z" fill="#231F20"/>
<path d="M162.92 133.19V140.55H162.06L157.65 135.06V140.55H156.6V133.19H157.46L161.87 138.68V133.19H162.92Z" fill="#231F20"/>
<path d="M178.64 134.11H176.12V133.19H182.2V134.11H179.68V140.55H178.64V134.11Z" fill="#231F20"/>
<path d="M192.88 140.54L191.29 138.29H190.83H189V140.52H188V133.17H190.87C192.78 133.17 193.94 134.17 193.94 135.74C193.962 136.251 193.815 136.755 193.523 137.174C193.23 137.593 192.807 137.905 192.32 138.06L194.06 140.52L192.88 140.54ZM192.88 135.76C192.88 134.7 192.17 134.11 190.88 134.11H189V137.42H190.79C192.13 137.42 192.79 136.81 192.79 135.76" fill="#231F20"/>
<path d="M200.15 137.37V133.19H201.15V137.33C201.15 138.96 201.9 139.69 203.22 139.69C204.54 139.69 205.3 138.96 205.3 137.33V133.19H206.3V137.37C206.3 139.51 205.13 140.63 203.19 140.63C201.25 140.63 200.08 139.51 200.08 137.37" fill="#231F20"/>
<path d="M212.46 139.7L212.85 138.89C213.537 139.447 214.396 139.747 215.28 139.74C216.55 139.74 217.09 139.24 217.09 138.6C217.09 136.81 212.64 137.94 212.64 135.21C212.64 134.07 213.52 133.11 215.45 133.11C216.286 133.093 217.109 133.319 217.82 133.76L217.47 134.6C216.873 134.216 216.18 134.008 215.47 134C214.22 134 213.69 134.53 213.69 135.17C213.69 136.96 218.14 135.84 218.14 138.54C218.14 139.66 217.24 140.63 215.3 140.63C214.28 140.66 213.282 140.331 212.48 139.7" fill="#231F20"/>
<path d="M225.63 134.11H223.1V133.19H229.19V134.11H226.67V140.55H225.63V134.11Z" fill="#231F20"/>
<path d="M94.3 54.46V32.9L113.95 21.1L113.94 0L75.78 21.25V21.27V65.44L114.26 86.52V65.48L94.3 54.46Z" fill="#1C75BC"/>
<path d="M153.4 42.37L128.18 28.95V50.21L134.76 53.4L114.26 65.48V86.52L153.4 64.01V42.43V42.37Z" fill="#939598"/>
<path d="M128.17 28.95L112.74 38.05V59.09L128.17 50.21V28.95Z" fill="#939598"/>
<path d="M134.76 53.4L128.18 50.21V28.95L153.4 42.37L134.76 53.4Z" fill="#1C75BC"/>
</g>
</g>
<defs>
<clipPath id="clip0_1_95">
<rect width="229.19" height="142.08" fill="white"/>
</clipPath>
</defs>
</svg>
