<svg width="261" height="156" viewBox="0 0 261 156" fill="none" xmlns="http://www.w3.org/2000/svg">
<g clip-path="url(#clip0_1_62)">
<mask id="mask0_1_62" style="mask-type:luminance" maskUnits="userSpaceOnUse" x="0" y="0" width="261" height="156">
<path d="M260.56 0H0V155.17H260.56V0Z" fill="white"/>
</mask>
<g mask="url(#mask0_1_62)">
<path d="M221.89 121.78L220.43 120.92C219.968 120.652 219.55 120.315 219.19 119.92C219.02 119.738 218.923 119.499 218.92 119.25C218.918 119.142 218.946 119.035 219.001 118.941C219.055 118.848 219.135 118.771 219.23 118.72C219.562 118.503 219.954 118.398 220.35 118.42C220.843 118.432 221.328 118.544 221.776 118.749C222.225 118.953 222.628 119.246 222.96 119.61L224.14 120.74V116.57L223.83 116.36C222.81 115.688 221.611 115.339 220.39 115.36C219.183 115.316 218.004 115.73 217.09 116.52C216.663 116.907 216.326 117.382 216.1 117.912C215.873 118.442 215.764 119.014 215.78 119.59C215.768 120.397 216.017 121.186 216.49 121.84C217.073 122.584 217.796 123.206 218.62 123.67L220.06 124.54C221.01 125.13 221.48 125.7 221.48 126.25C221.484 126.389 221.455 126.528 221.394 126.653C221.333 126.779 221.242 126.887 221.13 126.97C220.846 127.195 220.492 127.312 220.13 127.3C219.533 127.275 218.951 127.109 218.43 126.818C217.909 126.526 217.463 126.116 217.13 125.62L215.83 124V128.77L216.1 128.97C217.248 129.85 218.654 130.328 220.1 130.33C221.297 130.37 222.462 129.944 223.35 129.14C223.774 128.744 224.109 128.261 224.332 127.725C224.554 127.188 224.659 126.61 224.64 126.03C224.615 125.13 224.344 124.254 223.855 123.497C223.367 122.741 222.68 122.133 221.87 121.74" fill="#6A2530"/>
<path d="M77 147.65L75.65 146.85C75.1902 146.608 74.7744 146.29 74.42 145.91C74.2143 145.694 74.0966 145.408 74.09 145.11C74.09 144.966 74.1279 144.825 74.1999 144.7C74.2718 144.575 74.3753 144.472 74.5 144.4C74.8563 144.16 75.2806 144.04 75.71 144.06C76.7038 144.096 77.6441 144.52 78.33 145.24L78.97 145.87V142.75L78.8 142.64C77.8978 142.027 76.8306 141.703 75.74 141.71C74.6816 141.665 73.6455 142.022 72.84 142.71C72.4681 143.044 72.1735 143.455 71.9766 143.914C71.7798 144.374 71.6853 144.87 71.7 145.37C71.6797 146.085 71.8939 146.788 72.31 147.37C72.8434 148.035 73.5026 148.589 74.25 149L75.6 149.82C76.6 150.43 77.05 151.03 77.05 151.65C77.05 151.817 77.0123 151.982 76.9396 152.133C76.8668 152.284 76.761 152.416 76.63 152.52C76.3023 152.775 75.8949 152.906 75.48 152.89C74.8841 152.866 74.3022 152.702 73.7812 152.412C73.2601 152.122 72.8144 151.714 72.48 151.22L71.81 150.35V153.9L71.95 154.01C72.9755 154.8 74.2353 155.226 75.53 155.22C76.5775 155.275 77.6046 154.915 78.39 154.22C78.7563 153.875 79.0448 153.455 79.2362 152.99C79.4276 152.524 79.5176 152.023 79.5 151.52C79.4862 150.706 79.2447 149.912 78.8029 149.228C78.361 148.544 77.7365 147.997 77 147.65Z" fill="#6A2530"/>
<path d="M92.77 141.84H81.65V144.19H85.91V155.03H88.45V144.19H92.77V141.84Z" fill="#6A2530"/>
<path d="M110.55 145.9L107.42 141.86H104.3L109.29 148.21V155.02H111.87V148.21L116.86 141.86H113.73L110.55 145.9Z" fill="#6A2530"/>
<path d="M134.93 147.22H128.72V141.86H126.18V155.02H128.72V149.63H134.93V155.02H137.47V141.86H134.93V147.22Z" fill="#6A2530"/>
<path d="M159.85 141.84H155.54V155H158.08V149.62H159C159.964 149.659 160.927 149.52 161.84 149.21C162.521 148.945 163.1 148.468 163.49 147.85C163.902 147.221 164.114 146.482 164.1 145.73C164.122 145.195 164.027 144.662 163.822 144.168C163.616 143.674 163.305 143.231 162.91 142.87C162.056 142.137 160.954 141.757 159.83 141.81M159.63 147.27H158.06V144.16H159.52C160.89 144.16 161.52 144.62 161.52 145.68C161.537 145.896 161.505 146.113 161.427 146.316C161.349 146.518 161.227 146.701 161.07 146.85C160.663 147.157 160.159 147.306 159.65 147.27" fill="#6A2530"/>
<path d="M171.16 141.84H166.84V155H169.39V149.62H170.32C171.287 149.659 172.253 149.52 173.17 149.21C173.85 148.943 174.428 148.467 174.82 147.85C175.311 147.076 175.521 146.157 175.415 145.247C175.309 144.337 174.895 143.491 174.24 142.85C173.387 142.116 172.284 141.736 171.16 141.79M170.96 147.25H169.39V144.14H170.85C172.21 144.14 172.85 144.6 172.85 145.66C172.869 145.876 172.838 146.094 172.76 146.297C172.682 146.5 172.559 146.682 172.4 146.83C171.997 147.138 171.496 147.287 170.99 147.25" fill="#6A2530"/>
<path d="M185.9 141.86L182.73 145.9L179.71 142.01L179.6 141.86H176.48L181.46 148.21V155.02H184.04V148.21L189.02 141.86H185.9Z" fill="#6A2530"/>
<path d="M97.99 141.79L92.34 155.02H94.99L98.87 145.85L102.94 154.92L102.99 155.02H105.64L99.74 141.79H97.99Z" fill="#6A2530"/>
<path d="M145.56 141.83L139.91 155.06H142.56L146.43 145.88L150.51 154.96L150.56 155.06H153.21L147.31 141.83H145.56Z" fill="#6A2530"/>
<path d="M65.18 147.62H35.9V149.25H65.18V147.62Z" fill="#6A2530"/>
<path d="M224.77 147.62H195.49V149.25H224.77V147.62Z" fill="#6A2530"/>
<path d="M18.93 96C16.1078 96.1102 13.3558 95.1042 11.27 93.2C10.3113 92.2847 9.55662 91.1775 9.05518 89.9505C8.55373 88.7236 8.31684 87.4047 8.35999 86.08C8.33165 84.7446 8.58403 83.4181 9.10082 82.1865C9.6176 80.9548 10.3873 79.8454 11.36 78.93C12.3777 77.9625 13.5766 77.2056 14.8877 76.7028C16.1988 76.1999 17.5963 75.9611 19 76C22.4666 76.0881 25.8493 77.0847 28.81 78.89L31.59 80.48V71.25L30.46 70.77C26.7827 69.0684 22.7999 68.1263 18.75 68C16.3009 67.943 13.8648 68.3713 11.5821 69.2604C9.29945 70.1494 7.21534 71.4816 5.44999 73.18C3.68592 74.82 2.28844 76.8144 1.3492 79.0324C0.409963 81.2504 -0.0498236 83.6419 -6.06105e-06 86.05C-0.0155192 89.1918 0.805966 92.2809 2.37999 95C3.919 97.6959 6.14891 99.9327 8.83999 101.48C11.8453 103.116 15.2293 103.93 18.65 103.84C22.9244 103.921 27.1496 102.916 30.93 100.92L31.93 100.39V90.93L29 92.78C26.0257 94.8053 22.5276 95.9239 18.93 96Z" fill="#6A2530"/>
<path d="M98.76 83.14L94.45 81.14C93.1138 80.5927 91.8694 79.8441 90.76 78.92C90.5392 78.7673 90.3561 78.5664 90.2244 78.3326C90.0927 78.0987 90.016 77.8379 90 77.57C90 77.39 90 77.03 90.83 76.57C91.9178 76.0282 93.126 75.7735 94.34 75.83C97.2159 75.8619 99.9979 76.8585 102.24 78.66L105.48 81.13V71.05L104.48 70.51C101.4 68.8794 97.9646 68.0376 94.48 68.06C91.077 67.9273 87.7185 68.8684 84.88 70.75C83.6484 71.5729 82.6389 72.6871 81.9411 73.9936C81.2434 75.3002 80.8789 76.7588 80.88 78.24C80.8714 80.3005 81.6514 82.2861 83.06 83.79C84.8849 85.6082 87.0357 87.0669 89.4 88.09L93.67 90.16C96.3 91.46 97.8 92.83 97.8 93.93C97.8 94.32 97.69 94.8 96.88 95.35C95.8951 95.9418 94.7578 96.2305 93.61 96.18C91.8972 96.1714 90.2044 95.8121 88.6359 95.1241C87.0673 94.4362 85.6564 93.4342 84.49 92.18L81 88.71V100.15L81.92 100.7C85.4613 102.792 89.5068 103.878 93.62 103.84C96.994 103.971 100.32 103.006 103.1 101.09C104.32 100.24 105.315 99.1057 105.998 97.785C106.681 96.4642 107.032 94.9969 107.02 93.51C107.02 89.24 104.22 85.76 98.72 83.14" fill="#6A2530"/>
<path d="M178.09 70.5C175.36 69.09 171.68 68.38 167.09 68.38H154.73V103.38H166.49C168.473 103.427 170.458 103.343 172.43 103.13C173.664 102.92 174.874 102.585 176.04 102.13C178.226 101.297 180.222 100.032 181.907 98.4099C183.593 96.7879 184.934 94.8424 185.85 92.69C186.75 90.5642 187.213 88.2787 187.21 85.97C187.225 82.7844 186.378 79.6539 184.76 76.91C183.185 74.2055 180.871 72.0062 178.09 70.57M162.93 76.15H166.67C168.13 76.1073 169.592 76.1842 171.04 76.38C171.943 76.5415 172.819 76.8311 173.64 77.24C175.251 77.9752 176.607 79.1732 177.535 80.6816C178.463 82.19 178.92 83.9405 178.85 85.71C178.895 87.0307 178.673 88.3468 178.199 89.5802C177.725 90.8137 177.008 91.9392 176.09 92.89C175.529 93.4507 174.897 93.9349 174.21 94.33C173.379 94.7808 172.491 95.1171 171.57 95.33C170.001 95.6471 168.4 95.7847 166.8 95.74H162.93V76.15Z" fill="#6A2530"/>
<path d="M204.14 89.72H221.44V82H204.14V76.18H221.89V68.47H195.94V103.43H222.32V95.72H204.14V89.72Z" fill="#6A2530"/>
<path d="M241.98 95.57V68.36H233.78V103.37H260.56V95.57H241.98Z" fill="#6A2530"/>
<path d="M58.16 68.27H52.72L34.04 103.45H42.79L55.46 80.86L68.12 103.45H76.88L58.58 69L58.16 68.27Z" fill="#6A2530"/>
<path d="M132.87 68.36H127.44L108.75 103.55H117.5L130.17 80.96L142.83 103.55H151.58L133.29 69.1L132.87 68.36Z" fill="#6A2530"/>
<path d="M66.31 59.88L92.83 12.51L119.19 59.88H128.34L96.33 0.82L95.86 0H89.8L57.15 59.88H66.31Z" fill="#6A2530"/>
<path d="M38.9 124V127.47H40.56C41.156 127.519 41.7519 127.375 42.26 127.06C42.4476 126.882 42.5913 126.663 42.6798 126.42C42.7683 126.177 42.7992 125.917 42.77 125.66C42.7813 125.435 42.7433 125.21 42.6586 125.001C42.574 124.792 42.4448 124.604 42.28 124.45C41.9252 124.144 41.4681 123.983 41 124H38.9ZM38.9 118.16V121.31H40.44C40.6469 121.322 40.8539 121.289 41.046 121.211C41.238 121.133 41.4103 121.013 41.55 120.86C41.8227 120.544 41.9656 120.137 41.95 119.72C41.9671 119.312 41.8235 118.913 41.55 118.61C41.4103 118.457 41.238 118.337 41.046 118.259C40.8539 118.181 40.6469 118.148 40.44 118.16H38.9ZM35.9 115.47H41.03C41.5603 115.442 42.0905 115.525 42.5866 115.715C43.0826 115.904 43.5335 116.196 43.91 116.57C44.2386 116.913 44.4962 117.317 44.6678 117.76C44.8394 118.203 44.9217 118.675 44.91 119.15C44.9309 119.741 44.7913 120.326 44.5061 120.844C44.2208 121.361 43.8006 121.792 43.29 122.09C44.0627 122.32 44.7266 122.82 45.16 123.5C45.6016 124.203 45.8275 125.02 45.81 125.85C45.8927 126.984 45.5465 128.109 44.84 129C44.4362 129.415 43.9472 129.737 43.4068 129.944C42.8664 130.151 42.2875 130.238 41.71 130.2H35.94L35.9 115.47Z" fill="#6A2530"/>
<path d="M70.9 115.31H74.05V123.85C74.1768 125.658 73.608 127.447 72.46 128.85C71.9233 129.428 71.259 129.874 70.52 130.15C69.6903 130.451 68.8124 130.596 67.93 130.58C67.0535 130.593 66.1822 130.444 65.36 130.14C64.5995 129.867 63.9142 129.418 63.36 128.83C62.8024 128.223 62.3888 127.499 62.15 126.71C61.8681 125.787 61.7332 124.825 61.75 123.86V115.3H65.1V124C65.0952 124.448 65.1627 124.894 65.3 125.32C65.417 125.688 65.6075 126.028 65.86 126.32C66.101 126.593 66.3976 126.811 66.73 126.96C67.082 127.104 67.4596 127.176 67.84 127.17C68.2346 127.179 68.6266 127.104 68.99 126.95C69.335 126.804 69.6402 126.578 69.88 126.29C70.1453 125.979 70.3398 125.614 70.45 125.22C70.5896 124.736 70.657 124.234 70.65 123.73V115.34L70.9 115.31Z" fill="#6A2530"/>
<path d="M94.0399 115.51V130.2V130.4H93.8399H90.8899H90.6899V130.2V115.51V115.31H90.8899H93.8399H94.0399V115.51Z" fill="#6A2530"/>
<path d="M120.18 127.51V130.2V130.4H119.99H110.95H110.75V130.2V115.51V115.31H110.95H113.9H114.1V115.51V127.31H119.99H120.18V127.51Z" fill="#6A2530"/>
<path d="M139.15 118.4V127.31H140.88C141.419 127.321 141.953 127.218 142.45 127.01C142.9 126.81 143.292 126.501 143.59 126.11C143.917 125.687 144.158 125.205 144.3 124.69C144.467 124.095 144.548 123.478 144.54 122.86C144.549 122.225 144.468 121.592 144.3 120.98C144.154 120.468 143.91 119.989 143.58 119.57C143.276 119.187 142.881 118.888 142.43 118.7C141.927 118.491 141.385 118.388 140.84 118.4H139.15ZM136 115.31H141.23C142.186 115.298 143.135 115.478 144.02 115.84C144.848 116.204 145.583 116.751 146.17 117.44C146.776 118.151 147.238 118.973 147.53 119.86C147.846 120.828 148.001 121.842 147.99 122.86C148.003 123.918 147.847 124.971 147.53 125.98C147.242 126.861 146.772 127.672 146.15 128.36C145.527 129.031 144.757 129.547 143.9 129.87C142.939 130.218 141.922 130.387 140.9 130.37H135.8V115.31H136Z" fill="#6A2530"/>
<path d="M173.1 127.51V130.2H164.36V115.51H172.98V118.2H167.31V121.29H172.72V123.98H167.31V127.51H173.1Z" fill="#6A2530"/>
<path d="M172.9 130V127.71H167.12V123.78H172.52V121.49H167.12V118H172.78V115.7H164.56V130H172.9ZM173.3 127.51V130.4H164.16V115.31H173.16V118.4H167.49V121.09H172.9V124.18H167.49V127.31H173.28L173.3 127.51Z" fill="#6A2530"/>
<path d="M199.47 126.5C198.943 125.592 198.352 124.723 197.7 123.9C197.534 123.697 197.357 123.504 197.17 123.32C197.564 123.053 197.904 122.714 198.17 122.32C198.646 121.612 198.89 120.773 198.87 119.92C198.895 119.308 198.779 118.699 198.531 118.139C198.283 117.579 197.91 117.083 197.44 116.69C196.409 115.872 195.115 115.456 193.8 115.52H189.8V130.2H193.09V124.42C193.363 124.408 193.635 124.453 193.89 124.55C194.157 124.712 194.402 124.907 194.62 125.13C194.986 125.494 195.321 125.889 195.62 126.31L198.13 130.2H202.13L200.59 128.14C200.317 127.767 199.957 127.217 199.51 126.49M195.51 119.9C195.514 120.173 195.445 120.443 195.31 120.68C195.184 120.886 195 121.05 194.78 121.15C194.235 121.324 193.66 121.388 193.09 121.34V118.53C193.645 118.509 194.201 118.566 194.74 118.7C194.978 118.775 195.183 118.931 195.32 119.14C195.468 119.366 195.544 119.63 195.54 119.9" fill="#6A2530"/>
</g>
</g>
<defs>
<clipPath id="clip0_1_62">
<rect width="260.56" height="155.17" fill="white"/>
</clipPath>
</defs>
</svg>
