<svg width="73" height="17" viewBox="0 0 73 17" fill="none" xmlns="http://www.w3.org/2000/svg">
<path d="M17.2799 0.261719H0.919922L6.31992 6.78174L7.71991 5.07175L5.54993 2.43173H12.7399L0.919922 16.7017H17.3399L10.5099 8.47174L17.2799 0.261719ZM12.6799 14.5317H5.48993L9.06992 10.1818L12.6799 14.5317Z" fill="white"/>
<path d="M22.1998 5.65186H26.4698V6.19186L23.7798 10.0519H26.5198V11.2018H22.0698V10.5618L24.7998 6.70184H22.2198V5.65186H22.1998Z" fill="white"/>
<path d="M32.1999 11.2618H27.9199V5.65186H32.0599V6.78186H29.1499V7.85187H31.9199V8.95184H29.1899V10.0818H32.1899V11.2319L32.1999 11.2618Z" fill="white"/>
<path d="M33.6797 11.2618V5.65186H34.9197V11.2319L33.6797 11.2618Z" fill="white"/>
<path d="M37.92 6.78186H36.23V5.65186H40.86V6.75186H39.17V11.2319H37.92V6.75186V6.78186Z" fill="white"/>
<path d="M45.3702 7.04209C45.0212 6.72536 44.5609 6.55992 44.0902 6.58207C43.5502 6.58207 43.0902 6.81209 43.0902 7.19209C43.0902 7.57209 43.5802 7.80209 44.2902 7.85209C45.3902 7.96209 46.4402 8.3721 46.4402 9.6721C46.4402 10.9721 45.2902 11.4621 44.0902 11.4621C43.6207 11.4934 43.151 11.4042 42.7257 11.2029C42.3004 11.0016 41.9336 10.695 41.6602 10.3121L42.4002 9.54209C42.6056 9.79675 42.8663 10.0012 43.1627 10.1398C43.459 10.2784 43.7831 10.3476 44.1102 10.3421C44.7802 10.3421 45.2402 10.0821 45.2402 9.6721C45.2402 9.2621 44.8802 8.98208 44.1102 8.93208C42.9402 8.83208 41.8902 8.52208 41.9102 7.22208C41.9102 6.12208 42.9602 5.53208 44.1102 5.53208C44.4998 5.49906 44.8917 5.56096 45.2522 5.71247C45.6127 5.86399 45.9311 6.10061 46.1802 6.40208L45.3702 7.04209Z" fill="white"/>
<path d="M49 6.78186H47.3101V5.65186H51.92V6.75186H50.23V11.2319H49.0201V6.75186L49 6.78186Z" fill="white"/>
<path d="M58.15 11.2621H56.77L55.34 9.41216H54.45V11.2621H53.1899V5.65215H55.83C56.0925 5.62856 56.3572 5.65987 56.607 5.7441C56.8568 5.82833 57.0864 5.96364 57.2811 6.14141C57.4758 6.31918 57.6313 6.53551 57.7379 6.77666C57.8444 7.01782 57.8996 7.27853 57.9 7.54217C57.9293 7.93722 57.8164 8.32973 57.5817 8.64883C57.347 8.96793 57.0058 9.19256 56.62 9.28216L58.15 11.1221V11.2322V11.2621ZM54.45 6.75216V8.37215H55.8499C55.957 8.37623 56.0638 8.35847 56.1638 8.31997C56.2639 8.28147 56.355 8.22302 56.4317 8.14819C56.5084 8.07335 56.5691 7.9837 56.61 7.88467C56.651 7.78564 56.6714 7.67932 56.67 7.57217C56.6742 7.46073 56.6553 7.3496 56.6146 7.24578C56.5739 7.14196 56.5121 7.04769 56.4333 6.96883C56.3544 6.88998 56.2601 6.82825 56.1563 6.78753C56.0525 6.7468 55.9414 6.72793 55.83 6.73214L54.45 6.75216Z" fill="white"/>
<path d="M62.1701 11.3818C61.5958 11.3661 61.0389 11.1813 60.5691 10.8506C60.0994 10.5199 59.7376 10.058 59.5291 9.52265C59.3206 8.98732 59.2747 8.40239 59.3971 7.84107C59.5194 7.27976 59.8046 6.76701 60.217 6.36701C60.6294 5.96702 61.1506 5.69756 61.7153 5.59235C62.2801 5.48715 62.8634 5.55086 63.3921 5.77555C63.9208 6.00024 64.3715 6.3759 64.6878 6.85551C65.004 7.33512 65.1718 7.89738 65.1701 8.47187C65.1898 8.867 65.125 9.2618 64.98 9.62989C64.835 9.99798 64.6131 10.3309 64.3291 10.6063C64.0452 10.8818 63.7057 11.0934 63.3333 11.2272C62.961 11.3609 62.5644 11.4136 62.1701 11.3818ZM62.1701 6.68186C61.9318 6.67627 61.6948 6.71942 61.4738 6.80866C61.2528 6.8979 61.0523 7.03136 60.8847 7.20084C60.7171 7.37032 60.5859 7.57226 60.4991 7.79426C60.4123 8.01626 60.3718 8.25364 60.3801 8.49186C60.384 8.84501 60.4923 9.18909 60.6914 9.48081C60.8905 9.77253 61.1714 9.99888 61.4988 10.1313C61.8262 10.2637 62.1855 10.2963 62.5314 10.225C62.8773 10.1537 63.1943 9.98165 63.4427 9.73054C63.691 9.47942 63.8595 9.16046 63.927 8.81379C63.9944 8.46712 63.9578 8.10824 63.8218 7.78233C63.6857 7.45641 63.4563 7.178 63.1624 6.98219C62.8685 6.78637 62.5232 6.68188 62.1701 6.68186Z" fill="white"/>
<path d="M71.4801 7.39191L69.7701 9.57193H69.5401L67.9201 7.39191V11.2819H66.6201V5.71191H68.0501L69.6901 7.85193L71.3301 5.71191H72.7301V11.2819H71.4801V7.39191Z" fill="white"/>
</svg>
