<svg width="47" height="19" viewBox="0 0 47 19" fill="none" xmlns="http://www.w3.org/2000/svg">
<path d="M45.73 8.99963C45.94 3.30963 42.99 0.139648 37.63 0.139648C32.63 0.139648 29.79 3.73965 29.79 9.13965C29.79 14.8096 32.68 18.1396 37.63 18.1396H46.02V14.7996H43.54C44.969 13.188 45.7493 11.1035 45.73 8.94965V8.99963ZM35.63 9.10962C35.63 6.10962 36.26 4.66965 37.63 4.66965C39 4.66965 39.63 6.10962 39.63 9.10962C39.63 12.1096 38.99 13.5496 37.63 13.5496C36.27 13.5496 35.63 12.0596 35.63 9.05963V9.10962ZM11.28 8.95963C12.1004 8.61903 12.7883 8.02185 13.2408 7.25748C13.6933 6.49311 13.886 5.6027 13.79 4.71964C13.79 2.19964 11.97 0.379639 8.31 0.379639H0V18.1196H8.45C11.52 18.1196 14.22 16.4396 14.22 13.1196C14.297 12.1877 14.045 11.2583 13.5079 10.4928C12.9708 9.72737 12.1825 9.17425 11.28 8.92963V8.95963ZM5.70999 4.40964H6.45C7.45 4.40964 8.00999 4.86964 8.00999 5.78964C8.02586 5.99378 7.99543 6.19885 7.92097 6.38959C7.84652 6.58032 7.72996 6.75178 7.57999 6.89117C7.43001 7.03057 7.2505 7.13431 7.05484 7.19464C6.85918 7.25498 6.65243 7.27035 6.45 7.23962H5.70999V4.41965V4.40964ZM6.70999 14.1096H5.70999V10.9396H6.70999C6.92462 10.9073 7.1438 10.9239 7.35112 10.9881C7.55844 11.0524 7.74855 11.1627 7.90723 11.3108C8.06591 11.4589 8.18905 11.641 8.26746 11.8434C8.34586 12.0458 8.3775 12.2633 8.36 12.4796C8.38071 12.7002 8.352 12.9225 8.27596 13.1305C8.19991 13.3385 8.07845 13.527 7.92041 13.6822C7.76237 13.8374 7.5717 13.9553 7.36232 14.0276C7.15294 14.0998 6.93009 14.1244 6.70999 14.0996V14.1096ZM29.42 18.1096C29.1484 16.8121 28.6215 15.5816 27.87 14.4896C28.23 14.1296 28.58 13.7696 28.87 13.3896L26.7 10.8696L25.77 11.7296C25.32 11.1996 24.84 10.6596 24.33 10.1196C25.0509 9.7176 25.6587 9.14034 26.0975 8.44119C26.5362 7.74205 26.7915 6.9436 26.84 6.11963C26.84 4.26963 25.21 2.40964 22.22 2.40964C19.23 2.40964 17.31 4.21962 17.31 6.29962C17.4239 7.5195 17.9412 8.66662 18.78 9.55963C17.31 10.5596 16.02 11.9696 15.92 13.6896C15.72 16.7596 18.09 18.3896 20.92 18.2696C22.3056 18.1796 23.6418 17.7204 24.79 16.9396C24.9945 17.2958 25.1461 17.6798 25.24 18.0796H29.31L29.42 18.1096ZM22.22 5.25964C22.4837 5.2801 22.7285 5.40414 22.9009 5.60468C23.0733 5.80521 23.1593 6.06586 23.14 6.32962C23.14 6.69962 22.91 7.21964 22.07 7.78964C21.6225 7.40664 21.3309 6.87304 21.25 6.28964C21.2433 6.15828 21.2625 6.02686 21.3066 5.90295C21.3508 5.77904 21.4189 5.66507 21.5072 5.56754C21.5954 5.47 21.702 5.39083 21.8209 5.33456C21.9398 5.2783 22.0686 5.24603 22.2 5.23962L22.22 5.25964ZM20.58 14.4896C20.1 14.0996 19.75 12.9096 21.08 12.0196C21.72 12.7196 22.33 13.4396 22.93 14.1896C22.01 14.7896 21.2 15.0096 20.57 14.4896H20.58Z" fill="white"/>
</svg>
