<svg width="56" height="27" viewBox="0 0 56 27" fill="none" xmlns="http://www.w3.org/2000/svg">
<path d="M36.6902 5.15101C36.4726 5.15493 36.2588 5.09427 36.0758 4.97669C35.8928 4.85912 35.7487 4.68993 35.6618 4.49049C35.575 4.29104 35.5492 4.07031 35.5877 3.85621C35.6263 3.64211 35.7275 3.44426 35.8785 3.28767C36.0295 3.13107 36.2235 3.02271 36.4361 2.97639C36.6486 2.93007 36.8702 2.94785 37.0727 3.02741C37.2751 3.10698 37.4495 3.24477 37.5736 3.42341C37.6978 3.60205 37.7661 3.81351 37.7701 4.03101C37.7741 4.17582 37.7492 4.31996 37.6969 4.45502C37.6445 4.59009 37.5657 4.71336 37.4652 4.81763C37.3646 4.92191 37.2443 5.00515 37.1112 5.06239C36.9782 5.11962 36.835 5.14973 36.6902 5.15101Z" fill="white"/>
<path d="M38.0303 10.1412C38.0323 10.28 37.9929 10.4164 37.9172 10.5328C37.8415 10.6492 37.7329 10.7405 37.6052 10.795C37.4775 10.8495 37.3364 10.8648 37.2 10.8389C37.0635 10.8131 36.9379 10.7472 36.839 10.6497C36.7401 10.5522 36.6724 10.4275 36.6446 10.2914C36.6167 10.1554 36.63 10.0142 36.6827 9.88568C36.7354 9.75719 36.8251 9.64725 36.9404 9.56989C37.0557 9.49252 37.1914 9.45119 37.3303 9.45117C37.5142 9.45115 37.6908 9.52353 37.8218 9.65265C37.9528 9.78177 38.0277 9.95726 38.0303 10.1412Z" fill="white"/>
<path d="M39.4399 13.511C39.4399 13.6462 39.3862 13.776 39.2906 13.8716C39.1949 13.9673 39.0652 14.021 38.9299 14.021C38.8291 14.021 38.7304 13.9911 38.6466 13.935C38.5627 13.879 38.4973 13.7993 38.4587 13.7061C38.4201 13.613 38.41 13.5104 38.4297 13.4115C38.4494 13.3125 38.498 13.2217 38.5693 13.1504C38.6406 13.079 38.7315 13.0304 38.8304 13.0108C38.9294 12.9911 39.0319 13.0012 39.1251 13.0398C39.2183 13.0784 39.2979 13.1438 39.354 13.2276C39.41 13.3115 39.4399 13.4101 39.4399 13.511Z" fill="white"/>
<path d="M38.7706 5.37116C38.7868 5.18739 38.8395 5.00867 38.9255 4.84546C39.0115 4.68225 39.1292 4.53781 39.2716 4.42053C39.414 4.30326 39.5783 4.21547 39.755 4.16235C39.9317 4.10924 40.1171 4.09185 40.3006 4.11115C40.323 4.11813 40.3426 4.13205 40.3565 4.15094C40.3703 4.16983 40.3778 4.19268 40.3778 4.21613C40.3778 4.23957 40.3703 4.26242 40.3565 4.28131C40.3426 4.3002 40.323 4.31412 40.3006 4.32111C40.1442 4.30741 39.9867 4.3248 39.837 4.37225C39.6874 4.41971 39.5486 4.49628 39.4287 4.5976C39.3088 4.69891 39.2101 4.82297 39.1384 4.96259C39.0666 5.1022 39.0232 5.25466 39.0106 5.41113C39.0062 5.43509 38.9941 5.45692 38.976 5.47321C38.9579 5.48949 38.9349 5.49928 38.9106 5.5011C38.8921 5.51175 38.8707 5.51621 38.8494 5.5138C38.8282 5.51138 38.8084 5.50226 38.7927 5.48773C38.7771 5.4732 38.7665 5.45403 38.7625 5.43305C38.7585 5.41206 38.7614 5.3904 38.7706 5.37116Z" fill="white"/>
<path d="M41.2306 8.60094C41.2212 8.61158 41.2097 8.62007 41.1967 8.6259C41.1838 8.63174 41.1698 8.63481 41.1556 8.63481C41.1414 8.63481 41.1274 8.63174 41.1144 8.6259C41.1015 8.62007 41.09 8.61158 41.0806 8.60094C40.8177 8.45815 40.5187 8.39557 40.2206 8.42095C39.6506 8.42095 39.5106 8.75091 39.5006 8.76091C39.4912 8.77928 39.4769 8.79468 39.4592 8.80528C39.4415 8.81589 39.4212 8.82129 39.4006 8.82091C39.388 8.81645 39.3765 8.80958 39.3666 8.80059C39.3567 8.79159 39.3488 8.78072 39.3432 8.7686C39.3376 8.75649 39.3345 8.74336 39.334 8.73003C39.3336 8.71669 39.3358 8.70337 39.3406 8.6909C39.3913 8.59477 39.4608 8.50987 39.5449 8.44115C39.6291 8.37243 39.7263 8.32134 39.8306 8.29094C39.4218 7.52204 39.271 6.64206 39.4006 5.78093C39.4279 5.59955 39.4926 5.42582 39.5908 5.27086C39.6889 5.1159 39.8183 4.98309 39.9706 4.88091C40.2567 4.72113 40.5935 4.67814 40.9106 4.76091C40.9382 4.76802 40.9619 4.78556 40.9768 4.8098C40.9917 4.83404 40.9967 4.86311 40.9906 4.89092C40.9861 4.90476 40.9789 4.91761 40.9694 4.92864C40.9598 4.93967 40.9482 4.94868 40.9352 4.95519C40.9222 4.9617 40.908 4.96555 40.8935 4.96654C40.879 4.96753 40.8644 4.96561 40.8506 4.96092C40.6506 4.90838 40.4405 4.90838 40.2406 4.96092C40.3606 5.09092 40.4906 5.51091 40.3106 6.82091L40.8806 6.33092C40.9446 6.96284 40.8696 7.60112 40.6606 8.20091C40.8715 8.21401 41.0752 8.28305 41.2506 8.40093C41.2691 8.41146 41.2841 8.42713 41.2938 8.44603C41.3036 8.46493 41.3077 8.48627 41.3055 8.50743C41.3034 8.5286 41.2952 8.5487 41.2819 8.56529C41.2686 8.58189 41.2508 8.59427 41.2306 8.60094Z" fill="white"/>
<path d="M43.5803 14.0314C43.6361 14.1576 43.6666 14.2935 43.6703 14.4314C43.6665 14.665 43.5749 14.8885 43.4138 15.0577C43.2527 15.2268 43.0338 15.3291 42.8007 15.3442C42.5675 15.3593 42.3372 15.2862 42.1556 15.1393C41.974 14.9924 41.8543 14.7825 41.8203 14.5514C41.8203 14.5514 41.8203 14.4714 41.8203 14.4314C41.8201 14.2202 41.8918 14.0152 42.0236 13.8502C42.1553 13.6852 42.3393 13.5699 42.5453 13.5234C42.7513 13.4768 42.967 13.5018 43.1569 13.5941C43.3468 13.6864 43.4997 13.8406 43.5903 14.0314H43.5803Z" fill="white"/>
<path d="M43.5605 1.27136C43.5605 1.16793 43.6016 1.06874 43.6748 0.995605C43.7479 0.922466 43.8471 0.881348 43.9505 0.881348C44.0343 0.888211 44.1143 0.919529 44.1805 0.971375C44.2219 1.00746 44.2549 1.05205 44.2773 1.10211C44.2998 1.15217 44.3111 1.2065 44.3105 1.26135C44.3105 1.36479 44.2695 1.46403 44.1963 1.53717C44.1232 1.61031 44.024 1.65137 43.9205 1.65137C43.8249 1.64185 43.7358 1.59822 43.6697 1.52844C43.6036 1.45866 43.5649 1.36739 43.5605 1.27136Z" fill="white"/>
<path d="M42.4102 8.96112C42.4172 8.93874 42.4311 8.91916 42.45 8.90527C42.4689 8.89138 42.4917 8.88391 42.5152 8.88391C42.5386 8.88391 42.5615 8.89138 42.5804 8.90527C42.5993 8.91916 42.6132 8.93874 42.6202 8.96112C42.6305 9.13976 42.7109 9.30714 42.8438 9.42694C42.9767 9.54674 43.1514 9.60933 43.3302 9.60114C43.6702 9.60114 44.0702 9.50113 44.1302 9.22113C44.2502 8.65113 43.5002 8.32116 43.4902 8.31116C43.4641 8.30007 43.4432 8.27927 43.432 8.25317C43.4208 8.22708 43.4202 8.19771 43.4302 8.17114C43.4499 8.15489 43.4747 8.146 43.5002 8.146C43.5258 8.146 43.5505 8.15489 43.5702 8.17114C43.5702 8.17114 44.5002 8.57111 44.3402 9.32111C44.2707 9.5005 44.1437 9.65183 43.979 9.75134C43.8143 9.85086 43.6213 9.893 43.4302 9.87115H43.3102C43.1912 9.87116 43.0733 9.84755 42.9635 9.8017C42.8536 9.75584 42.754 9.68864 42.6703 9.604C42.5865 9.51937 42.5205 9.41894 42.4758 9.30859C42.4312 9.19824 42.4089 9.08015 42.4102 8.96112Z" fill="white"/>
<path d="M43.4306 4.75098C43.4481 4.56771 43.5017 4.38974 43.5881 4.22718C43.6745 4.06462 43.7921 3.9207 43.9342 3.80366C44.0764 3.68662 44.2402 3.59876 44.4163 3.54511C44.5924 3.49147 44.7774 3.4731 44.9606 3.49104C44.988 3.49594 45.0125 3.511 45.0292 3.53327C45.0459 3.55554 45.0536 3.58335 45.0506 3.61103C45.0493 3.6255 45.0452 3.63954 45.0385 3.65241C45.0318 3.66528 45.0226 3.67668 45.0114 3.68598C45.0003 3.69528 44.9874 3.70232 44.9735 3.70661C44.9596 3.7109 44.9451 3.71238 44.9306 3.71101C44.7745 3.6945 44.6167 3.70961 44.4665 3.75538C44.3163 3.80115 44.1769 3.87665 44.0565 3.97742C43.9362 4.0782 43.8373 4.20215 43.7659 4.34193C43.6944 4.4817 43.6518 4.63444 43.6406 4.79102C43.6342 4.81579 43.6201 4.83788 43.6003 4.85407C43.5806 4.87026 43.5561 4.87966 43.5306 4.88099C43.5152 4.87985 43.5001 4.87546 43.4865 4.86811C43.4729 4.86076 43.4609 4.85066 43.4515 4.83839C43.4421 4.82612 43.4353 4.812 43.4317 4.79694C43.4281 4.78189 43.4277 4.7662 43.4306 4.75098Z" fill="white"/>
<path d="M45.2701 11.2514C45.245 11.1539 45.1988 11.0632 45.1349 10.9854C45.071 10.9077 44.9909 10.8449 44.9001 10.8014C44.8501 10.8014 44.4301 10.4914 43.5801 10.8814C43.4093 10.954 43.2257 10.9914 43.0401 10.9914C42.8545 10.9914 42.6709 10.954 42.5001 10.8814C42.3272 10.7882 42.1307 10.748 41.935 10.7658C41.7394 10.7836 41.5534 10.8585 41.4001 10.9814C41.2512 11.2123 41.1942 11.4905 41.2401 11.7614C41.2917 11.9219 41.3775 12.0693 41.4914 12.1936C41.6053 12.3178 41.7447 12.416 41.9001 12.4814C42.4613 12.7439 43.0886 12.831 43.7001 12.7314C44.2112 12.6857 44.6878 12.4545 45.0401 12.0814C45.1378 11.9689 45.2092 11.836 45.249 11.6924C45.2888 11.5488 45.296 11.3981 45.2701 11.2514ZM44.2701 11.1114C43.9247 11.3608 43.5058 11.4875 43.0801 11.4714C42.7513 11.4776 42.428 11.3872 42.1501 11.2114C42.1283 11.2008 42.1105 11.1833 42.0997 11.1616C42.0888 11.1399 42.0855 11.1152 42.0901 11.0914C42.092 11.0675 42.1004 11.0445 42.1146 11.0251C42.1287 11.0057 42.1479 10.9906 42.1701 10.9814H42.2301C42.5192 11.1363 42.845 11.2098 43.1726 11.1939C43.5002 11.1781 43.8173 11.0735 44.0901 10.8914C44.1161 10.8719 44.1476 10.8614 44.1801 10.8614C44.2126 10.8614 44.2441 10.8719 44.2701 10.8914C44.3001 10.9714 44.2901 11.0314 44.2301 11.1114H44.2701Z" fill="white"/>
<path d="M45.8402 8.03118C45.8198 8.05016 45.793 8.06072 45.7652 8.06072C45.7373 8.06072 45.7105 8.05016 45.6902 8.03118C45.4312 7.88749 45.1351 7.8248 44.8402 7.85119C44.2702 7.85119 44.1302 8.18115 44.1202 8.19115C44.1113 8.2107 44.0973 8.22755 44.0797 8.23986C44.0621 8.25217 44.0416 8.2595 44.0202 8.26116C43.994 8.25007 43.9732 8.22933 43.962 8.20324C43.9508 8.17715 43.9502 8.14777 43.9602 8.12121C44.0108 8.02507 44.0803 7.94011 44.1645 7.87139C44.2487 7.80267 44.3458 7.75158 44.4502 7.72118C44.0338 6.95486 43.8793 6.07343 44.0102 5.21117C44.0404 5.03211 44.1065 4.86098 44.2045 4.70806C44.3024 4.55513 44.4302 4.42354 44.5802 4.32116C44.7291 4.23236 44.8947 4.17506 45.0667 4.1527C45.2387 4.13034 45.4134 4.14339 45.5802 4.19115C45.5936 4.19454 45.6062 4.20075 45.6172 4.20928C45.6282 4.21781 45.6372 4.22854 45.6438 4.24077C45.6504 4.253 45.6544 4.26648 45.6554 4.28032C45.6565 4.29417 45.6548 4.30805 45.6502 4.32116C45.6431 4.34872 45.6256 4.37246 45.6013 4.38738C45.5771 4.4023 45.548 4.40725 45.5202 4.40117C45.3205 4.34626 45.1098 4.34626 44.9102 4.40117C45.0302 4.53117 45.1602 4.95116 44.9802 6.26116L45.5502 5.78118C45.6087 6.40975 45.5337 7.04359 45.3302 7.64116C45.5387 7.66581 45.7397 7.73396 45.9202 7.84118C45.9325 7.85791 45.9403 7.87755 45.9427 7.89818C45.9452 7.91882 45.9422 7.93976 45.9341 7.95891C45.9261 7.97807 45.9132 7.99477 45.8967 8.00744C45.8802 8.02011 45.8608 8.0283 45.8402 8.03118Z" fill="white"/>
<path d="M47.9206 11.7115C47.926 11.7446 47.926 11.7784 47.9206 11.8115C47.9206 11.9945 47.8479 12.17 47.7185 12.2994C47.5891 12.4288 47.4136 12.5014 47.2306 12.5014C47.1079 12.5036 46.987 12.4725 46.8806 12.4115C46.7501 12.3331 46.6488 12.2144 46.5919 12.0733C46.5349 11.9322 46.5255 11.7764 46.5651 11.6294C46.6046 11.4825 46.691 11.3524 46.8111 11.2589C46.9312 11.1655 47.0784 11.1138 47.2306 11.1115C47.3996 11.1078 47.5639 11.1672 47.6915 11.2782C47.8191 11.3891 47.9007 11.5436 47.9206 11.7115Z" fill="white"/>
<path d="M48.8403 7.75128C48.8171 7.86679 48.7546 7.9707 48.6635 8.04535C48.5723 8.12 48.4581 8.16083 48.3403 8.16083C48.2225 8.16083 48.1083 8.12 48.0172 8.04535C47.926 7.9707 47.8635 7.86679 47.8403 7.75128C47.8635 7.63578 47.926 7.53193 48.0172 7.45728C48.1083 7.38263 48.2225 7.3418 48.3403 7.3418C48.4581 7.3418 48.5723 7.38263 48.6635 7.45728C48.7546 7.53193 48.8171 7.63578 48.8403 7.75128Z" fill="white"/>
<path d="M41.7099 0.0313389C40.5049 -0.0715164 39.2917 0.0794727 38.1487 0.474515C37.0057 0.869558 35.9582 1.49985 35.0738 2.3248C34.1895 3.14974 33.488 4.15096 33.0146 5.26382C32.5411 6.37668 32.3063 7.57645 32.3253 8.78567C32.3443 9.9949 32.6166 11.1867 33.1247 12.2842C33.6328 13.3817 34.3654 14.3603 35.2751 15.1571C36.1849 15.9539 37.2517 16.5511 38.4066 16.9101C39.5614 17.2691 40.7787 17.382 41.9799 17.2414C43.1639 17.0879 44.3002 16.6784 45.3099 16.0413C47.03 15.2205 48.4202 13.8397 49.2528 12.1253C50.0854 10.4109 50.311 8.46459 49.8927 6.60519C49.4743 4.74579 48.4368 3.08363 46.9501 1.89108C45.4634 0.698531 43.6158 0.0463554 41.7099 0.0413486V0.0313389ZM41.7099 16.5213C39.8016 16.5289 37.952 15.8616 36.4881 14.6374C35.0242 13.4132 34.0401 11.7109 33.7099 9.83133C33.828 9.95698 33.9705 10.0572 34.1287 10.126C34.2869 10.1948 34.4574 10.2306 34.6299 10.2314C34.8452 10.2366 35.0583 10.1856 35.2479 10.0834C35.4376 9.98125 35.5974 9.83146 35.7115 9.64877C35.8257 9.46608 35.8903 9.25684 35.899 9.04159C35.9076 8.82634 35.86 8.61251 35.7609 8.42123C35.6618 8.22996 35.5146 8.06783 35.3337 7.95077C35.1529 7.83371 34.9447 7.76579 34.7296 7.75369C34.5145 7.74159 34.3 7.78571 34.1071 7.88174C33.9143 7.97778 33.7498 8.12241 33.6299 8.30136C33.6533 6.90245 34.0387 5.53344 34.7484 4.32773C35.4582 3.12201 36.4681 2.12071 37.6799 1.42135C37.7728 1.52904 37.8963 1.60587 38.0339 1.64163C38.1716 1.67739 38.3169 1.67035 38.4504 1.62149C38.584 1.57262 38.6995 1.48422 38.7816 1.36807C38.8637 1.25192 38.9084 1.11356 38.9099 0.971341C38.9099 0.971341 38.9099 0.891346 38.9099 0.851346C39.8115 0.512997 40.7669 0.340216 41.7299 0.341336C43.3347 0.338032 44.9044 0.811492 46.2397 1.70169C47.5749 2.59188 48.6157 3.85869 49.2299 5.34134C49.0893 5.35327 48.9593 5.42058 48.8683 5.52841C48.7774 5.63624 48.733 5.77578 48.7449 5.91635C48.7568 6.05691 48.8241 6.18697 48.9319 6.27792C49.0398 6.36888 49.1793 6.41327 49.3199 6.40133C49.4037 6.40265 49.4865 6.38196 49.5599 6.34134C49.7364 7.01388 49.8271 7.70603 49.8299 8.40133C49.8273 9.46589 49.6148 10.5195 49.2047 11.5019C48.7946 12.4842 48.1949 13.3762 47.4398 14.1266C46.6847 14.877 45.7891 15.4712 44.8042 15.8753C43.8193 16.2793 42.7644 16.4853 41.6999 16.4814L41.7099 16.5213Z" fill="white"/>
<path d="M16.2703 20.5614C15.7603 20.5614 15.3403 21.0214 15.3403 22.0214C15.3403 23.0214 15.7603 23.4914 16.2703 23.4914C16.7803 23.4914 17.2003 23.0214 17.2003 22.0214C17.2003 21.0214 16.7703 20.5614 16.2703 20.5614ZM23.7903 20.5614C23.2803 20.5614 22.8603 21.0214 22.8603 22.0214C22.8603 23.0214 23.2803 23.4914 23.7903 23.4914C24.3003 23.4914 24.7703 23.0314 24.7703 22.0314C24.7703 21.0314 24.3003 20.5614 23.7703 20.5614H23.7903ZM23.7903 20.5614C23.2803 20.5614 22.8603 21.0214 22.8603 22.0214C22.8603 23.0214 23.2803 23.4914 23.7903 23.4914C24.3003 23.4914 24.7703 23.0314 24.7703 22.0314C24.7703 21.0314 24.3003 20.5614 23.7703 20.5614H23.7903ZM16.2703 20.5614C15.7603 20.5614 15.3403 21.0214 15.3403 22.0214C15.3403 23.0214 15.7603 23.4914 16.2703 23.4914C16.7803 23.4914 17.2003 23.0214 17.2003 22.0214C17.2003 21.0214 16.7703 20.5614 16.2703 20.5614ZM16.2703 20.5614C15.7603 20.5614 15.3403 21.0214 15.3403 22.0214C15.3403 23.0214 15.7603 23.4914 16.2703 23.4914C16.7803 23.4914 17.2003 23.0214 17.2003 22.0214C17.2003 21.0214 16.7703 20.5614 16.2703 20.5614ZM16.7503 13.1913L16.2403 15.2513H17.2403L16.7503 13.1913ZM23.7503 20.5614C23.2403 20.5614 22.8203 21.0214 22.8203 22.0214C22.8203 23.0214 23.2403 23.4914 23.7503 23.4914C24.2603 23.4914 24.7703 23.0314 24.7703 22.0314C24.7703 21.0314 24.3003 20.5614 23.7703 20.5614H23.7503ZM23.7503 20.5614C23.2403 20.5614 22.8203 21.0214 22.8203 22.0214C22.8203 23.0214 23.2403 23.4914 23.7503 23.4914C24.2603 23.4914 24.7703 23.0314 24.7703 22.0314C24.7703 21.0314 24.3003 20.5614 23.7703 20.5614H23.7503ZM16.2303 20.5614C15.7203 20.5614 15.3003 21.0214 15.3003 22.0214C15.3003 23.0214 15.7203 23.4914 16.2303 23.4914C16.7403 23.4914 17.1603 23.0214 17.1603 22.0214C17.1603 21.0214 16.7703 20.5614 16.2703 20.5614H16.2303ZM16.7103 13.1913L16.2003 15.2513H17.2003L16.7103 13.1913ZM52.6303 21.6014L52.8103 21.7114V18.7114L52.5703 18.6214C51.6135 18.3299 50.6204 18.175 49.6203 18.1614C47.7403 18.1614 46.7103 18.6414 46.1803 19.2914C45.8996 19.3934 45.6365 19.5385 45.4003 19.7214L45.1503 18.3114H31.8503L31.0703 18.9514V18.7414L31.1603 18.3114H30.4403L30.3603 17.9413C30.2981 17.5445 30.2713 17.143 30.2803 16.7414V12.5614C30.2713 12.1598 30.2981 11.7582 30.3603 11.3614L30.4503 10.9214H26.4503L25.3203 11.6913L25.0103 12.3214L24.3403 10.9214H20.3403L19.2303 11.6814L19.0303 10.9214H14.3503L13.2203 11.6913V12.0314C13.2059 12.2466 13.1758 12.4605 13.1303 12.6714V10.9214H6.65033L5.52032 11.6913L4.95032 14.6913L5.59033 14.3813C5.8752 14.2946 6.17287 14.2574 6.47034 14.2714H7.19034L6.38031 14.8014L6.53033 15.2114L6.41034 15.1514L5.91034 14.9413L4.78033 15.7114V18.7114L5.02032 18.8014C5.4425 18.9349 5.87358 19.0385 6.31033 19.1114C6.19363 19.2002 6.08334 19.297 5.98032 19.4014C5.73257 19.5179 5.49507 19.6551 5.27032 19.8114C4.81165 20.1655 4.44027 20.62 4.18475 21.1401C3.92923 21.6601 3.79639 22.2319 3.79639 22.8114C3.79639 23.3909 3.92923 23.9626 4.18475 24.4827C4.44027 25.0027 4.81165 25.4573 5.27032 25.8114C6.13545 26.4112 7.16783 26.7226 8.22034 26.7014C9.25039 26.7259 10.2792 26.615 11.2803 26.3714L11.5603 26.3014L12.3603 25.7614C13.16 26.4046 14.1647 26.7383 15.1903 26.7014C16.1204 26.7311 17.0354 26.4612 17.8003 25.9314L18.7203 25.3014L18.9303 25.1614L19.2103 24.9714C19.3917 25.2676 19.6177 25.534 19.8803 25.7614C20.68 26.4046 21.6847 26.7383 22.7103 26.7014C23.5646 26.7225 24.4073 26.5006 25.1403 26.0614L25.2503 25.9814L26.2503 25.2914L26.3503 25.2114L26.5403 25.0814C26.5458 25.4427 26.5225 25.8038 26.4703 26.1614L26.3903 26.5914H44.2103L44.3803 25.8214H44.4303V26.1014L44.7103 26.1814C45.8876 26.5073 47.0994 26.6919 48.3203 26.7314C49.2687 26.782 50.2154 26.6036 51.0803 26.2114C51.3734 26.0676 51.6324 25.8631 51.8403 25.6114L52.2103 25.4514C52.6021 25.2603 52.9293 24.9586 53.1514 24.5836C53.3736 24.2086 53.481 23.7767 53.4603 23.3414C53.4843 23.0085 53.4246 22.6748 53.2866 22.3709C53.1486 22.067 52.9367 21.8025 52.6703 21.6014H52.6303ZM20.7703 11.2714H24.1303L25.4103 13.9314L26.6903 11.2714H30.0603C29.9912 11.6944 29.9611 12.1229 29.9703 12.5514V16.7314C29.9603 17.1566 29.9904 17.5818 30.0603 18.0013H27.3403C27.4015 17.5809 27.4282 17.1562 27.4203 16.7314V14.5314L25.7703 18.0314H25.0603L23.3903 14.5414V16.7614C23.3802 17.1866 23.4104 17.6118 23.4803 18.0314H20.7703C20.8226 17.6101 20.846 17.1858 20.8403 16.7614V12.5814C20.8467 12.1436 20.8233 11.7059 20.7703 11.2714ZM13.3203 16.7314L14.4603 12.5514C14.5751 12.1325 14.6521 11.704 14.6903 11.2714H18.7703L20.2303 16.7314C20.3312 17.1631 20.4615 17.5874 20.6203 18.0013H17.6203C17.6232 17.6654 17.5897 17.3301 17.5203 17.0013L17.4703 16.7314H16.0103V17.0013C15.9384 17.3298 15.9015 17.6651 15.9003 18.0013H12.9003C13.058 17.586 13.1915 17.1621 13.3003 16.7314H13.3203ZM9.32031 25.5314C7.40031 25.5314 5.32031 24.5314 5.32031 22.0114C5.32031 19.4914 7.46031 18.5114 9.38031 18.5114C10.2549 18.5023 11.1285 18.5726 11.9903 18.7214L11.9003 20.9514C11.2589 20.7231 10.581 20.6147 9.90033 20.6313C8.90033 20.6313 7.90033 20.9414 7.90033 22.0314C7.90033 23.1214 8.96033 23.4314 9.90033 23.4314C10.7027 23.4434 11.4969 23.2688 12.2203 22.9214L12.3003 25.2114C11.3194 25.4532 10.3102 25.5609 9.30032 25.5314H9.32031ZM9.76031 18.1514C8.573 18.178 7.38881 18.0195 6.25034 17.6814V15.5013C7.13596 15.8956 8.09116 16.1097 9.06033 16.1313C9.66033 16.1313 10.4603 15.9814 10.4603 15.5214C10.4603 15.2314 10.1203 15.0714 9.41034 15.0714C9.03211 15.0667 8.65414 15.0935 8.28033 15.1514L7.93033 14.1514L9.49033 13.1514H7.58032C7.2409 13.1444 6.90277 13.1952 6.58032 13.3014L6.97034 11.3014H12.7703V12.8514L11.0703 13.9914C12.2703 14.2614 13.0703 14.8514 13.0703 15.9114C13.0103 17.3314 11.5003 18.1514 9.77032 18.1514H9.76031ZM13.0203 13.0714C13.026 13.1245 13.026 13.1782 13.0203 13.2314L12.7303 14.3114C12.4907 14.1179 12.2247 13.9596 11.9403 13.8414L12.0303 13.7814L13.0203 13.0714ZM16.2903 25.5314C14.2903 25.5314 12.6103 24.4314 12.6103 22.0214C12.6103 21.0454 12.998 20.1093 13.6882 19.4192C14.3783 18.7291 15.3143 18.3414 16.2903 18.3414C17.2663 18.3414 18.2024 18.7291 18.8925 19.4192C19.5826 20.1093 19.9703 21.0454 19.9703 22.0214C19.9503 24.4314 18.2803 25.5314 16.2703 25.5314H16.2903ZM23.8103 25.5314C21.8103 25.5314 20.1303 24.4314 20.1303 22.0214C20.1303 21.0454 20.518 20.1093 21.2082 19.4192C21.8983 18.7291 22.8343 18.3414 23.8103 18.3414C24.7863 18.3414 25.7223 18.7291 26.4125 19.4192C27.1026 20.1093 27.4903 21.0454 27.4903 22.0214C27.4703 24.4314 25.7703 25.5314 23.7703 25.5314H23.8103ZM32.3003 25.3914C32.1078 24.9493 31.8839 24.5215 31.6303 24.1114L30.6803 22.4814V24.1114C30.6707 24.5399 30.7008 24.9684 30.7703 25.3914H27.9703C28.0312 24.9675 28.058 24.5395 28.0503 24.1114V19.9314C28.0578 19.5066 28.0311 19.0819 27.9703 18.6614H30.7703C30.7008 19.081 30.6707 19.5062 30.6803 19.9314V21.3714L31.4803 19.9314C31.7154 19.5194 31.929 19.0955 32.1203 18.6614H35.1203C34.8246 19.0657 34.5573 19.4901 34.3203 19.9314L33.2003 21.9314L34.4603 24.1014C34.7124 24.5457 34.993 24.9732 35.3003 25.3813L32.3003 25.3914ZM38.3003 25.3914H35.5203C35.5812 24.9675 35.6079 24.5395 35.6003 24.1114V19.9314C35.6078 19.5066 35.5811 19.0819 35.5203 18.6614H38.3003C38.2396 19.0819 38.2128 19.5066 38.2203 19.9314V24.1114C38.1928 24.5379 38.1995 24.9659 38.2403 25.3914H38.3003ZM45.1303 25.3914H39.1303C39.1912 24.9675 39.218 24.5395 39.2103 24.1114V19.9314C39.2179 19.5066 39.1911 19.0819 39.1303 18.6614H44.9303L45.3103 20.8214C44.9728 20.7061 44.6166 20.6552 44.2603 20.6714H41.7703V21.3514H43.0303C43.4584 21.3585 43.8864 21.3318 44.3103 21.2714V22.9014C43.8873 22.8322 43.4589 22.8021 43.0303 22.8114H41.7703V23.3813H44.4903C44.8308 23.3925 45.1703 23.3383 45.4903 23.2214L45.1303 25.3914ZM49.5103 25.5314C48.3229 25.4922 47.1446 25.311 46.0003 24.9914L46.1103 22.7214C47.122 23.2776 48.2472 23.5956 49.4003 23.6514C49.9603 23.6514 50.4803 23.6513 50.4803 23.3813C50.4803 22.8113 46.1103 23.3814 46.1103 20.8514C46.1103 19.0914 47.6803 18.5114 49.7203 18.5114C50.6828 18.5258 51.6386 18.6738 52.5603 18.9514V21.0814C51.702 20.6858 50.7746 20.4616 49.8303 20.4214C49.2703 20.4214 48.7503 20.5014 48.7503 20.7414C48.7503 21.5614 53.1603 20.5814 53.1603 23.2714C53.1003 25.0314 51.4903 25.5314 49.4503 25.5314H49.5103ZM23.8503 20.5314C23.3403 20.5314 22.9203 20.9914 22.9203 21.9914C22.9203 22.9914 23.3403 23.4614 23.8503 23.4614C24.3603 23.4614 24.7703 23.0314 24.7703 22.0314C24.7703 21.0314 24.3003 20.5614 23.7703 20.5614L23.8503 20.5314ZM16.8503 13.1614L16.3403 15.2214H17.3403L16.8503 13.1614ZM16.3703 20.5314C15.8603 20.5314 15.4403 20.9914 15.4403 21.9914C15.4403 22.9914 15.8603 23.4614 16.3703 23.4614C16.8803 23.4614 17.3003 22.9914 17.3003 21.9914C17.3003 20.9914 16.7703 20.5614 16.2703 20.5614L16.3703 20.5314ZM16.8503 13.1614L16.3403 15.2214H17.3403L16.8503 13.1614ZM16.3703 20.5314C15.8603 20.5314 15.4403 20.9914 15.4403 21.9914C15.4403 22.9914 15.8603 23.4614 16.3703 23.4614C16.8803 23.4614 17.3003 22.9914 17.3003 21.9914C17.3003 20.9914 16.7703 20.5614 16.2703 20.5614L16.3703 20.5314ZM23.8903 20.5314C23.3803 20.5314 22.9603 20.9914 22.9603 21.9914C22.9603 22.9914 23.3803 23.4614 23.8903 23.4614C24.4003 23.4614 24.7703 23.0314 24.7703 22.0314C24.7703 21.0314 24.3003 20.5614 23.7703 20.5614L23.8903 20.5314ZM23.8903 20.5314C23.3803 20.5314 22.9603 20.9914 22.9603 21.9914C22.9603 22.9914 23.3803 23.4614 23.8903 23.4614C24.4003 23.4614 24.7703 23.0314 24.7703 22.0314C24.7703 21.0314 24.3003 20.5614 23.7703 20.5614L23.8903 20.5314ZM16.8903 13.1614L16.3803 15.2214H17.3803L16.8903 13.1614ZM16.4103 20.5314C15.9003 20.5314 15.4803 20.9914 15.4803 21.9914C15.4803 22.9914 15.9003 23.4614 16.4103 23.4614C16.9203 23.4614 17.3403 22.9914 17.3403 21.9914C17.3403 20.9914 16.7703 20.5614 16.2703 20.5614L16.4103 20.5314ZM23.9303 20.5314C23.4203 20.5314 23.0003 20.9914 23.0003 21.9914C23.0003 22.9914 23.4203 23.4614 23.9303 23.4614C24.4403 23.4614 24.7703 23.0314 24.7703 22.0314C24.7703 21.0314 24.3003 20.5614 23.7703 20.5614L23.9303 20.5314ZM23.9303 20.5314C23.4203 20.5314 23.0003 20.9914 23.0003 21.9914C23.0003 22.9914 23.4203 23.4614 23.9303 23.4614C24.4403 23.4614 24.7703 23.0314 24.7703 22.0314C24.7703 21.0314 24.3003 20.5614 23.7703 20.5614L23.9303 20.5314Z" fill="white"/>
<path d="M31.4003 8.55133C31.1181 8.67236 30.8902 8.89306 30.7603 9.17133C30.7603 9.17133 30.7003 9.17133 30.6803 9.17133C30.5504 8.89306 30.3226 8.67236 30.0403 8.55133C30.0339 8.5457 30.0288 8.53876 30.0253 8.53101C30.0218 8.52325 30.02 8.5148 30.02 8.50629C30.02 8.49777 30.0218 8.48939 30.0253 8.48163C30.0288 8.47387 30.0339 8.46693 30.0403 8.4613C30.3226 8.34027 30.5504 8.11958 30.6803 7.84131C30.6803 7.84131 30.7503 7.84131 30.7603 7.84131C30.8902 8.11958 31.1181 8.34027 31.4003 8.4613V8.55133Z" fill="white"/>
<path d="M50.7005 2.03149C50.2104 2.25153 49.8138 2.63759 49.5805 3.12152C49.5805 3.14009 49.5732 3.15789 49.56 3.17102C49.5469 3.18415 49.5291 3.19147 49.5105 3.19147C49.492 3.19147 49.4742 3.18415 49.461 3.17102C49.4479 3.15789 49.4406 3.14009 49.4406 3.12152C49.2073 2.63759 48.8106 2.25153 48.3205 2.03149C48.3081 2.02328 48.298 2.01211 48.291 1.99902C48.284 1.98594 48.2803 1.97133 48.2803 1.95648C48.2803 1.94163 48.284 1.92703 48.291 1.91394C48.298 1.90085 48.3081 1.88968 48.3205 1.88147C48.8133 1.66041 49.2106 1.27021 49.4406 0.781494C49.4475 0.76899 49.4576 0.758539 49.4699 0.751282C49.4822 0.744024 49.4962 0.740234 49.5105 0.740234C49.5248 0.740234 49.5389 0.744024 49.5512 0.751282C49.5635 0.758539 49.5736 0.76899 49.5805 0.781494C49.8104 1.27021 50.2078 1.66041 50.7005 1.88147C50.7158 1.88715 50.729 1.89742 50.7384 1.91083C50.7477 1.92423 50.7527 1.94015 50.7527 1.95648C50.7527 1.97281 50.7477 1.98879 50.7384 2.0022C50.729 2.0156 50.7158 2.02581 50.7005 2.03149Z" fill="white"/>
<path d="M25.1 8.33105C24.8178 8.45208 24.59 8.67278 24.4601 8.95105C24.4601 8.95105 24.4 8.95105 24.38 8.95105C24.2501 8.67278 24.0223 8.45208 23.7401 8.33105C23.7337 8.32542 23.7285 8.31849 23.725 8.31073C23.7215 8.30297 23.7197 8.29458 23.7197 8.28607C23.7197 8.27756 23.7215 8.26911 23.725 8.26135C23.7285 8.25359 23.7337 8.24672 23.7401 8.24109C24.0203 8.117 24.2471 7.89722 24.38 7.62109C24.38 7.62109 24.4501 7.62109 24.4601 7.62109C24.59 7.89936 24.8178 8.12006 25.1 8.24109V8.33105Z" fill="white"/>
<path d="M30.9901 5.70117C30.4503 5.95339 30.0179 6.38942 29.7701 6.93121C29.7625 6.9459 29.751 6.95819 29.7369 6.9668C29.7228 6.9754 29.7066 6.97998 29.6901 6.97998C29.6735 6.97998 29.6573 6.9754 29.6432 6.9668C29.6291 6.95819 29.6176 6.9459 29.61 6.93121C29.3578 6.37868 28.9085 5.94005 28.35 5.70117C28.3356 5.6922 28.3236 5.67973 28.3154 5.66486C28.3071 5.64998 28.3027 5.63324 28.3027 5.61621C28.3027 5.59919 28.3071 5.58244 28.3154 5.56757C28.3236 5.55269 28.3356 5.54016 28.35 5.53119C28.9085 5.29231 29.3578 4.85375 29.61 4.30121C29.6176 4.28652 29.6291 4.27417 29.6432 4.26556C29.6573 4.25696 29.6735 4.25244 29.6901 4.25244C29.7066 4.25244 29.7228 4.25696 29.7369 4.26556C29.751 4.27417 29.7625 4.28652 29.7701 4.30121C30.0277 4.84991 30.4753 5.28679 31.0301 5.53119C31.0432 5.54319 31.0529 5.55849 31.0582 5.5755C31.0634 5.59251 31.064 5.6106 31.06 5.62793C31.0559 5.64526 31.0473 5.66119 31.035 5.67407C31.0227 5.68695 31.0072 5.69629 30.9901 5.70117Z" fill="white"/>
<path d="M53.0102 15.2513C52.3088 15.5651 51.7417 16.1181 51.4102 16.8114C51.4015 16.8305 51.3874 16.8467 51.3696 16.8581C51.3519 16.8695 51.3313 16.8755 51.3102 16.8755C51.2892 16.8755 51.2686 16.8695 51.2508 16.8581C51.2331 16.8467 51.219 16.8305 51.2102 16.8114C50.8788 16.1181 50.3117 15.5651 49.6102 15.2513C49.5915 15.241 49.5758 15.2258 49.5649 15.2073C49.5541 15.1889 49.5483 15.1678 49.5483 15.1464C49.5483 15.1249 49.5541 15.1039 49.5649 15.0854C49.5758 15.067 49.5915 15.0518 49.6102 15.0414C50.3144 14.7266 50.8822 14.1695 51.2102 13.4714C51.219 13.4522 51.2331 13.436 51.2508 13.4246C51.2686 13.4132 51.2892 13.4072 51.3102 13.4072C51.3313 13.4072 51.3519 13.4132 51.3696 13.4246C51.3874 13.436 51.4015 13.4522 51.4102 13.4714C51.7383 14.1695 52.3061 14.7266 53.0102 15.0414C53.029 15.0518 53.0446 15.067 53.0555 15.0854C53.0664 15.1039 53.0721 15.1249 53.0721 15.1464C53.0721 15.1678 53.0664 15.1889 53.0555 15.2073C53.0446 15.2258 53.029 15.241 53.0102 15.2513Z" fill="white"/>
<path d="M34.5305 15.6411C33.9757 15.8855 33.5281 16.3225 33.2704 16.8712C33.2629 16.8858 33.2514 16.8981 33.2373 16.9067C33.2232 16.9153 33.207 16.9199 33.1905 16.9199C33.1739 16.9199 33.1577 16.9153 33.1436 16.9067C33.1295 16.8981 33.118 16.8858 33.1104 16.8712C32.855 16.3208 32.4067 15.8832 31.8504 15.6411C31.8328 15.635 31.8175 15.6235 31.8067 15.6083C31.7958 15.593 31.79 15.5748 31.79 15.5562C31.79 15.5375 31.7958 15.5192 31.8067 15.504C31.8175 15.4887 31.8328 15.4773 31.8504 15.4711C32.4047 15.226 32.852 14.7893 33.1104 14.2411C33.118 14.2265 33.1295 14.2141 33.1436 14.2055C33.1577 14.1969 33.1739 14.1924 33.1905 14.1924C33.207 14.1924 33.2232 14.1969 33.2373 14.2055C33.2514 14.2141 33.2629 14.2265 33.2704 14.2411C33.5318 14.7872 33.9782 15.223 34.5305 15.4711C34.5481 15.4773 34.5634 15.4887 34.5742 15.504C34.585 15.5192 34.5909 15.5375 34.5909 15.5562C34.5909 15.5748 34.585 15.593 34.5742 15.6083C34.5634 15.6235 34.5481 15.635 34.5305 15.6411Z" fill="white"/>
<path d="M2.21021 14.851C1.8557 15.0073 1.571 15.2884 1.41022 15.6409C1.40367 15.6493 1.3953 15.656 1.38577 15.6606C1.37625 15.6653 1.36578 15.6677 1.35519 15.6677C1.3446 15.6677 1.33417 15.6653 1.32465 15.6606C1.31512 15.656 1.30675 15.6493 1.3002 15.6409C1.1364 15.2905 0.85264 15.0103 0.500214 14.851C0.486953 14.851 0.474221 14.8457 0.464844 14.8363C0.455467 14.8269 0.450195 14.8142 0.450195 14.801C0.450195 14.7877 0.455467 14.7749 0.464844 14.7656C0.474221 14.7562 0.486953 14.7509 0.500214 14.7509C0.85264 14.5915 1.1364 14.3113 1.3002 13.9609C1.3002 13.9609 1.38022 13.9609 1.41022 13.9609C1.571 14.3135 1.8557 14.5946 2.21021 14.7509C2.21846 14.7564 2.22521 14.7639 2.22989 14.7726C2.23457 14.7813 2.23703 14.7911 2.23703 14.801C2.23703 14.8109 2.23457 14.8206 2.22989 14.8293C2.22521 14.8381 2.21846 14.8455 2.21021 14.851Z" fill="white"/>
</svg>
