<svg width="81" height="12" viewBox="0 0 81 12" fill="none" xmlns="http://www.w3.org/2000/svg">
<path d="M52.8703 7.26976C52.3903 7.08976 51.9703 6.92974 51.9703 6.61974C51.9703 6.30974 52.2303 6.07976 52.7703 6.07976C53.2695 6.10149 53.7563 6.24206 54.1903 6.48977L54.4603 5.68975C53.8529 5.33993 53.1611 5.16351 52.4603 5.17974C51.2003 5.17974 50.4603 5.76974 50.4603 6.74974C50.4603 7.72974 51.3403 8.09974 52.0503 8.39974C52.5603 8.61974 53.0503 8.86975 53.0503 9.25975C53.0503 9.64975 52.7403 9.82976 52.1503 9.82976C51.5998 9.81959 51.0617 9.66435 50.5903 9.37975L50.3003 10.1998C50.9216 10.5643 51.6299 10.7544 52.3503 10.7497C52.9223 10.7858 53.4887 10.6195 53.9503 10.2797C54.1328 10.1137 54.2759 9.90905 54.3693 9.68071C54.4627 9.45238 54.504 9.20609 54.4903 8.95977C54.5403 7.88977 53.6203 7.54976 52.8703 7.26976Z" fill="white"/>
<path d="M49.64 8.87035V7.52038C49.6684 7.20143 49.6317 6.88003 49.532 6.57574C49.4323 6.27144 49.2717 5.99061 49.06 5.75036C48.8544 5.53629 48.605 5.36916 48.3289 5.26043C48.0527 5.15169 47.7563 5.10391 47.46 5.12035C46.7062 5.1329 45.9713 5.35825 45.34 5.77038L45.58 6.58037C46.012 6.29826 46.5142 6.14239 47.03 6.13036C47.1956 6.11615 47.3624 6.13537 47.5205 6.18691C47.6785 6.23845 47.8246 6.32123 47.95 6.43035C48.15 6.64035 48.23 6.83036 48.24 7.38036C47.8788 7.26325 47.4988 7.21576 47.12 7.24038H46.94C46.6881 7.20735 46.4322 7.2289 46.1894 7.30358C45.9467 7.37826 45.7228 7.50429 45.533 7.67315C45.3433 7.84201 45.1921 8.04973 45.0898 8.28219C44.9875 8.51465 44.9364 8.76641 44.94 9.02038C44.93 9.25465 44.9703 9.48832 45.0583 9.70568C45.1463 9.92304 45.2798 10.119 45.45 10.2804C45.8195 10.6113 46.3044 10.7838 46.8 10.7604C47.3685 10.7413 47.92 10.561 48.39 10.2404C48.416 10.3699 48.4528 10.497 48.5 10.6204H49.74C49.664 10.0402 49.6306 9.45534 49.64 8.87035ZM48.25 8.17037V9.45037C47.9551 9.67228 47.6128 9.82288 47.25 9.89037C47.1339 9.90303 47.0166 9.88947 46.9065 9.85073C46.7964 9.81199 46.6964 9.74903 46.6139 9.6665C46.5313 9.58396 46.4683 9.48399 46.4296 9.37389C46.3909 9.26379 46.3773 9.14638 46.39 9.03036C46.3729 8.90505 46.3843 8.7775 46.4234 8.65722C46.4624 8.53694 46.5281 8.42705 46.6156 8.33572C46.7031 8.24438 46.8101 8.17396 46.9286 8.12975C47.0471 8.08554 47.174 8.06867 47.3 8.08037H47.56C47.7935 8.06983 48.027 8.10028 48.25 8.17037Z" fill="white"/>
<path d="M18.3003 4.07996H20.4003V10.6199H21.9903V4.07996H24.0903V2.95996H18.3003V4.07996Z" fill="white"/>
<path d="M26.2 10.6197V6.51974C26.4926 6.30912 26.8398 6.18756 27.2 6.16974C27.78 6.16974 28.0599 6.56974 28.0599 7.38974V10.6197H29.5399V7.41974C29.5841 6.79873 29.3911 6.18408 28.9999 5.69974C28.843 5.52336 28.648 5.38491 28.4297 5.29483C28.2115 5.20475 27.9756 5.16539 27.74 5.17972C27.1901 5.18496 26.6515 5.33685 26.18 5.61972V2.96973H24.71V10.6197H26.2Z" fill="white"/>
<path d="M42.7604 10.6203H44.2004V7.42031C44.2572 6.80283 44.0826 6.18624 43.7104 5.6903C43.5553 5.52035 43.3647 5.38659 43.1521 5.29845C42.9395 5.21032 42.7103 5.16997 42.4804 5.18029C41.8153 5.19752 41.1734 5.429 40.6504 5.84029L40.5804 5.7503V5.70031C40.4222 5.53093 40.2299 5.397 40.0161 5.30737C39.8024 5.21773 39.5721 5.17442 39.3404 5.18029C38.7429 5.19329 38.1636 5.38872 37.6804 5.74032C37.6804 5.62032 37.6104 5.55031 37.5904 5.48031C37.5947 5.42706 37.5947 5.37355 37.5904 5.3203H36.4004V10.6303H37.8704V6.5303C38.1543 6.30345 38.507 6.18001 38.8704 6.18029C38.9647 6.17517 39.0591 6.1904 39.1471 6.22491C39.2351 6.25941 39.3146 6.31239 39.3804 6.3803C39.5895 6.66916 39.6824 7.02615 39.6404 7.3803V10.6103H41.1204V7.4103C41.1204 7.2403 41.1204 7.08031 41.1204 6.92031V6.48031C41.3863 6.26634 41.7191 6.15301 42.0604 6.1603C42.1561 6.15627 42.2517 6.17195 42.3411 6.20635C42.4306 6.24075 42.512 6.29316 42.5804 6.36031C42.7809 6.65292 42.8696 7.00779 42.8304 7.36031L42.7604 10.6203Z" fill="white"/>
<path d="M32.9502 10.7502C33.3163 10.7692 33.6825 10.7133 34.0264 10.5861C34.3702 10.4588 34.6845 10.2629 34.9502 10.0103C35.1974 9.74166 35.3884 9.42637 35.512 9.08292C35.6357 8.73947 35.6894 8.37478 35.6702 8.01026C35.7007 7.26005 35.4432 6.5266 34.9502 5.96027C34.6905 5.69613 34.3784 5.48935 34.0339 5.35327C33.6895 5.2172 33.3203 5.15486 32.9502 5.17026C32.2404 5.21281 31.5737 5.52475 31.0862 6.04236C30.5987 6.55998 30.3271 7.24421 30.3271 7.95526C30.3271 8.66632 30.5987 9.35052 31.0862 9.86814C31.5737 10.3858 32.2404 10.6977 32.9502 10.7403V10.7502ZM32.9502 6.04026C33.7202 6.04026 34.1102 6.69027 34.1102 7.96027C34.1102 9.23027 33.7202 9.89026 32.9502 9.89026C32.1802 9.89026 31.7902 9.24027 31.7902 7.96027C31.7902 6.68027 32.2002 6.07025 32.9502 6.07025V6.04026Z" fill="white"/>
<path d="M62.8501 9.36981C62.2866 9.58077 61.6916 9.69573 61.0901 9.70984C60.5939 9.74422 60.1035 9.5867 59.7201 9.26984C59.4301 8.95024 59.2107 8.57309 59.0763 8.163C58.9419 7.7529 58.8955 7.31908 58.94 6.88983C58.8617 6.0298 59.1279 5.17383 59.68 4.50983C59.8522 4.35207 60.0541 4.23016 60.2738 4.15119C60.4936 4.07221 60.7269 4.03776 60.9601 4.04984C61.604 4.06466 62.2377 4.21456 62.8201 4.48984L63.1001 3.58982C62.405 3.21815 61.6282 3.02568 60.8401 3.02982C60.3874 3.00642 59.9347 3.07597 59.5099 3.23419C59.0851 3.39242 58.6971 3.63598 58.37 3.94983C57.6428 4.75565 57.262 5.81539 57.31 6.89981C57.2728 7.46063 57.3542 8.02299 57.5489 8.55023C57.7436 9.07748 58.0473 9.5578 58.44 9.95984C59.1175 10.5212 59.9815 10.8068 60.86 10.7598C61.633 10.7664 62.399 10.6132 63.11 10.3098L62.86 9.39981L62.8501 9.36981Z" fill="white"/>
<path d="M66.1102 5.18003C65.5539 5.15608 65.0031 5.29915 64.5288 5.5908C64.0545 5.88245 63.6783 6.30937 63.4486 6.8166C63.2189 7.32383 63.1463 7.88818 63.24 8.43705C63.3337 8.98592 63.5895 9.49418 63.9745 9.89646C64.3595 10.2987 64.8561 10.5766 65.4003 10.6944C65.9445 10.8121 66.5115 10.7643 67.0283 10.5571C67.5452 10.35 67.9882 9.99289 68.3004 9.53184C68.6126 9.07079 68.7797 8.52685 68.7802 7.97004C68.8223 7.60379 68.7831 7.2328 68.6655 6.8834C68.548 6.534 68.3549 6.21477 68.1 5.94843C67.8451 5.68209 67.5346 5.47516 67.1907 5.34236C66.8468 5.20955 66.4779 5.15413 66.1102 5.18003ZM66.1102 9.89005C65.3402 9.89005 64.9502 9.24004 64.9502 7.97004C64.9502 6.70004 65.3402 6.04005 66.1102 6.04005C66.8802 6.04005 67.2702 6.69004 67.2702 7.97004C67.2702 9.25004 66.8802 9.89005 66.1102 9.89005Z" fill="white"/>
<path d="M80.2903 5.30994H78.7703L76.8003 7.26996V2.95996H75.3203V10.6199H76.8003V8.33994L78.6403 10.6199H80.3503L77.9203 7.62994L80.2903 5.30994Z" fill="white"/>
<path d="M71.9503 5.17979C71.3943 5.15785 70.8445 5.30266 70.3715 5.59559C69.8984 5.88852 69.5237 6.31619 69.2956 6.82368C69.0675 7.33116 68.9963 7.89527 69.0912 8.44352C69.1861 8.99177 69.4428 9.49913 69.8282 9.9004C70.2137 10.3017 70.7103 10.5785 71.2543 10.6954C71.7983 10.8123 72.3648 10.7638 72.881 10.5563C73.3973 10.3487 73.8397 9.99154 74.1514 9.53065C74.4631 9.06976 74.6299 8.5262 74.6303 7.96979C74.6726 7.60265 74.6332 7.23071 74.5151 6.88053C74.3969 6.53035 74.203 6.21059 73.947 5.94407C73.6909 5.67755 73.3792 5.47084 73.0341 5.33872C72.6889 5.20661 72.3189 5.15233 71.9503 5.17979ZM71.9503 9.88981C71.1903 9.88981 70.8003 9.23979 70.8003 7.96979C70.8003 6.6998 71.2003 6.0698 71.9503 6.0698C72.7003 6.0698 73.1103 6.71979 73.1103 7.99979C73.1103 9.27979 72.7203 9.88981 71.9503 9.88981Z" fill="white"/>
<path d="M13.5501 0.669922C13.6585 0.68934 13.7654 0.716054 13.8701 0.749908C14.0001 0.749908 14.0901 0.819921 14.5301 1.19992C14.8558 1.47346 15.1234 1.80957 15.317 2.18835C15.5105 2.56714 15.6261 2.9809 15.6568 3.40515C15.6876 3.8294 15.6329 4.25554 15.4961 4.65829C15.3592 5.06105 15.143 5.43223 14.8601 5.74991L14.6801 5.93991C13.7701 6.87991 11.0301 9.64993 10.3601 10.3299C10.0854 10.6203 9.75544 10.8528 9.38962 11.0138C9.02379 11.1749 8.62948 11.2612 8.22983 11.2677C7.83018 11.2742 7.43326 11.2008 7.06238 11.0518C6.6915 10.9028 6.35413 10.6811 6.0701 10.3999C5.4801 9.8199 1.8501 6.1499 1.8501 6.1499C1.91998 6.20783 1.99346 6.26127 2.0701 6.30991L2.2901 6.43991C2.2901 6.43991 5.87012 10.0599 6.40012 10.5399C6.95968 10.9962 7.67292 11.2205 8.39291 11.1665C9.11291 11.1126 9.78479 10.7845 10.2701 10.2499C11.7201 8.77991 13.5001 7.00993 14.7201 5.76993C15.0916 5.36595 15.3529 4.87321 15.479 4.33908C15.6051 3.80495 15.5917 3.24737 15.4401 2.71991C15.2594 2.17637 14.9386 1.69004 14.5101 1.30991C14.2322 1.03929 13.9068 0.822331 13.5501 0.669922Z" fill="white"/>
<path d="M6.06003 1.07007C5.48507 0.520541 4.72038 0.213867 3.92505 0.213867C3.12971 0.213867 2.365 0.520541 1.79004 1.07007C1.70811 1.14486 1.63126 1.22502 1.56003 1.31006C1.47652 1.40462 1.39969 1.50488 1.33005 1.61008L1.28003 1.69006V1.77008L1.44003 1.55008L1.50003 1.48007L1.61005 1.37006C1.02672 1.96778 0.700195 2.76988 0.700195 3.60507C0.700195 4.44026 1.02672 5.24234 1.61005 5.84006C1.89525 6.13368 2.23646 6.36713 2.61349 6.52652C2.99053 6.68591 3.39571 6.76804 3.80505 6.76804C4.21439 6.76804 4.61955 6.68591 4.99658 6.52652C5.37361 6.36713 5.71483 6.13368 6.00003 5.84006L8.20004 3.60007L8.39005 3.41006L6.06003 1.07007Z" fill="#D1D1D1"/>
<path d="M14.7501 1.40005L14.6101 1.27008L14.5501 1.22006C14.5501 1.22006 14.3901 1.07005 14.2101 0.930051C13.6443 0.455641 12.9233 0.206602 12.1853 0.230588C11.4473 0.254574 10.744 0.549905 10.2101 1.06006L5.69012 5.65005C5.4146 5.94126 5.08353 6.1743 4.71643 6.33539C4.34933 6.49647 3.95365 6.58236 3.5528 6.58795C3.15194 6.59354 2.75405 6.51873 2.3826 6.36795C2.01115 6.21717 1.67368 5.99348 1.39014 5.71008L1.56012 5.89007L3.75012 8.13006L3.96014 8.34005L5.96014 10.3401C6.17995 10.5641 6.43291 10.753 6.71014 10.9001C6.88658 10.9996 7.07468 11.0768 7.27014 11.1301C7.46243 11.1892 7.66003 11.2294 7.86014 11.2501C8.36083 11.3012 8.86635 11.2255 9.33014 11.0301C9.70559 10.868 10.0454 10.6336 10.3301 10.3401L14.7201 5.87005C15.3098 5.27751 15.6434 4.47717 15.649 3.6412C15.6546 2.80524 15.3318 2.00046 14.7501 1.40005Z" fill="white"/>
<path d="M2.37988 6.5L4.90988 9.10001C5.38401 9.63874 5.89887 10.1402 6.44989 10.6C6.77618 10.8118 7.15163 10.9358 7.53989 10.96C7.19378 10.7934 6.85964 10.6029 6.53989 10.39C6.0266 9.93777 5.53917 9.45701 5.0799 8.95001L2.9299 6.73001L2.71988 6.66C2.60301 6.61454 2.48941 6.56108 2.37988 6.5Z" fill="white"/>
</svg>
