<svg width="81" height="15" viewBox="0 0 81 15" fill="none" xmlns="http://www.w3.org/2000/svg">
<path d="M73.21 1.48196L70.55 8.53198H70.15L68.59 2.72198L66.4 8.53198H66L64.11 1.48196L63.21 0.771973H66.15L65.26 1.48196L66.63 6.57199L68.38 1.95197L68.25 1.48196L67.36 0.771973H70.31L69.41 1.48196L70.79 6.57199L72.7 1.48196L71.81 0.771973H74.11L73.21 1.48196Z" fill="white"/>
<path d="M80.6199 0.771973H78.5599L79.3599 1.40198V6.33197L76.0099 0.771973H74.3999L75.2899 1.77197V7.89197L74.4899 8.52197H76.5499L75.7599 7.89197V2.50198L79.4599 8.65198H79.8299V1.39197L80.6199 0.771973Z" fill="white"/>
<path d="M60.0496 0.651825C58.1996 0.651825 56.8096 2.37182 56.8096 4.65182C56.8096 6.93182 58.1396 8.57181 60.0496 8.57181C61.9596 8.57181 63.1996 6.91184 63.1996 4.63184C63.1996 2.35184 61.8696 0.631836 60.0496 0.631836V0.651825ZM60.0496 8.13181C58.8696 8.13181 57.9496 6.82183 57.9496 4.66183C57.9496 2.50183 58.9496 1.09183 60.0496 1.12183C61.1496 1.15183 62.1096 2.49182 62.1096 4.65182C62.1096 6.81183 61.1896 8.15181 60.0496 8.13181Z" fill="white"/>
<path d="M55.9196 8.09198C55.5685 7.71215 55.3418 7.23418 55.2697 6.72198C55.2744 6.63538 55.2744 6.54858 55.2697 6.46198C55.1097 5.78198 54.9296 4.92197 54.0596 4.70197L53.6796 4.63199H53.7997C54.3089 4.63199 54.7972 4.42968 55.1573 4.06961C55.5174 3.70954 55.7197 3.22119 55.7197 2.71198C55.7197 2.20276 55.5174 1.71441 55.1573 1.35434C54.7972 0.99427 54.3089 0.791992 53.7997 0.791992H49.8896L50.7896 1.48196V7.82196L49.8896 8.50195H52.7997L51.9097 7.82196V4.70197H53.3096C53.5468 4.82679 53.7548 5.00064 53.9196 5.21198C54.0355 5.53451 54.1095 5.87059 54.1396 6.21198L54.2197 6.76196C54.2891 7.34188 54.4799 7.90068 54.7796 8.40198L54.8596 8.51196H56.4996L55.9196 8.09198ZM53.1496 4.24197H51.8596V1.24197H53.1496C53.336 1.23459 53.5217 1.26739 53.6943 1.33813C53.8668 1.40888 54.0221 1.51591 54.1496 1.65198C54.2853 1.78473 54.391 1.94498 54.4596 2.12198C54.5306 2.2996 54.558 2.4916 54.5396 2.68198C54.5581 2.87889 54.5308 3.07741 54.4596 3.26196C54.397 3.44836 54.2946 3.61895 54.1597 3.76196C54.0275 3.9058 53.8676 4.02147 53.6897 4.10199C53.5213 4.18547 53.3374 4.23312 53.1496 4.24197Z" fill="white"/>
<path d="M47.6199 4.42155C47.9162 4.28375 48.1724 4.07262 48.3643 3.80812C48.5562 3.54362 48.6774 3.23451 48.7165 2.91008C48.7555 2.58565 48.7112 2.25663 48.5875 1.95415C48.4639 1.65167 48.2651 1.38574 48.0099 1.18156C47.6644 0.912201 47.238 0.767691 46.7999 0.77156H42.9199L43.8199 1.46156V7.80159L42.9199 8.48158H47.0299C47.5379 8.49205 48.0323 8.31712 48.4206 7.98952C48.809 7.66191 49.0647 7.20402 49.1399 6.70155C49.2235 6.19959 49.1127 5.68463 48.8299 5.26155C48.5568 4.83232 48.1377 4.51626 47.6499 4.37157L47.6199 4.42155ZM44.9199 1.19157H46.2099C46.4008 1.18158 46.5917 1.21225 46.7699 1.28157C46.9461 1.3564 47.1057 1.46514 47.2399 1.60158C47.3727 1.7347 47.4751 1.89506 47.5399 2.07158C47.6092 2.24977 47.6399 2.44064 47.6299 2.63158C47.6441 2.82838 47.6169 3.02596 47.5499 3.21156C47.4878 3.39823 47.3854 3.56894 47.2499 3.71156C47.1182 3.85839 46.9584 3.97739 46.7799 4.06157C46.5997 4.13998 46.4063 4.18408 46.2099 4.19157H44.9199V1.19157ZM46.4099 8.04158H44.9199V4.65157H46.4099C46.6274 4.66217 46.841 4.71302 47.0399 4.80156C47.242 4.88839 47.4228 5.01804 47.5699 5.18156C47.72 5.3395 47.8357 5.52674 47.9099 5.73155C47.9876 5.93903 48.0217 6.16034 48.0099 6.38158C48.0166 6.596 47.9827 6.80974 47.9099 7.01155C47.8281 7.21186 47.7093 7.39503 47.5599 7.55156C47.4088 7.7029 47.2285 7.82198 47.0299 7.90157C46.8335 7.98228 46.6221 8.01978 46.4099 8.01155" fill="white"/>
<path d="M19.54 2.59177L20.6 1.29178H21.86V7.87173L20.96 8.58176H23.92L23.03 7.87173V1.29178H24.29L25.35 2.59177V0.821777H19.59L19.54 2.59177Z" fill="white"/>
<path d="M16.0301 1.53177V7.87173L15.1301 8.58176H20.1301V6.80176L19.0701 8.11179H17.1301V1.53177L18.0301 0.821777H15.1201L16.0301 1.53177Z" fill="white"/>
<path d="M1.51019 1.46179V7.95178L0.7202 8.58179H2.7202L1.93019 7.95178V2.32181L3.84019 8.58179H4.09019L6.2202 1.64178V7.87177L5.32019 8.55182H8.23019L7.3302 7.87177V1.52179L8.23019 0.841797H6.0202L4.3602 6.32181L2.7002 0.841797H0.700195L1.51019 1.46179Z" fill="white"/>
<path d="M38.4497 0.821777H36.3797L37.1797 1.45175V6.37177L33.8397 0.821777H32.2197L33.0997 1.82178V7.94174L32.3097 8.57175H34.3697L33.5797 7.94174V2.55176L37.2797 8.70175H37.6497V1.45175L38.4497 0.821777Z" fill="white"/>
<path d="M11.6902 0.722168C9.8402 0.722168 8.4502 2.45217 8.4502 4.72217C8.4502 6.99217 9.7802 8.64215 11.6902 8.64215C13.6002 8.64215 14.8402 6.98215 14.8402 4.70215C14.8402 2.42215 13.5102 0.702148 11.6902 0.702148V0.722168ZM11.6902 8.20215C10.5102 8.20215 9.59019 6.89216 9.59019 4.77216C9.59019 2.65216 10.5902 1.20215 11.6902 1.23215C12.7902 1.26215 13.7502 2.60217 13.7502 4.75217C13.7502 6.90217 12.8302 8.26218 11.6902 8.23218" fill="white"/>
<path d="M29 0.722168C27.16 0.722168 25.77 2.45217 25.77 4.72217C25.77 6.99217 27.1 8.64215 29 8.64215C30.9 8.64215 32.16 6.98215 32.16 4.70215C32.16 2.42215 30.83 0.702148 29 0.702148V0.722168ZM29 8.20215C27.82 8.20215 26.9 6.89216 26.9 4.77216C26.9 2.65216 27.9 1.20215 29 1.23215C30.1 1.26215 31.06 2.60217 31.06 4.75217C31.06 6.90217 30.14 8.26218 29 8.23218" fill="white"/>
<path d="M30.7698 13.832H29.7698V11.832H29.2998V14.2421H30.8098L30.7698 13.832Z" fill="white"/>
<path d="M39.47 11.8618H39.02V13.4918L37.58 11.8618H37.21V14.2718H37.67V12.6518L39.08 14.2818H39.47V11.8618Z" fill="white"/>
<path d="M52.0698 11.8618H51.6198V13.4918L50.1798 11.8618H49.8198V14.2718H50.2698V12.6518L51.6898 14.2818H52.0698V11.8618Z" fill="white"/>
<path d="M43.46 12.242C43.3333 12.1108 43.1798 12.0085 43.01 11.9419C42.8423 11.8726 42.6612 11.8419 42.48 11.852H41.48V14.262H42.48C42.6511 14.2671 42.8214 14.2365 42.98 14.172C43.1438 14.1136 43.2937 14.0216 43.42 13.902C43.629 13.6789 43.7499 13.3875 43.76 13.082C43.7699 12.7723 43.6587 12.471 43.45 12.242H43.46ZM42.46 13.902H41.92V12.222H42.42C42.532 12.1976 42.648 12.1976 42.76 12.222C42.8682 12.2627 42.9694 12.32 43.06 12.392C43.1496 12.4706 43.2184 12.5703 43.26 12.682C43.3089 12.7885 43.3328 12.9048 43.33 13.022C43.3309 13.139 43.307 13.2549 43.26 13.362C43.2156 13.4694 43.1472 13.5651 43.06 13.642C42.9745 13.7212 42.8718 13.7793 42.76 13.8119C42.648 13.8363 42.532 13.8363 42.42 13.8119" fill="white"/>
<path d="M34.8597 12.1919C34.7323 12.0712 34.5829 11.9762 34.4197 11.9119C34.2572 11.8498 34.0834 11.8225 33.9097 11.8319C33.5611 11.823 33.2232 11.9524 32.9697 12.1919C32.7443 12.4234 32.6182 12.7338 32.6182 13.0569C32.6182 13.38 32.7443 13.6904 32.9697 13.9219C33.2248 14.1674 33.5656 14.3037 33.9197 14.3019C34.0953 14.3044 34.2696 14.2721 34.4327 14.2069C34.5957 14.1417 34.7443 14.0448 34.8697 13.9219C34.9883 13.8142 35.0806 13.6808 35.1397 13.5319C35.2599 13.2301 35.2599 12.8937 35.1397 12.5919C35.0806 12.443 34.9883 12.3096 34.8697 12.2019L34.8597 12.1919ZM33.9297 13.9319C33.7579 13.9245 33.5916 13.869 33.4497 13.7719C33.315 13.6727 33.2111 13.5375 33.1497 13.3819C33.0996 13.219 33.0996 13.0448 33.1497 12.8819C33.1891 12.7194 33.2721 12.5707 33.3897 12.4519C33.5102 12.3331 33.6634 12.2531 33.8297 12.2219C33.9937 12.1796 34.1657 12.1796 34.3297 12.2219C34.4854 12.2884 34.6177 12.3998 34.7097 12.5419C34.7914 12.6606 34.8417 12.7981 34.8557 12.9416C34.8697 13.085 34.847 13.2297 34.7897 13.3619C34.7453 13.4668 34.6807 13.5619 34.5997 13.6419C34.5161 13.7232 34.4176 13.7877 34.3097 13.8319C34.1977 13.8563 34.0817 13.8563 33.9697 13.8319" fill="white"/>
<path d="M47.6999 12.1916C47.5759 12.0666 47.4256 11.971 47.2599 11.9116C47.0971 11.8503 46.9235 11.8231 46.7499 11.8316C46.5771 11.8261 46.405 11.8551 46.2436 11.9169C46.0822 11.9787 45.9347 12.0721 45.8099 12.1916C45.6959 12.305 45.6054 12.4398 45.5437 12.5882C45.482 12.7366 45.4502 12.8959 45.4502 13.0566C45.4502 13.2174 45.482 13.3766 45.5437 13.525C45.6054 13.6735 45.6959 13.8083 45.8099 13.9216C45.9423 14.0485 46.0995 14.1467 46.2715 14.2104C46.4435 14.274 46.6267 14.3017 46.8099 14.2916C46.9845 14.3015 47.1591 14.2707 47.3199 14.2016C47.4831 14.1373 47.6325 14.0423 47.7599 13.9216C47.8703 13.8053 47.9584 13.6697 48.0199 13.5216C48.0874 13.3742 48.1216 13.2138 48.1199 13.0516C48.1236 12.8925 48.0893 12.7348 48.0199 12.5916C47.9608 12.4422 47.8724 12.3062 47.7599 12.1916H47.6999ZM46.7599 13.9216C46.5903 13.9188 46.4259 13.8628 46.2899 13.7616C46.1503 13.665 46.0424 13.5293 45.9799 13.3716C45.9299 13.2121 45.9299 13.0411 45.9799 12.8816C46.0126 12.7137 46.0964 12.56 46.2199 12.4416C46.3392 12.3213 46.493 12.241 46.6599 12.2116C46.8288 12.1813 47.0029 12.2022 47.1599 12.2716C47.3152 12.3338 47.4478 12.4419 47.5399 12.5816C47.6309 12.7252 47.6795 12.8916 47.6799 13.0616C47.6797 13.1775 47.6594 13.2926 47.6199 13.4016C47.5718 13.5069 47.5039 13.602 47.4199 13.6816C47.338 13.7652 47.2391 13.8299 47.1299 13.8716C47.0179 13.8966 46.9018 13.8966 46.7899 13.8716" fill="white"/>
</svg>
