<svg width="64" height="22" viewBox="0 0 64 22" fill="none" xmlns="http://www.w3.org/2000/svg">
<path d="M10.7101 21.0817C8.19357 21.0734 5.77004 20.1297 3.91067 18.4339C2.0513 16.7382 0.888943 14.4116 0.649531 11.9065C0.410118 9.40137 1.11077 6.89674 2.61529 4.8795C4.11981 2.86225 6.32069 1.47655 8.79006 0.991742C9.40532 0.888378 10.0266 0.82491 10.6501 0.80174C10.7532 0.788432 10.8579 0.79793 10.9569 0.829541C11.0559 0.861153 11.1468 0.914115 11.2231 0.984693C11.2994 1.05527 11.3593 1.14173 11.3985 1.23799C11.4377 1.33424 11.4553 1.43796 11.4501 1.54176C11.4534 1.64548 11.4346 1.74869 11.3949 1.84456C11.3551 1.94042 11.2954 2.02673 11.2197 2.0977C11.144 2.16867 11.054 2.22269 10.9558 2.25615C10.8576 2.28961 10.7534 2.30176 10.6501 2.29176C9.46153 2.30275 8.28802 2.55887 7.20297 3.04408C6.11791 3.52929 5.14464 4.23316 4.34402 5.11168C3.5434 5.9902 2.93265 7.02447 2.54998 8.14979C2.16732 9.27512 2.02098 10.4673 2.12008 11.6517C2.30066 13.7013 3.20839 15.6187 4.67925 17.0574C6.15011 18.4962 8.08707 19.3613 10.1401 19.4965C12.1932 19.6318 14.2269 19.0283 15.8738 17.7949C17.5207 16.5616 18.6722 14.7799 19.1201 12.7717C19.2224 12.1796 19.2891 11.5819 19.3201 10.9817C19.3079 10.8766 19.318 10.7702 19.3499 10.6693C19.3818 10.5685 19.4346 10.4755 19.505 10.3965C19.5754 10.3175 19.6616 10.2542 19.7582 10.2109C19.8547 10.1677 19.9593 10.1453 20.0651 10.1453C20.1708 10.1453 20.2754 10.1677 20.372 10.2109C20.4685 10.2542 20.5548 10.3175 20.6251 10.3965C20.6955 10.4755 20.7483 10.5685 20.7802 10.6693C20.8121 10.7702 20.8223 10.8766 20.8101 10.9817C20.823 12.2223 20.5885 13.453 20.1201 14.6018C19.5041 16.2115 18.4825 17.6347 17.1544 18.7332C15.8263 19.8318 14.2368 20.5685 12.5401 20.8717C11.9201 20.9917 11.3301 21.0117 10.7101 21.0817Z" fill="white"/>
<path d="M10.6899 18.1921C8.97925 18.1791 7.32772 17.5649 6.02426 16.457C4.7208 15.3492 3.84846 13.8183 3.55988 12.1321C3.49352 11.732 3.45674 11.3276 3.44986 10.9221C3.44639 10.7647 3.50195 10.6118 3.60559 10.4934C3.70923 10.3749 3.85344 10.2996 4.00986 10.2821C4.1563 10.2559 4.30725 10.2842 4.43433 10.3615C4.5614 10.4389 4.65584 10.56 4.69986 10.7021C4.73137 10.8737 4.74808 11.0477 4.74985 11.2221C4.79985 12.3534 5.169 13.4475 5.81461 14.3779C6.46021 15.3082 7.35591 16.0369 8.39819 16.4796C9.44048 16.9224 10.5868 17.0611 11.7046 16.8798C12.8224 16.6985 13.8661 16.2046 14.715 15.4551C15.5639 14.7056 16.1834 13.7312 16.5019 12.6445C16.8203 11.5578 16.8248 10.4031 16.5146 9.31397C16.2045 8.22485 15.5925 7.24573 14.7493 6.48978C13.9061 5.73384 12.8662 5.23196 11.7498 5.04212C11.4187 4.98977 11.0848 4.95637 10.7498 4.94212C10.6621 4.94775 10.5742 4.93495 10.4917 4.90455C10.4092 4.87415 10.3339 4.8268 10.2708 4.76557C10.2077 4.70435 10.1581 4.63059 10.1252 4.54905C10.0924 4.46751 10.0769 4.38 10.0799 4.29212C10.081 4.20454 10.1 4.1181 10.1359 4.03818C10.1717 3.95827 10.2236 3.88658 10.2883 3.82752C10.353 3.76846 10.4291 3.72331 10.5119 3.69486C10.5947 3.66641 10.6825 3.65527 10.7699 3.66212C11.5001 3.65944 12.2261 3.77424 12.9199 4.00211C14.2505 4.40047 15.4344 5.18194 16.3236 6.249C17.2128 7.31606 17.768 8.62144 17.9199 10.0021C18.1803 11.8836 17.6878 13.7918 16.5494 15.3122C15.4109 16.8326 13.7186 17.8423 11.8399 18.1221C11.4499 18.1421 11.0699 18.1621 10.6899 18.1921Z" fill="white"/>
<path d="M50.7702 15.6517H49.3802C49.3802 15.6517 49.3002 15.5817 49.2702 15.5417C49.2402 15.5017 49.2702 15.4817 49.2702 15.4517V10.0217C49.2658 9.96179 49.2658 9.90164 49.2702 9.84172H50.7501V10.3417C51.0401 10.1917 51.2902 10.0117 51.5702 9.90171C51.9101 9.76921 52.2669 9.68506 52.6302 9.65171C52.9193 9.62904 53.2085 9.69548 53.4588 9.84208C53.7091 9.98868 53.9085 10.2084 54.0301 10.4717C54.3901 10.2817 54.7302 10.0817 55.0802 9.90171C55.468 9.69052 55.9112 9.60326 56.3502 9.65171C56.7158 9.69332 57.0561 9.85891 57.3145 10.1209C57.5729 10.3829 57.7337 10.7256 57.7702 11.0917C57.8017 11.2801 57.8184 11.4707 57.8202 11.6617C57.8202 12.9284 57.8202 14.1984 57.8202 15.4717C57.8249 15.5316 57.8249 15.5918 57.8202 15.6517H56.3202V15.3817C56.3202 14.2717 56.3202 13.1617 56.3202 12.0517C56.3186 11.8142 56.2816 11.5783 56.2102 11.3517C56.15 11.1589 56.0173 10.997 55.8401 10.9C55.6629 10.803 55.455 10.7785 55.2602 10.8317C54.9619 10.9145 54.671 11.0216 54.3902 11.1517C54.3601 11.1698 54.3345 11.1945 54.3155 11.2239C54.2964 11.2534 54.2843 11.2869 54.2801 11.3217C54.2801 12.4217 54.2801 13.5117 54.2801 14.6117C54.2801 14.9017 54.2801 15.1917 54.2801 15.4917C54.2801 15.5417 54.2102 15.6517 54.1702 15.6517H52.7702V12.1317C52.7732 11.8992 52.7463 11.6673 52.6902 11.4417C52.6767 11.3366 52.6409 11.2356 52.5851 11.1455C52.5293 11.0554 52.4548 10.9784 52.3666 10.9196C52.2784 10.8608 52.1786 10.8216 52.074 10.8048C51.9694 10.7879 51.8624 10.7937 51.7602 10.8217C51.4768 10.8939 51.1994 10.9875 50.9302 11.1017C50.7802 11.1517 50.7302 11.2617 50.7302 11.4317C50.7302 12.7317 50.7302 14.0317 50.7302 15.3317L50.7702 15.6517Z" fill="white"/>
<path d="M44.2797 12.6519C44.3394 13.4106 44.1189 14.1649 43.6597 14.7719C43.3544 15.1385 42.9617 15.4223 42.5178 15.5971C42.0739 15.7719 41.5931 15.832 41.1198 15.7719C40.6691 15.7834 40.2231 15.6781 39.8253 15.466C39.4275 15.254 39.0914 14.9424 38.8497 14.5619C38.5964 14.1393 38.4457 13.6633 38.4097 13.1719C38.3359 12.5852 38.3835 11.9895 38.5498 11.4219C38.6613 11.011 38.8819 10.6378 39.1882 10.3421C39.4945 10.0463 39.8751 9.83893 40.2898 9.74192C40.945 9.56715 41.6345 9.56715 42.2898 9.74192C42.8493 9.87448 43.3492 10.1888 43.7111 10.6357C44.073 11.0827 44.2765 11.637 44.2898 12.2119C44.2898 12.3519 44.2797 12.5219 44.2797 12.6519ZM39.9198 12.6519C39.8964 13.153 40.0105 13.651 40.2497 14.0919C40.355 14.3038 40.52 14.4802 40.7244 14.5993C40.9287 14.7183 41.1636 14.7749 41.3998 14.7619C41.6307 14.7747 41.86 14.7165 42.0567 14.5949C42.2534 14.4733 42.408 14.2942 42.4997 14.0819C42.6606 13.7298 42.7685 13.3557 42.8198 12.9719C42.9191 12.361 42.791 11.7348 42.4598 11.2119C42.339 11.0264 42.1728 10.8747 41.977 10.7714C41.7812 10.668 41.5622 10.6164 41.3408 10.6214C41.1195 10.6264 40.9031 10.6879 40.7121 10.8C40.5212 10.9121 40.362 11.0711 40.2497 11.2619C40.0121 11.6853 39.8978 12.1669 39.9198 12.6519Z" fill="white"/>
<path d="M29.9797 9.81187V10.3219C30.2897 10.1619 30.5697 10.0019 30.8697 9.87187C31.275 9.6695 31.7283 9.58299 32.1797 9.62187C32.5519 9.64994 32.9025 9.80726 33.171 10.0666C33.4394 10.3259 33.6088 10.6709 33.6497 11.0419C33.6649 11.2483 33.6649 11.4555 33.6497 11.6619V15.6619H32.1397V12.1119C32.1594 11.9291 32.1594 11.7447 32.1397 11.5619C32.1379 11.4424 32.108 11.3251 32.0525 11.2193C31.9969 11.1136 31.9171 11.0224 31.8197 10.9533C31.7223 10.8841 31.61 10.8389 31.4918 10.8213C31.3737 10.8037 31.253 10.8141 31.1397 10.8519C30.8009 10.9287 30.467 11.0255 30.1397 11.1419C30.0744 11.1605 30.0182 11.2022 29.9814 11.2593C29.9446 11.3163 29.9298 11.3847 29.9397 11.4519C29.9397 12.7519 29.9397 14.0519 29.9397 15.3519V15.6519H28.4297V9.85188L29.9797 9.81187Z" fill="white"/>
<path d="M62.1997 15.6517V14.9017C62.1197 14.9817 62.0497 15.0717 61.9597 15.1517C61.7008 15.4235 61.3758 15.6236 61.0165 15.7322C60.6572 15.8409 60.2758 15.8545 59.9097 15.7717C59.6152 15.7176 59.3433 15.5776 59.128 15.3695C58.9127 15.1613 58.7637 14.8943 58.6997 14.6017C58.6045 14.2738 58.6067 13.9251 58.7061 13.5984C58.8056 13.2717 58.9979 12.981 59.2597 12.7617C59.7809 12.3664 60.4069 12.1334 61.0597 12.0917C61.4097 12.0417 61.7697 12.0217 62.1197 11.9817C62.2997 11.1717 61.7297 10.5817 60.8397 10.6717C60.3297 10.6717 59.8397 10.8017 59.2697 10.8817C59.2697 10.7217 59.2697 10.5317 59.2697 10.3417C59.2697 10.1517 59.3397 10.2317 59.3897 10.2117C59.8128 9.94207 60.2887 9.76601 60.7854 9.6953C61.2821 9.62458 61.7882 9.66086 62.2697 9.80171C62.6709 9.88546 63.028 10.1122 63.2746 10.4396C63.5211 10.7671 63.6402 11.173 63.6097 11.5817C63.6097 12.8617 63.6097 14.1517 63.6097 15.4317C63.6097 15.6417 63.5497 15.6917 63.3597 15.6817L62.1997 15.6517ZM62.1197 12.7817C61.8797 12.7817 61.6997 12.7817 61.5197 12.8617C61.07 12.9155 60.6459 13.0997 60.2997 13.3917C60.1787 13.5125 60.099 13.6685 60.072 13.8374C60.0451 14.0062 60.0723 14.1793 60.1497 14.3317C60.2084 14.4804 60.3124 14.6069 60.447 14.693C60.5817 14.7792 60.7401 14.8207 60.8997 14.8117C61.1708 14.8091 61.4331 14.7148 61.6437 14.5441C61.8543 14.3734 62.001 14.1364 62.0597 13.8717C62.1097 13.5117 62.0997 13.1617 62.1197 12.7617V12.7817Z" fill="white"/>
<path d="M10.72 6.3916C11.9017 6.40443 13.0318 6.87752 13.8702 7.71033C14.7086 8.54314 15.1893 9.67006 15.21 10.8516C15.21 11.2016 15.02 11.4216 14.71 11.4216C14.4 11.4216 14.21 11.2116 14.2 10.8616C14.1963 10.3123 14.0626 9.77177 13.8099 9.28409C13.5571 8.7964 13.1926 8.37546 12.746 8.05569C12.2994 7.73593 11.7834 7.52644 11.2403 7.44434C10.6972 7.36223 10.1424 7.40983 9.62118 7.58328C9.10001 7.75673 8.62732 8.05108 8.24172 8.44226C7.85613 8.83344 7.5686 9.31034 7.40267 9.83395C7.23674 10.3576 7.19713 10.913 7.28704 11.4549C7.37696 11.9968 7.59385 12.5096 7.92001 12.9516C7.98976 13.0399 8.0277 13.1491 8.0277 13.2616C8.0277 13.3741 7.98976 13.4833 7.92001 13.5716C7.85656 13.6581 7.76595 13.7209 7.66262 13.7499C7.5593 13.7789 7.44922 13.7725 7.35 13.7316C7.24313 13.6818 7.15035 13.6062 7.08001 13.5116C6.64972 12.9018 6.37785 12.1945 6.2889 11.4535C6.19996 10.7125 6.29673 9.96093 6.57049 9.2666C6.84425 8.57227 7.28643 7.95694 7.85717 7.47601C8.42791 6.99509 9.10933 6.66366 9.84002 6.5116C10.1 6.4616 10.41 6.4316 10.72 6.3916Z" fill="white"/>
<path d="M34.3896 9.79206H35.0597C35.0597 9.51206 35.1197 9.25205 35.1797 9.00205C35.258 8.56584 35.5036 8.17746 35.8641 7.91969C36.2246 7.66191 36.6715 7.55511 37.1096 7.62205C37.3964 7.67335 37.6801 7.74012 37.9597 7.82206C37.9996 7.82614 38.038 7.83903 38.0723 7.85984C38.1066 7.88065 38.1358 7.90884 38.1578 7.94236C38.1799 7.97588 38.1941 8.0139 38.1996 8.05363C38.2051 8.09336 38.2017 8.13379 38.1896 8.17204C38.1896 8.30204 38.1896 8.44205 38.1896 8.59205C37.7096 8.59205 37.1897 8.44205 36.8397 8.87205C36.6559 9.14156 36.5743 9.46779 36.6096 9.79206H38.1797V10.7921H36.6197V15.652H35.0996V10.8521H34.5897C34.4497 10.8521 34.3896 10.8521 34.3896 10.6621C34.3896 10.4721 34.3896 10.1021 34.3896 9.79206Z" fill="white"/>
<path d="M48.5198 9.75195V10.882H48.2698C47.6938 10.8513 47.1239 11.0131 46.6498 11.3419C46.5866 11.4133 46.5542 11.5068 46.5598 11.602C46.5598 12.852 46.5598 14.0919 46.5598 15.3419C46.5598 15.6419 46.5598 15.6419 46.2498 15.6419H45.0698V9.82196H46.5498V10.442C46.8998 10.282 47.1998 10.1219 47.5498 10.0119C47.8683 9.9079 48.1921 9.82112 48.5198 9.75195Z" fill="white"/>
<path d="M27.4 15.6518H26.02C26.02 15.6518 25.94 15.5818 25.92 15.5318C25.9 15.4818 25.92 15.4618 25.92 15.4218V10.0418C25.92 9.97181 25.92 9.9118 25.92 9.8418H27.4V15.6518Z" fill="white"/>
<path d="M20.08 7.65186C20.2948 7.65186 20.5009 7.73719 20.6528 7.8891C20.8047 8.041 20.89 8.24703 20.89 8.46185C20.89 8.67668 20.8047 8.8827 20.6528 9.03461C20.5009 9.18651 20.2948 9.27185 20.08 9.27185C19.8652 9.27185 19.6592 9.18651 19.5073 9.03461C19.3554 8.8827 19.27 8.67668 19.27 8.46185C19.27 8.24703 19.3554 8.041 19.5073 7.8891C19.6592 7.73719 19.8652 7.65186 20.08 7.65186Z" fill="white"/>
<path d="M27.4698 8.44183C27.4712 8.54773 27.4515 8.65282 27.4119 8.75104C27.3723 8.84926 27.3135 8.93863 27.2391 9.01398C27.1647 9.08933 27.0761 9.14914 26.9783 9.18997C26.8806 9.2308 26.7758 9.25184 26.6699 9.25183C26.455 9.25183 26.249 9.16649 26.0971 9.01459C25.9452 8.86268 25.8599 8.65666 25.8599 8.44183C25.8599 8.22701 25.9452 8.02098 26.0971 7.86908C26.249 7.71718 26.455 7.63184 26.6699 7.63184C26.7758 7.63183 26.8806 7.65284 26.9783 7.69366C27.0761 7.73449 27.1647 7.79431 27.2391 7.86966C27.3135 7.94501 27.3723 8.03438 27.4119 8.1326C27.4515 8.23082 27.4712 8.33594 27.4698 8.44183Z" fill="white"/>
<path d="M19.04 5.32154C19.1982 5.32353 19.3523 5.37238 19.4828 5.46192C19.6132 5.55147 19.7141 5.6777 19.7729 5.82462C19.8316 5.97155 19.8454 6.13258 19.8126 6.28736C19.7798 6.44214 19.7018 6.58372 19.5886 6.69419C19.4753 6.80466 19.3318 6.87904 19.1762 6.90797C19.0207 6.9369 18.8601 6.91906 18.7147 6.8567C18.5693 6.79433 18.4456 6.69026 18.3593 6.55763C18.2731 6.42499 18.2281 6.26973 18.23 6.11152C18.23 6.00607 18.2511 5.90169 18.292 5.80451C18.333 5.70734 18.393 5.61935 18.4684 5.54572C18.5439 5.4721 18.6334 5.41434 18.7316 5.37583C18.8297 5.33733 18.9346 5.31887 19.04 5.32154Z" fill="white"/>
<path d="M18.2099 4.21164C18.2099 4.41851 18.1277 4.61691 17.9814 4.76318C17.8352 4.90946 17.6368 4.99164 17.4299 4.99164C17.223 4.99164 17.0246 4.90946 16.8784 4.76318C16.7321 4.61691 16.6499 4.41851 16.6499 4.21164C16.6499 4.00477 16.7321 3.80637 16.8784 3.6601C17.0246 3.51382 17.223 3.43164 17.4299 3.43164C17.6368 3.43164 17.8352 3.51382 17.9814 3.6601C18.1277 3.80637 18.2099 4.00477 18.2099 4.21164Z" fill="white"/>
<path d="M15.4399 1.9817C15.5942 1.9837 15.7444 2.03138 15.8716 2.11873C15.9987 2.20608 16.0971 2.32919 16.1543 2.47246C16.2115 2.61573 16.2249 2.77273 16.1929 2.92363C16.1608 3.07453 16.0848 3.21256 15.9743 3.32024C15.8638 3.42791 15.7239 3.50039 15.5723 3.52855C15.4206 3.55671 15.264 3.53926 15.1222 3.47841C14.9805 3.41756 14.8599 3.31604 14.7759 3.18669C14.6918 3.05734 14.648 2.90598 14.65 2.75172C14.6499 2.6489 14.6705 2.5471 14.7104 2.45235C14.7504 2.3576 14.8089 2.27183 14.8825 2.20006C14.9561 2.12829 15.0434 2.072 15.1391 2.0345C15.2349 1.997 15.3372 1.97903 15.4399 1.9817Z" fill="white"/>
<path d="M13.1502 1.08203C13.3049 1.08204 13.4561 1.12808 13.5845 1.21423C13.713 1.30039 13.813 1.42278 13.8717 1.56589C13.9304 1.709 13.9453 1.86634 13.9144 2.01791C13.8835 2.16949 13.8082 2.30844 13.6981 2.41711C13.588 2.52579 13.4481 2.59931 13.2961 2.62827C13.1442 2.65722 12.987 2.64032 12.8447 2.57974C12.7023 2.51917 12.5812 2.41766 12.4967 2.28809C12.4122 2.15851 12.3682 2.00673 12.3702 1.85205C12.3728 1.64692 12.4562 1.45107 12.6021 1.30695C12.7481 1.16282 12.945 1.08201 13.1502 1.08203Z" fill="white"/>
<path d="M6.05017 6.88188C5.96612 6.88188 5.88289 6.86531 5.80524 6.83314C5.72759 6.80098 5.65706 6.75384 5.59763 6.69441C5.5382 6.63498 5.49106 6.56445 5.45889 6.4868C5.42673 6.40915 5.41016 6.32591 5.41016 6.24186C5.41016 6.15782 5.42673 6.07461 5.45889 5.99696C5.49106 5.91931 5.5382 5.84875 5.59763 5.78932C5.65706 5.72989 5.72759 5.68275 5.80524 5.65059C5.88289 5.61842 5.96612 5.60188 6.05017 5.60188C6.13457 5.5992 6.21864 5.61351 6.29739 5.64396C6.37615 5.67442 6.448 5.72039 6.50864 5.77916C6.56927 5.83793 6.61746 5.9083 6.65036 5.98607C6.68326 6.06383 6.70021 6.14741 6.70016 6.23185C6.70608 6.31874 6.69333 6.4059 6.66275 6.48744C6.63218 6.56898 6.5845 6.64302 6.52292 6.7046C6.46134 6.76618 6.38727 6.81386 6.30573 6.84443C6.22418 6.87501 6.13706 6.88779 6.05017 6.88188Z" fill="white"/>
<path d="M5.24969 8.38178C5.23008 8.53902 5.15372 8.68367 5.03494 8.78855C4.91616 8.89343 4.76316 8.9513 4.60471 8.9513C4.44625 8.9513 4.29325 8.89343 4.17447 8.78855C4.05569 8.68367 3.97933 8.53902 3.95972 8.38178C3.9556 8.29703 3.9689 8.21231 3.99884 8.13291C4.02878 8.05351 4.07473 7.98111 4.13379 7.92018C4.19285 7.85924 4.26377 7.81107 4.34219 7.77867C4.42062 7.74626 4.50488 7.73029 4.58972 7.73176C4.67628 7.72904 4.7625 7.74395 4.84314 7.77552C4.92378 7.8071 4.99716 7.85471 5.05887 7.91548C5.12057 7.97625 5.16931 8.04889 5.20212 8.12904C5.23492 8.20919 5.25109 8.29519 5.24969 8.38178Z" fill="white"/>
<path d="M8.17989 5.45185C8.09465 5.45456 8.00972 5.43995 7.93029 5.40888C7.85086 5.3778 7.77857 5.33093 7.7178 5.27109C7.65702 5.21125 7.60901 5.1397 7.57671 5.06076C7.54441 4.98182 7.52847 4.89714 7.52987 4.81186C7.52789 4.6829 7.56434 4.55626 7.63454 4.44806C7.70475 4.33986 7.80554 4.25499 7.92413 4.20426C8.04271 4.15352 8.1737 4.13921 8.30044 4.16315C8.42718 4.18709 8.54395 4.24819 8.63586 4.33869C8.72776 4.42918 8.79065 4.54497 8.81655 4.67133C8.84245 4.79768 8.83019 4.92889 8.7813 5.04825C8.73241 5.16761 8.64911 5.26971 8.54202 5.34159C8.43492 5.41346 8.30887 5.45183 8.17989 5.45185Z" fill="white"/>
<path d="M14.4499 13.2719C14.4648 13.3459 14.4631 13.4223 14.4448 13.4956C14.4266 13.5689 14.3923 13.6371 14.3445 13.6955C14.2967 13.7539 14.2365 13.801 14.1682 13.8333C14.1 13.8656 14.0254 13.8824 13.9499 13.8824C13.8744 13.8824 13.7999 13.8656 13.7316 13.8333C13.6634 13.801 13.6032 13.7539 13.5554 13.6955C13.5075 13.6371 13.4733 13.5689 13.455 13.4956C13.4368 13.4223 13.4351 13.3459 13.4499 13.2719C13.4485 13.205 13.4608 13.1385 13.4861 13.0765C13.5113 13.0146 13.549 12.9585 13.5968 12.9116C13.6446 12.8648 13.7015 12.8282 13.7639 12.8042C13.8264 12.7802 13.8931 12.7691 13.96 12.7719C14.0251 12.7719 14.0897 12.7849 14.1498 12.8101C14.2099 12.8354 14.2644 12.8724 14.31 12.9189C14.3557 12.9655 14.3915 13.0207 14.4155 13.0813C14.4396 13.1419 14.4513 13.2067 14.4499 13.2719Z" fill="white"/>
<path d="M9.46983 15.2218C9.40285 15.2205 9.33681 15.206 9.27543 15.1792C9.21405 15.1523 9.15853 15.1136 9.1121 15.0653C9.06567 15.0171 9.02921 14.9601 9.0048 14.8977C8.98039 14.8354 8.9685 14.7687 8.96983 14.7018C8.97113 14.6348 8.98562 14.5687 9.01246 14.5074C9.0393 14.446 9.07797 14.3905 9.12626 14.344C9.17455 14.2976 9.23151 14.2611 9.29389 14.2367C9.35628 14.2123 9.42287 14.2004 9.48985 14.2018C9.55682 14.2031 9.62289 14.2176 9.68427 14.2444C9.74565 14.2713 9.80114 14.3099 9.84757 14.3582C9.894 14.4065 9.93046 14.4635 9.95487 14.5259C9.97928 14.5882 9.99117 14.6548 9.98985 14.7218C9.9899 14.7892 9.97633 14.8558 9.94996 14.9178C9.92359 14.9798 9.88497 15.0359 9.8364 15.0826C9.78784 15.1293 9.73033 15.1657 9.66734 15.1896C9.60435 15.2135 9.53715 15.2245 9.46983 15.2218Z" fill="white"/>
<path d="M11.9203 15.2219C11.8529 15.2233 11.786 15.211 11.7235 15.1859C11.661 15.1607 11.6043 15.1232 11.5566 15.0756C11.509 15.0279 11.4715 14.9712 11.4463 14.9087C11.4212 14.8462 11.4089 14.7793 11.4103 14.7119C11.4102 14.5757 11.4637 14.445 11.559 14.3477C11.6544 14.2505 11.7841 14.1945 11.9203 14.1919C11.9876 14.1918 12.0543 14.2054 12.1163 14.2318C12.1783 14.2582 12.2344 14.2968 12.2811 14.3453C12.3278 14.3939 12.3642 14.4514 12.3881 14.5144C12.412 14.5774 12.423 14.6446 12.4203 14.7119C12.423 14.7788 12.412 14.8455 12.388 14.908C12.364 14.9704 12.3274 15.0273 12.2806 15.0751C12.2337 15.1229 12.1776 15.1605 12.1156 15.1858C12.0536 15.211 11.9872 15.2233 11.9203 15.2219Z" fill="white"/>
</svg>
