<svg width="7" height="7" viewBox="0 0 7 7" fill="none" xmlns="http://www.w3.org/2000/svg">
<path d="M1.85147 3.44109C1.85147 3.51126 1.82359 3.57856 1.77397 3.62817C1.72435 3.67779 1.65704 3.70567 1.58687 3.70567C1.51669 3.70567 1.44939 3.67779 1.39977 3.62817C1.35014 3.57856 1.32227 3.51126 1.32227 3.44109C1.32227 3.37091 1.35014 3.30362 1.39977 3.254C1.44939 3.20438 1.51669 3.17651 1.58687 3.17651C1.65704 3.17651 1.72435 3.20438 1.77397 3.254C1.82359 3.30362 1.85147 3.37091 1.85147 3.44109Z" fill="white"/>
<path d="M2.64537 2.38274C2.64537 2.4529 2.6175 2.52019 2.56789 2.56981C2.51827 2.61942 2.45097 2.64731 2.3808 2.64731C2.31063 2.64731 2.24333 2.61942 2.19371 2.56981C2.14409 2.52019 2.11621 2.4529 2.11621 2.38274C2.11621 2.34799 2.12306 2.31359 2.13635 2.28149C2.14965 2.2494 2.16914 2.22023 2.19371 2.19566C2.21828 2.1711 2.24744 2.1516 2.27954 2.13831C2.31164 2.12501 2.34605 2.11816 2.3808 2.11816C2.41554 2.11816 2.44994 2.12501 2.48204 2.13831C2.51414 2.1516 2.54332 2.1711 2.56789 2.19566C2.59245 2.22023 2.61193 2.2494 2.62523 2.28149C2.63852 2.31359 2.64537 2.34799 2.64537 2.38274Z" fill="white"/>
<path d="M4.49692 4.23477C4.49692 4.30494 4.46905 4.37223 4.41943 4.42184C4.36982 4.47146 4.30251 4.49933 4.23235 4.49933C4.1976 4.49933 4.1632 4.4925 4.1311 4.4792C4.099 4.46591 4.06983 4.44641 4.04526 4.42184C4.02069 4.39728 4.00121 4.36811 3.98792 4.33601C3.97462 4.30392 3.96777 4.26951 3.96777 4.23477C3.96777 4.20003 3.97462 4.16563 3.98792 4.13353C4.00121 4.10143 4.02069 4.07227 4.04526 4.0477C4.06983 4.02313 4.099 4.00365 4.1311 3.99036C4.1632 3.97706 4.1976 3.97021 4.23235 3.97021C4.30251 3.97022 4.36982 3.99808 4.41943 4.0477C4.46905 4.09731 4.49692 4.16461 4.49692 4.23477Z" fill="white"/>
<path d="M3.43839 3.4411C3.43839 3.51127 3.41051 3.57857 3.36089 3.62819C3.31126 3.67781 3.24396 3.70569 3.17378 3.70569C3.13903 3.70569 3.10463 3.69884 3.07253 3.68555C3.04042 3.67225 3.01125 3.65276 2.98668 3.62819C2.96211 3.60362 2.94262 3.57446 2.92932 3.54236C2.91602 3.51026 2.90918 3.47585 2.90918 3.4411C2.90918 3.40635 2.91602 3.37195 2.92932 3.33984C2.94262 3.30774 2.96211 3.27858 2.98668 3.25401C3.01125 3.22944 3.04042 3.20995 3.07253 3.19666C3.10463 3.18336 3.13903 3.17651 3.17378 3.17651C3.24396 3.17651 3.31126 3.20439 3.36089 3.25401C3.41051 3.30363 3.43839 3.37093 3.43839 3.4411Z" fill="white"/>
<path d="M4.76163 0.530701C4.76163 0.565447 4.75478 0.599841 4.74149 0.631943C4.72819 0.664044 4.7087 0.693219 4.68413 0.717789C4.65956 0.742358 4.63038 0.761849 4.59828 0.775146C4.56618 0.788444 4.53177 0.795288 4.49702 0.795288C4.46228 0.795288 4.42787 0.788444 4.39577 0.775146C4.36366 0.761849 4.33449 0.742358 4.30992 0.717789C4.28535 0.693219 4.26586 0.664044 4.25256 0.631943C4.23927 0.599841 4.23242 0.565447 4.23242 0.530701C4.23242 0.46053 4.2603 0.393231 4.30992 0.343613C4.35954 0.293994 4.42685 0.266114 4.49702 0.266113C4.5672 0.266114 4.63451 0.293994 4.68413 0.343613C4.73375 0.393231 4.76163 0.46053 4.76163 0.530701Z" fill="white"/>
<path d="M6.08487 0.530701C6.08487 0.565447 6.07802 0.599841 6.06473 0.631943C6.05143 0.664044 6.03194 0.693219 6.00737 0.717789C5.9828 0.742358 5.95363 0.761849 5.92152 0.775146C5.88942 0.788444 5.85502 0.795288 5.82027 0.795288C5.78552 0.795288 5.75111 0.788444 5.71901 0.775146C5.68691 0.761849 5.65773 0.742358 5.63316 0.717789C5.60859 0.693219 5.5891 0.664044 5.57581 0.631943C5.56251 0.599841 5.55566 0.565447 5.55566 0.530701C5.55567 0.46053 5.58354 0.393231 5.63316 0.343613C5.68279 0.293994 5.75009 0.266114 5.82027 0.266113C5.89044 0.266114 5.95775 0.293994 6.00737 0.343613C6.05699 0.393231 6.08487 0.46053 6.08487 0.530701Z" fill="white"/>
<path d="M6.08488 1.85358C6.08488 1.88832 6.07804 1.92273 6.06474 1.95483C6.05145 1.98694 6.03194 2.01611 6.00737 2.04068C5.9828 2.06525 5.95363 2.08474 5.92152 2.09804C5.88942 2.11133 5.85502 2.11816 5.82027 2.11816C5.78552 2.11816 5.75111 2.11133 5.71901 2.09804C5.68691 2.08474 5.65773 2.06525 5.63316 2.04068C5.60859 2.01611 5.5891 1.98694 5.57581 1.95483C5.56251 1.92273 5.55566 1.88832 5.55566 1.85358C5.55566 1.81883 5.56251 1.78442 5.57581 1.75232C5.5891 1.72022 5.60859 1.69106 5.63316 1.66649C5.65773 1.64192 5.68691 1.62243 5.71901 1.60913C5.75111 1.59583 5.78552 1.58899 5.82027 1.58899C5.85502 1.58899 5.88942 1.59583 5.92152 1.60913C5.95363 1.62243 5.9828 1.64192 6.00737 1.66649C6.03194 1.69106 6.05145 1.72022 6.06474 1.75232C6.07804 1.78442 6.08488 1.81883 6.08488 1.85358Z" fill="white"/>
<path d="M3.17368 4.76395C3.17368 4.79869 3.16683 4.83309 3.15353 4.86519C3.14024 4.89729 3.12076 4.92645 3.09619 4.95102C3.07162 4.97559 3.04244 4.99507 3.01035 5.00836C2.97825 5.02166 2.94385 5.0285 2.9091 5.0285C2.87436 5.0285 2.83996 5.02166 2.80786 5.00836C2.77576 4.99507 2.7466 4.97559 2.72203 4.95102C2.69746 4.92645 2.67797 4.89729 2.66467 4.86519C2.65138 4.83309 2.64453 4.79869 2.64453 4.76395C2.64453 4.69378 2.67241 4.62649 2.72203 4.57687C2.77165 4.52726 2.83894 4.49939 2.9091 4.49939C2.97927 4.49939 3.04656 4.52726 3.09618 4.57687C3.14579 4.62649 3.17367 4.69378 3.17368 4.76395Z" fill="white"/>
<path d="M3.12891 0.00121778C2.42 0.00121778 1.46827 0.277316 0.747696 1.13585C0.346046 1.6144 0 2.29246 0 3.17363C0 4.92357 1.42181 6.34747 3.17188 6.34747C4.90163 6.34747 6.31129 4.95642 6.34375 3.23419C6.34475 3.06106 6.13976 2.9692 6.01172 3.08574C5.8881 3.19901 5.72621 3.26226 5.55859 3.26347C5.04473 3.23847 4.87953 2.81652 4.87956 2.58908C4.87945 2.50818 4.89666 2.43196 4.92386 2.35913C4.97716 2.21678 4.85716 2.0698 4.70706 2.0935C4.49623 2.1199 4.2564 1.90367 4.30289 1.66194C4.33109 1.50892 4.18018 1.38448 4.03531 1.44124C3.95631 1.47284 3.87042 1.48774 3.78531 1.48814C3.40914 1.48806 3.10739 1.18849 3.10757 0.81236C3.10783 0.63528 3.17689 0.466044 3.30095 0.339704C3.42779 0.212864 3.33405 -0.0188022 3.12891 0.00121778ZM2.78418 0.423337C2.73088 0.533417 2.71108 0.710303 2.71098 0.812283C2.7107 1.40294 3.19452 1.88637 3.78519 1.8865C3.78519 1.8865 3.85959 1.88576 3.91724 1.8775C3.96944 2.11984 4.14391 2.37612 4.49297 2.46965C4.44987 2.81243 4.60025 3.1377 4.76474 3.30218C4.93031 3.49077 5.14846 3.64209 5.55865 3.66029C5.64905 3.65989 5.80603 3.63809 5.91417 3.60019C5.70359 4.92534 4.55739 5.95129 3.17194 5.95129C1.63642 5.95129 0.396545 4.70941 0.396545 3.17395C0.396545 2.56884 0.630684 1.93126 0.958954 1.50374C1.29577 1.06507 2.01542 0.516387 2.78418 0.423337Z" fill="white"/>
</svg>
