<svg width="17" height="16" viewBox="0 0 17 16" fill="none" xmlns="http://www.w3.org/2000/svg">
<path d="M14.9578 0H1.38919C0.647781 0 0 0.508064 0 1.20588V14.157C0 14.8586 0.647781 15.4839 1.38919 15.4839H14.9538C15.6992 15.4839 16.258 14.8545 16.258 14.157V1.20588C16.2624 0.508064 15.6992 0 14.9578 0ZM5.03963 12.9066H2.71052V6.00968H5.03963V12.9066ZM3.95564 4.96106H3.93895C3.19354 4.96106 2.71088 4.4326 2.71088 3.77108C2.71088 3.09747 3.20625 2.58145 3.96834 2.58145C4.73044 2.58145 5.19677 3.09366 5.21346 3.77108C5.2131 4.4326 4.73044 4.96106 3.95564 4.96106ZM13.5519 12.9066H11.2228V9.13548C11.2228 8.23203 10.8838 7.61475 10.0412 7.61475C9.39736 7.61475 9.01632 8.02949 8.84684 8.43353C8.78333 8.57869 8.76628 8.77638 8.76628 8.97823V12.9066H6.43717V6.00968H8.76628V6.96947C9.10523 6.50979 9.6347 5.84827 10.8668 5.84827C12.3957 5.84827 13.5522 6.80806 13.5522 8.8773L13.5519 12.9066Z" fill="black"/>
</svg>
