<svg width="14" height="14" viewBox="0 0 14 14" fill="none" xmlns="http://www.w3.org/2000/svg">
<path fill-rule="evenodd" clip-rule="evenodd" d="M9.91683 6.99242H11.7167C11.8369 7.33221 12.1612 7.57575 12.5418 7.57575C13.0248 7.57575 13.4168 7.18375 13.4168 6.70075C13.4168 6.21775 13.0248 5.82575 12.5418 5.82575C12.1612 5.82575 11.8369 6.06929 11.7167 6.40908H9.91683V5.25729H10.5002C10.6612 5.25729 10.7918 5.12663 10.7918 4.96563C10.7918 4.80463 10.6612 4.67396 10.5002 4.67396H9.8865C9.79025 4.33329 9.47671 4.08333 9.10541 4.08333H8.75016V2.9015H10.2531C10.3692 3.24917 10.6973 3.5 11.0835 3.5C11.5665 3.5 11.9585 3.10771 11.9585 2.625C11.9585 2.142 11.5665 1.75 11.0835 1.75C10.7084 1.75 10.3882 1.98625 10.2639 2.31817H8.4585C8.2975 2.31817 8.16683 2.44883 8.16683 2.60983V4.08333H5.8335V2.60983C5.8335 2.44883 5.70283 2.31817 5.54183 2.31817H3.44475C3.3205 1.98625 3.00025 1.75 2.62516 1.75C2.14216 1.75 1.75016 2.142 1.75016 2.625C1.75016 3.10771 2.14216 3.5 2.62516 3.5C3.01133 3.5 3.33945 3.24917 3.45554 2.9015H5.25016V4.08333H4.89491C4.4472 4.08333 4.0835 4.44675 4.0835 4.89475V6.40908H2.28362C2.16346 6.06929 1.83912 5.82575 1.4585 5.82575C0.975496 5.82575 0.583496 6.21775 0.583496 6.70075C0.583496 7.18375 0.975496 7.57575 1.4585 7.57575C1.83912 7.57575 2.16346 7.33221 2.28362 6.99242H4.0835V8.75H3.49141C3.33041 8.75 3.19975 8.88067 3.19975 9.04167C3.19975 9.20237 3.33041 9.33333 3.49141 9.33333H4.11616C4.21475 9.67021 4.52625 9.91667 4.89491 9.91667H5.24141V11.0682H3.49141C3.4777 11.0682 3.46429 11.069 3.45116 11.0711C3.33187 10.7298 3.00695 10.4848 2.62516 10.4848C2.14216 10.4848 1.75016 10.8771 1.75016 11.3598C1.75016 11.8428 2.14216 12.2348 2.62516 12.2348C3.00695 12.2348 3.33187 11.9898 3.45116 11.6489C3.46429 11.6506 3.4777 11.6515 3.49141 11.6515H5.53308C5.69408 11.6515 5.82475 11.5211 5.82475 11.3598V9.91667H8.16683V11.3598C8.16683 11.5211 8.2975 11.6515 8.4585 11.6515H10.2531C10.3692 11.9992 10.6973 12.25 11.0835 12.25C11.5665 12.25 11.9585 11.8577 11.9585 11.375C11.9585 10.892 11.5665 10.5 11.0835 10.5C10.7084 10.5 10.3882 10.7362 10.2639 11.0682H8.75016V9.91667H9.10541C9.55312 9.91667 9.91683 9.55296 9.91683 9.10525V6.99242ZM11.0835 11.6667C10.9225 11.6667 10.7918 11.5357 10.7918 11.375C10.7918 11.214 10.9225 11.0833 11.0835 11.0833C11.2445 11.0833 11.3752 11.214 11.3752 11.375C11.3752 11.5357 11.2445 11.6667 11.0835 11.6667ZM2.62516 11.6515C2.46416 11.6515 2.3335 11.5208 2.3335 11.3598C2.3335 11.1988 2.46416 11.0682 2.62516 11.0682C2.78616 11.0682 2.91683 11.1988 2.91683 11.3598C2.91683 11.5208 2.78616 11.6515 2.62516 11.6515ZM9.3335 4.89446V9.10525C9.3335 9.23096 9.23141 9.33333 9.10541 9.33333H4.89491C4.76891 9.33333 4.66683 9.23096 4.66683 9.10525V4.89475C4.66683 4.76875 4.76891 4.66667 4.89491 4.66667H9.10541C9.23141 4.66667 9.3335 4.76875 9.3335 4.89446ZM7.29183 8.75H8.4585C8.6195 8.75 8.75016 8.61933 8.75016 8.45833V7C8.75016 6.839 8.6195 6.70833 8.4585 6.70833C8.2975 6.70833 8.16683 6.839 8.16683 7V8.16667H7.29183C7.13083 8.16667 7.00016 8.29733 7.00016 8.45833C7.00016 8.61904 7.13083 8.75 7.29183 8.75ZM5.25016 8.16667H6.12516C6.28616 8.16667 6.41683 8.03571 6.41683 7.875C6.41683 7.714 6.28616 7.58333 6.12516 7.58333H5.25016C5.08916 7.58333 4.9585 7.714 4.9585 7.875C4.9585 8.03571 5.08916 8.16667 5.25016 8.16667ZM5.54183 5.83333H6.41683V7C6.41683 7.16071 6.5475 7.29167 6.7085 7.29167C6.8695 7.29167 7.00016 7.16071 7.00016 7V5.54167C7.00016 5.38037 6.8695 5.25 6.7085 5.25H5.54183C5.38083 5.25 5.25016 5.38067 5.25016 5.54167C5.25016 5.70237 5.38083 5.83333 5.54183 5.83333ZM1.4585 6.40908C1.6195 6.40908 1.75016 6.53975 1.75016 6.70075C1.75016 6.86175 1.6195 6.99242 1.4585 6.99242C1.2975 6.99242 1.16683 6.86175 1.16683 6.70075C1.16683 6.53975 1.2975 6.40908 1.4585 6.40908ZM12.5418 6.40908C12.7028 6.40908 12.8335 6.53975 12.8335 6.70075C12.8335 6.86175 12.7028 6.99242 12.5418 6.99242C12.3808 6.99242 12.2502 6.86175 12.2502 6.70075C12.2502 6.53975 12.3808 6.40908 12.5418 6.40908ZM2.62516 2.33333C2.78616 2.33333 2.91683 2.464 2.91683 2.625C2.91683 2.78571 2.78616 2.91667 2.62516 2.91667C2.46416 2.91667 2.3335 2.78571 2.3335 2.625C2.3335 2.464 2.46416 2.33333 2.62516 2.33333ZM11.0835 2.33333C11.2445 2.33333 11.3752 2.464 11.3752 2.625C11.3752 2.78571 11.2445 2.91667 11.0835 2.91667C10.9225 2.91667 10.7918 2.78571 10.7918 2.625C10.7918 2.464 10.9225 2.33333 11.0835 2.33333Z" fill="black"/>
</svg>
