<svg width="9" height="8" viewBox="0 0 9 8" fill="none" xmlns="http://www.w3.org/2000/svg">
<path fill-rule="evenodd" clip-rule="evenodd" d="M0.69027 7.99894e-05C0.47756 7.99894e-05 0.28573 0.0991801 0.1586 0.25314C0.1445 0.27024 0.1311 0.28804 0.1187 0.30644C0.1062 0.32484 0.0946 0.34384 0.0839 0.36344C0.0732 0.38304 0.0634 0.40314 0.0546 0.42374C0.0506 0.43404 0.0456 0.44454 0.0422 0.45504C0.0149 0.52894 0 0.60852 0 0.69122V4.85337V5.55796C0 5.936 0.31215 6.24914 0.6903 6.24914H3.29204V7.1776H2.17555C2.10538 7.1776 2.03808 7.20548 1.98846 7.25509C1.93885 7.30471 1.91097 7.37201 1.91097 7.44218C1.91097 7.51235 1.93885 7.57965 1.98846 7.62927C2.03808 7.67888 2.10538 7.70676 2.17555 7.70676H6.82027C6.89044 7.70676 6.95774 7.67888 7.00736 7.62927C7.05697 7.57965 7.08485 7.51235 7.08485 7.44218C7.08485 7.37201 7.05697 7.30471 7.00736 7.25509C6.95774 7.20548 6.89044 7.1776 6.82027 7.1776H5.70378V6.24914H8.30551C8.68366 6.24914 8.99582 5.936 8.99582 5.55796V4.85337V0.69122C8.99582 0.67942 8.99552 0.66762 8.99491 0.65592C8.99191 0.59752 8.98141 0.5409 8.96451 0.487C8.95751 0.4654 8.94991 0.4443 8.94111 0.4237C8.93711 0.4134 8.93211 0.4032 8.92721 0.3931C8.91721 0.373 8.90671 0.3534 8.89511 0.3344C8.88351 0.3154 8.87101 0.297 8.85771 0.2792C8.83111 0.2437 8.80111 0.2107 8.76841 0.1808C8.73561 0.1509 8.70001 0.1241 8.66207 0.1009C8.65307 0.0949001 8.64297 0.0895 8.63317 0.0841C8.60387 0.068 8.57327 0.054 8.54157 0.0423C8.46777 0.0149 8.38818 0 8.30546 0L0.69027 7.99894e-05ZM0.69027 0.52925H8.30548C8.33468 0.52925 8.36138 0.53625 8.38428 0.54775C8.43468 0.57405 8.46659 0.62615 8.46659 0.69125V1.39584V4.8534V5.55799C8.46659 5.65259 8.39899 5.72001 8.30545 5.72001H0.69024C0.59664 5.72001 0.5291 5.65261 0.5291 5.55799V4.8534V0.69125C0.5291 0.68525 0.52937 0.67955 0.52988 0.67385C0.53188 0.65675 0.53488 0.64075 0.54108 0.62605C0.54308 0.62105 0.54508 0.61605 0.54808 0.61175C0.55508 0.59795 0.56428 0.58555 0.57508 0.57475C0.58208 0.56775 0.59008 0.56115 0.59868 0.55555C0.60768 0.54955 0.61638 0.54515 0.62608 0.54125C0.64558 0.53325 0.66687 0.52925 0.69027 0.52925ZM3.73787 1.79815C3.6677 1.79816 3.60041 1.82603 3.55079 1.87565C3.50117 1.92527 3.47329 1.99256 3.47328 2.06273V2.40423C3.41138 2.42753 3.35026 2.45293 3.29005 2.48043L3.04804 2.23862C2.99842 2.18905 2.93116 2.16121 2.86103 2.16121C2.79089 2.16121 2.72363 2.18905 2.67401 2.23862L1.59924 3.31253C1.57465 3.3371 1.55515 3.36628 1.54184 3.3984C1.52853 3.43051 1.52168 3.46493 1.52168 3.49969C1.52168 3.53446 1.52853 3.56888 1.54184 3.60099C1.55515 3.63311 1.57465 3.66229 1.59924 3.68686L1.84105 3.92847C1.81365 3.98857 1.78825 4.04947 1.76495 4.11125H1.42293C1.35276 4.11126 1.28547 4.13914 1.23585 4.18875C1.18624 4.23837 1.15836 4.30566 1.15835 4.37583V5.21263C1.15835 5.2828 1.18623 5.3501 1.23585 5.39971C1.28546 5.44933 1.35276 5.47721 1.42293 5.47721C1.45768 5.47721 1.49208 5.47037 1.52419 5.45707C1.55629 5.44378 1.58546 5.42429 1.61003 5.39972C1.6346 5.37515 1.65409 5.34599 1.66739 5.31388C1.68068 5.28178 1.68753 5.24738 1.68753 5.21263V4.64042H1.95363C2.01049 4.64042 2.06583 4.6221 2.11146 4.58818C2.15709 4.55426 2.19059 4.50655 2.20698 4.45211C2.25398 4.2959 2.31692 4.14491 2.39474 4.0015C2.42196 3.95134 2.43224 3.89373 2.42404 3.83726C2.41584 3.78078 2.3896 3.72847 2.34924 3.68813L2.16064 3.49969L2.86108 2.79982L3.04998 2.98856C3.0903 3.02885 3.14255 3.05504 3.19896 3.06324C3.25536 3.07144 3.31291 3.0612 3.36303 3.03406C3.50658 2.95626 3.65772 2.89341 3.81409 2.84641C3.86856 2.83003 3.9163 2.79654 3.95024 2.7509C3.98417 2.70526 4.0025 2.64991 4.00251 2.59303V2.32734H4.99336V2.59249C4.99337 2.64945 5.01175 2.70489 5.04579 2.75056C5.07982 2.79624 5.12768 2.82971 5.18226 2.84601C5.33895 2.89281 5.49042 2.9555 5.6343 3.03316C5.6844 3.06019 5.74189 3.07035 5.79822 3.06211C5.85455 3.05388 5.90672 3.0277 5.94699 2.98746L6.13479 2.79981L6.83522 3.49968L6.64773 3.68703C6.60742 3.72732 6.5812 3.77955 6.57297 3.83595C6.56473 3.89234 6.57493 3.94989 6.60203 4.00002C6.67973 4.14377 6.74249 4.29509 6.7893 4.45162C6.80562 4.50618 6.8391 4.55401 6.88477 4.58802C6.93043 4.62203 6.98586 4.64041 7.0428 4.64041H7.30837V5.21262C7.30837 5.28279 7.33625 5.35009 7.38587 5.3997C7.43548 5.44932 7.50278 5.4772 7.57295 5.4772C7.64312 5.4772 7.71042 5.44933 7.76004 5.39971C7.80966 5.35009 7.83754 5.28279 7.83754 5.21262V4.37582C7.83753 4.30565 7.80965 4.23836 7.76003 4.18874C7.71041 4.13912 7.64312 4.11125 7.57295 4.11124H7.23184C7.20854 4.04914 7.18314 3.98794 7.15564 3.92759L7.39657 3.68685C7.42116 3.66228 7.44066 3.6331 7.45397 3.60098C7.46728 3.56887 7.47413 3.53445 7.47413 3.49968C7.47413 3.46492 7.46728 3.4305 7.45397 3.39839C7.44066 3.36627 7.42116 3.33709 7.39657 3.31252L6.32181 2.23861C6.27219 2.18904 6.20493 2.1612 6.13479 2.1612C6.06465 2.1612 5.99739 2.18904 5.94777 2.23861L5.70666 2.47954C5.64616 2.45204 5.58477 2.42664 5.52253 2.40334V2.06274C5.52252 1.99257 5.49464 1.92528 5.44502 1.87566C5.3954 1.82604 5.32811 1.79817 5.25794 1.79816L3.73787 1.79815ZM4.49788 3.76412C3.74338 3.76412 3.12585 4.38101 3.12586 5.13525C3.12586 5.16765 3.12686 5.19995 3.12886 5.23215C3.13132 5.26681 3.14058 5.30065 3.15611 5.33173C3.17165 5.36281 3.19315 5.39052 3.21939 5.41329C3.24564 5.43606 3.27611 5.45344 3.30908 5.46443C3.34204 5.47543 3.37684 5.47982 3.4115 5.47736C3.44616 5.4749 3.47999 5.46564 3.51108 5.45011C3.54216 5.43457 3.56987 5.41307 3.59264 5.38683C3.61541 5.36058 3.63279 5.33011 3.64378 5.29714C3.65478 5.26418 3.65917 5.22938 3.65671 5.19472C3.65571 5.17492 3.65471 5.15512 3.65471 5.13522C3.65471 4.6672 4.02883 4.29327 4.49757 4.29327C4.96631 4.29327 5.34042 4.6672 5.34042 5.13522C5.34042 5.15512 5.33971 5.17492 5.33842 5.19472C5.33596 5.22938 5.34036 5.26418 5.35135 5.29714C5.36234 5.33011 5.37972 5.36058 5.40249 5.38683C5.42526 5.41307 5.45297 5.43457 5.48405 5.45011C5.51514 5.46564 5.54897 5.4749 5.58363 5.47736C5.61829 5.47982 5.65309 5.47543 5.68605 5.46443C5.71902 5.45344 5.74949 5.43606 5.77574 5.41329C5.80198 5.39052 5.82348 5.36281 5.83902 5.33173C5.85455 5.30065 5.86381 5.26681 5.86627 5.23215C5.86827 5.19985 5.86927 5.16755 5.86927 5.13525C5.86927 4.38101 5.25238 3.76412 4.49788 3.76412ZM3.82117 6.24919H5.17458V7.17765H3.82117V6.24919Z" fill="black"/>
</svg>
