<svg xmlns="http://www.w3.org/2000/svg" xmlns:xlink="http://www.w3.org/1999/xlink" viewBox="0 0 225.24 49.4"><defs><style>.cls-1{fill:none;}.cls-2{fill:#fff;}.cls-3{clip-path:url(#clip-path);}.cls-4{fill:url(#linear-gradient);}.cls-5{clip-path:url(#clip-path-2);}.cls-6{fill:url(#linear-gradient-2);}.cls-7{clip-path:url(#clip-path-3);}.cls-8{fill:url(#linear-gradient-3);}.cls-9{clip-path:url(#clip-path-4);}.cls-10{fill:url(#linear-gradient-4);}.cls-11{clip-path:url(#clip-path-5);}.cls-12{fill:url(#linear-gradient-5);}.cls-13{clip-path:url(#clip-path-6);}.cls-14{fill:url(#linear-gradient-6);}.cls-15{clip-path:url(#clip-path-7);}.cls-16{fill:url(#linear-gradient-7);}.cls-17{clip-path:url(#clip-path-8);}.cls-18{fill:url(#linear-gradient-8);}.cls-19{clip-path:url(#clip-path-9);}.cls-20{fill:url(#linear-gradient-9);}.cls-21{clip-path:url(#clip-path-10);}.cls-22{fill:url(#linear-gradient-10);}</style><clipPath id="clip-path"><path class="cls-1" d="M17.51,3.48a2.56,2.56,0,0,0,5.09.4H38.16a.4.4,0,0,0,0-.8H22.6a2.56,2.56,0,0,0-5.09.4"/></clipPath><linearGradient id="linear-gradient" x1="-750.26" y1="1371.93" x2="-750.05" y2="1371.93" gradientTransform="matrix(102.6, 0, 0, -102.6, 76994.38, 140764.3)" gradientUnits="userSpaceOnUse"><stop offset="0" stop-color="#a0cb3a"/><stop offset="1" stop-color="#78b543"/></linearGradient><clipPath id="clip-path-2"><path class="cls-1" d="M26.55,13.73a2.56,2.56,0,1,0,2.56-2.56,2.56,2.56,0,0,0-2.56,2.56"/></clipPath><linearGradient id="linear-gradient-2" x1="-744.58" y1="1381.47" x2="-744.38" y2="1381.47" gradientTransform="matrix(24.98, 0, 0, -24.98, 18629.1, 34528.05)" xlink:href="#linear-gradient"/><clipPath id="clip-path-3"><path class="cls-1" d="M35.62,23.58H20.07a.4.4,0,1,0,0,.8H35.62a2.56,2.56,0,1,0,0-.8"/></clipPath><linearGradient id="linear-gradient-3" x1="-750.34" y1="1372.71" x2="-750.13" y2="1372.71" gradientTransform="matrix(102.6, 0, 0, -102.6, 77004.96, 140864.27)" xlink:href="#linear-gradient"/><clipPath id="clip-path-4"><path class="cls-1" d="M26.55,34.23a2.56,2.56,0,1,0,2.56-2.56,2.56,2.56,0,0,0-2.56,2.56"/></clipPath><linearGradient id="linear-gradient-4" x1="-744.58" y1="1384.65" x2="-744.38" y2="1384.65" gradientTransform="matrix(24.98, 0, 0, -24.98, 18629.1, 34627.99)" xlink:href="#linear-gradient"/><clipPath id="clip-path-5"><path class="cls-1" d="M31.1,28.71H24.59a.4.4,0,1,0,0,.79H31.1a2.57,2.57,0,1,0,0-.79"/></clipPath><linearGradient id="linear-gradient-5" x1="-748.98" y1="1375.56" x2="-748.78" y2="1375.56" gradientTransform="matrix(58.51, 0, 0, -58.51, 43848.39, 80514.86)" xlink:href="#linear-gradient"/><clipPath id="clip-path-6"><path class="cls-1" d="M22,39.36a2.56,2.56,0,0,0,5.09.39h6.51a.4.4,0,1,0,0-.79H27.12a2.56,2.56,0,0,0-5.09.4"/></clipPath><linearGradient id="linear-gradient-6" x1="-748.84" y1="1376.23" x2="-748.64" y2="1376.23" gradientTransform="matrix(58.51, 0, 0, -58.51, 43837.82, 80564.83)" xlink:href="#linear-gradient"/><clipPath id="clip-path-7"><path class="cls-1" d="M17.51,44.48a2.56,2.56,0,0,0,5.09.4H38.16a.39.39,0,0,0,.39-.4.38.38,0,0,0-.39-.39H22.6a2.56,2.56,0,0,0-5.09.39"/></clipPath><linearGradient id="linear-gradient-7" x1="-750.26" y1="1373.48" x2="-750.05" y2="1373.48" gradientTransform="matrix(102.6, 0, 0, -102.6, 76994.38, 140964.17)" xlink:href="#linear-gradient"/><clipPath id="clip-path-8"><path class="cls-1" d="M31.1,18.46H24.59a.4.4,0,1,0,0,.79H31.1a2.57,2.57,0,1,0,0-.79"/></clipPath><linearGradient id="linear-gradient-8" x1="-748.98" y1="1374.88" x2="-748.78" y2="1374.88" gradientTransform="matrix(58.51, 0, 0, -58.51, 43848.39, 80464.9)" xlink:href="#linear-gradient"/><clipPath id="clip-path-9"><path class="cls-1" d="M22,8.61A2.56,2.56,0,0,0,27.12,9h6.51a.4.4,0,1,0,0-.79H27.12a2.56,2.56,0,0,0-5.09.4"/></clipPath><linearGradient id="linear-gradient-9" x1="-748.84" y1="1374.2" x2="-748.64" y2="1374.2" gradientTransform="matrix(58.51, 0, 0, -58.51, 43837.82, 80414.93)" xlink:href="#linear-gradient"/><clipPath id="clip-path-10"><path class="cls-1" d="M13.53,7.35,1.55,20A5.59,5.59,0,0,0,0,23.89H0a5,5,0,0,0,1.36,3.42l12.26,13,.58-.42a2.12,2.12,0,0,0,.87-1.71V33.61a2.15,2.15,0,0,0-.58-1.45L8.11,25.39a2.11,2.11,0,0,1-.58-1.45v-.77a2.12,2.12,0,0,1,.64-1.51l6.27-6.14A2.12,2.12,0,0,0,15.07,14V9.73a2.11,2.11,0,0,0-.58-1.45l-.87-.93,0,0,0,0"/></clipPath><linearGradient id="linear-gradient-10" x1="-748.43" y1="1374.02" x2="-748.23" y2="1374.02" gradientTransform="matrix(73.46, 0, 0, -73.46, 54981.55, 100962.41)" xlink:href="#linear-gradient"/></defs><g id="Layer_2" data-name="Layer 2"><g id="Layer_1-2" data-name="Layer 1"><polygon class="cls-2" points="68.05 1.02 74.5 1.02 74.5 19.43 83.42 10.5 91.41 10.5 82.44 19.64 91.53 33.04 83.98 33.04 77.91 24.34 74.5 27.75 74.5 33.04 68.05 33.04 68.05 1.02"/><path class="cls-2" d="M102.21,10.08c7.47,0,12.5,4.65,12.5,11.69s-5,11.66-12.5,11.66-12.47-4.7-12.47-11.66,5-11.69,12.47-11.69m0,17.88c3.75,0,5.93-2.47,5.93-6.23,0-3.93-2.35-6.19-5.85-6.19-3.8,0-6,2.48-6,6.28S98.66,28,102.21,28"/><path class="cls-2" d="M140.88,1V33h-5.59L134.82,30c-1.62,2.13-4.69,3.5-8.37,3.5-6.78,0-11.22-4.65-11.22-11.61S119.92,10.08,127,10.08a10.52,10.52,0,0,1,7.51,2.73V1Zm-6.4,21.05v-.43c0-3.79-2.6-6.27-6.4-6.27a6,6,0,0,0-6.37,6.36,6,6,0,0,0,6.37,6.4c3.8,0,6.4-2.39,6.4-6.06"/><path class="cls-2" d="M142.68,3.59c0-2,1.45-3.59,4.27-3.59s4.22,1.62,4.22,3.59S149.72,7.3,147,7.3s-4.27-1.62-4.27-3.71m1,6.91h6.45V33H143.7Z"/><path class="cls-2" d="M167.52,1.07v5A9.71,9.71,0,0,0,165.94,6c-2.56,0-3.37,1.11-3.37,3V10.5h5.64v5.25h-5.64V33h-6.45V15.75h-5V10.5h5v-2c0-4.06,2.14-7.77,8-7.77a16.63,16.63,0,0,1,3.41.34"/><path class="cls-2" d="M168.21,3.59c0-2,1.45-3.59,4.27-3.59s4.22,1.62,4.22,3.59-1.45,3.71-4.22,3.71-4.27-1.62-4.27-3.71m1,6.91h6.45V33h-6.45Z"/><path class="cls-2" d="M178.58,10.5h6l.51,2.91c1.24-2.05,3.89-3.33,7-3.33,5.46,0,8.2,3.37,8.2,8.7V33h-6.45V19.85c0-3-1.62-4.44-4-4.44-2.86,0-4.78,2-4.78,5.47V33h-6.45Z"/><path class="cls-2" d="M225.24,26c-1.07,4.69-5.46,7.51-11.23,7.51-7.38,0-12.16-4.65-12.16-11.7s4.78-11.69,11.82-11.69c6.79,0,11.36,4.26,11.36,10.54a12.15,12.15,0,0,1-.26,2.31H208.25v.17c0,3.37,2.31,5.29,5.72,5.29,2.39,0,4.18-.94,4.91-2.43Zm-16.86-7.13h10.07c-.08-2.22-2.13-3.8-4.91-3.8a5,5,0,0,0-5.16,3.8"/><path class="cls-2" d="M68,41.47a3.12,3.12,0,0,1,1.18-1.26,3.19,3.19,0,0,1,1.7-.46,3.54,3.54,0,0,1,2,.55,3.17,3.17,0,0,1,1.18,1.56h-.51a2.55,2.55,0,0,0-1-1.25,3,3,0,0,0-1.69-.46,2.73,2.73,0,0,0-1.45.38,2.65,2.65,0,0,0-1,1.09,3.59,3.59,0,0,0-.38,1.68A3.51,3.51,0,0,0,68.43,45a2.71,2.71,0,0,0,1,1.09,2.74,2.74,0,0,0,1.45.39A3,3,0,0,0,72.6,46a2.64,2.64,0,0,0,1-1.25h.51a3.19,3.19,0,0,1-1.18,1.55,3.46,3.46,0,0,1-2,.55,3.27,3.27,0,0,1-1.7-.45A3.16,3.16,0,0,1,68,45.13a4.11,4.11,0,0,1,0-3.66"/><path class="cls-2" d="M76.3,46.51a2.37,2.37,0,0,1-.94-1,3.24,3.24,0,0,1,0-2.93,2.46,2.46,0,0,1,1-1,2.95,2.95,0,0,1,2.71,0,2.44,2.44,0,0,1,1,1,3.06,3.06,0,0,1,.34,1.46A3,3,0,0,1,80,45.54a2.46,2.46,0,0,1-1,1,2.82,2.82,0,0,1-1.36.33,2.77,2.77,0,0,1-1.36-.33m2.45-.32a2,2,0,0,0,.81-.8,2.58,2.58,0,0,0,.31-1.32,2.5,2.5,0,0,0-.31-1.3,2,2,0,0,0-.81-.8,2.39,2.39,0,0,0-2.17,0,2,2,0,0,0-.8.8,2.5,2.5,0,0,0-.31,1.3,2.68,2.68,0,0,0,.3,1.32,2.05,2.05,0,0,0,.8.8,2.4,2.4,0,0,0,1.09.26,2.43,2.43,0,0,0,1.09-.26"/><path class="cls-2" d="M81.53,42.62a2.31,2.31,0,0,1,.92-1,2.69,2.69,0,0,1,1.34-.34,2.47,2.47,0,0,1,1.42.41,2.22,2.22,0,0,1,.85,1.07V39.44h.45v7.32h-.45V45.34a2.15,2.15,0,0,1-.83,1.08,2.4,2.4,0,0,1-1.44.42,2.59,2.59,0,0,1-1.34-.34,2.39,2.39,0,0,1-.92-1,3.08,3.08,0,0,1-.33-1.46,3,3,0,0,1,.33-1.45m4.24.21A2.11,2.11,0,0,0,85,42a2.29,2.29,0,0,0-1.13-.29A2.25,2.25,0,0,0,82.7,42a1.91,1.91,0,0,0-.77.82,2.63,2.63,0,0,0-.28,1.26,2.67,2.67,0,0,0,.28,1.27,1.88,1.88,0,0,0,.78.82,2.25,2.25,0,0,0,1.14.29A2.29,2.29,0,0,0,85,46.16a2.09,2.09,0,0,0,.8-.84,2.59,2.59,0,0,0,.28-1.25,2.52,2.52,0,0,0-.29-1.24"/><path class="cls-2" d="M87.89,40.09a.38.38,0,0,1-.11-.28.41.41,0,0,1,.11-.28.39.39,0,0,1,.54,0,.41.41,0,0,1,.11.28.38.38,0,0,1-.11.28.39.39,0,0,1-.54,0m.49,6.67h-.45V41.39h.45Z"/><path class="cls-2" d="M93.8,41.87a2.35,2.35,0,0,1,.6,1.75v3.14H94V43.65a2,2,0,0,0-.49-1.47,1.72,1.72,0,0,0-1.31-.51,1.8,1.8,0,0,0-1.39.55,2.32,2.32,0,0,0-.52,1.65v2.89h-.45V41.39h.45v1.14a1.76,1.76,0,0,1,.75-.92,2.29,2.29,0,0,1,1.23-.33,2.14,2.14,0,0,1,1.56.59"/><path class="cls-2" d="M99.54,41.73a2.26,2.26,0,0,1,.83,1.06v-1.4h.44v5.54a2.58,2.58,0,0,1-.32,1.3,2.27,2.27,0,0,1-.88.86,2.59,2.59,0,0,1-1.24.31,2.78,2.78,0,0,1-1.67-.49,2.26,2.26,0,0,1-.87-1.31h.44a1.93,1.93,0,0,0,.74,1,2.37,2.37,0,0,0,1.36.38,2.08,2.08,0,0,0,1-.25,1.91,1.91,0,0,0,.72-.72,2.33,2.33,0,0,0,.26-1.11V45.36a2.22,2.22,0,0,1-.84,1.06,2.45,2.45,0,0,1-1.44.42,2.59,2.59,0,0,1-1.34-.34,2.39,2.39,0,0,1-.92-1,3.08,3.08,0,0,1-.33-1.46,3,3,0,0,1,.33-1.45,2.31,2.31,0,0,1,.92-1,2.69,2.69,0,0,1,1.34-.34,2.53,2.53,0,0,1,1.45.41m.54,1.1a2.13,2.13,0,0,0-.8-.83A2.42,2.42,0,0,0,97,42a2,2,0,0,0-.77.82A2.75,2.75,0,0,0,96,44.07a2.8,2.8,0,0,0,.27,1.27,2,2,0,0,0,.78.82,2.37,2.37,0,0,0,2.27,0,2.09,2.09,0,0,0,.8-.84,2.59,2.59,0,0,0,.29-1.25,2.64,2.64,0,0,0-.29-1.24"/><path class="cls-2" d="M108.58,46.76l-1.78-2.95h-1.53v2.95h-.44V39.82h1.91a2.44,2.44,0,0,1,1.73.54,1.9,1.9,0,0,1,.58,1.45,2,2,0,0,1-.45,1.32,2,2,0,0,1-1.31.64l1.82,3Zm-3.31-3.33h1.49a1.87,1.87,0,0,0,1.37-.45,1.52,1.52,0,0,0,.46-1.17c0-1.06-.62-1.59-1.85-1.59h-1.47Z"/><path class="cls-2" d="M115,44.25h-4.64a2.53,2.53,0,0,0,.31,1.22,1.87,1.87,0,0,0,.79.74,2.32,2.32,0,0,0,1.05.25,2.2,2.2,0,0,0,1.33-.39,1.67,1.67,0,0,0,.67-1.07H115a2.18,2.18,0,0,1-.81,1.33,2.63,2.63,0,0,1-1.66.51,2.69,2.69,0,0,1-1.34-.33,2.35,2.35,0,0,1-.93-1,3.13,3.13,0,0,1-.34-1.47,3.06,3.06,0,0,1,.33-1.46,2.33,2.33,0,0,1,.93-1,2.73,2.73,0,0,1,1.35-.33,2.59,2.59,0,0,1,1.34.33,2.37,2.37,0,0,1,.87.88,2.45,2.45,0,0,1,.3,1.19c0,.23,0,.41,0,.53m-.68-1.57a1.77,1.77,0,0,0-.77-.74,2.4,2.4,0,0,0-2.09,0,1.91,1.91,0,0,0-.78.74,2.39,2.39,0,0,0-.32,1.21h4.21a2.19,2.19,0,0,0-.25-1.21"/><path class="cls-2" d="M116.22,42.62a2.31,2.31,0,0,1,.92-1,2.69,2.69,0,0,1,1.34-.34,2.47,2.47,0,0,1,1.42.41,2.16,2.16,0,0,1,.85,1.07V39.44h.45v7.32h-.45V45.34a2.15,2.15,0,0,1-.83,1.08,2.4,2.4,0,0,1-1.44.42,2.59,2.59,0,0,1-1.34-.34,2.39,2.39,0,0,1-.92-1,3.08,3.08,0,0,1-.33-1.46,3,3,0,0,1,.33-1.45m4.24.21a2.11,2.11,0,0,0-.79-.83,2.29,2.29,0,0,0-1.13-.29,2.25,2.25,0,0,0-1.15.28,1.91,1.91,0,0,0-.77.82,2.63,2.63,0,0,0-.28,1.26,2.67,2.67,0,0,0,.28,1.27,1.88,1.88,0,0,0,.78.82,2.25,2.25,0,0,0,1.14.29,2.29,2.29,0,0,0,1.13-.29,2.09,2.09,0,0,0,.8-.84,2.59,2.59,0,0,0,.28-1.25,2.52,2.52,0,0,0-.29-1.24"/><path class="cls-2" d="M127.44,44.25H122.8a2.53,2.53,0,0,0,.32,1.22,1.91,1.91,0,0,0,.78.74,2.36,2.36,0,0,0,1.06.25,2.15,2.15,0,0,0,1.32-.39A1.73,1.73,0,0,0,127,45h.46a2.1,2.1,0,0,1-.81,1.33,2.6,2.6,0,0,1-1.65.51,2.75,2.75,0,0,1-1.35-.33,2.48,2.48,0,0,1-.93-1,3.12,3.12,0,0,1-.33-1.47,3.06,3.06,0,0,1,.33-1.46,2.37,2.37,0,0,1,.92-1,2.77,2.77,0,0,1,1.36-.33,2.64,2.64,0,0,1,1.34.33,2.27,2.27,0,0,1,.86.88,2.45,2.45,0,0,1,.3,1.19c0,.23,0,.41,0,.53m-.68-1.57a1.75,1.75,0,0,0-.76-.74,2.38,2.38,0,0,0-1-.24,2.31,2.31,0,0,0-1,.24,1.91,1.91,0,0,0-.78.74,2.49,2.49,0,0,0-.32,1.21H127a2.19,2.19,0,0,0-.26-1.21"/><path class="cls-2" d="M130.66,41.79h-1.4v5h-.44v-5H128v-.4h.81V41a1.67,1.67,0,0,1,.42-1.25,2,2,0,0,1,1.4-.42v.4a1.52,1.52,0,0,0-1.08.3,1.31,1.31,0,0,0-.3,1v.37h1.4Z"/><path class="cls-2" d="M131.56,40.09a.34.34,0,0,1-.11-.28.37.37,0,0,1,.11-.28.36.36,0,0,1,.26-.11.37.37,0,0,1,.27.11.41.41,0,0,1,.11.28.38.38,0,0,1-.11.28.37.37,0,0,1-.27.11.36.36,0,0,1-.26-.11m.48,6.67h-.44V41.39H132Z"/><path class="cls-2" d="M137.46,41.87a2.35,2.35,0,0,1,.61,1.75v3.14h-.44V43.65a2.07,2.07,0,0,0-.48-1.47,1.76,1.76,0,0,0-1.32-.51,1.82,1.82,0,0,0-1.39.55,2.32,2.32,0,0,0-.52,1.65v2.89h-.44V41.39h.44v1.14a1.73,1.73,0,0,1,.76-.92,2.25,2.25,0,0,1,1.22-.33,2.14,2.14,0,0,1,1.56.59"/><path class="cls-2" d="M144.26,44.25h-4.64a2.53,2.53,0,0,0,.31,1.22,1.87,1.87,0,0,0,.79.74,2.32,2.32,0,0,0,1.05.25,2.2,2.2,0,0,0,1.33-.39,1.67,1.67,0,0,0,.67-1.07h.47a2.18,2.18,0,0,1-.81,1.33,2.63,2.63,0,0,1-1.66.51,2.69,2.69,0,0,1-1.34-.33,2.35,2.35,0,0,1-.93-1,3.13,3.13,0,0,1-.34-1.47,3.06,3.06,0,0,1,.33-1.46,2.39,2.39,0,0,1,.93-1,2.73,2.73,0,0,1,1.35-.33,2.59,2.59,0,0,1,1.34.33,2.37,2.37,0,0,1,.87.88,2.45,2.45,0,0,1,.3,1.19c0,.23,0,.41,0,.53m-.68-1.57a1.77,1.77,0,0,0-.77-.74,2.4,2.4,0,0,0-2.09,0,1.91,1.91,0,0,0-.78.74,2.39,2.39,0,0,0-.32,1.21h4.21a2.19,2.19,0,0,0-.25-1.21"/><path class="cls-2" d="M145.48,42.62a2.31,2.31,0,0,1,.92-1,2.69,2.69,0,0,1,1.34-.34,2.47,2.47,0,0,1,1.42.41A2.16,2.16,0,0,1,150,42.8V39.44h.45v7.32H150V45.34a2.15,2.15,0,0,1-.83,1.08,2.4,2.4,0,0,1-1.44.42,2.59,2.59,0,0,1-1.34-.34,2.39,2.39,0,0,1-.92-1,3.08,3.08,0,0,1-.33-1.46,3,3,0,0,1,.33-1.45m4.24.21a2.11,2.11,0,0,0-.79-.83,2.29,2.29,0,0,0-1.13-.29,2.25,2.25,0,0,0-1.15.28,1.91,1.91,0,0,0-.77.82,2.75,2.75,0,0,0-.28,1.26,2.8,2.8,0,0,0,.28,1.27,1.88,1.88,0,0,0,.78.82,2.25,2.25,0,0,0,1.14.29,2.29,2.29,0,0,0,1.13-.29,2.09,2.09,0,0,0,.8-.84,2.59,2.59,0,0,0,.28-1.25,2.52,2.52,0,0,0-.29-1.24"/><path class="cls-2" d="M35.59,3.48A2.57,2.57,0,1,0,38.16.92a2.56,2.56,0,0,0-2.57,2.56"/><path class="cls-2" d="M31.07,8.61A2.57,2.57,0,1,0,33.63,6a2.56,2.56,0,0,0-2.56,2.57"/><path class="cls-2" d="M22,18.86a2.56,2.56,0,1,0,2.56-2.57A2.56,2.56,0,0,0,22,18.86"/><path class="cls-2" d="M17.51,24a2.56,2.56,0,1,0,2.56-2.56A2.55,2.55,0,0,0,17.51,24"/><path class="cls-2" d="M27.15,29.11a2.56,2.56,0,1,1-2.56-2.57,2.56,2.56,0,0,1,2.56,2.57"/><path class="cls-2" d="M36.2,39.36a2.57,2.57,0,1,1-2.57-2.57,2.57,2.57,0,0,1,2.57,2.57"/><path class="cls-2" d="M40.72,44.48a2.57,2.57,0,1,1-2.56-2.56,2.56,2.56,0,0,1,2.56,2.56"/><g class="cls-3"><rect class="cls-4" x="17.51" y="0.92" width="21.05" height="5.12"/></g><g class="cls-5"><rect class="cls-6" x="26.55" y="11.17" width="5.13" height="5.13"/></g><g class="cls-7"><rect class="cls-8" x="19.67" y="21.42" width="21.05" height="5.12"/></g><g class="cls-9"><rect class="cls-10" x="26.55" y="31.67" width="5.13" height="5.13"/></g><g class="cls-11"><rect class="cls-12" x="24.19" y="26.54" width="12" height="5.13"/></g><g class="cls-13"><rect class="cls-14" x="22.03" y="36.79" width="12" height="5.13"/></g><g class="cls-15"><rect class="cls-16" x="17.51" y="41.92" width="21.05" height="5.12"/></g><g class="cls-17"><rect class="cls-18" x="24.19" y="16.29" width="12" height="5.13"/></g><g class="cls-19"><rect class="cls-20" x="22.03" y="6.04" width="12" height="5.13"/></g><g class="cls-21"><rect class="cls-22" y="7.33" width="15.07" height="32.94"/></g><path class="cls-2" d="M56.79,27.31a5,5,0,0,0,1.36-3.42h0A5.59,5.59,0,0,0,56.6,20l-12-12.66a.07.07,0,0,0-.09,0l-.87.93a2.07,2.07,0,0,0-.58,1.45V14a2.12,2.12,0,0,0,.63,1.51L50,21.66a2.11,2.11,0,0,1,.63,1.51v.77A2.1,2.1,0,0,1,50,25.39l-6.39,6.77a2.14,2.14,0,0,0-.57,1.45v4.54A2.12,2.12,0,0,0,44,39.86l.58.42,12.26-13"/></g></g></svg>