<svg width="414" height="112" viewBox="0 0 414 112" fill="none" xmlns="http://www.w3.org/2000/svg">
<path d="M76.0626 48.5218V0H87.8123V48.5218H76.0626ZM88.3643 24.1944L103.5 0H117.256L101.632 23.4304L118.498 48.5218H103.776L88.3643 24.1944Z" fill="white"/>
<path d="M140.139 9.32977C142.948 9.32977 145.6 9.82755 148.089 10.8182C150.578 11.8088 152.732 13.1938 154.55 14.9631C156.369 16.7374 157.773 18.8567 158.764 21.321C159.755 23.7853 160.248 26.4023 160.248 29.1673C160.248 31.9766 159.75 34.6183 158.764 37.0826C157.773 39.5468 156.369 41.6908 154.55 43.5094C152.727 45.3281 150.588 46.7376 148.123 47.7233C145.659 48.714 143.017 49.2118 140.208 49.2118C137.394 49.2118 134.732 48.714 132.224 47.7233C129.71 46.7327 127.547 45.3281 125.728 43.5094C123.909 41.6908 122.49 39.5468 121.475 37.0826C120.459 34.6183 119.957 31.9815 119.957 29.1673C119.957 26.4023 120.464 23.7853 121.475 21.321C122.49 18.8567 123.904 16.7374 125.728 14.9631C127.547 13.1888 129.705 11.8088 132.189 10.8182C134.678 9.82755 137.33 9.32977 140.139 9.32977ZM140.139 19.4235C137.744 19.4235 135.797 20.3353 134.299 22.1539C132.8 23.9726 132.051 26.3383 132.051 29.2412C132.051 32.1885 132.8 34.5739 134.299 36.3975C135.797 38.2161 137.763 39.1279 140.208 39.1279C142.051 39.1279 143.594 38.6005 144.841 37.536C146.083 36.4763 146.95 35.1752 147.433 33.6276C147.916 32.085 148.158 30.6212 148.158 29.2412C148.158 27.1219 147.729 25.2638 146.876 23.6768C146.024 22.0849 144.989 20.9809 143.766 20.3599C142.544 19.734 141.337 19.4235 140.139 19.4235Z" fill="white"/>
<path d="M168.961 48.5218V10.0198H180.711V15.5496C181.815 13.662 183.328 12.1539 185.24 11.0203C187.153 9.89165 189.306 9.32486 191.702 9.32486C195.847 9.32486 199.247 10.833 201.899 13.8542C204.551 16.8705 205.876 20.9169 205.876 25.9834V48.5169H194.127V27.5754C194.127 25.1308 193.515 23.184 192.293 21.735C191.071 20.2811 189.449 19.5566 187.419 19.5566C185.388 19.5566 183.767 20.2811 182.544 21.735C181.322 23.1889 180.711 25.1357 180.711 27.5754V48.5169H168.961V48.5218Z" fill="white"/>
<path d="M214.585 29.1722C214.585 26.4073 215.078 23.7902 216.068 21.3259C217.059 18.8616 218.454 16.7424 220.253 14.9681C222.052 13.1938 224.161 11.8138 226.576 10.8231C228.996 9.8325 231.539 9.33472 234.215 9.33472C235.921 9.33472 237.715 9.56636 239.607 10.0247C241.495 10.488 243.432 11.3702 245.413 12.6861C247.394 13.9971 248.986 15.7172 250.184 17.8365C251.382 19.9558 252.165 22.1441 252.535 24.4013H239.745C238.73 21.0844 236.749 19.4235 233.801 19.4235C232.328 19.4235 231.002 19.941 229.829 20.9809C228.656 22.0159 227.833 23.322 227.375 24.8893C226.916 26.4566 226.685 27.9056 226.685 29.2461C226.685 30.6261 226.926 32.0899 227.409 33.6326C227.892 35.1752 228.735 36.4813 229.933 37.5409C231.13 38.6006 232.466 39.1329 233.939 39.1329C235.369 39.1329 236.611 38.6942 237.67 37.8219C238.73 36.9446 239.42 35.7272 239.745 34.1599H252.535C251.569 39.0441 249.46 42.78 246.212 45.3576C242.964 47.9402 238.898 49.2266 234.013 49.2266C232.076 49.2266 230.016 48.8914 227.828 48.2261C225.64 47.5607 223.451 46.3039 221.263 44.4606C219.075 42.6174 217.414 40.3157 216.285 37.5508C215.147 34.7711 214.585 31.9815 214.585 29.1722Z" fill="white"/>
<path d="M277.967 39.468C279.44 39.468 280.731 39.0885 281.835 38.3295C282.939 37.5705 283.654 36.4271 283.979 34.9091H296.424C295.409 39.4236 293.28 42.9377 290.032 45.4513C286.784 47.9649 282.742 49.2167 277.902 49.2167C275.966 49.2167 273.905 48.8816 271.717 48.2162C269.529 47.5508 267.341 46.2941 265.152 44.4508C262.964 42.6075 261.303 40.3058 260.174 37.5409C259.046 34.776 258.484 31.9864 258.484 29.1771C258.484 26.4122 258.977 23.7951 259.972 21.3309C260.963 18.8666 262.358 16.7473 264.152 14.973C265.951 13.1987 268.055 11.8187 270.475 10.8281C272.895 9.83743 275.438 9.33963 278.114 9.33963C280.692 9.33963 283.137 9.76841 285.438 10.6161C287.745 11.4688 289.761 12.7354 291.486 14.4161C293.216 16.0967 294.561 18.1618 295.532 20.6014C296.498 23.046 296.986 25.7616 296.986 28.7582C296.986 30.0938 296.892 31.3408 296.71 32.4891H270.579C271.037 34.6084 271.939 36.3038 273.275 37.5705C274.605 38.8371 276.173 39.468 277.967 39.468ZM277.967 19.0785C276.261 19.0785 274.763 19.6453 273.472 20.7739C272.18 21.9026 271.259 23.4107 270.707 25.3033H284.945C284.807 24.3816 284.448 23.4255 283.871 22.4348C283.294 21.4442 282.456 20.6359 281.348 20.0149C280.248 19.389 279.12 19.0785 277.967 19.0785Z" fill="white"/>
<path d="M317.439 43.8939V64.1453H305.69V10.0247H317.439V15.0026C318.637 13.2036 320.145 11.8138 321.964 10.8231C323.782 9.8325 325.823 9.33472 328.08 9.33472C330.475 9.33472 332.733 9.8325 334.852 10.8231C336.971 11.8138 338.815 13.1987 340.382 14.9681C341.949 16.7424 343.171 18.8616 344.044 21.3259C344.921 23.7902 345.355 26.4073 345.355 29.1722C345.355 31.9815 344.916 34.6232 344.044 37.0875C343.167 39.5518 341.944 41.6957 340.382 43.5143C338.815 45.333 336.947 46.7426 334.783 47.7283C332.614 48.7189 330.337 49.2167 327.942 49.2167C323.29 49.2167 319.785 47.4424 317.439 43.8939ZM333.265 29.2412C333.265 27.1219 332.836 25.2638 331.989 23.6768C331.136 22.0849 330.096 20.9809 328.879 20.3599C327.656 19.7389 326.449 19.4284 325.251 19.4284C322.856 19.4284 320.909 20.3402 319.411 22.1589C317.913 23.9775 317.163 26.3432 317.163 29.2461C317.163 32.1934 317.913 34.5788 319.411 36.4024C320.909 38.2211 322.876 39.1329 325.32 39.1329C327.163 39.1329 328.706 38.6055 329.953 37.5409C331.195 36.4813 332.062 35.1801 332.545 33.6326C333.024 32.085 333.265 30.6212 333.265 29.2412Z" fill="white"/>
<path d="M354.556 36.4961V19.6995H350.269V10.0247H354.556V0.556915H366.375V10.0247H374.118V19.6995H366.375V35.0471C366.375 36.4271 366.661 37.4571 367.238 38.1225C367.814 38.7928 368.721 39.123 369.968 39.123C370.614 39.123 371.338 38.985 372.146 38.709C372.955 38.433 373.635 38.1126 374.187 37.743V47.4868C373.359 48.0388 372.24 48.4676 370.835 48.7682C369.431 49.0688 368.08 49.2167 366.794 49.2167C362.787 49.2167 359.746 48.1324 357.671 45.9688C355.591 43.8002 354.556 40.6459 354.556 36.4961Z" fill="white"/>
<path d="M392.433 20.8774C392.433 21.7547 392.891 22.4891 393.813 23.0904C394.734 23.6916 396.37 24.2535 398.721 24.7858C401.072 25.3181 402.571 25.6729 403.216 25.8553C406.947 26.8706 409.678 28.2407 411.408 29.9707C413.137 31.7006 414 33.9924 414 36.846C414 38.6449 413.63 40.3009 412.896 41.8239C412.157 43.3468 411.087 44.6578 409.683 45.7618C408.278 46.8658 406.563 47.7184 404.532 48.3197C402.502 48.9161 400.269 49.2167 397.829 49.2167C394.419 49.2167 391.412 48.5809 388.81 47.3143C386.208 46.0477 384.167 44.3769 382.694 42.3019C381.22 40.227 380.367 37.7627 380.136 34.9041H392.092C392.186 35.6878 392.447 36.4961 392.886 37.3241C393.325 38.1521 394.015 38.8224 394.961 39.33C395.907 39.8376 396.952 40.089 398.105 40.089C399.347 40.089 400.338 39.8574 401.077 39.399C401.817 38.9407 402.181 38.3394 402.181 37.6001C402.181 36.9544 401.821 36.3433 401.112 35.7666C400.397 35.19 398.598 34.569 395.72 33.8987C392.837 33.2334 390.604 32.6074 389.017 32.0308C387.425 31.4541 386.045 30.7395 384.872 29.8869C383.699 29.0342 382.704 27.9302 381.9 26.5699C381.092 25.2096 380.688 23.4699 380.688 21.3506C380.688 19.7833 381.033 18.2653 381.723 16.7867C382.413 15.3131 383.418 14.0218 384.729 12.9178C386.04 11.8138 387.676 10.9365 389.638 10.2909C391.595 9.64521 393.753 9.32486 396.099 9.32486C400.846 9.32486 404.695 10.5669 407.642 13.0558C410.589 15.5447 412.344 19.0686 412.896 23.6325H401.491C401.122 22.0209 400.476 20.7542 399.554 19.8326C398.633 18.9109 397.504 18.4526 396.168 18.4526C394.971 18.4526 394.049 18.6842 393.403 19.1426C392.753 19.6059 392.433 20.1825 392.433 20.8774Z" fill="white"/>
<path d="M76.0626 62.2183H87.8123V100.375H106.339V110.745H76.0626V62.2183Z" fill="white"/>
<path d="M139.863 76.8709V72.2381H151.613V110.74H139.863V105.762C138.665 107.561 137.157 108.956 135.334 109.947C133.515 110.937 131.475 111.435 129.217 111.435C126.822 111.435 124.565 110.937 122.445 109.947C120.326 108.956 118.483 107.576 116.916 105.802C115.348 104.027 114.126 101.908 113.254 99.4438C112.376 96.9795 111.943 94.3624 111.943 91.5975C111.943 88.7882 112.381 86.1465 113.254 83.6822C114.126 81.2179 115.348 79.074 116.916 77.2554C118.483 75.4367 120.346 74.0321 122.514 73.0414C124.683 72.0508 126.96 71.553 129.355 71.553C134.008 71.553 137.512 73.3273 139.863 76.8709ZM124.032 91.5285C124.032 93.6478 124.456 95.5009 125.309 97.0929C126.162 98.6848 127.197 99.7888 128.419 100.41C129.641 101.031 130.849 101.341 132.046 101.341C134.442 101.341 136.388 100.434 137.887 98.6109C139.385 96.7922 140.134 94.4265 140.134 91.5236C140.134 88.5763 139.385 86.1909 137.887 84.3673C136.388 82.5487 134.417 81.6369 131.977 81.6369C130.134 81.6369 128.591 82.1692 127.344 83.2288C126.102 84.2884 125.235 85.5896 124.752 87.1322C124.274 88.6847 124.032 90.1436 124.032 91.5285Z" fill="white"/>
<path d="M174.491 77.2209C175.689 75.4219 177.197 74.0321 179.016 73.0414C180.834 72.0508 182.875 71.553 185.132 71.553C187.527 71.553 189.785 72.0508 191.904 73.0414C194.023 74.0321 195.866 75.417 197.434 77.1864C199.001 78.9606 200.223 81.0799 201.096 83.5442C201.973 86.0085 202.407 88.6256 202.407 91.3905C202.407 94.1998 201.968 96.8415 201.096 99.3058C200.218 101.77 198.996 103.914 197.434 105.733C195.866 107.551 193.998 108.961 191.835 109.947C189.666 110.937 187.389 111.435 184.994 111.435C180.336 111.435 176.837 109.661 174.486 106.112V110.745H162.741V58.0044H174.491V77.2209ZM190.322 91.4595C190.322 89.3402 189.893 87.4821 189.04 85.8951C188.188 84.3032 187.153 83.1992 185.93 82.5782C184.708 81.9572 183.501 81.6467 182.303 81.6467C179.908 81.6467 177.961 82.5585 176.463 84.3772C174.964 86.1958 174.215 88.5615 174.215 91.4644C174.215 94.4117 174.964 96.7971 176.463 98.6207C177.961 100.439 179.927 101.351 182.372 101.351C184.215 101.351 185.758 100.824 187.005 99.7592C188.247 98.6996 189.114 97.3984 189.597 95.8509C190.08 94.3033 190.322 92.8395 190.322 91.4595Z" fill="white"/>
<path d="M25.3772 14.8596L22.1194 20.1085L0 55.7175L34.3916 111.09H65.9443L31.5527 55.7175L31.5478 55.5992L31.4492 55.3675C27.4423 47.0875 24.6182 37.8563 24.6182 27.5901C24.6182 23.2086 24.4161 18.9454 25.3772 14.8596Z" fill="#E01F1D"/>
<path d="M34.3915 0.344976L25.3772 14.8596C24.4161 18.9454 23.8937 23.1988 23.8937 27.5753C23.8937 37.8415 26.6833 47.472 31.5527 55.7125L65.9443 0.340057H34.3915V0.344976Z" fill="url(#paint0_linear_7_5)"/>
<defs>
<linearGradient id="paint0_linear_7_5" x1="64.4598" y1="-1.66341" x2="15.0731" y2="44.9093" gradientUnits="userSpaceOnUse">
<stop offset="0.0454" stop-color="#E01F1D"/>
<stop offset="0.217" stop-color="#DA1F1C"/>
<stop offset="0.4441" stop-color="#C91E1B"/>
<stop offset="0.701" stop-color="#AE1C18"/>
<stop offset="0.9543" stop-color="#8C1A14"/>
</linearGradient>
</defs>
</svg>
