<svg xmlns="http://www.w3.org/2000/svg" xmlns:xlink="http://www.w3.org/1999/xlink" viewBox="0 0 641.76 267.9"><defs><style>.cls-1{opacity:0.3;}.cls-2{fill:url(#linear-gradient);}.cls-3{fill:url(#linear-gradient-2);}.cls-4{fill:url(#linear-gradient-3);}.cls-5{fill:url(#linear-gradient-4);}.cls-6{fill:url(#linear-gradient-5);}.cls-7{fill:url(#linear-gradient-6);}.cls-8{fill:url(#linear-gradient-7);}.cls-9{fill:url(#linear-gradient-8);}.cls-10{fill:url(#linear-gradient-9);}.cls-11{fill:url(#linear-gradient-10);}.cls-12{fill:url(#linear-gradient-11);}.cls-13{fill:url(#linear-gradient-12);}.cls-14{fill:url(#linear-gradient-13);}.cls-15{fill:url(#linear-gradient-14);}.cls-16{fill:url(#linear-gradient-15);}.cls-17{fill:url(#linear-gradient-16);}.cls-18{fill:url(#linear-gradient-17);}.cls-19{fill:url(#linear-gradient-18);}.cls-20{fill:url(#linear-gradient-19);}.cls-21{fill:url(#linear-gradient-20);}.cls-22{fill:url(#linear-gradient-21);}.cls-23{fill:url(#linear-gradient-22);}.cls-24{fill:url(#linear-gradient-24);}.cls-25{fill:url(#linear-gradient-25);}.cls-26{fill:url(#linear-gradient-26);}.cls-27{fill:url(#linear-gradient-27);}.cls-28{fill:url(#linear-gradient-28);}.cls-29{fill:url(#linear-gradient-29);}.cls-30{fill:url(#linear-gradient-30);}.cls-31{fill:url(#linear-gradient-31);}.cls-32{fill:url(#linear-gradient-32);}.cls-33{fill:url(#linear-gradient-33);}.cls-34{fill:url(#linear-gradient-34);}</style><linearGradient id="linear-gradient" x1="-3127.6" y1="2125.34" x2="-2864.51" y2="2125.34" gradientTransform="translate(2446.22 3127.28) rotate(90)" gradientUnits="userSpaceOnUse"><stop offset="0" stop-color="#a0cb3a"/><stop offset="0.75" stop-color="#78b543"/><stop offset="1" stop-color="#78b543" stop-opacity="0"/></linearGradient><linearGradient id="linear-gradient-2" x1="-3127.6" y1="1896.26" x2="-2864.51" y2="1896.26" xlink:href="#linear-gradient"/><linearGradient id="linear-gradient-3" x1="-3127.6" y1="1929.11" x2="-2864.51" y2="1929.11" xlink:href="#linear-gradient"/><linearGradient id="linear-gradient-4" x1="-3127.6" y1="1961.96" x2="-2864.51" y2="1961.96" xlink:href="#linear-gradient"/><linearGradient id="linear-gradient-5" x1="-3127.6" y1="1994.81" x2="-2864.51" y2="1994.81" xlink:href="#linear-gradient"/><linearGradient id="linear-gradient-6" x1="-3127.6" y1="2027.66" x2="-2864.51" y2="2027.66" xlink:href="#linear-gradient"/><linearGradient id="linear-gradient-7" x1="-3127.6" y1="2060.51" x2="-2864.51" y2="2060.51" xlink:href="#linear-gradient"/><linearGradient id="linear-gradient-8" x1="-3127.6" y1="2093.36" x2="-2864.51" y2="2093.36" xlink:href="#linear-gradient"/><linearGradient id="linear-gradient-9" x1="-3127.6" y1="2126.21" x2="-2864.51" y2="2126.21" xlink:href="#linear-gradient"/><linearGradient id="linear-gradient-10" x1="-3127.6" y1="2159.24" x2="-2864.51" y2="2159.24" xlink:href="#linear-gradient"/><linearGradient id="linear-gradient-11" x1="-3127.6" y1="2192.08" x2="-2864.51" y2="2192.08" xlink:href="#linear-gradient"/><linearGradient id="linear-gradient-12" x1="-3127.6" y1="2224.94" x2="-2864.51" y2="2224.94" xlink:href="#linear-gradient"/><linearGradient id="linear-gradient-13" x1="-3127.6" y1="2257.78" x2="-2864.51" y2="2257.78" xlink:href="#linear-gradient"/><linearGradient id="linear-gradient-14" x1="-3127.6" y1="2290.64" x2="-2864.51" y2="2290.64" xlink:href="#linear-gradient"/><linearGradient id="linear-gradient-15" x1="-3127.6" y1="2323.48" x2="-2864.51" y2="2323.48" xlink:href="#linear-gradient"/><linearGradient id="linear-gradient-16" x1="-3127.6" y1="2356.34" x2="-2864.51" y2="2356.34" xlink:href="#linear-gradient"/><linearGradient id="linear-gradient-17" x1="-3127.6" y1="2127.15" x2="-2864.51" y2="2127.15" xlink:href="#linear-gradient"/><linearGradient id="linear-gradient-18" x1="-3127.6" y1="2127.18" x2="-2864.51" y2="2127.18" xlink:href="#linear-gradient"/><linearGradient id="linear-gradient-19" x1="-3127.6" y1="2127.21" x2="-2864.51" y2="2127.21" xlink:href="#linear-gradient"/><linearGradient id="linear-gradient-20" x1="-3127.6" y1="2127.23" x2="-2864.51" y2="2127.23" xlink:href="#linear-gradient"/><linearGradient id="linear-gradient-21" x1="-3127.6" y1="2127.24" x2="-2864.51" y2="2127.24" xlink:href="#linear-gradient"/><linearGradient id="linear-gradient-22" x1="-3127.6" y1="2127.25" x2="-2864.51" y2="2127.25" xlink:href="#linear-gradient"/><linearGradient id="linear-gradient-24" x1="-3127.6" y1="2127.24" x2="-2864.51" y2="2127.24" xlink:href="#linear-gradient"/><linearGradient id="linear-gradient-25" x1="-3127.6" y1="2127.23" x2="-2864.51" y2="2127.23" xlink:href="#linear-gradient"/><linearGradient id="linear-gradient-26" x1="-3127.6" y1="2127.2" x2="-2864.51" y2="2127.2" xlink:href="#linear-gradient"/><linearGradient id="linear-gradient-27" x1="-3127.6" y1="2127.16" x2="-2864.51" y2="2127.16" xlink:href="#linear-gradient"/><linearGradient id="linear-gradient-28" x1="-3127.6" y1="2127.09" x2="-2864.51" y2="2127.09" xlink:href="#linear-gradient"/><linearGradient id="linear-gradient-29" x1="-3127.6" y1="2126.98" x2="-2864.51" y2="2126.98" xlink:href="#linear-gradient"/><linearGradient id="linear-gradient-30" x1="-3127.6" y1="2126.81" x2="-2864.51" y2="2126.81" xlink:href="#linear-gradient"/><linearGradient id="linear-gradient-31" x1="-3127.6" y1="2126.59" x2="-2864.51" y2="2126.59" xlink:href="#linear-gradient"/><linearGradient id="linear-gradient-32" x1="-3127.6" y1="2126.28" x2="-2864.51" y2="2126.28" xlink:href="#linear-gradient"/><linearGradient id="linear-gradient-33" x1="-3127.6" y1="2126" x2="-2864.51" y2="2126" xlink:href="#linear-gradient"/><linearGradient id="linear-gradient-34" x1="-3127.6" y1="2125.68" x2="-2864.51" y2="2125.68" xlink:href="#linear-gradient"/></defs><g id="Layer_2" data-name="Layer 2"><g id="Layer_1-2" data-name="Layer 1"><g class="cls-1"><path class="cls-2" d="M136.67.18V.35h25.51V.18h.58V.35h25.52V.18h.58V.35h25.52V.18H215V.35h25.5V.18h.59V.35h25.51V.18h.58V.35h25.51V.18h.58V.35h25.52V.18h.59V.35h25.51V.18h.59V.35H371V.18h.58V.35h25.51V.18h.58V.35h25.51V.18h.59V.35h25.5V.18h.59V.35H475.4V.18H476V.35H501.5V.18h.58V.35h23.45c-.31,4.51-.39,5.63-.47,6.73-.3,4.37-.38,5.44-.45,6.51C522.75,40.3,521.17,63,520,82.33c-1.14,19.11-1.85,35.08-2,48.51a256.32,256.32,0,0,0,1.42,33.74c1.17,9.38,3.1,17.1,6,23.74a55.5,55.5,0,0,0,7.35,12.23,73.57,73.57,0,0,0,11.11,11.17,154.55,154.55,0,0,0,16.37,11.61c6.76,4.25,14.75,8.84,24.24,14.06q4.13,2.27,8.66,4.71t9.76,5.23q5.25,2.8,11,5.87l12.57,6.65,3.47,1.84,3.61,1.91,3.73,2,3.88,2.05h-36.4l.23.13h-.91l-.22-.13h-39.6l.19.13h-.9l-.19-.13h-39.6l.16.13h-.93l-.15-.13H483.37l.12.13h-.92l-.13-.13H442.85l.09.13H442l-.1-.13h-39.6l.07.13h-.91l-.06-.13h-39.6l0,.13H361l0-.13H321.34v.13h-.92v-.13h-39.6l0,.13h-.9l0-.13H240.32l-.06.13h-.91l.06-.13h-39.6l-.09.13h-.92l.09-.13H159.31l-.12.13h-.92l.12-.13h-39.6l-.15.13h-.91l.15-.13H78.29l-.18.13H77.2l.18-.13H37.79l-.22.13h-.92l.21-.13H.48l3.76-2.05,3.62-2,3.49-1.91,3.37-1.84L26.9,253.2q5.63-3.07,10.7-5.87t9.46-5.23q4.41-2.44,8.39-4.71c9.2-5.22,16.94-9.81,23.5-14.06a151.17,151.17,0,0,0,15.86-11.61,72.93,72.93,0,0,0,10.77-11.17,56.19,56.19,0,0,0,7.12-12.23c2.83-6.64,4.71-14.36,5.84-23.74a262.7,262.7,0,0,0,1.37-33.74c-.14-13.43-.84-29.4-1.94-48.51-1.11-19.32-2.64-42-4.44-68.74-.29-4.31-.36-5.41-.44-6.51-.3-4.46-.37-5.59-.45-6.73h23.44V.18h.6M525.55,0H112.62c.31,4.64.39,5.78.46,6.91.3,4.48.38,5.59.45,6.68C115.33,40.3,116.86,63,118,82.33c1.1,19.11,1.8,35.08,1.94,48.51a262.7,262.7,0,0,1-1.37,33.74c-1.13,9.38-3,17.1-5.84,23.74a56.19,56.19,0,0,1-7.12,12.23,72.93,72.93,0,0,1-10.77,11.17A151.17,151.17,0,0,1,79,223.33c-6.56,4.25-14.3,8.84-23.5,14.06q-4,2.27-8.39,4.71t-9.46,5.23q-5.09,2.8-10.7,5.87l-12.18,6.65-3.48,1.9-3.61,2-3.74,2L0,267.9H641.76l-4-2.13-3.86-2-3.72-2-3.59-1.9L614,253.2q-5.81-3.07-11-5.87t-9.76-5.23q-4.55-2.44-8.66-4.71c-9.49-5.22-17.48-9.81-24.24-14.06a154.55,154.55,0,0,1-16.37-11.61,73.57,73.57,0,0,1-11.11-11.17,55.5,55.5,0,0,1-7.35-12.23c-2.93-6.64-4.86-14.36-6-23.74A256.32,256.32,0,0,1,518,130.84c.16-13.43.87-29.4,2-48.51,1.14-19.32,2.72-42,4.58-68.74.31-4.42.38-5.54.46-6.68.32-4.58.4-5.74.48-6.91"/><path class="cls-3" d="M584.72,256.13l1.52.9,1.55.93,1.57.94,1.61,1,3.07,1.84,3.19,1.91,3.31,2,3.43,2.05,0,0,.06,0,0,0,.06,0h.91l-.06,0-.06,0-.05,0-.06,0-3.44-2.05-3.31-2-3.2-1.91-3.09-1.84-1.61-1-1.58-.94-1.55-.93-1.52-.9h-.85m-18.26-11,4.08,2.46,4.32,2.59,4.57,2.74,4.85,2.9h.85l-4.87-2.9-4.58-2.74-4.34-2.59-4.09-2.46h-.79m-15.73-9.66.74.46.75.47.76.47.77.48,2.88,1.78,3,1.85,3.17,1.93,3.31,2h.78l-3.32-2L560.41,241l-3-1.85-2.89-1.78-.77-.48-.76-.47-.75-.47-.74-.46h-.74m-18-11.83q1.86,1.31,3.85,2.66t4.18,2.8q2.19,1.44,4.54,3c1.58,1,3.23,2.06,4.94,3.14H551c-1.71-1.08-3.36-2.12-5-3.14s-3.09-2-4.56-3-2.84-1.88-4.19-2.8-2.61-1.79-3.85-2.66h-.69m-12.85-10c.89.78,1.81,1.56,2.77,2.35s2,1.6,3,2.41,2.13,1.63,3.25,2.47,2.3,1.69,3.52,2.55h.68c-1.22-.86-2.39-1.71-3.53-2.55s-2.21-1.66-3.26-2.47-2-1.61-3-2.41-1.88-1.57-2.77-2.35h-.65m-9.24-9.49c.64.78,1.3,1.56,2,2.33s1.41,1.54,2.15,2.31,1.53,1.54,2.34,2.31,1.66,1.55,2.53,2.33h.64c-.88-.78-1.72-1.55-2.54-2.33s-1.59-1.54-2.34-2.31-1.47-1.54-2.16-2.31-1.35-1.55-2-2.33h-.62m-6.56-9.94c.45.85.91,1.69,1.4,2.52s1,1.65,1.52,2.45,1.09,1.61,1.67,2.4,1.18,1.59,1.81,2.36h.61c-.63-.77-1.23-1.56-1.82-2.36s-1.13-1.59-1.66-2.4-1-1.62-1.53-2.45-1-1.67-1.4-2.52h-.6m-3.94-9.46.3.9c.1.3.2.6.31.89s.21.59.32.88l.33.87c.19.49.39,1,.59,1.46s.42,1,.63,1.44.43.94.66,1.41.45.93.69,1.38h.59q-.36-.67-.69-1.38t-.66-1.41q-.33-.71-.63-1.44c-.2-.48-.4-1-.59-1.46-.12-.29-.23-.58-.34-.87s-.21-.58-.32-.88-.21-.59-.31-.89l-.3-.9h-.58m-2.25-8.5c.15.74.32,1.46.48,2.18s.35,1.41.53,2.11.37,1.37.57,2,.4,1.34.61,2h.58c-.21-.66-.42-1.32-.61-2s-.39-1.35-.57-2-.36-1.4-.53-2.11-.33-1.44-.49-2.18h-.57m-1.58-9.62c.1.83.21,1.66.33,2.47s.24,1.61.36,2.39.27,1.56.41,2.32.29,1.51.44,2.25h.57c-.15-.74-.3-1.49-.44-2.25s-.28-1.53-.41-2.32-.25-1.58-.36-2.39-.23-1.64-.33-2.47h-.57m-1-11c.05,1,.12,1.9.19,2.83s.14,1.84.22,2.74.17,1.78.26,2.64.19,1.72.29,2.56h.57c-.1-.84-.2-1.69-.29-2.56s-.18-1.75-.26-2.64-.16-1.81-.23-2.74-.13-1.87-.19-2.83h-.56m-.48-12.61c0,1.1.05,2.19.07,3.25s.07,2.11.1,3.14.08,2,.13,3,.1,2,.16,2.94h.56c0-1-.11-1.94-.15-2.94s-.1-2-.13-3-.07-2.08-.1-3.14,0-2.15-.07-3.25h-.57m0-14.47c0,1.27,0,2.51,0,3.73s0,2.42,0,3.6,0,2.35,0,3.49,0,2.26,0,3.37h.56c0-1.11,0-2.23,0-3.37s0-2.31,0-3.49,0-2.38,0-3.6,0-2.46,0-3.73h-.56m.41-16.59c-.05,1.45-.09,2.87-.13,4.27s-.08,2.78-.12,4.13-.06,2.69-.09,4-.05,2.6-.07,3.86h.57c0-1.26,0-2.55.06-3.86s.06-2.64.1-4,.07-2.73.11-4.13.09-2.82.14-4.27h-.57m.8-19c-.08,1.66-.16,3.29-.23,4.89s-.14,3.18-.2,4.74-.13,3.07-.19,4.57-.11,3-.16,4.43h.56c.05-1.45.11-2.93.17-4.43s.12-3,.18-4.57.14-3.13.21-4.74.15-3.23.23-4.89h-.57m1.14-21.72c-.11,1.89-.21,3.75-.31,5.58s-.2,3.63-.29,5.41-.18,3.52-.27,5.23-.17,3.41-.25,5.07h.57c.08-1.66.16-3.35.25-5.07s.18-3.46.27-5.23.19-3.58.29-5.41.2-3.69.31-5.58h-.57m1.44-24.74c-.13,2.15-.26,4.26-.38,6.35s-.24,4.13-.36,6.15-.24,4-.35,6-.22,3.88-.33,5.78h.57q.17-2.85.33-5.78c.12-2,.23-4,.35-6s.24-4.07.36-6.15.26-4.2.38-6.35h-.57m1.71-28.1c-.15,2.43-.29,4.83-.44,7.2s-.29,4.69-.43,7-.27,4.54-.41,6.77-.27,4.41-.4,6.57h.58q.2-3.24.4-6.57c.13-2.23.27-4.48.41-6.77s.29-4.63.43-7,.29-4.77.44-7.2h-.58M501.51.18V.35q-.11,1.71-.21,3.39l-.21,3.34c-.07,1.1-.13,2.2-.2,3.28s-.13,2.16-.2,3.23l-.06,1.05c0,.35-.05.7-.07,1l-.06,1c0,.34,0,.69-.07,1H501c0-.34.05-.69.07-1l.06-1c0-.35.05-.7.07-1l.06-1.05c.07-1.07.13-2.14.2-3.23s.14-2.18.2-3.28.14-2.22.21-3.34.14-2.25.21-3.39V.18h-.58"/><path class="cls-4" d="M546.93,256.13l1.3.9,1.33.93,1.35.94,1.38,1,2.64,1.84,2.74,1.91,2.85,2,3,2.05,0,0,0,0,.05,0,0,0h.9l0,0,0,0-.05,0,0,0-3-2.05-2.85-2-2.75-1.91-2.65-1.84-1.39-1-1.35-.94-1.34-.93-1.31-.9h-.84m-15.7-11,3.51,2.46,3.71,2.59,3.93,2.74,4.17,2.9h.84l-4.18-2.9-4-2.74-3.72-2.59L532,245.17h-.79m-13.52-9.66.64.46.64.47.65.47.66.48,2.48,1.78,2.59,1.85,2.72,1.93,2.85,2h.78l-2.85-2c-.93-.65-1.84-1.29-2.73-1.93l-2.6-1.85c-.85-.6-1.68-1.19-2.49-1.78l-.66-.48-.66-.47-.64-.47-.64-.46h-.74m-15.43-11.83c1.06.87,2.16,1.76,3.3,2.66s2.35,1.85,3.59,2.8l3.9,3,4.25,3.14h.74c-1.47-1.08-2.89-2.12-4.26-3.14s-2.66-2-3.92-3-2.44-1.88-3.6-2.8-2.25-1.79-3.32-2.66h-.68m-11-10c.76.78,1.55,1.56,2.37,2.35s1.69,1.6,2.58,2.41,1.82,1.63,2.78,2.47,2,1.69,3,2.55h.68q-1.57-1.29-3-2.55c-1-.84-1.9-1.66-2.8-2.47s-1.76-1.61-2.59-2.41-1.62-1.57-2.38-2.35h-.64m-7.94-9.49c.54.78,1.11,1.56,1.7,2.33s1.21,1.54,1.85,2.31,1.31,1.54,2,2.31,1.42,1.55,2.18,2.33h.64c-.76-.78-1.49-1.55-2.19-2.33s-1.37-1.54-2-2.31-1.26-1.54-1.86-2.31-1.16-1.55-1.71-2.33h-.61m-5.64-9.94q.57,1.27,1.2,2.52c.41.83.85,1.65,1.31,2.45s.93,1.61,1.43,2.4,1,1.59,1.55,2.36h.62c-.55-.77-1.07-1.56-1.57-2.36s-1-1.59-1.43-2.4-.9-1.62-1.32-2.45-.82-1.67-1.2-2.52h-.59m-3.4-9.46c.09.3.18.6.26.9l.27.89c.09.3.18.59.28.88s.19.58.28.87l.51,1.46c.18.49.35,1,.54,1.44s.37.94.56,1.41.39.93.6,1.38h.59c-.21-.45-.4-.91-.6-1.38l-.57-1.41c-.18-.47-.36-.95-.53-1.44s-.35-1-.51-1.46c-.1-.29-.2-.58-.29-.87s-.19-.58-.28-.88l-.27-.89c-.08-.3-.17-.6-.26-.9h-.58m-1.93-8.5c.14.74.27,1.46.42,2.18s.29,1.41.45,2.11.32,1.37.49,2,.34,1.34.53,2h.58c-.19-.66-.36-1.32-.53-2s-.34-1.35-.49-2-.31-1.4-.46-2.11-.28-1.44-.41-2.18h-.58M471,166.66c.09.83.19,1.66.29,2.47s.2,1.61.31,2.39.23,1.56.35,2.32.25,1.51.38,2.25h.57c-.13-.74-.26-1.49-.38-2.25s-.24-1.53-.35-2.32-.21-1.58-.31-2.39-.2-1.64-.29-2.47H471m-.85-11c.05,1,.11,1.9.17,2.83s.12,1.84.19,2.74.14,1.78.22,2.64.16,1.72.25,2.56h.57c-.09-.84-.17-1.69-.25-2.56s-.16-1.75-.22-2.64-.14-1.81-.2-2.74-.11-1.87-.16-2.83h-.57m-.4-12.61c0,1.1,0,2.19.06,3.25s.05,2.11.08,3.14.07,2,.11,3,.09,2,.14,2.94h.56c-.05-1-.09-1.94-.13-2.94s-.08-2-.12-3-.06-2.08-.08-3.14,0-2.15-.06-3.25h-.56m0-14.47c0,1.27,0,2.51,0,3.73s0,2.42,0,3.6,0,2.35,0,3.49,0,2.26,0,3.37h.56c0-1.11,0-2.23,0-3.37s0-2.31,0-3.49,0-2.38,0-3.6,0-2.46,0-3.73h-.56m.36-16.59c0,1.45-.08,2.87-.12,4.27s-.07,2.78-.1,4.13-.05,2.69-.08,4,0,2.6,0,3.86h.56c0-1.26,0-2.55.06-3.86s0-2.64.07-4,.07-2.73.1-4.13.08-2.82.12-4.27h-.56m.68-19c-.07,1.66-.13,3.29-.19,4.89s-.13,3.18-.18,4.74-.11,3.07-.16,4.57-.1,3-.14,4.43h.56c.05-1.45.09-2.93.14-4.43s.11-3,.16-4.57.12-3.13.18-4.74.13-3.23.2-4.89h-.57m1-21.72q-.14,2.84-.27,5.58c-.08,1.83-.16,3.63-.24,5.41s-.16,3.52-.24,5.23-.14,3.41-.21,5.07h.57q.11-2.49.21-5.07c.08-1.71.15-3.46.23-5.23s.17-3.58.25-5.41.18-3.69.27-5.58h-.57M473,46.51c-.11,2.15-.22,4.26-.33,6.35s-.21,4.13-.31,6.15-.2,4-.3,6-.19,3.88-.28,5.78h.57q.14-2.85.29-5.78t.29-6c.11-2,.21-4.07.32-6.15s.21-4.2.32-6.35H473m1.47-28.1c-.13,2.43-.25,4.83-.38,7.2s-.24,4.69-.37,7-.23,4.54-.35,6.77-.23,4.41-.34,6.57h.57c.12-2.16.23-4.35.35-6.57s.23-4.48.35-6.77.25-4.63.37-7,.25-4.77.38-7.2h-.58m1-18.23V.35l-.18,3.39c-.06,1.12-.12,2.24-.18,3.34s-.11,2.2-.17,3.28-.12,2.16-.17,3.23l-.06,1.05c0,.35,0,.7-.05,1l-.06,1c0,.34,0,.69,0,1h.58c0-.34,0-.69.05-1l.06-1c0-.35,0-.7.05-1l.06-1.05c.06-1.07.11-2.14.17-3.23s.12-2.18.17-3.28.12-2.22.18-3.34.12-2.25.18-3.39V.18h-.58"/><path class="cls-5" d="M509.11,256.13l1.1.9,1.11.93,1.13.94,1.15,1,2.21,1.84,2.29,1.91,2.38,2,2.47,2.05,0,0,0,0,0,0,0,0H524l0,0,0,0,0,0,0,0-2.48-2.05-2.39-2c-.77-.65-1.54-1.28-2.3-1.91l-2.22-1.84-1.16-1-1.13-.94-1.12-.93-1.1-.9h-.86m-13.12-11,2.93,2.46,3.1,2.59,3.29,2.74,3.49,2.9h.86l-3.51-2.9-3.3-2.74-3.11-2.59-2.95-2.46H496m-11.31-9.66.53.46.54.47.54.47.56.48c.67.59,1.36,1.18,2.07,1.78s1.43,1.23,2.17,1.85,1.5,1.28,2.27,1.93l2.38,2h.8l-2.39-2c-.78-.65-1.54-1.29-2.28-1.93l-2.18-1.85-2.08-1.78-.56-.48-.55-.47L486,236l-.53-.46h-.75m-12.91-11.83c.89.87,1.81,1.76,2.77,2.66s2,1.85,3,2.8,2.13,1.94,3.26,3,2.33,2.06,3.55,3.14h.75c-1.23-1.08-2.42-2.12-3.56-3.14s-2.23-2-3.28-3-2.05-1.88-3-2.8-1.88-1.79-2.77-2.66h-.7m-9.23-10c.63.78,1.3,1.56,2,2.35s1.41,1.6,2.16,2.41,1.52,1.63,2.33,2.47,1.65,1.69,2.53,2.55h.69c-.88-.86-1.72-1.71-2.54-2.55s-1.59-1.66-2.34-2.47-1.47-1.61-2.17-2.41-1.35-1.57-2-2.35h-.65m-6.65-9.49c.46.78.94,1.56,1.43,2.33s1,1.54,1.55,2.31,1.1,1.54,1.68,2.31,1.19,1.55,1.82,2.33H463c-.63-.78-1.24-1.55-1.83-2.33s-1.14-1.54-1.69-2.31-1.05-1.54-1.55-2.31-1-1.55-1.43-2.33h-.63m-4.71-9.94c.32.85.65,1.69,1,2.52s.72,1.65,1.1,2.45.78,1.61,1.19,2.4.85,1.59,1.31,2.36h.62c-.45-.77-.89-1.56-1.31-2.36s-.82-1.59-1.2-2.4-.75-1.62-1.1-2.45-.69-1.67-1-2.52h-.6m-2.84-9.46c.07.3.14.6.22.9s.15.6.22.89.15.59.23.88l.24.87c.14.49.28,1,.43,1.46s.29,1,.44,1.44l.48,1.41c.16.47.32.93.49,1.38h.61c-.17-.45-.34-.91-.5-1.38l-.48-1.41q-.23-.71-.45-1.44c-.14-.48-.29-1-.43-1.46-.08-.29-.16-.58-.23-.87l-.24-.88c-.07-.29-.15-.59-.22-.89s-.15-.6-.22-.9h-.59m-1.61-8.5c.11.74.22,1.46.34,2.18s.25,1.41.38,2.11.27,1.37.41,2,.29,1.34.44,2h.59c-.15-.66-.3-1.32-.44-2s-.28-1.35-.41-2-.26-1.4-.38-2.11-.24-1.44-.35-2.18h-.58m-1.14-9.62c.07.83.15,1.66.24,2.47s.17,1.61.26,2.39.19,1.56.29,2.32.21,1.51.32,2.25h.58c-.11-.74-.22-1.49-.32-2.25s-.2-1.53-.29-2.32-.18-1.58-.26-2.39-.17-1.64-.24-2.47h-.58m-.71-11c0,1,.08,1.9.13,2.83s.11,1.84.17,2.74.11,1.78.18,2.64.14,1.72.21,2.56h.58c-.08-.84-.15-1.69-.21-2.56s-.13-1.75-.19-2.64-.11-1.81-.16-2.74-.1-1.87-.14-2.83h-.57m-.34-12.61c0,1.1,0,2.19,0,3.25s0,2.11.07,3.14.06,2,.09,3,.07,2,.11,2.94h.58c0-1-.08-1.94-.12-2.94s-.06-2-.09-3-.05-2.08-.07-3.14,0-2.15-.05-3.25h-.57m0-14.47c0,1.27,0,2.51,0,3.73v3.6c0,1.18,0,2.35,0,3.49s0,2.26,0,3.37h.58c0-1.11,0-2.23,0-3.37s0-2.31,0-3.49,0-2.38,0-3.6,0-2.46,0-3.73h-.58m.3-16.59c0,1.45-.07,2.87-.1,4.27s-.06,2.78-.08,4.13,0,2.69-.07,4,0,2.6,0,3.86h.57c0-1.26,0-2.55.05-3.86s0-2.64.06-4,.06-2.73.09-4.13.06-2.82.1-4.27h-.58m.57-19c0,1.66-.11,3.29-.16,4.89s-.1,3.18-.15,4.74-.09,3.07-.13,4.57-.08,3-.12,4.43h.58c0-1.45.07-2.93.11-4.43s.09-3,.14-4.57.09-3.13.15-4.74.1-3.23.16-4.89h-.58m.82-21.72c-.08,1.89-.15,3.75-.22,5.58s-.14,3.63-.21,5.41-.13,3.52-.19,5.23-.12,3.41-.18,5.07H446q.08-2.49.18-5.07c.06-1.71.12-3.46.19-5.23s.14-3.58.21-5.41.14-3.69.22-5.58h-.58m1-24.74c-.1,2.15-.19,4.26-.28,6.35s-.17,4.13-.26,6.15-.16,4-.24,6-.16,3.88-.24,5.78h.58q.12-2.85.24-5.78t.25-6q.12-3,.26-6.15c.09-2.09.18-4.2.27-6.35h-.58m1.23-28.1c-.11,2.43-.21,4.83-.32,7.2s-.2,4.69-.31,7-.2,4.54-.29,6.77-.19,4.41-.29,6.57h.59c.09-2.16.19-4.35.28-6.57s.2-4.48.3-6.77.21-4.63.31-7,.21-4.77.32-7.2h-.59M449.3.18V.35q-.07,1.71-.15,3.39C449.09,4.86,449,6,449,7.08s-.1,2.2-.14,3.28-.1,2.16-.15,3.23c0,.35,0,.7,0,1.05s0,.7-.05,1,0,.69-.05,1,0,.69,0,1h.59c0-.34,0-.69.05-1s0-.7,0-1,0-.7.05-1,0-.7.05-1.05c0-1.07.09-2.14.14-3.23s.1-2.18.14-3.28.1-2.22.15-3.34l.15-3.39V.18h-.59"/><path class="cls-6" d="M471.32,256.13l.87.9.9.93.91.94.92,1,1.78,1.84,1.85,1.91,1.91,2,2,2.05,0,0,0,0,0,0,0,0h.92l0,0,0,0,0,0,0,0-2-2.05-1.92-2-1.86-1.91c-.6-.62-1.2-1.23-1.78-1.84l-.94-1c-.3-.32-.61-.63-.91-.94l-.9-.93-.88-.9h-.86m-10.56-11,2.36,2.46,2.49,2.59c.86.9,1.75,1.81,2.65,2.74l2.8,2.9h.86L469.1,253l-2.66-2.74-2.51-2.59-2.37-2.46h-.8m-9.1-9.66c.14.15.28.31.43.46l.43.47.44.47.44.48,1.67,1.78,1.74,1.85,1.83,1.93,1.92,2h.8l-1.93-2L457.59,241l-1.75-1.85c-.57-.6-1.13-1.19-1.67-1.78l-.45-.48c-.15-.16-.3-.31-.44-.47l-.44-.47-.43-.46h-.75m-10.38-11.83c.71.87,1.45,1.76,2.22,2.66s1.58,1.85,2.42,2.8,1.71,1.94,2.62,3l2.86,3.14h.75l-2.88-3.14c-.91-1-1.79-2-2.63-3s-1.65-1.88-2.43-2.8-1.52-1.79-2.24-2.66h-.69m-7.43-10c.51.78,1,1.56,1.6,2.35s1.13,1.6,1.73,2.41,1.23,1.63,1.87,2.47,1.34,1.69,2,2.55h.69c-.7-.86-1.39-1.71-2-2.55s-1.28-1.66-1.89-2.47-1.18-1.61-1.74-2.41-1.09-1.57-1.61-2.35h-.65m-5.35-9.49c.37.78.75,1.56,1.15,2.33s.82,1.54,1.25,2.31.88,1.54,1.35,2.31,1,1.55,1.46,2.33h.65c-.5-.78-1-1.55-1.47-2.33s-.92-1.54-1.36-2.31-.85-1.54-1.25-2.31-.78-1.55-1.15-2.33h-.63m-3.79-9.94q.39,1.27.81,2.52c.28.83.57,1.65.88,2.45s.63,1.61,1,2.4.69,1.59,1.05,2.36H429c-.36-.77-.71-1.56-1-2.36s-.66-1.59-1-2.4-.6-1.62-.89-2.45-.55-1.67-.81-2.52h-.6m-2.28-9.46c.06.3.11.6.17.9l.18.89c.06.3.13.59.19.88s.13.58.19.87c.11.49.23,1,.34,1.46s.24,1,.36,1.44.25.94.38,1.41.27.93.4,1.38h.61c-.14-.45-.28-.91-.41-1.38s-.25-.94-.38-1.41-.24-.95-.36-1.44-.23-1-.35-1.46c-.06-.29-.12-.58-.19-.87s-.12-.58-.19-.88l-.18-.89c-.06-.3-.11-.6-.17-.9h-.59m-1.3-8.5c.09.74.18,1.46.28,2.18l.3,2.11.33,2c.12.68.23,1.34.36,2H423c-.13-.66-.25-1.32-.36-2s-.22-1.35-.33-2-.21-1.4-.31-2.11-.19-1.44-.28-2.18h-.58m-.91-9.62c.06.83.12,1.66.19,2.47s.13,1.61.21,2.39.15,1.56.23,2.32.17,1.51.26,2.25h.58c-.09-.74-.18-1.49-.26-2.25s-.16-1.53-.23-2.32-.15-1.58-.22-2.39-.13-1.64-.19-2.47h-.57m-.58-11c0,1,.07,1.9.11,2.83s.09,1.84.13,2.74.1,1.78.15,2.64.11,1.72.17,2.56h.58c-.06-.84-.12-1.69-.17-2.56s-.11-1.75-.15-2.64-.09-1.81-.13-2.74-.08-1.87-.11-2.83h-.58m-.27-12.61c0,1.1,0,2.19,0,3.25s0,2.11.06,3.14,0,2,.07,3,.06,2,.09,2.94h.58c0-1-.07-1.94-.1-2.94s-.05-2-.07-3,0-2.08-.06-3.14,0-2.15,0-3.25h-.57m0-14.47c0,1.27,0,2.51,0,3.73s0,2.42,0,3.6,0,2.35,0,3.49,0,2.26,0,3.37h.57c0-1.11,0-2.23,0-3.37s0-2.31,0-3.49,0-2.38,0-3.6,0-2.46,0-3.73h-.57m.24-16.59c0,1.45-.06,2.87-.08,4.27s0,2.78-.07,4.13,0,2.69,0,4,0,2.6,0,3.86h.57c0-1.26,0-2.55,0-3.86s0-2.64,0-4,.05-2.73.07-4.13,0-2.82.08-4.27h-.57m.46-19c-.05,1.66-.09,3.29-.14,4.89s-.08,3.18-.12,4.74-.07,3.07-.1,4.57-.07,3-.1,4.43h.58c0-1.45.06-2.93.09-4.43s.07-3,.11-4.57.08-3.13.12-4.74.09-3.23.13-4.89h-.57m.65-21.72q-.09,2.84-.18,5.58c-.05,1.83-.11,3.63-.16,5.41s-.11,3.52-.16,5.23-.1,3.41-.14,5.07h.57q.08-2.49.15-5.07c.05-1.71.1-3.46.16-5.23s.11-3.58.16-5.41.12-3.69.18-5.58h-.58m.84-24.74c-.08,2.15-.15,4.26-.22,6.35S421.2,57,421.13,59s-.14,4-.2,6-.13,3.88-.19,5.78h.58c.06-1.9.12-3.83.19-5.78s.13-4,.2-6,.14-4.07.21-6.15.15-4.2.22-6.35h-.58m1-28.1c-.09,2.43-.17,4.83-.26,7.2s-.16,4.69-.24,7-.17,4.54-.24,6.77-.16,4.41-.23,6.57h.58c.08-2.16.15-4.35.23-6.57s.16-4.48.24-6.77.17-4.63.25-7,.17-4.77.26-7.2h-.59M423.2.18V.35q-.06,1.71-.12,3.39C423,4.86,423,6,423,7.08s-.08,2.2-.11,3.28-.08,2.16-.12,3.23c0,.35,0,.7,0,1.05l0,1c0,.34,0,.69,0,1s0,.69,0,1h.59c0-.34,0-.69,0-1s0-.7,0-1l0-1c0-.35,0-.7,0-1.05,0-1.07.08-2.14.12-3.23s.08-2.18.11-3.28.08-2.22.12-3.34.08-2.25.13-3.39V.18h-.59"/><path class="cls-7" d="M433.52,256.13l.66.9.68.93.69.94.7,1c.44.61.89,1.22,1.35,1.84L439,263.6l1.45,2,1.5,2.05,0,0,0,0,0,0,0,0h.9l0,0,0,0,0,0,0,0c-.52-.69-1-1.38-1.52-2.05l-1.45-2-1.41-1.91-1.36-1.84-.7-1c-.23-.32-.47-.63-.7-.94L435,257l-.67-.9h-.84m-8-11,1.78,2.46,1.89,2.59,2,2.74c.69.95,1.4,1.91,2.13,2.9h.84L432,253c-.69-.93-1.36-1.84-2-2.74l-1.91-2.59-1.8-2.46h-.78m-6.89-9.66.32.46.33.47.33.47.34.48c.41.59.83,1.18,1.26,1.78s.87,1.23,1.32,1.85l1.39,1.93c.47.66.95,1.33,1.45,2h.78l-1.46-2c-.47-.65-.94-1.29-1.39-1.93s-.9-1.24-1.33-1.85-.86-1.19-1.27-1.78l-.34-.48-.34-.47-.33-.47-.32-.46h-.74m-7.86-11.83c.54.87,1.1,1.76,1.69,2.66s1.19,1.85,1.82,2.8,1.3,1.94,2,3l2.16,3.14h.74c-.75-1.08-1.48-2.12-2.18-3.14s-1.36-2-2-3-1.25-1.88-1.84-2.8-1.15-1.79-1.7-2.66h-.68m-5.62-10c.39.78.79,1.56,1.21,2.35s.86,1.6,1.31,2.41.93,1.63,1.42,2.47,1,1.69,1.54,2.55h.68c-.53-.86-1.05-1.71-1.55-2.55s-1-1.66-1.43-2.47-.9-1.61-1.32-2.41-.83-1.57-1.22-2.35h-.64m-4.05-9.49c.28.78.57,1.56.87,2.33s.62,1.54.95,2.31.66,1.54,1,2.31.72,1.55,1.11,2.33h.64c-.39-.78-.76-1.55-1.12-2.33s-.7-1.54-1-2.31-.64-1.54-.95-2.31-.59-1.55-.87-2.33h-.62m-2.87-9.94c.2.85.4,1.69.61,2.52s.44,1.65.67,2.45.48,1.61.73,2.4.52,1.59.79,2.36h.61c-.27-.77-.54-1.56-.79-2.36s-.5-1.59-.74-2.4-.46-1.62-.67-2.45-.42-1.67-.61-2.52h-.6m-1.72-9.46c0,.3.08.6.13.9s.09.6.13.89.1.59.14.88l.15.87c.08.49.17,1,.26,1.46s.18,1,.27,1.44.19.94.29,1.41.2.93.3,1.38h.59q-.15-.67-.3-1.38c-.1-.47-.2-.94-.29-1.41s-.19-.95-.28-1.44-.17-1-.26-1.46c0-.29-.09-.58-.14-.87s-.1-.58-.14-.88-.1-.59-.14-.89-.09-.6-.13-.9h-.58m-1-8.5c.07.74.14,1.46.21,2.18s.16,1.41.23,2.11.17,1.37.25,2,.18,1.34.27,2h.58c-.09-.66-.18-1.32-.27-2s-.17-1.35-.25-2-.16-1.4-.23-2.11-.15-1.44-.22-2.18h-.57m-.69-9.62c.05.83.09,1.66.15,2.47s.1,1.61.16,2.39.11,1.56.17,2.32.13,1.51.2,2.25h.57c-.07-.74-.14-1.49-.2-2.25s-.12-1.53-.18-2.32-.11-1.58-.16-2.39-.1-1.64-.14-2.47h-.57m-.43-11c0,1,0,1.9.08,2.83s.06,1.84.1,2.74.07,1.78.11,2.64.08,1.72.13,2.56h.57c0-.84-.09-1.69-.13-2.56s-.08-1.75-.12-2.64-.06-1.81-.09-2.74-.06-1.87-.09-2.83h-.56m-.21-12.61c0,1.1,0,2.19,0,3.25s0,2.11,0,3.14,0,2,.06,3,0,2,.07,2.94H395c0-1,0-1.94-.07-2.94s0-2-.05-3,0-2.08,0-3.14,0-2.15,0-3.25h-.56m0-14.47c0,1.27,0,2.51,0,3.73s0,2.42,0,3.6,0,2.35,0,3.49,0,2.26,0,3.37h.56c0-1.11,0-2.23,0-3.37v-7.09c0-1.22,0-2.46,0-3.73h-.56m.18-16.59c0,1.45,0,2.87-.06,4.27s0,2.78-.05,4.13,0,2.69,0,4,0,2.6,0,3.86h.56c0-1.26,0-2.55,0-3.86s0-2.64,0-4,0-2.73.05-4.13,0-2.82.06-4.27h-.56m.35-19c0,1.66-.07,3.29-.1,4.89s-.06,3.18-.09,4.74-.06,3.07-.08,4.57,0,3-.07,4.43H395c0-1.45.05-2.93.07-4.43s.05-3,.08-4.57.06-3.13.09-4.74.07-3.23.1-4.89h-.56m.5-21.72c-.05,1.89-.1,3.75-.14,5.58s-.09,3.63-.13,5.41-.08,3.52-.11,5.23-.08,3.41-.11,5.07h.56c0-1.66.07-3.35.11-5.07s.08-3.46.12-5.23.09-3.58.13-5.41.09-3.69.14-5.58h-.57m.63-24.74c-.06,2.15-.12,4.26-.17,6.35s-.11,4.13-.16,6.15-.1,4-.15,6-.1,3.88-.14,5.78h.57c0-1.9.09-3.83.14-5.78s.1-4,.15-6,.11-4.07.16-6.15.11-4.2.17-6.35h-.57m.75-28.1c-.07,2.43-.13,4.83-.2,7.2s-.12,4.69-.18,7-.13,4.54-.18,6.77-.12,4.41-.18,6.57h.58q.07-3.24.17-6.57c.06-2.23.12-4.48.18-6.77s.13-4.63.19-7,.13-4.77.2-7.2h-.58M397.1.18V.35q0,1.71-.09,3.39c0,1.12-.06,2.24-.09,3.34s-.06,2.2-.09,3.28-.05,2.16-.08,3.23l0,1.05,0,1,0,1,0,1h.58l0-1,0-1,0-1,0-1.05c0-1.07.06-2.14.09-3.23s0-2.18.08-3.28.06-2.22.09-3.34.07-2.25.1-3.39V.18h-.58"/><path class="cls-8" d="M395.72,256.13l.45.9.46.93c.16.31.31.62.47.94s.31.63.47,1l.92,1.84.95,1.91,1,2c.33.67.67,1.36,1,2.05v0l0,0,0,0v0h.91l0,0v0l0,0,0,0c-.34-.69-.69-1.38-1-2.05l-1-2c-.32-.65-.64-1.28-1-1.91l-.92-1.84-.48-1-.47-.94L397,257l-.45-.9h-.85m-5.42-11c.39.8.79,1.62,1.21,2.46s.84,1.71,1.28,2.59.9,1.81,1.36,2.74l1.44,2.9h.84c-.49-1-1-2-1.45-2.9s-.93-1.84-1.37-2.74-.88-1.74-1.3-2.59l-1.23-2.46h-.78m-4.68-9.66.22.46c.07.16.15.31.22.47l.23.47c.07.16.15.32.23.48l.85,1.78.9,1.85.94,1.93,1,2H391q-.51-1-1-2c-.33-.65-.64-1.29-.95-1.93s-.61-1.24-.91-1.85-.58-1.19-.86-1.78l-.24-.48c-.07-.16-.15-.31-.22-.47l-.23-.47-.22-.46h-.74m-5.33-11.83c.36.87.75,1.76,1.14,2.66s.81,1.85,1.24,2.8.88,1.94,1.35,3,1,2.06,1.47,3.14h.73l-1.48-3.14-1.36-3c-.44-.95-.85-1.88-1.26-2.8s-.78-1.79-1.15-2.66h-.68m-3.82-10c.26.78.54,1.56.82,2.35s.58,1.6.89,2.41.63,1.63,1,2.47.69,1.69,1.05,2.55h.68c-.36-.86-.72-1.71-1.05-2.55s-.67-1.66-1-2.47-.61-1.61-.9-2.41-.56-1.57-.83-2.35h-.64m-2.75-9.49c.19.78.39,1.56.59,2.33s.42,1.54.64,2.31.46,1.54.7,2.31.49,1.55.75,2.33H377c-.26-.78-.51-1.55-.76-2.33s-.47-1.54-.7-2.31-.44-1.54-.65-2.31-.4-1.55-.59-2.33h-.62m-1.94-9.94c.13.85.27,1.69.41,2.52s.3,1.65.45,2.45.33,1.61.5,2.4.35,1.59.54,2.36h.61c-.19-.77-.37-1.56-.55-2.36s-.34-1.59-.5-2.4-.31-1.62-.45-2.45-.29-1.67-.42-2.52h-.59m-1.18-9.46.09.9c0,.3.06.6.1.89l.09.88c0,.29.07.58.1.87.06.49.11,1,.18,1.46s.12,1,.18,1.44.13.94.2,1.41.13.93.2,1.38h.59c-.07-.45-.14-.91-.2-1.38s-.14-.94-.2-1.41-.13-.95-.19-1.44l-.18-1.46c0-.29-.06-.58-.1-.87l-.09-.88c0-.29-.07-.59-.1-.89l-.09-.9h-.58m-.66-8.5c0,.74.09,1.46.14,2.18s.1,1.41.16,2.11.11,1.37.16,2,.12,1.34.19,2h.58c-.07-.66-.13-1.32-.19-2s-.11-1.35-.17-2-.11-1.4-.16-2.11-.1-1.44-.14-2.18h-.57m-.47-9.62c0,.83.06,1.66.09,2.47s.07,1.61.11,2.39.08,1.56.12,2.32.09,1.51.13,2.25h.58c-.05-.74-.09-1.49-.14-2.25s-.08-1.53-.12-2.32-.07-1.58-.11-2.39-.06-1.64-.1-2.47h-.56m-.3-11c0,1,0,1.9.06,2.83s0,1.84.06,2.74,0,1.78.08,2.64.06,1.72.09,2.56H370c0-.84-.06-1.69-.09-2.56s-.06-1.75-.08-2.64-.05-1.81-.07-2.74,0-1.87-.05-2.83h-.57M369,143.05c0,1.1,0,2.19,0,3.25s0,2.11,0,3.14,0,2,0,3,0,2,.05,2.94h.56c0-1,0-1.94-.05-2.94s0-2,0-3,0-2.08,0-3.14,0-2.15,0-3.25H369m0-14.47c0,1.27,0,2.51,0,3.73s0,2.42,0,3.6,0,2.35,0,3.49,0,2.26,0,3.37h.56c0-1.11,0-2.23,0-3.37v-7.09c0-1.22,0-2.46,0-3.73H369m.12-16.59c0,1.45,0,2.87,0,4.27s0,2.78,0,4.13,0,2.69,0,4,0,2.6,0,3.86h.56c0-1.26,0-2.55,0-3.86s0-2.64,0-4,0-2.73,0-4.13,0-2.82,0-4.27h-.57m.24-19c0,1.66-.05,3.29-.07,4.89s0,3.18-.06,4.74,0,3.07-.05,4.57,0,3,0,4.43h.56c0-1.45,0-2.93,0-4.43s0-3,.06-4.57,0-3.13.06-4.74,0-3.23.07-4.89h-.57m.34-21.72c0,1.89-.07,3.75-.09,5.58s-.06,3.63-.09,5.41-.05,3.52-.08,5.23-.05,3.41-.07,5.07H370c0-1.66.05-3.35.08-5.07s0-3.46.08-5.23.05-3.58.08-5.41.07-3.69.1-5.58h-.57m.43-24.74c0,2.15-.08,4.26-.12,6.35S370,57,369.93,59s-.06,4-.1,6-.06,3.88-.1,5.78h.58c0-1.9.06-3.83.09-5.78s.07-4,.11-6,.07-4.07.11-6.15.07-4.2.11-6.35h-.57m.5-28.1q-.06,3.64-.13,7.2t-.12,7c-.05,2.29-.09,4.54-.13,6.77s-.08,4.41-.11,6.57h.57q.06-3.24.12-6.57c0-2.23.08-4.48.12-6.77s.09-4.63.13-7,.09-4.77.14-7.2h-.59M371,.18V.35c0,1.14-.05,2.27-.07,3.39s0,2.24-.06,3.34,0,2.2-.06,3.28,0,2.16-.06,3.23c0,.35,0,.7,0,1.05s0,.7,0,1v1c0,.34,0,.69,0,1h.58c0-.34,0-.69,0-1s0-.7,0-1v-1c0-.35,0-.7,0-1.05,0-1.07,0-2.14.06-3.23s0-2.18.06-3.28.05-2.22.07-3.34,0-2.25.06-3.39V.18H371"/><path class="cls-9" d="M357.91,256.13l.24.9.24.93.24.94c.09.31.17.63.25,1,.16.61.32,1.22.49,1.84s.33,1.26.49,1.91.35,1.31.52,2,.36,1.36.54,2.05v.13h.93v-.13c-.18-.69-.37-1.38-.55-2.05s-.35-1.33-.52-2-.35-1.28-.51-1.91-.33-1.23-.49-1.84c-.09-.32-.18-.64-.26-1l-.25-.94c-.08-.31-.17-.62-.25-.93l-.24-.9h-.86m-2.86-11,.64,2.46.67,2.59c.24.9.48,1.81.72,2.74l.76,2.9h.86c-.27-1-.52-2-.78-2.9s-.49-1.84-.73-2.74-.46-1.74-.69-2.59-.43-1.66-.65-2.46h-.8m-2.46-9.66.12.46c0,.16.07.31.11.47l.12.47.12.48.45,1.78c.16.61.31,1.23.47,1.85s.33,1.28.5,1.93.34,1.33.52,2h.8c-.18-.68-.36-1.35-.53-2l-.51-1.93-.48-1.85c-.15-.6-.31-1.19-.46-1.78l-.12-.48-.12-.47-.12-.47-.12-.46h-.75m-2.81-11.83c.19.87.39,1.76.6,2.66s.43,1.85.66,2.8.46,1.94.71,3,.5,2.06.77,3.14h.75c-.27-1.08-.54-2.12-.79-3.14s-.49-2-.72-3-.46-1.88-.67-2.8-.42-1.79-.62-2.66h-.69m-2-10c.14.78.28,1.56.43,2.35s.31,1.6.47,2.41.33,1.63.51,2.47.36,1.69.55,2.55h.69c-.19-.86-.38-1.71-.56-2.55s-.35-1.66-.52-2.47l-.48-2.41c-.15-.79-.29-1.57-.44-2.35h-.65m-1.45-9.49c.1.78.21,1.56.31,2.33s.23,1.54.34,2.31.24,1.54.37,2.31.26,1.55.39,2.33h.66c-.14-.78-.28-1.55-.41-2.33s-.25-1.54-.37-2.31-.23-1.54-.35-2.31-.21-1.55-.31-2.33h-.63m-1-9.94c.07.85.14,1.69.22,2.52s.15,1.65.23,2.45.17,1.61.27,2.4.18,1.59.28,2.36h.62c-.1-.77-.19-1.56-.29-2.36s-.18-1.59-.26-2.4-.17-1.62-.25-2.45-.15-1.67-.22-2.52h-.6m-.62-9.46c0,.3,0,.6.05.9s0,.6,0,.89,0,.59.05.88,0,.58.05.87l.09,1.46c0,.49.07,1,.1,1.44s.07.94.1,1.41.07.93.11,1.38h.6c0-.45-.07-.91-.11-1.38s-.07-.94-.1-1.41-.07-.95-.1-1.44-.07-1-.1-1.46c0-.29,0-.58-.05-.87s0-.58-.05-.88,0-.59-.05-.89,0-.6-.05-.9h-.59m-.35-8.5c0,.74.05,1.46.07,2.18l.09,2.11q0,1,.09,2c0,.68.06,1.34.09,2h.59c0-.66-.06-1.32-.1-2s-.06-1.35-.09-2-.05-1.4-.08-2.11-.05-1.44-.08-2.18h-.58m-.25-9.62c0,.83,0,1.66.05,2.47s0,1.61.06,2.39,0,1.56.06,2.32.05,1.51.07,2.25h.59c0-.74-.05-1.49-.08-2.25s0-1.53-.06-2.32,0-1.58-.06-2.39,0-1.64,0-2.47h-.58m-.15-11c0,1,0,1.9,0,2.83s0,1.84,0,2.74,0,1.78,0,2.64,0,1.72.05,2.56h.58c0-.84,0-1.69-.05-2.56s0-1.75,0-2.64,0-1.81,0-2.74,0-1.87,0-2.83h-.57m-.08-12.61c0,1.1,0,2.19,0,3.25s0,2.11,0,3.14,0,2,0,3,0,2,0,2.94h.58c0-1,0-1.94,0-2.94s0-2,0-3,0-2.08,0-3.14,0-2.15,0-3.25h-.58m0-14.47v3.73c0,1.22,0,2.42,0,3.6s0,2.35,0,3.49v3.37h.57V128.58h-.57m.07-16.59c0,1.45,0,2.87,0,4.27s0,2.78,0,4.13,0,2.69,0,4,0,2.6,0,3.86h.58c0-1.26,0-2.55,0-3.86s0-2.64,0-4,0-2.73,0-4.13,0-2.82,0-4.27h-.57M344,93q0,2.49,0,4.89c0,1.61,0,3.18,0,4.74s0,3.07,0,4.57,0,3,0,4.43h.57c0-1.45,0-2.93,0-4.43s0-3,0-4.57,0-3.13,0-4.74,0-3.23,0-4.89H344m.18-21.72c0,1.89,0,3.75-.05,5.58s0,3.63,0,5.41,0,3.52-.05,5.23,0,3.41,0,5.07h.58c0-1.66,0-3.35,0-5.07s0-3.46,0-5.23,0-3.58.05-5.41,0-3.69.05-5.58h-.58m.22-24.74c0,2.15,0,4.26-.05,6.35s0,4.13-.06,6.15,0,4-.06,6,0,3.88,0,5.78h.58c0-1.9,0-3.83.06-5.78s0-4,.05-6,0-4.07.06-6.15,0-4.2.06-6.35h-.59m.27-28.1q0,3.64-.07,7.2t-.06,7c0,2.29-.05,4.54-.07,6.77s0,4.41-.06,6.57H345q0-3.24.06-6.57c0-2.23,0-4.48.06-6.77s0-4.63.07-7,0-4.77.07-7.2h-.59M344.89.18V.35l0,3.39,0,3.34c0,1.1,0,2.2,0,3.28s0,2.16,0,3.23v3.14c0,.34,0,.69,0,1h.59c0-.34,0-.69,0-1s0-.7,0-1,0-.7,0-1V13.59c0-1.07,0-2.14,0-3.23s0-2.18,0-3.28,0-2.22,0-3.34,0-2.25,0-3.39V.18h-.59"/><path class="cls-10" d="M320.11,256.13l0,.9,0,.93,0,.94,0,1c0,.61,0,1.22.05,1.84s0,1.26.05,1.91,0,1.31.05,2,0,1.36.06,2.05v.13h.92v-.13c0-.69,0-1.38-.07-2.05s0-1.33-.06-2,0-1.28-.06-1.91l-.06-1.84,0-1,0-.94,0-.93,0-.9h-.86m-.29-11q0,1.2.06,2.46c0,.85.05,1.71.07,2.59S320,252,320,253s.05,1.91.07,2.9H321c0-1-.06-2-.09-2.9s-.06-1.84-.09-2.74,0-1.74-.08-2.59-.05-1.66-.08-2.46h-.8m-.25-9.66v.93l0,.47v.48c0,.59,0,1.18,0,1.78s0,1.23,0,1.85,0,1.28.05,1.93,0,1.33.05,2h.81c0-.68-.05-1.35-.07-2l-.06-1.93-.06-1.85c0-.6,0-1.19-.05-1.78l0-.48V236l0-.46h-.75m-.28-11.83c0,.87,0,1.76.06,2.66s0,1.85.06,2.8,0,1.94.07,3,.06,2.06.08,3.14h.75c0-1.08-.06-2.12-.09-3.14s-.06-2-.09-3-.05-1.88-.08-2.8-.05-1.79-.07-2.66h-.7m-.2-10c0,.78,0,1.56,0,2.35s0,1.6.05,2.41,0,1.63.05,2.47l.06,2.55H320l-.06-2.55c0-.84-.05-1.66-.07-2.47s0-1.61,0-2.41l-.06-2.35h-.65m-.15-9.49c0,.78,0,1.56,0,2.33l0,2.31c0,.77,0,1.54,0,2.31s0,1.55,0,2.33h.65c0-.78,0-1.55-.05-2.33s0-1.54,0-2.31,0-1.54,0-2.31,0-1.55,0-2.33h-.63m-.1-9.94c0,.85,0,1.69,0,2.52s0,1.65,0,2.45,0,1.61,0,2.4,0,1.59,0,2.36h.62c0-.77,0-1.56,0-2.36l0-2.4c0-.8,0-1.62,0-2.45s0-1.67,0-2.52h-.6m-.06-9.46v.9c0,.3,0,.6,0,.89v.88c0,.29,0,.58,0,.87,0,.49,0,1,0,1.46s0,1,0,1.44,0,.94,0,1.41,0,.93,0,1.38h.6c0-.45,0-.91,0-1.38s0-.94,0-1.41,0-.95,0-1.44,0-1,0-1.46v-.87c0-.29,0-.58,0-.88s0-.59,0-.89v-.9h-.59m0-8.5c0,.74,0,1.46,0,2.18s0,1.41,0,2.11,0,1.37,0,2,0,1.34,0,2h.59c0-.66,0-1.32,0-2s0-1.35,0-2,0-1.4,0-2.11,0-1.44,0-2.18h-.58m0-9.62v2.47c0,.81,0,1.61,0,2.39v2.32c0,.76,0,1.51,0,2.25h.58v-2.25c0-.76,0-1.53,0-2.32s0-1.58,0-2.39,0-1.64,0-2.47h-.57m0-11v2.83c0,.93,0,1.84,0,2.74v2.64c0,.87,0,1.72,0,2.56h.57v-2.56c0-.86,0-1.75,0-2.64v-5.57h-.58m0-12.61v3.25c0,1.06,0,2.11,0,3.14v6h.58c0-1,0-1.94,0-2.94v-9.42h-.58m0-14.47v14.19h.58V128.58h-.58m0-16.59v8.4c0,1.36,0,2.69,0,4v3.86h.58V112h-.57m0-19v9.63c0,1.55,0,3.07,0,4.57v4.43h.57c0-1.45,0-2.93,0-4.43V102.6c0-1.56,0-3.13,0-4.74V93h-.58m0-21.72v5.58c0,1.83,0,3.63,0,5.41v5.23c0,1.72,0,3.41,0,5.07h.58V87.47c0-1.71,0-3.46,0-5.23s0-3.58,0-5.41V71.25h-.58m0-24.74v6.35c0,2.08,0,4.13,0,6.15v6c0,2,0,3.88,0,5.78h.58c0-1.9,0-3.83,0-5.78V59q0-3,0-6.15c0-2.09,0-4.2,0-6.35h-.59m0-28.1q0,3.64,0,7.2v7c0,2.29,0,4.54,0,6.77s0,4.41,0,6.57h.59q0-3.24,0-6.57V32.6q0-3.45,0-7t0-7.2h-.59m0-18.23V17.76h.59V15.69c0-.35,0-.7,0-1V7.08c0-1.1,0-2.22,0-3.34V.18h-.59"/><path class="cls-11" d="M282.31,256.13c-.06.3-.12.6-.19.9l-.19.93c-.06.31-.13.62-.2.94s-.13.63-.2,1c-.12.61-.25,1.22-.38,1.84s-.26,1.26-.4,1.91-.27,1.31-.41,2-.28,1.36-.43,2.05v.13h.9v-.13c.14-.69.28-1.38.42-2.05s.27-1.33.4-2,.26-1.28.39-1.91.25-1.23.37-1.84l.19-1,.2-.94L283,257c.07-.3.13-.6.19-.9h-.85m2.28-11q-.25,1.2-.51,2.46c-.17.85-.35,1.71-.54,2.59S283.17,252,283,253s-.4,1.91-.6,2.9h.84c.2-1,.4-2,.59-2.9s.38-1.84.56-2.74.35-1.74.52-2.59.34-1.66.5-2.46h-.79m2-9.66-.09.46-.09.47c0,.16-.07.31-.1.47l-.09.48-.36,1.78c-.13.61-.25,1.23-.38,1.85l-.39,1.93q-.21,1-.42,2h.79c.14-.68.27-1.35.4-2l.39-1.93.36-1.85c.12-.6.24-1.19.35-1.78l.1-.48.09-.47.09-.47.09-.46h-.74m2.24-11.83c-.15.87-.31,1.76-.48,2.66s-.34,1.85-.52,2.8-.37,1.94-.57,3-.4,2.06-.61,3.14h.74c.2-1.08.4-2.12.6-3.14l.55-3c.17-.95.34-1.88.51-2.8s.31-1.79.46-2.66h-.68m1.6-10c-.11.78-.22,1.56-.34,2.35s-.25,1.6-.38,2.41-.26,1.63-.4,2.47-.29,1.69-.44,2.55h.68c.15-.86.29-1.71.43-2.55s.27-1.66.39-2.47.25-1.61.37-2.41.23-1.57.33-2.35h-.64m1.15-9.49c-.07.78-.16,1.56-.24,2.33l-.27,2.31c-.09.77-.19,1.54-.29,2.31s-.21,1.55-.32,2.33h.64c.11-.78.21-1.55.31-2.33s.19-1.54.28-2.31.18-1.54.27-2.31l.24-2.33h-.62m.82-9.94c-.05.85-.11,1.69-.17,2.52s-.13,1.65-.19,2.45l-.21,2.4c-.07.8-.15,1.59-.22,2.36h.61c.07-.77.15-1.56.22-2.36s.14-1.59.2-2.4.13-1.62.19-2.45.11-1.67.16-2.52h-.59m.5-9.46c0,.3,0,.6,0,.9s0,.6,0,.89,0,.59,0,.88,0,.58,0,.87c0,.49-.05,1-.08,1.46s-.05,1-.07,1.44l-.09,1.41c0,.47,0,.93-.08,1.38H293c0-.45.06-.91.08-1.38s.06-.94.08-1.41.05-.95.08-1.44.05-1,.07-1.46c0-.29,0-.58,0-.87s0-.58,0-.88,0-.59,0-.89l0-.9h-.57m.28-8.5c0,.74,0,1.46-.07,2.18l-.06,2.11c0,.69-.05,1.37-.07,2s-.05,1.34-.08,2h.58c0-.66.05-1.32.08-2s0-1.35.07-2l.06-2.11c0-.72,0-1.44.06-2.18h-.57m.19-9.62c0,.83,0,1.66,0,2.47s0,1.61,0,2.39,0,1.56-.05,2.32,0,1.51-.06,2.25h.57q0-1.11.06-2.25c0-.76,0-1.53.05-2.32s0-1.58,0-2.39,0-1.64,0-2.47h-.57m.13-11c0,1,0,1.9,0,2.83s0,1.84,0,2.74,0,1.78,0,2.64,0,1.72,0,2.56h.56c0-.84,0-1.69,0-2.56s0-1.75,0-2.64,0-1.81,0-2.74,0-1.87,0-2.83h-.56m.06-12.61c0,1.1,0,2.19,0,3.25s0,2.11,0,3.14,0,2,0,3,0,2,0,2.94H294c0-1,0-1.94,0-2.94s0-2,0-3,0-2.08,0-3.14,0-2.15,0-3.25h-.56m0-14.47v14.19h.56V139.4c0-1.14,0-2.31,0-3.49s0-2.38,0-3.6v-3.73h-.56M293.46,112c0,1.45,0,2.87,0,4.27s0,2.78,0,4.13,0,2.69,0,4,0,2.6,0,3.86h.56c0-1.26,0-2.55,0-3.86s0-2.64,0-4,0-2.73,0-4.13,0-2.82,0-4.27h-.57m-.1-19q0,2.49,0,4.89c0,1.61,0,3.18,0,4.74s0,3.07,0,4.57,0,3,0,4.43H294c0-1.45,0-2.93,0-4.43s0-3,0-4.57,0-3.13,0-4.74,0-3.23,0-4.89h-.57m-.14-21.72c0,1.89,0,3.75,0,5.58s0,3.63,0,5.41,0,3.52,0,5.23,0,3.41,0,5.07h.57q0-2.49,0-5.07c0-1.71,0-3.46,0-5.23s0-3.58,0-5.41,0-3.69,0-5.58h-.57M293,46.51c0,2.15,0,4.26,0,6.35s0,4.13.05,6.15,0,4,0,6,0,3.88,0,5.78h.57c0-1.9,0-3.83,0-5.78s0-4,0-6,0-4.07,0-6.15,0-4.2,0-6.35H293m-.21-28.1q0,3.64.05,7.2t.06,7c0,2.29,0,4.54.05,6.77s0,4.41.05,6.57h.57c0-2.16,0-4.35,0-6.57s0-4.48-.05-6.77,0-4.63-.06-7,0-4.77,0-7.2h-.58M292.69.18V.35q0,1.71,0,3.39c0,1.12,0,2.24,0,3.34s0,2.2,0,3.28,0,2.16,0,3.23c0,.35,0,.7,0,1.05s0,.7,0,1,0,.69,0,1v1h.58v-1c0-.35,0-.7,0-1s0-.7,0-1V13.59c0-1.07,0-2.14,0-3.23s0-2.18,0-3.28,0-2.22,0-3.34,0-2.25,0-3.39V.18h-.58"/><path class="cls-12" d="M244.51,256.13c-.13.3-.26.6-.4.9s-.27.62-.41.93l-.42.94-.42,1-.82,1.84c-.27.63-.56,1.26-.84,1.91l-.88,2-.91,2.05v0l0,0v0l0,0h.91v0l0,0v0l0,0,.89-2.05q.45-1,.87-2c.28-.65.56-1.28.84-1.91s.54-1.23.8-1.84l.42-1,.42-.94.4-.93c.14-.3.27-.6.4-.9h-.85m4.85-11-1.08,2.46-1.15,2.59c-.39.9-.8,1.81-1.21,2.74l-1.29,2.9h.85l1.27-2.9c.41-.93.8-1.84,1.2-2.74l1.13-2.59c.36-.84.72-1.66,1.07-2.46h-.79m4.17-9.66-.19.46c-.07.16-.14.31-.2.47s-.14.31-.2.47l-.21.48-.76,1.78-.8,1.85-.84,1.93-.88,2h.79q.44-1,.87-2l.82-1.93c.27-.62.54-1.24.79-1.85l.76-1.78.2-.48.2-.47.2-.47.19-.46h-.74m4.77-11.83c-.33.87-.67,1.76-1,2.66s-.73,1.85-1.11,2.8-.79,1.94-1.21,3-.85,2.06-1.31,3.14h.74c.45-1.08.88-2.12,1.29-3.14s.81-2,1.19-3,.75-1.88,1.1-2.8.68-1.79,1-2.66h-.68m3.4-10c-.23.78-.48,1.56-.73,2.35s-.52,1.6-.79,2.41l-.86,2.47c-.3.84-.62,1.69-.94,2.55h.68c.32-.86.63-1.71.92-2.55s.58-1.66.86-2.47.53-1.61.78-2.41.49-1.57.73-2.35h-.65m2.46-9.49c-.17.78-.35,1.56-.53,2.33s-.37,1.54-.57,2.31-.41,1.54-.62,2.31-.44,1.55-.67,2.33h.64c.23-.78.45-1.55.66-2.33s.42-1.54.61-2.31.39-1.54.57-2.31.35-1.55.52-2.33h-.61m1.74-9.94c-.12.85-.25,1.69-.37,2.52s-.27,1.65-.41,2.45-.29,1.61-.44,2.4-.31,1.59-.48,2.36h.61c.17-.77.32-1.56.48-2.36s.29-1.59.43-2.4.27-1.62.4-2.45.25-1.67.37-2.52h-.59m1-9.46c0,.3-.05.6-.08.9s-.05.6-.08.89l-.09.88c0,.29-.05.58-.08.87-.05.49-.11,1-.16,1.46s-.11,1-.17,1.44-.11.94-.17,1.41-.12.93-.18,1.38h.59q.09-.67.18-1.38c.06-.47.12-.94.17-1.41s.11-.95.16-1.44.11-1,.16-1.46l.09-.87c0-.29.05-.58.08-.88s.06-.59.08-.89.06-.6.08-.9h-.58m.6-8.5c0,.74-.09,1.46-.13,2.18s-.09,1.41-.14,2.11-.1,1.37-.15,2-.11,1.34-.16,2h.58c0-.66.11-1.32.16-2l.15-2c0-.7.09-1.4.13-2.11s.09-1.44.13-2.18h-.57m.42-9.62c0,.83-.06,1.66-.09,2.47s-.06,1.61-.1,2.39-.07,1.56-.1,2.32l-.12,2.25h.57q.06-1.11.12-2.25c0-.76.07-1.53.1-2.32s.07-1.58.1-2.39.06-1.64.09-2.47H268m.26-11c0,1,0,1.9-.05,2.83s0,1.84-.06,2.74,0,1.78-.07,2.64-.05,1.72-.07,2.56h.56c0-.84.05-1.69.08-2.56s.05-1.75.07-2.64,0-1.81.05-2.74,0-1.87.06-2.83h-.57m.13-12.61c0,1.1,0,2.19,0,3.25s0,2.11,0,3.14,0,2,0,3,0,2,0,2.94h.56c0-1,0-1.94,0-2.94s0-2,0-3,0-2.08,0-3.14,0-2.15,0-3.25h-.56m0-14.47c0,1.27,0,2.51,0,3.73v7.09c0,1.14,0,2.26,0,3.37h.56c0-1.11,0-2.23,0-3.37v-7.09c0-1.22,0-2.46,0-3.73h-.56M268.24,112c0,1.45,0,2.87,0,4.27s0,2.78,0,4.13,0,2.69,0,4,0,2.6,0,3.86h.56c0-1.26,0-2.55,0-3.86s0-2.64,0-4,0-2.73,0-4.13,0-2.82,0-4.27h-.56M268,93q0,2.49.06,4.89c0,1.61,0,3.18.05,4.74s0,3.07.05,4.57,0,3,0,4.43h.57c0-1.45,0-2.93,0-4.43s0-3-.05-4.57,0-3.13-.06-4.74,0-3.23-.06-4.89H268m-.3-21.72c0,1.89,0,3.75.08,5.58s.05,3.63.07,5.41.05,3.52.07,5.23.05,3.41.07,5.07h.57c0-1.66,0-3.35-.07-5.07s0-3.46-.07-5.23-.05-3.58-.07-5.41-.06-3.69-.09-5.58h-.56m-.39-24.74c0,2.15.07,4.26.1,6.35s.07,4.13.1,6.15.06,4,.09,6,.06,3.88.09,5.78h.57c0-1.9-.06-3.83-.09-5.78s-.06-4-.09-6-.06-4.07-.09-6.15-.07-4.2-.1-6.35h-.58m-.45-28.1q.06,3.64.11,7.2t.12,7c0,2.29.07,4.54.11,6.77s.07,4.41.1,6.57h.58c0-2.16-.07-4.35-.11-6.57s-.07-4.48-.1-6.77-.08-4.63-.12-7-.07-4.77-.11-7.2h-.58M266.59.18V.35l.06,3.39c0,1.12,0,2.24.05,3.34s0,2.2.06,3.28,0,2.16.05,3.23c0,.35,0,.7,0,1.05s0,.7,0,1,0,.69,0,1,0,.69,0,1h.58c0-.34,0-.69,0-1s0-.7,0-1v-1c0-.35,0-.7,0-1.05,0-1.07,0-2.14-.05-3.23s0-2.18-.06-3.28,0-2.22,0-3.34,0-2.25-.05-3.39V.18h-.58"/><path class="cls-13" d="M206.7,256.13l-.61.9-.63.93c-.21.31-.43.62-.64.94s-.43.63-.65,1l-1.25,1.84c-.43.63-.86,1.26-1.29,1.91l-1.35,2-1.39,2.05,0,0,0,0,0,0,0,0h.92l0,0,0,0,0,0,0,0,1.38-2.05,1.34-2,1.28-1.91,1.24-1.84.64-1,.64-.94L207,257l.61-.9h-.86m7.41-11-1.65,2.46-1.75,2.59L208.85,253l-2,2.9h.86c.67-1,1.32-2,1.95-2.9l1.84-2.74c.6-.88,1.18-1.74,1.74-2.59l1.65-2.46h-.81m6.39-9.66-.3.46-.3.47-.31.47c-.11.16-.21.32-.31.48l-1.17,1.78c-.4.61-.81,1.23-1.23,1.85L215.6,243l-1.35,2h.81l1.33-2c.43-.65.86-1.29,1.27-1.93l1.22-1.85,1.16-1.78c.1-.16.2-.32.31-.48l.3-.47.3-.47.3-.46h-.75m7.29-11.83c-.5.87-1,1.76-1.56,2.66s-1.11,1.85-1.7,2.8-1.2,1.94-1.84,3-1.31,2.06-2,3.14h.75c.69-1.08,1.35-2.12,2-3.14s1.24-2,1.83-3,1.14-1.88,1.68-2.8,1-1.79,1.55-2.66h-.69m5.21-10c-.36.78-.73,1.56-1.12,2.35s-.79,1.6-1.21,2.41l-1.32,2.47c-.46.84-.94,1.69-1.43,2.55h.69c.49-.86,1-1.71,1.42-2.55s.89-1.66,1.31-2.47.82-1.61,1.2-2.41.76-1.57,1.12-2.35H233m3.75-9.49c-.25.78-.52,1.56-.8,2.33s-.57,1.54-.88,2.31-.62,1.54-.94,2.31-.68,1.55-1,2.33h.65c.35-.78.69-1.55,1-2.33s.64-1.54.94-2.31.59-1.54.87-2.31.54-1.55.8-2.33h-.63m2.67-9.94q-.27,1.27-.57,2.52c-.2.83-.4,1.65-.62,2.45s-.44,1.61-.67,2.4-.48,1.59-.74,2.36h.62c.26-.77.5-1.56.73-2.36s.46-1.59.67-2.4.42-1.62.62-2.45.38-1.67.56-2.52h-.6m1.6-9.46-.12.9c0,.3-.09.6-.13.89s-.09.59-.13.88-.09.58-.13.87l-.24,1.46c-.09.49-.17,1-.26,1.44s-.17.94-.26,1.41-.19.93-.29,1.38h.61c.09-.45.18-.91.28-1.38s.17-.94.26-1.41.17-.95.25-1.44l.24-1.46c0-.29.09-.58.13-.87s.09-.58.13-.88.09-.59.13-.89l.12-.9H241m.91-8.5c-.06.74-.13,1.46-.2,2.18s-.13,1.41-.21,2.11-.15,1.37-.23,2-.16,1.34-.25,2h.59c.09-.66.17-1.32.25-2s.15-1.35.23-2l.21-2.11c.07-.72.13-1.44.19-2.18h-.58m.64-9.62c0,.83-.08,1.66-.13,2.47s-.1,1.61-.15,2.39-.11,1.56-.16,2.32l-.18,2.25h.58l.18-2.25c0-.76.11-1.53.16-2.32s.1-1.58.15-2.39.09-1.64.13-2.47h-.58m.41-11c0,1,0,1.9-.08,2.83s-.06,1.84-.09,2.74-.07,1.78-.11,2.64-.07,1.72-.12,2.56h.58c0-.84.08-1.69.12-2.56s.07-1.75.1-2.64.07-1.81.09-2.74.06-1.87.08-2.83H243m.19-12.61c0,1.1,0,2.19,0,3.25s0,2.11,0,3.14,0,2,0,3,0,2-.07,2.94h.58c0-1,0-1.94.06-2.94s0-2,0-3,0-2.08,0-3.14,0-2.15,0-3.25h-.57m0-14.47c0,1.27,0,2.51,0,3.73v7.09c0,1.14,0,2.26,0,3.37h.57c0-1.11,0-2.23,0-3.37v-7.09c0-1.22,0-2.46,0-3.73h-.57M243,112c0,1.45,0,2.87.06,4.27s0,2.78,0,4.13,0,2.69,0,4,0,2.6,0,3.86h.57c0-1.26,0-2.55,0-3.86s0-2.64,0-4,0-2.73-.05-4.13,0-2.82,0-4.27H243m-.32-19q0,2.49.09,4.89c0,1.61.06,3.18.08,4.74s.06,3.07.08,4.57,0,3,.07,4.43h.57c0-1.45,0-2.93-.07-4.43s0-3-.07-4.57-.05-3.13-.08-4.74-.06-3.23-.09-4.89h-.58m-.46-21.72q.06,2.84.12,5.58c0,1.83.08,3.63.12,5.41s.07,3.52.11,5.23.07,3.41.1,5.07h.58c0-1.66-.07-3.35-.1-5.07s-.07-3.46-.11-5.23-.08-3.58-.12-5.41-.08-3.69-.12-5.58h-.58m-.59-24.74c.05,2.15.1,4.26.16,6.35s.09,4.13.14,6.15.1,4,.14,6,.09,3.88.14,5.78h.58c0-1.9-.09-3.83-.14-5.78s-.09-4-.13-6-.1-4.07-.15-6.15-.1-4.2-.15-6.35h-.59m-.69-28.1q.09,3.64.17,7.2t.18,7c.06,2.29.11,4.54.17,6.77s.1,4.41.16,6.57h.58q-.07-3.24-.16-6.57c0-2.23-.11-4.48-.16-6.77s-.12-4.63-.18-7-.11-4.77-.17-7.2h-.6M240.48.18V.35q0,1.71.09,3.39c0,1.12.05,2.24.08,3.34s.06,2.2.08,3.28.06,2.16.08,3.23l0,1.05,0,1c0,.34,0,.69,0,1l0,1h.59l0-1,0-1,0-1c0-.35,0-.7,0-1.05,0-1.07-.06-2.14-.08-3.23s-.06-2.18-.09-3.28-.05-2.22-.08-3.34,0-2.25-.08-3.39V.18h-.59"/><path class="cls-14" d="M168.9,256.13l-.83.9-.84.93-.86.94-.88,1-1.68,1.84-1.74,1.91-1.81,2-1.87,2.05,0,0,0,0,0,0,0,0h.92l0,0,0,0,0,0,0,0,1.86-2.05,1.8-2,1.73-1.91c.57-.62,1.13-1.23,1.67-1.84l.88-1c.28-.32.57-.63.85-.94l.84-.93.82-.9h-.86m10-11-2.23,2.46c-.76.85-1.55,1.71-2.36,2.59L171.8,253l-2.65,2.9H170l2.63-2.9,2.48-2.74,2.35-2.59,2.22-2.46h-.81m8.6-9.66-.4.46-.41.47-.42.47-.42.48c-.51.59-1,1.18-1.57,1.78L182.61,241,180.88,243l-1.81,2h.8l1.8-2c.59-.65,1.16-1.29,1.72-1.93s1.1-1.24,1.64-1.85l1.56-1.78.42-.48c.14-.16.28-.31.41-.47s.28-.31.41-.47.27-.31.4-.46h-.75m9.81-11.83c-.67.87-1.37,1.76-2.1,2.66s-1.49,1.85-2.28,2.8-1.62,1.94-2.48,3l-2.7,3.14h.75c.93-1.08,1.82-2.12,2.68-3.14s1.68-2,2.47-3,1.54-1.88,2.27-2.8,1.42-1.79,2.09-2.66h-.7m7-10c-.49.78-1,1.56-1.51,2.35s-1.08,1.6-1.64,2.41-1.16,1.63-1.78,2.47-1.25,1.69-1.92,2.55h.69q1-1.29,1.92-2.55c.61-.84,1.19-1.66,1.76-2.47s1.1-1.61,1.63-2.41,1-1.57,1.5-2.35h-.65m5-9.49c-.34.78-.7,1.56-1.08,2.33s-.77,1.54-1.18,2.31-.83,1.54-1.27,2.31-.91,1.55-1.39,2.33h.66c.47-.78.93-1.55,1.37-2.33s.86-1.54,1.27-2.31.8-1.54,1.17-2.31.73-1.55,1.08-2.33h-.63m3.59-9.94c-.24.85-.5,1.69-.76,2.52s-.55,1.65-.84,2.45-.59,1.61-.91,2.4-.64,1.59-1,2.36h.63c.34-.77.67-1.56,1-2.36s.62-1.59.91-2.4.56-1.62.82-2.45.52-1.67.76-2.52H213m2.16-9.46c-.06.3-.11.6-.17.9s-.11.6-.17.89-.11.59-.17.88l-.18.87-.33,1.46c-.11.49-.22,1-.34,1.44l-.36,1.41c-.12.47-.25.93-.38,1.38h.61c.12-.45.25-.91.37-1.38l.36-1.41c.11-.47.23-.95.34-1.44s.21-1,.32-1.46l.18-.87c.06-.29.12-.58.17-.88s.12-.59.17-.89.11-.6.17-.9h-.59m1.22-8.5c-.08.74-.17,1.46-.26,2.18s-.19,1.41-.29,2.11-.2,1.37-.31,2-.22,1.34-.33,2h.59c.11-.66.22-1.32.33-2s.21-1.35.31-2,.19-1.4.28-2.11.18-1.44.27-2.18h-.59m.87-9.62c-.06.83-.12,1.66-.18,2.47s-.13,1.61-.2,2.39-.14,1.56-.22,2.32-.16,1.51-.24,2.25h.58q.12-1.11.24-2.25c.08-.76.15-1.53.22-2.32s.13-1.58.2-2.39.12-1.64.18-2.47h-.58m.54-11c0,1-.07,1.9-.1,2.83s-.08,1.84-.13,2.74-.09,1.78-.14,2.64-.1,1.72-.16,2.56h.58c.06-.84.11-1.69.16-2.56s.1-1.75.14-2.64.08-1.81.12-2.74.07-1.87.11-2.83h-.58m.26-12.61c0,1.1,0,2.19,0,3.25s0,2.11-.05,3.14,0,2-.07,3-.06,2-.09,2.94h.57c0-1,.06-1.94.09-2.94s.05-2,.07-3,0-2.08.05-3.14,0-2.15,0-3.25H218m0-14.47c0,1.27,0,2.51,0,3.73s0,2.42,0,3.6,0,2.35,0,3.49,0,2.26,0,3.37h.57c0-1.11,0-2.23,0-3.37v-7.09c0-1.22,0-2.46,0-3.73H218M217.77,112c0,1.45.06,2.87.08,4.27s0,2.78.06,4.13,0,2.69.05,4,0,2.6,0,3.86h.57c0-1.26,0-2.55,0-3.86s0-2.64,0-4,0-2.73-.07-4.13,0-2.82-.07-4.27h-.58m-.43-19c0,1.66.09,3.29.12,4.89s.08,3.18.12,4.74.07,3.07.1,4.57.06,3,.09,4.43h.57c0-1.45-.06-2.93-.09-4.43s-.06-3-.1-4.57-.07-3.13-.11-4.74-.08-3.23-.12-4.89h-.58m-.62-21.72c.06,1.89.11,3.75.17,5.58s.1,3.63.16,5.41.1,3.52.14,5.23.1,3.41.14,5.07h.58c0-1.66-.09-3.35-.14-5.07s-.1-3.46-.15-5.23-.1-3.58-.15-5.41-.11-3.69-.17-5.58h-.58m-.79-24.74c.07,2.15.14,4.26.21,6.35s.13,4.13.2,6.15.12,4,.18,6,.13,3.88.18,5.78h.58c-.05-1.9-.11-3.83-.17-5.78s-.13-4-.19-6-.13-4.07-.2-6.15-.13-4.2-.2-6.35h-.59M215,18.41q.13,3.64.25,7.2t.23,7c.08,2.29.15,4.54.22,6.77s.15,4.41.22,6.57h.59c-.07-2.16-.15-4.35-.22-6.57s-.15-4.48-.22-6.77-.16-4.63-.24-7-.15-4.77-.24-7.2H215M214.38.18V.35c0,1.14.07,2.27.11,3.39s.08,2.24.11,3.34.08,2.2.11,3.28.08,2.16.11,3.23c0,.35,0,.7,0,1.05l0,1c0,.34,0,.69,0,1l0,1h.59l0-1c0-.35,0-.7,0-1l0-1c0-.35,0-.7,0-1.05,0-1.07-.07-2.14-.11-3.23s-.07-2.18-.1-3.28-.08-2.22-.12-3.34S215,1.49,215,.35V.18h-.59"/><path class="cls-15" d="M131.11,256.13l-1.05.9L129,258l-1.08.94-1.1,1-2.12,1.84-2.19,1.91-2.27,2-2.36,2.05,0,0,0,0,0,0,0,0h.91l0,0,0,0,0,0,0,0,2.35-2.05,2.26-2,2.18-1.91,2.1-1.84,1.1-1,1.08-.94,1-.93,1-.9h-.84m12.54-11-2.8,2.46-3,2.59L134.74,253l-3.33,2.9h.84l3.32-2.9,3.13-2.74,3-2.59,2.79-2.46h-.79m10.81-9.66c-.16.15-.33.31-.51.46l-.51.47-.52.47-.53.48-2,1.78L148.34,241,146.17,243l-2.28,2h.79l2.26-2c.74-.65,1.46-1.29,2.16-1.93l2.07-1.85,2-1.78.52-.48.52-.47.52-.47.5-.46h-.74m12.34-11.83c-.85.87-1.73,1.76-2.64,2.66s-1.88,1.85-2.87,2.8l-3.12,3c-1.09,1-2.22,2.06-3.4,3.14h.74l3.38-3.14c1.07-1,2.11-2,3.1-3s1.94-1.88,2.86-2.8,1.78-1.79,2.63-2.66h-.68m8.83-10c-.61.78-1.25,1.56-1.9,2.35s-1.35,1.6-2.06,2.41-1.46,1.63-2.23,2.47-1.58,1.69-2.42,2.55h.68c.83-.86,1.64-1.71,2.41-2.55s1.51-1.66,2.22-2.47,1.39-1.61,2-2.41,1.28-1.57,1.89-2.35h-.64m6.34-9.49c-.43.78-.89,1.56-1.36,2.33s-1,1.54-1.48,2.31-1,1.54-1.6,2.31-1.14,1.55-1.74,2.33h.64c.6-.78,1.17-1.55,1.73-2.33s1.08-1.54,1.6-2.31,1-1.54,1.47-2.31.92-1.55,1.36-2.33H182m4.51-9.94q-.45,1.27-1,2.52c-.33.83-.68,1.65-1,2.45s-.75,1.61-1.15,2.4-.81,1.59-1.24,2.36h.61c.43-.77.84-1.56,1.24-2.36s.77-1.59,1.14-2.4.71-1.62,1-2.45.65-1.67.95-2.52h-.59m2.71-9.46c-.06.3-.13.6-.2.9s-.14.6-.22.89-.14.59-.22.88-.15.58-.23.87c-.13.49-.26,1-.4,1.46s-.28,1-.43,1.44l-.45,1.41q-.24.7-.48,1.38h.59c.17-.45.32-.91.48-1.38l.45-1.41q.21-.71.42-1.44c.14-.48.28-1,.41-1.46.07-.29.15-.58.22-.87s.15-.58.22-.88.15-.59.22-.89.14-.6.2-.9h-.58m1.55-8.5c-.11.74-.22,1.46-.34,2.18s-.23,1.41-.36,2.11-.25,1.37-.39,2-.27,1.34-.42,2h.58c.15-.66.29-1.32.42-2s.26-1.35.39-2l.36-2.11c.11-.72.22-1.44.33-2.18h-.57m1.08-9.62c-.07.83-.14,1.66-.22,2.47s-.17,1.61-.25,2.39-.18,1.56-.28,2.32l-.3,2.25h.57l.3-2.25c.1-.76.19-1.53.28-2.32s.17-1.58.25-2.39.15-1.64.22-2.47h-.57m.69-11c0,1-.09,1.9-.14,2.83s-.1,1.84-.15,2.74-.11,1.78-.18,2.64-.13,1.72-.2,2.56h.57c.07-.84.14-1.69.2-2.56s.12-1.75.18-2.64.1-1.81.15-2.74.09-1.87.13-2.83h-.56m.32-12.61c0,1.1,0,2.19-.05,3.25s0,2.11-.07,3.14-.05,2-.08,3-.07,2-.11,2.94h.56c0-1,.08-1.94.11-2.94s.06-2,.09-3,.05-2.08.07-3.14,0-2.15,0-3.25h-.56m0-14.47c0,1.27,0,2.51,0,3.73s0,2.42,0,3.6,0,2.35,0,3.49,0,2.26,0,3.37h.57c0-1.11,0-2.23,0-3.37s0-2.31,0-3.49,0-2.38,0-3.6,0-2.46,0-3.73h-.57M192.55,112c0,1.45.06,2.87.09,4.27s.06,2.78.08,4.13.05,2.69.06,4,0,2.6.05,3.86h.56c0-1.26,0-2.55,0-3.86s0-2.64-.06-4,0-2.73-.08-4.13-.06-2.82-.1-4.27h-.56M192,93c.06,1.66.11,3.29.16,4.89s.1,3.18.14,4.74.09,3.07.13,4.57.07,3,.11,4.43h.56c0-1.45-.07-2.93-.11-4.43s-.08-3-.12-4.57-.1-3.13-.15-4.74-.1-3.23-.15-4.89H192m-.78-21.72q.1,2.84.21,5.58c.07,1.83.14,3.63.2,5.41s.13,3.52.19,5.23.11,3.41.17,5.07h.56c-.05-1.66-.11-3.35-.17-5.07s-.12-3.46-.18-5.23-.13-3.58-.2-5.41-.14-3.69-.21-5.58h-.57m-1-24.74c.09,2.15.17,4.26.26,6.35s.17,4.13.25,6.15.16,4,.24,6,.15,3.88.22,5.78h.57c-.07-1.9-.15-3.83-.22-5.78s-.16-4-.24-6-.16-4.07-.25-6.15-.17-4.2-.26-6.35h-.57m-1.18-28.1c.1,2.43.21,4.83.31,7.2s.19,4.69.29,7,.19,4.54.28,6.77.19,4.41.28,6.57h.57q-.14-3.24-.27-6.57c-.09-2.23-.19-4.48-.28-6.77s-.2-4.63-.3-7-.2-4.77-.3-7.2h-.58M188.28.18V.35c.05,1.14.09,2.27.14,3.39s.1,2.24.14,3.34.09,2.2.14,3.28.09,2.16.14,3.23c0,.35,0,.7,0,1.05s0,.7.05,1,0,.69,0,1,0,.69,0,1h.58c0-.34,0-.69,0-1s0-.7,0-1,0-.7-.05-1,0-.7,0-1.05c-.05-1.07-.09-2.14-.14-3.23s-.09-2.18-.14-3.28-.09-2.22-.14-3.34-.09-2.25-.14-3.39V.18h-.58"/><path class="cls-16" d="M93.31,256.13l-1.26.9-1.28.93-1.3.94-1.33,1-2.54,1.84L83,263.6l-2.74,2-2.84,2.05,0,0,0,0,0,0,0,0h.91l0,0,0,0,0,0,.05,0,2.83-2.05,2.72-2,2.63-1.91L89,259.85l1.32-1,1.3-.94L92.9,257l1.25-.9h-.84m15.11-11-3.37,2.46-3.58,2.59L97.69,253l-4,2.9h.85l4-2.9,3.77-2.74,3.56-2.59,3.36-2.46h-.79m13-9.66-.62.46-.62.47-.63.47-.63.48-2.39,1.78c-.81.61-1.65,1.23-2.5,1.85s-1.72,1.28-2.61,1.93l-2.74,2h.78l2.74-2,2.6-1.93c.85-.62,1.68-1.24,2.49-1.85l2.38-1.78.63-.48.63-.47.61-.47.61-.46h-.73m14.85-11.83c-1,.87-2.08,1.76-3.18,2.66s-2.26,1.85-3.46,2.8-2.46,1.94-3.75,3l-4.09,3.14h.74l4.07-3.14q1.94-1.51,3.74-3t3.45-2.8c1.09-.9,2.15-1.79,3.17-2.66h-.69m10.64-10c-.74.78-1.5,1.56-2.29,2.35s-1.62,1.6-2.48,2.41-1.76,1.63-2.68,2.47-1.91,1.69-2.92,2.55h.68c1-.86,2-1.71,2.91-2.55s1.81-1.66,2.67-2.47,1.68-1.61,2.47-2.41,1.55-1.57,2.28-2.35h-.64m7.64-9.49c-.52.78-1.07,1.56-1.64,2.33s-1.16,1.54-1.78,2.31-1.26,1.54-1.93,2.31-1.37,1.55-2.1,2.33h.64c.72-.78,1.42-1.55,2.09-2.33s1.31-1.54,1.93-2.31,1.2-1.54,1.77-2.31,1.11-1.55,1.64-2.33h-.62m5.43-9.94c-.36.85-.75,1.69-1.15,2.52s-.82,1.65-1.26,2.45-.9,1.61-1.38,2.4-1,1.59-1.5,2.36h.61c.52-.77,1-1.56,1.5-2.36s.93-1.59,1.37-2.4.85-1.62,1.26-2.45.78-1.67,1.15-2.52H160m3.27-9.46c-.08.3-.16.6-.25.9s-.17.6-.26.89-.17.59-.26.88-.18.58-.28.87c-.16.49-.32,1-.49,1.46s-.34,1-.51,1.44-.36.94-.55,1.41-.37.93-.57,1.38h.59q.3-.67.57-1.38c.19-.47.37-.94.55-1.41s.34-.95.51-1.44.33-1,.49-1.46l.27-.87.27-.88c.08-.29.17-.59.25-.89s.17-.6.25-.9h-.58m1.86-8.5c-.13.74-.26,1.46-.4,2.18s-.28,1.41-.43,2.11-.31,1.37-.48,2-.33,1.34-.5,2h.58c.17-.66.34-1.32.5-2s.32-1.35.47-2,.3-1.4.43-2.11.28-1.44.4-2.18h-.57m1.31-9.62c-.09.83-.18,1.66-.27,2.47s-.2,1.61-.31,2.39-.21,1.56-.33,2.32-.24,1.51-.37,2.25h.58c.12-.74.25-1.49.36-2.25s.23-1.53.33-2.32.21-1.58.3-2.39.19-1.64.28-2.47h-.57m.82-11c-.05,1-.1,1.9-.16,2.83s-.12,1.84-.18,2.74-.14,1.78-.22,2.64-.15,1.72-.24,2.56H167c.08-.84.16-1.69.24-2.56s.15-1.75.21-2.64.13-1.81.19-2.74.11-1.87.16-2.83h-.57m.39-12.61c0,1.1,0,2.19-.06,3.25s0,2.11-.08,3.14-.06,2-.1,3-.09,2-.14,2.94h.57c.05-1,.09-1.94.13-2.94s.07-2,.11-3,0-2.08.08-3.14,0-2.15.05-3.25h-.56m0-14.47c0,1.27,0,2.51,0,3.73s0,2.42,0,3.6,0,2.35,0,3.49,0,2.26,0,3.37h.56c0-1.11,0-2.23,0-3.37s0-2.31,0-3.49,0-2.38,0-3.6,0-2.46,0-3.73h-.56M167.32,112c0,1.45.08,2.87.12,4.27s.06,2.78.09,4.13.06,2.69.08,4,0,2.6,0,3.86h.57c0-1.26,0-2.55-.06-3.86s0-2.64-.07-4-.06-2.73-.1-4.13-.07-2.82-.11-4.27h-.57m-.66-19c.07,1.66.13,3.29.19,4.89s.12,3.18.17,4.74.11,3.07.16,4.57.09,3,.13,4.43h.57c0-1.45-.09-2.93-.14-4.43s-.1-3-.15-4.57-.11-3.13-.17-4.74-.12-3.23-.19-4.89h-.57m-.94-21.72c.09,1.89.18,3.75.26,5.58s.16,3.63.24,5.41.15,3.52.22,5.23.14,3.41.21,5.07h.56c-.06-1.66-.13-3.35-.2-5.07s-.15-3.46-.22-5.23-.16-3.58-.24-5.41-.17-3.69-.26-5.58h-.57m-1.19-24.74c.11,2.15.21,4.26.31,6.35s.21,4.13.3,6.15.2,4,.29,6,.18,3.88.27,5.78h.57q-.14-2.85-.27-5.78c-.09-2-.19-4-.28-6s-.2-4.07-.3-6.15-.21-4.2-.32-6.35h-.57m-1.42-28.1c.12,2.43.25,4.83.37,7.2s.23,4.69.35,7,.23,4.54.34,6.77.22,4.41.33,6.57h.58q-.17-3.24-.33-6.57c-.11-2.23-.23-4.48-.34-6.77s-.24-4.63-.36-7-.24-4.77-.36-7.2h-.58M162.18.18V.35c.06,1.14.12,2.27.17,3.39s.12,2.24.17,3.34l.17,3.28c.05,1.09.11,2.16.16,3.23l.06,1.05c0,.35,0,.7.05,1s0,.69.05,1l.06,1h.58l-.06-1c0-.35,0-.7,0-1s0-.7-.05-1,0-.7-.05-1.05c-.06-1.07-.11-2.14-.17-3.23s-.11-2.18-.17-3.28S163,4.86,163,3.74s-.12-2.25-.18-3.39V.18h-.58"/><path class="cls-17" d="M55.49,256.13,54,257l-1.49.93L51,258.9l-1.55,1-3,1.84-3.08,1.91-3.21,2-3.32,2.05,0,0-.05,0-.06,0-.05,0h.92l.06,0,0,0,0,0,.06,0,3.31-2.05,3.19-2,3.08-1.91,3-1.84,1.55-1L53.4,258l1.49-.93,1.47-.9h-.87m17.69-11-4,2.46-4.18,2.59L60.62,253l-4.7,2.9h.86l4.68-2.9,4.42-2.74L70,247.63,74,245.17h-.8m15.23-9.66-.71.46-.73.47-.74.47-.74.48-2.79,1.78L79.78,241,76.72,243l-3.21,2h.8l3.2-2,3-1.93,2.91-1.85,2.78-1.78.74-.48.74-.47.72-.47.72-.46h-.76m17.39-11.83q-1.8,1.31-3.73,2.66t-4,2.8q-2.11,1.44-4.4,3c-1.53,1-3.13,2.06-4.78,3.14h.75c1.65-1.08,3.24-2.12,4.77-3.14s3-2,4.38-3,2.73-1.88,4-2.8,2.52-1.79,3.71-2.66h-.69m12.44-10c-.86.78-1.75,1.56-2.68,2.35s-1.9,1.6-2.9,2.41-2.06,1.63-3.14,2.47-2.23,1.69-3.41,2.55h.7q1.75-1.29,3.39-2.55c1.08-.84,2.13-1.66,3.13-2.47s2-1.61,2.89-2.41,1.81-1.57,2.67-2.35h-.65m8.94-9.49c-.61.78-1.25,1.56-1.92,2.33s-1.36,1.54-2.08,2.31-1.48,1.54-2.26,2.31-1.61,1.55-2.46,2.33h.66c.84-.78,1.66-1.55,2.44-2.33s1.53-1.54,2.26-2.31,1.41-1.54,2.07-2.31,1.3-1.55,1.92-2.33h-.63m6.36-9.94q-.64,1.27-1.35,2.52c-.48.83-1,1.65-1.48,2.45s-1.05,1.61-1.61,2.4S128,203.2,127.34,204H128c.6-.77,1.19-1.56,1.75-2.36s1.09-1.59,1.6-2.4,1-1.62,1.47-2.45.92-1.67,1.35-2.52h-.6m3.82-9.46c-.1.3-.19.6-.29.9s-.2.6-.31.89-.2.59-.31.88-.21.58-.32.87c-.18.49-.37,1-.57,1.46s-.4,1-.6,1.44-.42.94-.64,1.41-.44.93-.67,1.38h.6c.23-.45.45-.91.67-1.38s.43-.94.63-1.41.41-.95.61-1.44l.57-1.46.32-.87c.1-.29.21-.58.31-.88l.3-.89c.1-.3.19-.6.29-.9h-.59m2.17-8.5c-.15.74-.3,1.46-.47,2.18s-.33,1.41-.5,2.11-.36,1.37-.55,2-.39,1.34-.6,2H138c.21-.66.4-1.32.59-2s.38-1.35.55-2,.35-1.4.51-2.11.32-1.44.47-2.18h-.59m1.53-9.62c-.1.83-.2,1.66-.32,2.47s-.23,1.61-.35,2.39-.25,1.56-.39,2.32-.28,1.51-.43,2.25h.59c.14-.74.29-1.49.42-2.25s.27-1.53.39-2.32.24-1.58.35-2.39.22-1.64.32-2.47h-.58m1-11c-.06,1-.12,1.9-.19,2.83s-.14,1.84-.22,2.74-.16,1.78-.25,2.64-.18,1.72-.28,2.56h.58c.1-.84.19-1.69.28-2.56s.17-1.75.25-2.64.15-1.81.22-2.74.12-1.87.18-2.83H142m.45-12.61c0,1.1,0,2.19-.07,3.25s0,2.11-.09,3.14-.08,2-.13,3-.09,2-.15,2.94h.58c0-1,.1-1.94.15-2.94s.09-2,.12-3,.07-2.08.1-3.14,0-2.15.07-3.25h-.58m0-14.47c0,1.27,0,2.51,0,3.73s0,2.42,0,3.6,0,2.35,0,3.49,0,2.26,0,3.37h.57c0-1.11,0-2.23,0-3.37s0-2.31,0-3.49,0-2.38,0-3.6,0-2.46,0-3.73h-.57m-.4-16.59c0,1.45.09,2.87.13,4.27s.08,2.78.11,4.13.06,2.69.09,4,.05,2.6.06,3.86h.58c0-1.26,0-2.55-.07-3.86s-.05-2.64-.09-4-.07-2.73-.11-4.13-.08-2.82-.13-4.27h-.57m-.77-19c.07,1.66.15,3.29.22,4.89s.13,3.18.2,4.74.12,3.07.17,4.57.11,3,.16,4.43h.58c-.05-1.45-.1-2.93-.16-4.43s-.12-3-.18-4.57-.13-3.13-.2-4.74-.14-3.23-.22-4.89h-.57m-1.11-21.72q.16,2.84.3,5.58c.1,1.83.19,3.63.28,5.41s.18,3.52.26,5.23.17,3.41.25,5.07h.57q-.1-2.49-.24-5.07c-.08-1.71-.17-3.46-.26-5.23s-.18-3.58-.28-5.41-.19-3.69-.29-5.58h-.59m-1.39-24.74c.12,2.15.24,4.26.36,6.35s.24,4.13.36,6.15.22,4,.33,6,.21,3.88.32,5.78h.58q-.15-2.85-.32-5.78t-.33-6q-.17-3-.35-6.15c-.12-2.09-.24-4.2-.37-6.35h-.58m-1.66-28.1q.21,3.64.43,7.2c.14,2.36.27,4.69.41,7s.27,4.54.4,6.77.26,4.41.38,6.57h.59c-.13-2.16-.25-4.35-.38-6.57s-.27-4.48-.4-6.77-.27-4.63-.41-7-.29-4.77-.43-7.2h-.59M136.07.18V.35c.07,1.14.14,2.27.2,3.39s.14,2.24.2,3.34.13,2.2.2,3.28.13,2.16.19,3.23l.06,1.05.06,1c0,.34,0,.69.07,1l.06,1h.59l-.06-1-.06-1-.07-1-.06-1.05-.19-3.23c-.06-1.08-.13-2.18-.19-3.28s-.14-2.22-.2-3.34-.14-2.25-.2-3.39V.18h-.6"/><path class="cls-18" d="M137.12,17.76h387.2c0,.54,0,.6-.05.65H113.86l0-.65h23.31"/><path class="cls-19" d="M138.78,45.94h383.6c0,.47,0,.52,0,.57H115.73c0-.48,0-.52,0-.57h23.08"/><path class="cls-20" d="M140.19,70.76H520.74l0,.49H117.31l0-.49h22.91"/><path class="cls-21" d="M141.3,92.54H519.45l0,.43H118.56l0-.43H141.3"/><path class="cls-22" d="M142.07,111.6H518.54l0,.39H119.43l0-.39h22.66"/><path class="cls-23" d="M142.48,128.25H518.06v.33H119.88v-.33h22.6"/><path class="cls-23" d="M142.49,142.77H518.06v.28H119.88v-.28h22.61"/><path class="cls-24" d="M142,155.41H518.58v.25H119.36l0-.25H142"/><path class="cls-25" d="M141.09,166.43H519.68l0,.23H118.27l0-.23h22.79"/><path class="cls-26" d="M139.57,176.09H521.45l0,.19h-405l0-.19h23"/><path class="cls-27" d="M137.41,184.61H524l.06.17h-410l.07-.17h23.26"/><path class="cls-28" d="M133.65,194H528.36l.14.23H109.76l.13-.23h23.76"/><path class="cls-29" d="M127.34,204H535.72l.19.21H102.58l.18-.21h24.58"/><path class="cls-30" d="M118.46,213.46H546.08l.26.21H92.47a2.32,2.32,0,0,1,.26-.21h25.73"/><path class="cls-31" d="M106.11,223.45H560.49l.37.23H78.41l.35-.23h27.35"/><path class="cls-32" d="M88.85,235.23H580.62l.51.28H58.76l.49-.28h29.6"/><path class="cls-33" d="M73.51,245h525l.38.21H41.53l.38-.21h31.6"/><path class="cls-34" d="M55.92,255.86H619l.5.27h-598l.48-.27H55.92"/></g></g></g></svg>