<svg width="500" height="272" viewBox="0 0 500 272" fill="none" xmlns="http://www.w3.org/2000/svg">
<g clip-path="url(#clip0_1_2)">
<g clip-path="url(#clip1_1_2)">
<path d="M122.609 266.383L120.448 261.472H110.006L107.845 266.383H104.954L113.852 246.737H116.631L125.557 266.383H122.609ZM110.989 259.226H119.466L115.227 249.6L110.989 259.226Z" fill="#DBCC9A"/>
<path d="M149.555 251.508H152.11V264.362C152.11 266.963 151.464 268.886 150.173 270.13C148.882 271.374 146.954 271.996 144.391 271.996C142.987 271.996 141.649 271.804 140.377 271.421C139.104 271.037 138.075 270.49 137.289 269.779L138.581 267.702C139.273 268.301 140.129 268.773 141.149 269.119C142.169 269.466 143.221 269.639 144.307 269.639C146.047 269.639 147.333 269.227 148.166 268.404C148.999 267.581 149.415 266.327 149.415 264.643V263.464C148.779 264.231 147.998 264.807 147.071 265.19C146.145 265.574 145.139 265.766 144.054 265.766C142.632 265.766 141.345 265.462 140.194 264.853C139.044 264.245 138.141 263.394 137.486 262.299C136.831 261.205 136.503 259.956 136.503 258.553C136.503 257.149 136.831 255.901 137.486 254.806C138.141 253.711 139.044 252.865 140.194 252.266C141.345 251.667 142.632 251.368 144.054 251.368C145.177 251.368 146.22 251.574 147.184 251.985C148.147 252.397 148.938 253.005 149.555 253.81V251.508ZM144.363 263.408C145.336 263.408 146.211 263.202 146.987 262.791C147.764 262.379 148.372 261.804 148.812 261.065C149.251 260.326 149.471 259.488 149.471 258.553C149.471 257.112 148.994 255.947 148.04 255.059C147.085 254.17 145.86 253.725 144.363 253.725C142.847 253.725 141.612 254.17 140.658 255.059C139.703 255.947 139.226 257.112 139.226 258.553C139.226 259.488 139.446 260.326 139.886 261.065C140.325 261.804 140.934 262.379 141.71 262.791C142.487 263.202 143.371 263.408 144.363 263.408Z" fill="#DBCC9A"/>
<path d="M158.369 266.383V245.558H161.064V266.383H158.369Z" fill="#DBCC9A"/>
<path d="M167.323 266.383V251.508H170.018V266.383H167.323ZM168.67 248.646C168.146 248.646 167.711 248.477 167.365 248.14C167.019 247.804 166.846 247.392 166.846 246.905C166.846 246.419 167.019 246.003 167.365 245.657C167.711 245.31 168.146 245.137 168.67 245.137C169.194 245.137 169.629 245.301 169.976 245.628C170.322 245.956 170.495 246.363 170.495 246.849C170.495 247.355 170.322 247.78 169.976 248.126C169.629 248.472 169.194 248.646 168.67 248.646Z" fill="#DBCC9A"/>
<path d="M187.617 245.558H190.311V266.383H187.729V264.026C187.13 264.849 186.372 265.476 185.456 265.906C184.539 266.336 183.528 266.551 182.424 266.551C180.983 266.551 179.692 266.233 178.551 265.597C177.409 264.961 176.516 264.068 175.87 262.917C175.224 261.766 174.902 260.442 174.902 258.946C174.902 257.449 175.224 256.13 175.87 254.988C176.516 253.847 177.409 252.958 178.551 252.322C179.692 251.686 180.983 251.368 182.424 251.368C183.491 251.368 184.473 251.569 185.371 251.971C186.27 252.374 187.018 252.968 187.617 253.754V245.558ZM182.649 264.194C183.584 264.194 184.436 263.974 185.203 263.534C185.97 263.095 186.569 262.477 186.999 261.682C187.43 260.887 187.645 259.975 187.645 258.946C187.645 257.917 187.43 257.004 186.999 256.209C186.569 255.414 185.97 254.801 185.203 254.371C184.436 253.941 183.584 253.725 182.649 253.725C181.694 253.725 180.838 253.941 180.08 254.371C179.323 254.801 178.724 255.414 178.284 256.209C177.844 257.004 177.624 257.917 177.624 258.946C177.624 259.975 177.844 260.887 178.284 261.682C178.724 262.477 179.323 263.095 180.08 263.534C180.838 263.974 181.694 264.194 182.649 264.194Z" fill="#DBCC9A"/>
<path d="M209.988 259.03C209.988 259.236 209.969 259.507 209.932 259.844H197.862C198.03 261.153 198.606 262.206 199.588 263.001C200.571 263.796 201.792 264.194 203.251 264.194C205.029 264.194 206.46 263.595 207.546 262.398L209.033 264.138C208.36 264.924 207.522 265.522 206.521 265.934C205.52 266.346 204.402 266.551 203.167 266.551C201.595 266.551 200.201 266.229 198.985 265.583C197.768 264.938 196.828 264.035 196.164 262.875C195.5 261.715 195.167 260.405 195.167 258.946C195.167 257.505 195.49 256.205 196.136 255.045C196.781 253.884 197.67 252.982 198.802 252.336C199.934 251.691 201.212 251.368 202.634 251.368C204.056 251.368 205.324 251.691 206.437 252.336C207.55 252.982 208.421 253.884 209.047 255.045C209.674 256.205 209.988 257.533 209.988 259.03ZM202.634 253.641C201.343 253.641 200.262 254.034 199.392 254.82C198.522 255.606 198.012 256.635 197.862 257.907H207.405C207.256 256.654 206.746 255.629 205.876 254.834C205.006 254.039 203.925 253.641 202.634 253.641Z" fill="#DBCC9A"/>
<path d="M231.039 263.576L231.882 265.513C231.489 265.85 231.002 266.107 230.422 266.285C229.842 266.463 229.243 266.551 228.626 266.551C227.129 266.551 225.968 266.149 225.145 265.345C224.322 264.54 223.91 263.389 223.91 261.893V253.725H221.384V251.508H223.91V248.253H226.605V251.508H230.871V253.725H226.605V261.78C226.605 262.585 226.806 263.202 227.208 263.633C227.61 264.063 228.186 264.278 228.934 264.278C229.758 264.278 230.459 264.044 231.039 263.576Z" fill="#DBCC9A"/>
<path d="M242.127 266.551C240.648 266.551 239.32 266.224 238.141 265.569C236.962 264.914 236.04 264.011 235.376 262.861C234.712 261.71 234.38 260.405 234.38 258.946C234.38 257.486 234.712 256.181 235.376 255.03C236.04 253.88 236.962 252.982 238.141 252.336C239.32 251.691 240.648 251.368 242.127 251.368C243.605 251.368 244.929 251.691 246.098 252.336C247.268 252.982 248.185 253.88 248.849 255.03C249.513 256.181 249.846 257.486 249.846 258.946C249.846 260.405 249.513 261.71 248.849 262.861C248.185 264.011 247.268 264.914 246.098 265.569C244.929 266.224 243.605 266.551 242.127 266.551ZM242.127 264.194C243.081 264.194 243.937 263.974 244.695 263.534C245.453 263.095 246.047 262.477 246.477 261.682C246.908 260.887 247.123 259.975 247.123 258.946C247.123 257.917 246.908 257.004 246.477 256.209C246.047 255.414 245.453 254.801 244.695 254.371C243.937 253.941 243.081 253.725 242.127 253.725C241.172 253.725 240.316 253.941 239.558 254.371C238.8 254.801 238.202 255.414 237.762 256.209C237.322 257.004 237.102 257.917 237.102 258.946C237.102 259.975 237.322 260.887 237.762 261.682C238.202 262.477 238.8 263.095 239.558 263.534C240.316 263.974 241.172 264.194 242.127 264.194Z" fill="#DBCC9A"/>
<path d="M270.897 263.576L271.739 265.513C271.346 265.85 270.86 266.107 270.28 266.285C269.7 266.463 269.101 266.551 268.483 266.551C266.986 266.551 265.826 266.149 265.003 265.345C264.179 264.54 263.768 263.389 263.768 261.893V253.725H261.242V251.508H263.768V248.253H266.462V251.508H270.729V253.725H266.462V261.78C266.462 262.585 266.664 263.202 267.066 263.633C267.468 264.063 268.044 264.278 268.792 264.278C269.615 264.278 270.317 264.044 270.897 263.576Z" fill="#DBCC9A"/>
<path d="M284.062 251.368C285.952 251.368 287.453 251.915 288.567 253.01C289.68 254.104 290.237 255.709 290.237 257.823V266.383H287.542V258.132C287.542 256.691 287.196 255.606 286.504 254.876C285.811 254.146 284.819 253.782 283.528 253.782C282.069 253.782 280.918 254.207 280.076 255.059C279.234 255.91 278.813 257.131 278.813 258.721V266.383H276.118V245.558H278.813V253.613C279.374 252.902 280.109 252.35 281.016 251.957C281.924 251.564 282.939 251.368 284.062 251.368Z" fill="#DBCC9A"/>
<path d="M309.885 259.03C309.885 259.236 309.866 259.507 309.829 259.844H297.759C297.928 261.153 298.503 262.206 299.485 263.001C300.468 263.796 301.689 264.194 303.148 264.194C304.926 264.194 306.358 263.595 307.443 262.398L308.931 264.138C308.257 264.924 307.42 265.522 306.418 265.934C305.417 266.346 304.299 266.551 303.064 266.551C301.492 266.551 300.098 266.229 298.882 265.583C297.666 264.938 296.725 264.035 296.061 262.875C295.397 261.715 295.065 260.405 295.065 258.946C295.065 257.505 295.387 256.205 296.033 255.045C296.679 253.884 297.567 252.982 298.7 252.336C299.832 251.691 301.109 251.368 302.531 251.368C303.953 251.368 305.221 251.691 306.334 252.336C307.448 252.982 308.318 253.884 308.945 255.045C309.572 256.205 309.885 257.533 309.885 259.03ZM302.531 253.641C301.24 253.641 300.159 254.034 299.289 254.82C298.419 255.606 297.909 256.635 297.759 257.907H307.303C307.153 256.654 306.643 255.629 305.773 254.834C304.903 254.039 303.822 253.641 302.531 253.641Z" fill="#DBCC9A"/>
<path d="M329.786 266.551C328.308 266.551 326.979 266.224 325.8 265.569C324.621 264.914 323.7 264.011 323.035 262.861C322.371 261.71 322.039 260.405 322.039 258.946C322.039 257.486 322.371 256.181 323.035 255.03C323.7 253.88 324.621 252.982 325.8 252.336C326.979 251.691 328.308 251.368 329.786 251.368C331.264 251.368 332.588 251.691 333.758 252.336C334.927 252.982 335.844 253.88 336.508 255.03C337.173 256.181 337.505 257.486 337.505 258.946C337.505 260.405 337.173 261.71 336.508 262.861C335.844 264.011 334.927 264.914 333.758 265.569C332.588 266.224 331.264 266.551 329.786 266.551ZM329.786 264.194C330.74 264.194 331.596 263.974 332.354 263.534C333.112 263.095 333.706 262.477 334.137 261.682C334.567 260.887 334.782 259.975 334.782 258.946C334.782 257.917 334.567 257.004 334.137 256.209C333.706 255.414 333.112 254.801 332.354 254.371C331.596 253.941 330.74 253.725 329.786 253.725C328.832 253.725 327.975 253.941 327.218 254.371C326.46 254.801 325.861 255.414 325.421 256.209C324.981 257.004 324.762 257.917 324.762 258.946C324.762 259.975 324.981 260.887 325.421 261.682C325.861 262.477 326.46 263.095 327.218 263.534C327.975 263.974 328.832 264.194 329.786 264.194Z" fill="#DBCC9A"/>
<path d="M350.248 251.368C351.689 251.368 352.98 251.686 354.122 252.322C355.263 252.958 356.157 253.847 356.802 254.988C357.448 256.13 357.771 257.449 357.771 258.946C357.771 260.442 357.448 261.766 356.802 262.917C356.157 264.068 355.263 264.961 354.122 265.597C352.98 266.233 351.689 266.551 350.248 266.551C349.181 266.551 348.204 266.346 347.315 265.934C346.426 265.522 345.673 264.924 345.055 264.138V271.828H342.361V251.508H344.943V253.866C345.542 253.043 346.3 252.42 347.217 251.999C348.134 251.578 349.144 251.368 350.248 251.368ZM350.024 264.194C350.978 264.194 351.834 263.974 352.592 263.534C353.35 263.095 353.948 262.477 354.388 261.682C354.828 260.887 355.048 259.975 355.048 258.946C355.048 257.917 354.828 257.004 354.388 256.209C353.948 255.414 353.35 254.801 352.592 254.371C351.834 253.941 350.978 253.725 350.024 253.725C349.088 253.725 348.241 253.945 347.483 254.385C346.725 254.825 346.127 255.437 345.687 256.223C345.247 257.009 345.027 257.917 345.027 258.946C345.027 259.975 345.242 260.887 345.673 261.682C346.103 262.477 346.702 263.095 347.469 263.534C348.236 263.974 349.088 264.194 350.024 264.194Z" fill="#DBCC9A"/>
<path d="M376.071 259.03C376.071 259.236 376.053 259.507 376.015 259.844H363.946C364.114 261.153 364.689 262.206 365.672 263.001C366.654 263.796 367.875 264.194 369.335 264.194C371.113 264.194 372.544 263.595 373.629 262.398L375.117 264.138C374.443 264.924 373.606 265.522 372.605 265.934C371.604 266.346 370.486 266.551 369.251 266.551C367.679 266.551 366.285 266.229 365.068 265.583C363.852 264.938 362.912 264.035 362.248 262.875C361.583 261.715 361.251 260.405 361.251 258.946C361.251 257.505 361.574 256.205 362.219 255.045C362.865 253.884 363.754 252.982 364.886 252.336C366.018 251.691 367.295 251.368 368.717 251.368C370.14 251.368 371.407 251.691 372.521 252.336C373.634 252.982 374.504 253.884 375.131 255.045C375.758 256.205 376.071 257.533 376.071 259.03ZM368.717 253.641C367.426 253.641 366.346 254.034 365.475 254.82C364.605 255.606 364.095 256.635 363.946 257.907H373.489C373.339 256.654 372.829 255.629 371.959 254.834C371.089 254.039 370.009 253.641 368.717 253.641Z" fill="#DBCC9A"/>
<path d="M388.871 251.368C390.761 251.368 392.263 251.915 393.376 253.01C394.489 254.104 395.046 255.709 395.046 257.823V266.383H392.351V258.132C392.351 256.691 392.005 255.606 391.313 254.876C390.621 254.146 389.629 253.782 388.338 253.782C386.878 253.782 385.727 254.207 384.885 255.059C384.043 255.91 383.622 257.131 383.622 258.721V266.383H380.927V251.508H383.51V253.754C384.052 252.986 384.787 252.397 385.713 251.985C386.639 251.574 387.692 251.368 388.871 251.368Z" fill="#DBCC9A"/>
</g>
<g clip-path="url(#clip2_1_2)">
<path d="M55.5427 145.075C54.2808 145.022 53.0057 144.956 51.7174 144.877C50.4423 144.799 49.0686 144.72 47.5963 144.641C46.1372 144.562 44.5269 144.496 42.7654 144.444C41.0039 144.391 39.019 144.365 36.8105 144.365C33.9974 144.365 31.2632 144.437 28.6078 144.582C25.9656 144.726 23.3497 144.989 20.76 145.37C18.1704 145.752 15.5741 146.291 12.9714 146.987C10.3817 147.684 7.72634 148.598 5.00524 149.728C6.10946 152.804 6.99677 155.821 7.66719 158.779C8.3376 161.723 8.85685 164.536 9.22492 167.218C9.59299 169.886 9.84275 172.384 9.97421 174.711C10.1057 177.051 10.1714 179.161 10.1714 181.04C10.1714 182.815 10.132 184.373 10.0531 185.713C9.97421 187.067 9.88219 188.191 9.77702 189.085C9.67186 190.163 9.54698 191.09 9.40238 191.866C10.6249 188.934 11.8211 185.832 12.9911 182.559C14.161 179.285 15.2718 176.039 16.3234 172.818C17.3751 169.597 18.3544 166.482 19.2614 163.472C20.1553 160.474 20.944 157.78 21.6276 155.387C22.3112 152.995 22.8698 150.997 23.3036 149.393C23.7374 147.789 24.0201 146.77 24.1515 146.337C24.7168 146.797 25.4003 147.388 26.2022 148.111C27.0172 148.834 27.8322 149.577 28.6472 150.339C29.4754 151.115 30.2378 151.851 30.9346 152.548C31.6444 153.258 32.1965 153.843 32.5909 154.303C31.9467 156.695 31.0989 159.331 30.0472 162.21C28.9956 165.075 27.8322 168.04 26.5571 171.102C25.282 174.152 23.9543 177.215 22.5741 180.291C21.1807 183.354 19.8333 186.259 18.5319 189.006C17.2173 191.754 16.0014 194.258 14.884 196.519C13.7667 198.78 12.8465 200.64 12.1235 202.099C11.7423 201.718 11.269 201.192 10.7038 200.522C10.1385 199.851 9.56013 199.174 8.96858 198.491C8.37704 197.82 7.83151 197.189 7.33198 196.598C6.83245 196.006 6.47096 195.579 6.24748 195.316C6.28692 195.014 6.37894 194.481 6.52354 193.719C6.66814 192.97 6.81274 192.023 6.95734 190.88C7.08879 189.736 7.2071 188.408 7.31226 186.897C7.41742 185.372 7.47001 183.689 7.47001 181.849C7.47001 179.746 7.37799 177.478 7.19395 175.046C7.02306 172.614 6.67471 170.09 6.14889 167.474C5.62308 164.858 4.86722 162.164 3.88131 159.39C2.90855 156.616 1.64002 153.816 0.0757174 150.99C0.0494266 150.99 0.0362812 150.977 0.0362812 150.951C0.00999042 150.924 -0.00315495 150.865 -0.00315495 150.773C-0.00315495 150.51 0.0888628 150.155 0.272898 149.708C0.456934 149.261 0.693551 148.775 0.98275 148.249C1.27195 147.723 1.59401 147.198 1.94894 146.672C2.29072 146.146 2.61935 145.686 2.93484 145.291C3.05315 145.147 3.66441 144.785 4.76863 144.207C5.87284 143.629 7.39771 142.938 9.34323 142.137C11.2756 141.348 13.5826 140.5 16.2643 139.593C18.9459 138.699 21.9234 137.871 25.1966 137.108C28.4566 136.359 31.9665 135.735 35.726 135.235C39.4856 134.749 43.403 134.506 47.478 134.506C47.6621 134.716 47.9513 135.058 48.3456 135.531C48.7531 136.004 49.2132 136.556 49.7259 137.187C50.2386 137.818 50.7841 138.502 51.3625 139.238C51.9409 139.961 52.4996 140.677 53.0385 141.387C53.5775 142.097 54.0639 142.774 54.4977 143.418C54.9315 144.049 55.2798 144.601 55.5427 145.075Z" fill="#DBCC9A"/>
<path d="M56.6864 190.742C57.0676 190.742 57.5803 190.577 58.2244 190.249C58.8685 189.907 59.585 189.48 60.3737 188.967C61.1493 188.454 61.9511 187.882 62.7793 187.252C63.5943 186.621 64.383 186.003 65.1455 185.398C65.8947 184.806 66.5652 184.254 67.1567 183.742C67.7482 183.242 68.2018 182.868 68.5173 182.618C68.7407 182.841 69.0168 183.137 69.3454 183.505C69.6609 183.86 69.9632 184.195 70.2524 184.511C69.6872 185.063 68.9773 185.733 68.1229 186.522C67.2816 187.311 66.3746 188.113 65.4018 188.928C64.4159 189.756 63.3971 190.564 62.3455 191.353C61.2939 192.155 60.2685 192.878 59.2695 193.522C58.2704 194.153 57.3305 194.666 56.4498 195.06C55.5822 195.441 54.8526 195.632 54.2611 195.632C53.7747 195.632 53.2029 195.507 52.5456 195.257C51.8883 195.02 51.2573 194.718 50.6527 194.35C50.0611 193.969 49.5484 193.555 49.1146 193.108C48.694 192.661 48.4837 192.22 48.4837 191.787C48.51 190.682 48.7137 189.394 49.0949 187.922C49.4893 186.463 49.9494 184.964 50.4752 183.426C51.001 181.888 51.5663 180.363 52.1709 178.852C52.7756 177.353 53.3343 176.012 53.847 174.829C53.6367 174.882 53.2357 175.164 52.6442 175.677C52.0526 176.19 51.3428 176.893 50.5146 177.787C49.6733 178.668 48.7597 179.732 47.7738 180.981C46.7879 182.23 45.8151 183.623 44.8555 185.161C43.8828 186.699 42.9626 188.362 42.095 190.15C41.2274 191.925 40.4978 193.804 39.9063 195.789C39.8274 196.065 39.7157 196.269 39.5711 196.401C39.4265 196.532 39.1899 196.598 38.8612 196.598C38.6246 196.598 38.2631 196.48 37.7767 196.243C37.2904 196.019 36.7777 195.743 36.2387 195.415C35.6998 195.099 35.1739 194.758 34.6613 194.389C34.1486 194.035 33.7345 193.719 33.419 193.443C33.2744 193.259 33.1496 193.088 33.0444 192.93C32.9392 192.786 32.8866 192.556 32.8866 192.24C32.8866 190.544 33.1693 188.467 33.7345 186.009C34.2998 183.538 35.0753 180.856 36.0613 177.964C37.0472 175.085 38.204 172.069 39.5316 168.914C40.8593 165.772 42.2725 162.689 43.771 159.666C45.2696 156.629 46.8339 153.744 48.4639 151.01C50.094 148.275 51.6977 145.863 53.2752 143.773C54.8526 141.683 56.3709 140 57.83 138.725C59.276 137.463 60.6037 136.793 61.8131 136.714C62.4046 136.885 63.0028 137.168 63.6074 137.562C64.2121 137.943 64.784 138.364 65.3229 138.824C65.8619 139.284 66.3417 139.731 66.7623 140.165C67.183 140.612 67.5116 140.986 67.7482 141.289C67.8928 141.499 67.9914 141.742 68.044 142.018C68.0966 142.307 68.1229 142.511 68.1229 142.63C68.1229 143.563 67.8666 144.707 67.3539 146.06C66.8412 147.428 66.1248 148.959 65.2046 150.655C64.2713 152.351 63.1474 154.165 61.8328 156.097C60.5051 158.042 59.0394 160.034 57.4357 162.072C55.8319 164.109 54.1033 166.166 52.2498 168.243C50.3832 170.333 48.4377 172.351 46.4133 174.297C45.9006 175.677 45.4339 177.024 45.0133 178.339C46.4067 176.906 47.6818 175.697 48.8386 174.711C49.9954 173.738 51.0207 172.962 51.9146 172.384C52.8085 171.806 53.5709 171.398 54.2019 171.162C54.8329 170.912 55.3127 170.787 55.6413 170.787C55.8779 170.787 56.292 170.938 56.8836 171.24C57.4751 171.53 58.0929 171.878 58.7371 172.286C59.3812 172.706 59.9727 173.133 60.5117 173.567C61.0507 174.001 61.3793 174.362 61.4976 174.652C61.5502 174.77 61.5502 174.941 61.4976 175.164C61.445 175.375 61.3924 175.546 61.3399 175.677C61.1164 176.374 60.8403 177.176 60.5117 178.083C60.1962 179.003 59.8544 179.969 59.4864 180.981C59.1051 181.993 58.7371 183.012 58.3821 184.037C58.0272 185.063 57.7052 186.009 57.416 186.877C57.1399 187.731 56.9099 188.487 56.7258 189.144C56.5418 189.802 56.4498 190.255 56.4498 190.505C56.4498 190.663 56.5286 190.742 56.6864 190.742ZM53.2949 157.615C52.677 158.93 52.0789 160.231 51.5005 161.519C50.9353 162.821 50.3832 164.129 49.8442 165.443C51.5531 163.235 53.216 160.994 54.8329 158.719C56.4498 156.445 57.8958 154.263 59.1709 152.173C60.446 150.083 61.4647 148.151 62.2272 146.376C63.0028 144.601 63.3905 143.109 63.3905 141.9C63.3905 141.335 63.2854 141.052 63.0751 141.052C62.7727 141.052 62.3061 141.473 61.6751 142.314C61.0441 143.142 60.2948 144.292 59.4272 145.765C58.5465 147.224 57.5869 148.966 56.5484 150.99C55.5099 153.028 54.4254 155.236 53.2949 157.615Z" fill="#DBCC9A"/>
<path d="M93.2043 182.618L95.0775 184.511C92.7245 186.811 90.5029 188.744 88.4128 190.308C86.3096 191.885 84.3115 193.147 82.4185 194.094C80.5124 195.04 78.6918 195.717 76.9566 196.125C75.2346 196.545 73.5519 196.756 71.9088 196.756C71.2121 196.756 70.4365 196.499 69.582 195.987C68.7407 195.474 67.952 194.85 67.2159 194.113C66.4929 193.377 65.8882 192.615 65.4018 191.826C64.9023 191.024 64.6525 190.341 64.6525 189.775C64.6525 187.672 64.9417 185.74 65.5201 183.978C66.0985 182.217 66.8675 180.633 67.8271 179.226C68.7736 177.82 69.8581 176.571 71.0806 175.48C72.29 174.402 73.5585 173.508 74.8862 172.798C76.2139 172.075 77.5284 171.536 78.8298 171.181C80.1444 170.813 81.3537 170.629 82.4579 170.629C83.2467 170.629 84.0354 170.866 84.8241 171.339C85.5997 171.799 86.3096 172.358 86.9537 173.015C87.5978 173.685 88.1171 174.389 88.5114 175.125C88.9189 175.861 89.1227 176.499 89.1227 177.038C89.1227 177.905 88.7546 178.792 88.0185 179.699C87.2823 180.62 86.2504 181.553 84.9227 182.499C83.5819 183.446 81.9781 184.412 80.1115 185.398C78.2317 186.397 76.1613 187.396 73.9003 188.395C73.8214 189.013 73.782 189.618 73.782 190.209C73.782 190.998 73.9595 191.537 74.3144 191.826C74.6562 192.102 75.3003 192.24 76.2468 192.24C77.9425 192.24 79.5462 191.958 81.058 191.392C82.5565 190.827 83.996 190.097 85.3762 189.204C86.7696 188.297 88.1039 187.271 89.379 186.128C90.6673 184.971 91.9424 183.801 93.2043 182.618ZM81.5312 174.869C81.0185 174.869 80.4533 175.145 79.8354 175.697C79.2176 176.249 78.5998 176.978 77.9819 177.885C77.3641 178.779 76.7726 179.811 76.2073 180.981C75.6421 182.151 75.1557 183.36 74.7482 184.609C75.6946 184.005 76.628 183.354 77.5481 182.657C78.4552 181.96 79.2702 181.231 79.9932 180.468C80.703 179.719 81.2814 178.944 81.7284 178.142C82.1622 177.353 82.3791 176.558 82.3791 175.756C82.3791 175.532 82.3068 175.329 82.1622 175.145C82.0176 174.961 81.8073 174.869 81.5312 174.869Z" fill="#DBCC9A"/>
<path d="M166.26 144.522C166.589 144.956 166.871 145.41 167.108 145.883C167.331 146.343 167.509 146.869 167.64 147.46C167.772 148.052 167.87 148.722 167.936 149.472C168.002 150.234 168.021 151.115 167.995 152.114C167.89 155.427 167.456 158.831 166.694 162.328C165.944 165.811 164.86 169.223 163.44 172.562C162.034 175.9 160.318 179.101 158.294 182.164C156.256 185.24 153.929 188.027 151.314 190.525C148.698 193.035 145.792 195.178 142.598 196.953C139.391 198.741 135.914 200.035 132.167 200.837C130.958 200.062 129.906 199.312 129.012 198.589C128.119 197.88 127.35 197.222 126.705 196.618C126.061 196.013 125.542 195.487 125.148 195.04C124.753 194.593 124.464 194.251 124.28 194.015C122.913 196.013 121.566 197.597 120.238 198.767C118.897 199.937 117.589 200.522 116.314 200.522C115.696 200.522 115.078 200.351 114.46 200.009C113.843 199.654 113.258 199.207 112.706 198.668C112.153 198.129 111.634 197.525 111.148 196.854C110.661 196.197 110.241 195.559 109.886 194.942C109.544 194.324 109.268 193.758 109.058 193.246C108.86 192.733 108.762 192.345 108.762 192.082C108.762 190.492 109.012 188.711 109.511 186.739C110.011 184.754 110.707 182.657 111.601 180.449C112.508 178.24 113.586 175.96 114.835 173.607C116.097 171.24 117.497 168.868 119.035 166.488C120.573 164.122 122.223 161.776 123.984 159.449C125.746 157.122 127.58 154.894 129.486 152.765C130.195 149.229 130.774 145.725 131.221 142.255C131.681 138.785 131.97 135.459 132.088 132.278C133.561 133.198 134.895 134.111 136.091 135.018C137.274 135.912 138.293 136.734 139.147 137.483C140.147 138.324 141.034 139.146 141.809 139.948L141.691 141.683C144.123 139.935 146.522 138.568 148.888 137.582C151.254 136.583 153.515 136.083 155.671 136.083C156.723 136.083 157.742 136.372 158.728 136.951C159.713 137.529 160.66 138.246 161.567 139.1C162.487 139.941 163.335 140.855 164.111 141.841C164.899 142.84 165.616 143.734 166.26 144.522ZM139.995 151.996C139.509 154.283 138.937 156.675 138.28 159.173C137.623 161.684 136.9 164.201 136.111 166.725C135.309 169.262 134.461 171.786 133.567 174.297C132.66 176.808 131.72 179.22 130.748 181.533C129.775 183.847 128.763 186.029 127.711 188.08C126.659 190.13 125.608 191.964 124.556 193.581C127.764 193.095 130.748 192.234 133.508 190.998C136.269 189.749 138.799 188.218 141.1 186.404C143.413 184.603 145.516 182.578 147.409 180.33C149.289 178.083 150.965 175.723 152.438 173.252C153.897 170.793 155.172 168.27 156.263 165.68C157.354 163.103 158.248 160.593 158.944 158.148C159.628 155.689 160.147 153.343 160.502 151.108C160.844 148.874 161.015 146.862 161.015 145.075C161.015 144.536 160.943 143.984 160.798 143.418C160.667 142.853 160.456 142.334 160.167 141.861C159.891 141.4 159.536 141.032 159.102 140.756C158.682 140.467 158.189 140.323 157.623 140.323C156.545 140.323 155.343 140.612 154.015 141.19C152.674 141.769 151.248 142.577 149.736 143.615C148.224 144.654 146.647 145.89 145.004 147.322C143.361 148.742 141.691 150.3 139.995 151.996ZM114.658 193.285C115.144 193.509 115.782 193.049 116.57 191.905C117.372 190.748 118.259 189.092 119.232 186.936C120.205 184.78 121.224 182.191 122.289 179.167C123.353 176.157 124.398 172.89 125.424 169.367C123.781 171.655 122.269 173.889 120.889 176.071C119.508 178.253 118.312 180.311 117.3 182.243C116.301 184.189 115.519 185.963 114.953 187.567C114.388 189.171 114.106 190.525 114.106 191.629C114.106 192.497 114.29 193.049 114.658 193.285Z" fill="#DBCC9A"/>
<path d="M190.296 182.618L192.169 184.511C189.816 186.811 187.588 188.744 185.485 190.308C183.395 191.885 181.403 193.147 179.51 194.094C177.604 195.04 175.784 195.717 174.049 196.125C172.313 196.545 170.624 196.756 168.981 196.756C168.297 196.756 167.528 196.499 166.674 195.987C165.833 195.474 165.044 194.85 164.308 194.113C163.585 193.377 162.974 192.615 162.474 191.826C161.988 191.024 161.744 190.341 161.744 189.775C161.744 187.672 162.034 185.74 162.612 183.978C163.19 182.217 163.953 180.633 164.899 179.226C165.859 177.82 166.943 176.571 168.153 175.48C169.375 174.402 170.65 173.508 171.978 172.798C173.293 172.075 174.607 171.536 175.922 171.181C177.236 170.813 178.446 170.629 179.55 170.629C180.339 170.629 181.127 170.866 181.916 171.339C182.692 171.799 183.401 172.358 184.046 173.015C184.69 173.685 185.209 174.389 185.603 175.125C186.011 175.861 186.215 176.499 186.215 177.038C186.215 177.905 185.847 178.792 185.11 179.699C184.374 180.62 183.342 181.553 182.015 182.499C180.674 183.446 179.064 184.412 177.184 185.398C175.317 186.397 173.253 187.396 170.992 188.395C170.913 189.013 170.874 189.618 170.874 190.209C170.874 190.998 171.051 191.537 171.406 191.826C171.748 192.102 172.392 192.24 173.339 192.24C175.034 192.24 176.632 191.958 178.13 191.392C179.642 190.827 181.088 190.097 182.468 189.204C183.862 188.297 185.196 187.271 186.471 186.128C187.759 184.971 189.034 183.801 190.296 182.618ZM178.623 174.869C178.11 174.869 177.545 175.145 176.927 175.697C176.31 176.249 175.692 176.978 175.074 177.885C174.456 178.779 173.864 179.811 173.299 180.981C172.734 182.151 172.248 183.36 171.84 184.609C172.787 184.005 173.72 183.354 174.64 182.657C175.547 181.96 176.362 181.231 177.085 180.468C177.795 179.719 178.373 178.944 178.82 178.142C179.254 177.353 179.471 176.558 179.471 175.756C179.471 175.532 179.399 175.329 179.254 175.145C179.11 174.961 178.899 174.869 178.623 174.869Z" fill="#DBCC9A"/>
<path d="M189.547 183.347C190.139 182.782 190.815 182.138 191.578 181.415C192.34 180.705 193.096 179.923 193.846 179.069C194.608 178.227 195.318 177.314 195.975 176.328C196.619 175.355 197.138 174.303 197.533 173.173C197.638 172.581 197.796 171.963 198.006 171.319C198.229 170.662 198.473 170.064 198.736 169.525C199.012 168.986 199.275 168.533 199.524 168.164C199.787 167.81 200.017 167.632 200.214 167.632C200.53 167.816 200.997 168.158 201.614 168.657C202.232 169.157 202.85 169.689 203.468 170.255C204.073 170.82 204.618 171.339 205.105 171.812C205.578 172.286 205.814 172.575 205.814 172.68C205.499 173.863 205.348 174.928 205.361 175.874C205.374 176.821 205.453 177.761 205.598 178.694C205.742 179.614 205.893 180.593 206.051 181.632C206.222 182.67 206.307 183.873 206.307 185.24C206.307 186.055 206.176 186.995 205.913 188.06C205.637 189.125 205.164 190.084 204.493 190.939C205.808 190.163 207.109 189.296 208.397 188.336C209.673 187.376 210.81 186.469 211.809 185.615C212.992 184.616 214.122 183.617 215.2 182.618L216.935 184.511C216.094 185.299 215.174 186.141 214.175 187.035C213.189 187.942 212.164 188.829 211.099 189.697C210.034 190.577 208.95 191.412 207.845 192.201C206.741 193.003 205.65 193.712 204.572 194.33C203.494 194.935 202.456 195.421 201.457 195.789C200.458 196.144 199.518 196.322 198.637 196.322C197.901 196.322 197.079 196.144 196.172 195.789C195.278 195.421 194.43 194.981 193.629 194.468C192.84 193.956 192.15 193.417 191.558 192.851C190.967 192.286 190.618 191.813 190.513 191.432C190.513 191.379 190.566 191.267 190.671 191.097C190.776 190.939 190.901 190.768 191.046 190.584C191.177 190.4 191.315 190.242 191.46 190.111C191.604 189.966 191.716 189.894 191.795 189.894C191.939 189.894 192.248 190.012 192.722 190.249C193.182 190.472 193.951 190.584 195.029 190.584C195.62 190.584 196.126 190.433 196.547 190.13C196.968 189.815 197.322 189.401 197.612 188.888C197.888 188.375 198.091 187.784 198.223 187.113C198.354 186.456 198.42 185.753 198.42 185.004C198.42 183.926 198.368 182.881 198.262 181.868C198.157 180.856 198.039 179.87 197.907 178.911C197.474 179.423 196.974 179.962 196.409 180.528C195.844 181.093 195.272 181.652 194.693 182.204C194.115 182.756 193.537 183.295 192.958 183.821C192.38 184.346 191.861 184.82 191.4 185.24L189.547 183.347Z" fill="#DBCC9A"/>
<path d="M224.902 175.914L223.6 179.759C224.98 178.037 226.249 176.617 227.406 175.5C228.563 174.395 229.588 173.515 230.482 172.857C231.362 172.2 232.112 171.74 232.73 171.477C233.347 171.227 233.808 171.102 234.11 171.102C234.517 171.102 234.971 171.254 235.47 171.556C235.957 171.871 236.437 172.246 236.91 172.68C237.383 173.114 237.823 173.561 238.231 174.021C238.638 174.481 238.987 174.855 239.276 175.145C239.552 175.421 239.723 175.723 239.789 176.052C239.854 176.367 239.887 176.696 239.887 177.038C239.887 178.234 239.684 179.548 239.276 180.981C238.868 182.401 238.33 183.814 237.659 185.221C236.989 186.614 236.233 187.942 235.392 189.204C234.537 190.466 233.676 191.53 232.808 192.398C233.545 192.082 234.307 191.701 235.096 191.254C235.884 190.807 236.66 190.328 237.423 189.815C238.198 189.302 238.954 188.77 239.69 188.218C240.439 187.666 241.149 187.12 241.82 186.581C243.384 185.345 244.896 184.024 246.355 182.618L248.09 184.511C247.249 185.299 246.309 186.141 245.27 187.035C244.232 187.942 243.147 188.829 242.017 189.697C240.886 190.577 239.736 191.412 238.566 192.201C237.396 193.003 236.272 193.712 235.194 194.33C234.116 194.935 233.117 195.421 232.197 195.789C231.264 196.144 230.462 196.322 229.792 196.322C229.332 196.322 228.76 196.19 228.076 195.927C227.379 195.651 226.702 195.323 226.045 194.942C225.388 194.56 224.823 194.14 224.349 193.68C223.876 193.233 223.64 192.832 223.64 192.477C223.64 192.266 223.771 192.082 224.034 191.925C224.31 191.754 224.704 191.451 225.217 191.018C225.73 190.571 226.348 189.913 227.071 189.046C227.78 188.178 228.589 186.91 229.496 185.24C229.982 184.307 230.442 183.347 230.876 182.361C231.31 181.376 231.698 180.455 232.039 179.601C232.368 178.733 232.631 177.984 232.828 177.353C233.012 176.722 233.104 176.295 233.104 176.071C233.104 175.835 233.078 175.67 233.025 175.578C232.96 175.5 232.9 175.434 232.848 175.381C232.743 175.355 232.651 175.355 232.572 175.381C232.217 175.473 231.494 176.045 230.403 177.097C229.312 178.135 228.03 179.621 226.558 181.553C225.099 183.499 223.548 185.858 221.904 188.632C220.261 191.419 218.71 194.6 217.251 198.175C216.042 201.619 214.832 205.096 213.623 208.606C212.413 212.129 211.23 215.632 210.073 219.116L200.293 221.443C201.792 217.197 203.343 212.99 204.947 208.823C206.551 204.656 208.141 200.482 209.719 196.302C211.296 192.135 212.847 187.955 214.372 183.761C215.897 179.581 217.356 175.388 218.749 171.181C218.828 170.892 218.901 170.688 218.966 170.57C219.032 170.465 219.164 170.412 219.361 170.412C219.768 170.531 220.268 170.767 220.859 171.122C221.451 171.464 222.036 171.858 222.614 172.305C223.193 172.765 223.712 173.225 224.172 173.685C224.632 174.146 224.954 174.54 225.138 174.869C225.191 174.947 225.184 175.085 225.118 175.283C225.053 175.467 224.98 175.677 224.902 175.914Z" fill="#DBCC9A"/>
<path d="M267.966 190.584C267.966 190.742 268.045 190.82 268.202 190.82C268.426 190.82 268.807 190.65 269.346 190.308C269.885 189.979 270.503 189.559 271.2 189.046C271.896 188.533 272.632 187.955 273.408 187.311C274.197 186.667 274.953 186.036 275.676 185.418C276.385 184.813 277.03 184.248 277.608 183.722C278.186 183.209 278.633 182.815 278.949 182.539C279.172 182.762 279.461 183.071 279.816 183.466C280.158 183.847 280.467 184.195 280.743 184.511C280.138 185.063 279.402 185.746 278.535 186.561C277.68 187.376 276.76 188.218 275.774 189.085C274.775 189.953 273.75 190.82 272.698 191.688C271.647 192.543 270.621 193.305 269.622 193.975C268.623 194.646 267.67 195.191 266.763 195.612C265.869 196.033 265.087 196.243 264.417 196.243C263.956 196.243 263.45 196.157 262.898 195.987C262.346 195.803 261.84 195.546 261.38 195.218C260.92 194.902 260.532 194.527 260.217 194.094C259.914 193.66 259.763 193.173 259.763 192.635C259.763 192.424 259.757 192.174 259.743 191.885C259.73 191.583 259.75 191.195 259.803 190.722C259.855 190.249 259.96 189.67 260.118 188.987C260.263 188.303 260.493 187.462 260.808 186.463C259.954 187.357 258.955 188.297 257.811 189.282C256.667 190.255 255.471 191.175 254.222 192.043C252.96 192.924 251.692 193.712 250.417 194.409C249.155 195.119 247.985 195.658 246.907 196.026C246.775 196.065 246.67 196.085 246.591 196.085C246.513 196.085 246.434 196.085 246.355 196.085C246.105 196.085 245.77 195.96 245.349 195.711C244.915 195.448 244.495 195.106 244.087 194.685C243.68 194.265 243.325 193.785 243.022 193.246C242.733 192.707 242.589 192.168 242.589 191.629C242.589 191.471 242.667 190.958 242.825 190.091C242.97 189.21 243.331 188.099 243.91 186.759C244.488 185.405 245.343 183.886 246.473 182.204C247.604 180.521 249.148 178.799 251.107 177.038C252.106 176.131 253.184 175.283 254.341 174.494C255.313 173.824 256.431 173.14 257.693 172.443C258.941 171.747 260.263 171.194 261.656 170.787C261.709 170.787 261.755 170.774 261.794 170.747C261.82 170.721 261.873 170.734 261.952 170.787C262.267 170.892 262.635 171.056 263.056 171.28C263.477 171.49 263.897 171.72 264.318 171.97C264.752 172.207 265.126 172.45 265.442 172.7C265.757 172.936 265.968 173.133 266.073 173.291C266.099 173.344 266.099 173.383 266.073 173.409L265.994 173.488C264.85 174.106 263.759 174.79 262.721 175.539C261.695 176.301 260.788 177.018 260 177.688C259.066 178.477 258.205 179.259 257.417 180.035C255.537 181.888 254.242 183.485 253.532 184.826C252.809 186.18 252.448 187.153 252.448 187.744C252.448 188.178 252.625 188.395 252.98 188.395C253.348 188.395 253.808 188.244 254.36 187.942C254.912 187.652 255.53 187.258 256.214 186.759C256.911 186.259 257.68 185.667 258.521 184.984C259.349 184.3 260.21 183.591 261.104 182.854C261.906 182.21 262.681 181.514 263.431 180.764C264.062 180.146 264.725 179.443 265.422 178.654C266.119 177.853 266.71 177.044 267.197 176.229C267.197 176.203 267.21 176.177 267.236 176.15C267.263 176.124 267.302 176.124 267.355 176.15C267.631 176.347 267.953 176.683 268.321 177.156C268.676 177.642 269.004 178.168 269.307 178.733C269.622 179.299 269.885 179.844 270.095 180.37C270.319 180.896 270.431 181.297 270.431 181.573C269.839 182.782 269.386 183.88 269.07 184.866C268.741 185.852 268.498 186.719 268.34 187.468C268.17 188.218 268.064 188.855 268.025 189.381C267.986 189.907 267.966 190.308 267.966 190.584Z" fill="#DBCC9A"/>
<path d="M282.636 196.085C282.202 196.085 281.63 195.888 280.921 195.494C280.224 195.099 279.54 194.613 278.87 194.035C278.2 193.456 277.621 192.858 277.135 192.24C276.648 191.622 276.405 191.097 276.405 190.663C276.405 189.887 276.616 188.665 277.036 186.995C277.457 185.339 278.015 183.433 278.712 181.277C279.409 179.134 280.198 176.847 281.078 174.415C281.959 171.97 282.853 169.584 283.76 167.257H278.318H278.278C278.252 167.257 278.239 167.231 278.239 167.179C278.239 167.021 278.298 166.791 278.416 166.488C278.535 166.199 278.679 165.897 278.85 165.581C279.008 165.253 279.199 164.957 279.422 164.694C279.646 164.418 279.856 164.241 280.053 164.162L285.061 163.945C285.784 162.196 286.475 160.58 287.132 159.094C287.776 157.622 288.361 156.36 288.887 155.308C289.005 155.032 289.137 154.73 289.281 154.401C289.426 154.086 289.629 153.764 289.892 153.435C290.168 153.12 290.53 152.791 290.977 152.449C291.424 152.094 292.035 151.739 292.811 151.384C293.376 151.095 294.059 150.786 294.861 150.458C295.676 150.129 296.472 149.82 297.247 149.531C298.036 149.255 298.752 149.018 299.396 148.821C300.041 148.624 300.501 148.525 300.777 148.525C301.04 148.525 301.171 148.578 301.171 148.683V148.762C301.171 148.788 301.145 148.854 301.092 148.959C300.935 149.209 300.652 149.767 300.244 150.635C299.824 151.49 299.318 152.567 298.726 153.869C298.121 155.157 297.451 156.629 296.715 158.286C295.979 159.942 295.229 161.697 294.467 163.55L303.715 163.195C303.965 163.195 304.037 163.353 303.932 163.669C303.827 163.971 303.636 164.333 303.36 164.753C303.071 165.161 302.742 165.581 302.374 166.015C302.006 166.449 301.69 166.784 301.427 167.021C301.375 167.073 301.276 167.126 301.132 167.179C300.974 167.231 300.777 167.257 300.54 167.257H292.929C291.996 169.479 291.108 171.733 290.267 174.021C289.413 176.308 288.657 178.477 287.999 180.528C287.329 182.591 286.797 184.478 286.402 186.187C285.995 187.909 285.791 189.322 285.791 190.426C285.791 190.584 285.87 190.663 286.028 190.663C286.317 190.663 286.737 190.505 287.29 190.189C287.855 189.861 288.492 189.44 289.202 188.928C289.912 188.415 290.661 187.85 291.45 187.232C292.252 186.614 293.014 186.003 293.737 185.398C294.447 184.806 295.091 184.254 295.67 183.742C296.248 183.242 296.695 182.868 297.011 182.618C297.234 182.841 297.51 183.137 297.839 183.505C298.154 183.86 298.457 184.195 298.746 184.511C298.181 185.063 297.471 185.746 296.616 186.561C295.775 187.376 294.855 188.205 293.856 189.046C292.87 189.887 291.844 190.735 290.78 191.589C289.715 192.431 288.676 193.187 287.664 193.857C286.652 194.527 285.706 195.066 284.825 195.474C283.957 195.881 283.228 196.085 282.636 196.085Z" fill="#DBCC9A"/>
<path d="M300.244 196.834C299.784 196.834 299.258 196.683 298.667 196.381C298.075 196.092 297.471 195.697 296.853 195.198C296.235 194.685 295.637 194.094 295.059 193.423C294.48 192.74 294 192.023 293.619 191.274C293.461 190.998 293.356 190.676 293.304 190.308C293.251 189.953 293.225 189.493 293.225 188.928C293.225 187.468 293.448 186.003 293.895 184.53C294.355 183.045 294.98 181.638 295.768 180.311C296.57 178.97 297.53 177.715 298.647 176.545C299.765 175.375 300.974 174.369 302.275 173.528C303.59 172.673 304.99 172.003 306.475 171.516C307.961 171.03 309.479 170.787 311.03 170.787C311.254 170.787 311.563 170.912 311.957 171.162C312.364 171.398 312.798 171.727 313.258 172.147C313.718 172.555 314.185 173.015 314.658 173.528C315.132 174.04 315.565 174.56 315.96 175.085C316.341 175.611 316.65 176.124 316.886 176.623C317.136 177.123 317.261 177.563 317.261 177.945C317.13 178.444 316.729 178.983 316.058 179.561C315.401 180.127 314.612 180.666 313.692 181.178C312.785 181.678 311.832 182.092 310.833 182.421C309.834 182.749 308.96 182.914 308.21 182.914C307.777 182.914 307.56 182.789 307.56 182.539C307.56 182.25 307.75 181.829 308.132 181.277C308.513 180.725 308.947 180.127 309.433 179.483C309.906 178.825 310.333 178.168 310.715 177.511C311.096 176.854 311.286 176.295 311.286 175.835C311.286 175.598 311.227 175.408 311.109 175.263C311.004 175.105 310.846 175.026 310.636 175.026C310.071 175.026 309.479 175.283 308.861 175.795C308.243 176.308 307.625 176.992 307.008 177.846C306.403 178.687 305.818 179.653 305.253 180.745C304.688 181.836 304.188 182.96 303.754 184.116C303.334 185.273 302.998 186.43 302.749 187.587C302.486 188.744 302.354 189.795 302.354 190.742C302.354 191.307 302.525 191.701 302.867 191.925C303.195 192.135 303.708 192.24 304.405 192.24C306.127 192.24 307.79 191.951 309.394 191.373C310.997 190.794 312.535 190.051 314.008 189.144C315.48 188.237 316.886 187.219 318.227 186.088C319.555 184.958 320.81 183.827 321.993 182.697C322.283 183.025 322.631 183.354 323.038 183.683C323.446 183.998 323.755 184.274 323.965 184.511C322.375 186.167 320.685 187.751 318.898 189.263C317.11 190.761 315.23 192.069 313.258 193.187C311.273 194.304 309.196 195.191 307.027 195.849C304.858 196.506 302.597 196.834 300.244 196.834Z" fill="#DBCC9A"/>
<path d="M343.604 190.742C343.986 190.742 344.498 190.577 345.142 190.249C345.787 189.907 346.496 189.48 347.272 188.967C348.061 188.454 348.869 187.882 349.697 187.252C350.512 186.621 351.301 186.003 352.064 185.398C352.813 184.806 353.483 184.254 354.075 183.742C354.666 183.242 355.12 182.868 355.435 182.618C355.659 182.841 355.935 183.137 356.264 183.505C356.579 183.86 356.875 184.195 357.151 184.511C356.586 185.063 355.882 185.733 355.041 186.522C354.2 187.311 353.286 188.113 352.3 188.928C351.327 189.756 350.315 190.564 349.264 191.353C348.212 192.155 347.187 192.878 346.188 193.522C345.188 194.153 344.249 194.666 343.368 195.06C342.5 195.441 341.771 195.632 341.179 195.632C340.693 195.632 340.121 195.507 339.464 195.257C338.806 195.02 338.175 194.718 337.571 194.35C336.966 193.969 336.453 193.555 336.033 193.108C335.612 192.661 335.402 192.22 335.402 191.787C335.428 190.682 335.632 189.394 336.013 187.922C336.394 186.463 336.854 184.964 337.393 183.426C337.919 181.888 338.478 180.363 339.069 178.852C339.674 177.353 340.233 176.012 340.745 174.829C340.548 174.882 340.154 175.164 339.562 175.677C338.971 176.19 338.254 176.893 337.413 177.787C336.585 178.668 335.678 179.732 334.692 180.981C333.706 182.23 332.727 183.623 331.754 185.161C330.794 186.699 329.881 188.362 329.013 190.15C328.132 191.925 327.396 193.804 326.805 195.789C326.739 196.065 326.634 196.269 326.489 196.401C326.345 196.532 326.108 196.598 325.779 196.598C325.543 196.598 325.181 196.48 324.695 196.243C324.208 196.019 323.696 195.743 323.157 195.415C322.618 195.099 322.092 194.758 321.579 194.389C321.067 194.035 320.653 193.719 320.337 193.443C320.193 193.259 320.068 193.088 319.962 192.93C319.857 192.786 319.805 192.556 319.805 192.24C319.805 190.544 320.087 188.467 320.653 186.009C321.218 183.538 321.993 180.856 322.979 177.964C323.965 175.085 325.122 172.069 326.45 168.914C327.764 165.772 329.177 162.689 330.689 159.666C332.188 156.629 333.752 153.744 335.382 151.01C337.012 148.275 338.616 145.863 340.193 143.773C341.771 141.683 343.289 140 344.748 138.725C346.194 137.463 347.522 136.793 348.731 136.714C349.323 136.885 349.921 137.168 350.526 137.562C351.117 137.943 351.682 138.364 352.221 138.824C352.76 139.284 353.247 139.731 353.68 140.165C354.101 140.612 354.423 140.986 354.647 141.289C354.804 141.499 354.91 141.742 354.962 142.018C355.015 142.307 355.041 142.511 355.041 142.63C355.041 143.563 354.785 144.707 354.272 146.06C353.759 147.428 353.043 148.959 352.123 150.655C351.189 152.351 350.065 154.165 348.751 156.097C347.423 158.042 345.958 160.034 344.354 162.072C342.75 164.109 341.015 166.166 339.148 168.243C337.295 170.333 335.349 172.351 333.312 174.297C332.799 175.677 332.339 177.024 331.931 178.339C333.325 176.906 334.6 175.697 335.757 174.711C336.9 173.738 337.926 172.962 338.833 172.384C339.727 171.806 340.489 171.398 341.12 171.162C341.751 170.912 342.231 170.787 342.559 170.787C342.796 170.787 343.21 170.938 343.802 171.24C344.393 171.53 345.004 171.878 345.635 172.286C346.28 172.706 346.871 173.133 347.41 173.567C347.949 174.001 348.284 174.362 348.416 174.652C348.468 174.77 348.468 174.941 348.416 175.164C348.363 175.375 348.311 175.546 348.258 175.677C348.034 176.374 347.758 177.176 347.43 178.083C347.114 179.003 346.773 179.969 346.404 180.981C346.023 181.993 345.655 183.012 345.3 184.037C344.945 185.063 344.623 186.009 344.334 186.877C344.058 187.731 343.828 188.487 343.644 189.144C343.46 189.802 343.368 190.255 343.368 190.505C343.368 190.663 343.447 190.742 343.604 190.742ZM340.213 157.615C339.595 158.93 338.997 160.231 338.419 161.519C337.84 162.821 337.282 164.129 336.743 165.443C338.465 163.235 340.134 160.994 341.751 158.719C343.368 156.445 344.814 154.263 346.089 152.173C347.364 150.083 348.383 148.151 349.145 146.376C349.921 144.601 350.309 143.109 350.309 141.9C350.309 141.335 350.203 141.052 349.993 141.052C349.691 141.052 349.224 141.473 348.593 142.314C347.962 143.142 347.213 144.292 346.345 145.765C345.465 147.224 344.505 148.966 343.466 150.99C342.428 153.028 341.343 155.236 340.213 157.615Z" fill="#DBCC9A"/>
<path d="M390.474 178.023C390.146 179.036 389.725 180.179 389.212 181.454C388.713 182.743 388.233 184.005 387.773 185.24C387.313 186.463 386.925 187.58 386.61 188.592C386.281 189.591 386.117 190.308 386.117 190.742C386.117 190.899 386.196 190.978 386.353 190.978C386.629 190.978 387.05 190.807 387.615 190.466C388.181 190.137 388.831 189.703 389.567 189.164C390.304 188.625 391.066 188.034 391.855 187.39C392.657 186.745 393.419 186.108 394.142 185.477C394.878 184.846 395.542 184.274 396.134 183.761C396.725 183.249 397.172 182.868 397.474 182.618C397.711 182.841 397.987 183.137 398.303 183.505C398.631 183.86 398.933 184.195 399.21 184.511C398.644 185.063 397.941 185.746 397.1 186.561C396.245 187.376 395.325 188.205 394.339 189.046C393.353 189.887 392.328 190.735 391.263 191.589C390.198 192.431 389.16 193.187 388.148 193.857C387.135 194.527 386.189 195.066 385.308 195.474C384.441 195.881 383.711 196.085 383.12 196.085C382.738 196.085 382.252 195.954 381.66 195.691C381.069 195.415 380.504 195.08 379.965 194.685C379.426 194.291 378.959 193.85 378.565 193.364C378.183 192.878 377.993 192.398 377.993 191.925C378.374 190.216 378.762 188.717 379.156 187.429C379.537 186.141 379.892 185.043 380.221 184.136C380.563 183.229 380.859 182.493 381.108 181.928C381.371 181.362 381.568 180.935 381.7 180.646C381.384 180.514 381.089 180.376 380.813 180.232C380.523 180.074 380.241 179.916 379.965 179.759C379.544 180.192 379.084 180.659 378.584 181.159C378.085 181.645 377.579 182.131 377.066 182.618C376.553 183.104 376.041 183.577 375.528 184.037C375.015 184.498 374.555 184.925 374.148 185.319L372.294 183.426C372.965 182.782 373.767 182.006 374.7 181.099C375.633 180.179 376.553 179.259 377.46 178.339C376.816 177.958 376.238 177.59 375.725 177.235C375.213 176.893 374.772 176.584 374.404 176.308C373.97 175.992 373.589 175.71 373.261 175.46C373.103 175.381 373.024 175.21 373.024 174.947C373.024 174.671 373.136 174.27 373.359 173.745C373.569 173.219 373.845 172.654 374.187 172.049C374.516 171.444 374.871 170.826 375.252 170.195C375.646 169.564 376.021 168.993 376.376 168.48C376.731 167.967 377.046 167.553 377.322 167.238C377.585 166.909 377.756 166.745 377.835 166.745C377.888 166.745 378.065 166.81 378.368 166.942C378.657 167.073 378.966 167.218 379.294 167.376C379.636 167.547 379.945 167.737 380.221 167.948C380.51 168.145 380.694 168.322 380.773 168.48C380.799 168.611 380.826 168.881 380.852 169.288C380.878 169.696 380.905 170.195 380.931 170.787C381.93 171.3 382.955 171.885 384.007 172.542C385.059 173.199 386.018 173.824 386.886 174.415C387.911 175.085 388.89 175.762 389.824 176.446C390.152 176.656 390.363 176.913 390.455 177.215C390.547 177.53 390.553 177.8 390.474 178.023Z" fill="#DBCC9A"/>
<path d="M399.9 196.085C399.518 196.085 399.032 195.954 398.441 195.691C397.849 195.415 397.284 195.08 396.745 194.685C396.206 194.291 395.746 193.85 395.365 193.364C394.983 192.878 394.793 192.398 394.793 191.925C395.042 190.807 395.384 189.513 395.818 188.04C396.265 186.581 396.738 185.096 397.238 183.584C397.737 182.059 398.263 180.574 398.815 179.128C399.367 177.682 399.867 176.393 400.314 175.263C400.761 174.132 401.148 173.219 401.477 172.522C401.819 171.825 402.042 171.477 402.148 171.477C402.292 171.477 402.673 171.648 403.291 171.99C403.909 172.318 404.56 172.719 405.243 173.193C405.927 173.666 406.538 174.165 407.077 174.691C407.616 175.217 407.886 175.677 407.886 176.071C407.886 176.15 407.872 176.242 407.846 176.347C407.82 176.466 407.78 176.617 407.728 176.801C407.517 177.445 407.255 178.201 406.939 179.069C406.61 179.949 406.269 180.856 405.914 181.79C405.559 182.723 405.197 183.656 404.829 184.59C404.474 185.536 404.159 186.417 403.883 187.232C403.594 188.06 403.357 188.783 403.173 189.401C403.002 190.005 402.917 190.452 402.917 190.742C402.917 190.899 402.989 190.978 403.133 190.978C403.423 190.978 403.85 190.807 404.415 190.466C404.98 190.137 405.631 189.703 406.367 189.164C407.09 188.625 407.853 188.034 408.655 187.39C409.443 186.745 410.206 186.108 410.942 185.477C411.678 184.846 412.342 184.274 412.933 183.761C413.512 183.249 413.959 182.868 414.274 182.618C414.511 182.841 414.787 183.137 415.102 183.505C415.418 183.86 415.72 184.195 416.009 184.511C415.444 185.063 414.734 185.746 413.88 186.561C413.038 187.376 412.125 188.205 411.139 189.046C410.153 189.887 409.121 190.735 408.043 191.589C406.978 192.431 405.947 193.187 404.948 193.857C403.948 194.527 403.015 195.066 402.148 195.474C401.267 195.881 400.518 196.085 399.9 196.085ZM415.161 159.745C415.135 159.837 415.037 160.087 414.866 160.494C414.708 160.888 414.511 161.349 414.274 161.874C414.038 162.4 413.775 162.952 413.485 163.531C413.183 164.109 412.894 164.641 412.618 165.128C412.329 165.614 412.059 166.022 411.809 166.35C411.546 166.666 411.343 166.824 411.198 166.824C410.738 166.797 410.179 166.659 409.522 166.41C408.865 166.147 408.234 165.857 407.629 165.542C407.024 165.213 406.512 164.898 406.091 164.595C405.671 164.28 405.46 164.063 405.46 163.945C405.46 163.406 405.611 162.703 405.914 161.835C406.229 160.98 406.591 160.146 406.998 159.331C407.406 158.529 407.82 157.832 408.24 157.241C408.661 156.649 408.99 156.353 409.226 156.353C409.686 156.353 410.252 156.498 410.922 156.787C411.593 157.089 412.243 157.431 412.874 157.812C413.492 158.194 414.031 158.575 414.491 158.956C414.938 159.324 415.161 159.587 415.161 159.745Z" fill="#DBCC9A"/>
<path d="M436.911 189.697C436.911 190.341 437.121 190.663 437.542 190.663C438.028 190.663 438.606 190.512 439.277 190.209C439.96 189.894 440.677 189.486 441.426 188.987C442.175 188.487 442.931 187.929 443.694 187.311C444.469 186.693 445.192 186.088 445.863 185.497C446.546 184.905 447.157 184.353 447.696 183.84C448.235 183.328 448.663 182.92 448.978 182.618C449.228 182.841 449.537 183.137 449.905 183.505C450.26 183.86 450.575 184.195 450.851 184.511C450.194 185.168 449.438 185.911 448.584 186.739C447.742 187.554 446.835 188.395 445.863 189.263C444.903 190.117 443.904 190.952 442.865 191.767C441.827 192.569 440.795 193.285 439.77 193.916C438.744 194.547 437.745 195.053 436.773 195.435C435.787 195.829 434.86 196.026 433.992 196.026C433.532 196.026 432.967 195.809 432.297 195.375C431.626 194.955 430.982 194.435 430.364 193.818C429.746 193.2 429.227 192.556 428.806 191.885C428.386 191.202 428.175 190.59 428.175 190.051C428.175 188.868 428.254 187.633 428.412 186.344C427.255 187.37 426.138 188.349 425.06 189.282C423.982 190.203 422.898 191.07 421.807 191.885C420.715 192.687 419.598 193.43 418.454 194.113C417.311 194.797 416.095 195.382 414.807 195.868C414.425 196.013 414.09 196.085 413.801 196.085C413.551 196.085 413.223 195.96 412.815 195.711C412.394 195.448 411.993 195.119 411.612 194.725C411.231 194.33 410.896 193.883 410.607 193.384C410.331 192.884 410.193 192.398 410.193 191.925C410.193 190.873 410.39 189.703 410.784 188.415C411.178 187.113 411.757 185.779 412.519 184.412C413.282 183.032 414.208 181.658 415.3 180.291C416.391 178.911 417.626 177.609 419.007 176.387C420.4 175.177 421.931 174.073 423.601 173.074C425.27 172.088 427.052 171.3 428.944 170.708C429.299 170.761 429.759 170.925 430.325 171.201C430.89 171.464 431.416 171.74 431.902 172.029C432.836 169.387 433.9 166.732 435.097 164.063C436.28 161.408 437.548 158.858 438.902 156.412C440.243 153.954 441.65 151.654 443.122 149.511C444.581 147.368 446.04 145.469 447.499 143.813C448.971 142.156 450.417 140.815 451.837 139.79C453.27 138.765 454.624 138.134 455.899 137.897C456.464 137.897 457.062 138.088 457.693 138.469C458.324 138.837 458.923 139.284 459.488 139.81C460.053 140.336 460.533 140.881 460.927 141.446C461.322 142.012 461.571 142.485 461.677 142.866C461.677 144.049 461.381 145.423 460.789 146.987C460.198 148.552 459.383 150.241 458.344 152.055C457.306 153.869 456.077 155.762 454.657 157.734C453.224 159.705 451.686 161.717 450.043 163.767C448.4 165.805 446.678 167.836 444.877 169.86C443.063 171.898 441.242 173.863 439.415 175.756C438.652 178.372 438.048 180.869 437.601 183.249C437.141 185.628 436.911 187.777 436.911 189.697ZM456.254 142.57C455.82 142.57 455.288 142.886 454.657 143.517C454.026 144.161 453.316 145.055 452.527 146.199C451.752 147.342 450.924 148.696 450.043 150.26C449.175 151.825 448.295 153.534 447.401 155.387C446.494 157.241 445.593 159.206 444.699 161.283C443.805 163.36 442.957 165.463 442.156 167.593C444.075 165.226 445.902 162.86 447.637 160.494C449.372 158.115 450.897 155.86 452.212 153.731C453.513 151.601 454.552 149.649 455.327 147.875C456.103 146.1 456.491 144.634 456.491 143.477C456.491 143.333 456.484 143.142 456.471 142.906C456.458 142.682 456.386 142.57 456.254 142.57ZM419.697 188.395C420.551 188.395 421.813 187.797 423.483 186.601C425.152 185.405 427.038 183.807 429.142 181.809C429.365 180.626 429.648 179.423 429.99 178.201C430.318 176.978 430.686 175.743 431.094 174.494C429.608 175.493 428.156 176.637 426.736 177.925C425.303 179.2 424.035 180.469 422.93 181.73C421.826 182.992 420.939 184.169 420.269 185.26C419.585 186.351 419.243 187.179 419.243 187.744C419.243 188.178 419.394 188.395 419.697 188.395Z" fill="#DBCC9A"/>
<path d="M473.803 182.618L475.696 184.511C473.33 186.811 471.102 188.744 469.012 190.308C466.922 191.885 464.93 193.147 463.037 194.094C461.131 195.04 459.31 195.717 457.575 196.125C455.84 196.545 454.151 196.756 452.508 196.756C451.824 196.756 451.055 196.499 450.201 195.987C449.359 195.474 448.571 194.85 447.834 194.113C447.098 193.377 446.487 192.615 446.001 191.826C445.514 191.024 445.271 190.341 445.271 189.775C445.271 187.672 445.56 185.74 446.139 183.978C446.717 182.217 447.479 180.633 448.426 179.226C449.386 177.82 450.47 176.571 451.679 175.48C452.902 174.402 454.177 173.508 455.505 172.798C456.819 172.075 458.134 171.536 459.448 171.181C460.763 170.813 461.972 170.629 463.076 170.629C463.865 170.629 464.654 170.866 465.443 171.339C466.218 171.799 466.928 172.358 467.572 173.015C468.216 173.685 468.736 174.389 469.13 175.125C469.524 175.861 469.721 176.499 469.721 177.038C469.721 177.905 469.36 178.792 468.637 179.699C467.901 180.62 466.869 181.553 465.541 182.499C464.2 183.446 462.59 184.412 460.71 185.398C458.844 186.397 456.78 187.396 454.519 188.395C454.44 189.013 454.401 189.618 454.401 190.209C454.401 190.998 454.571 191.537 454.913 191.826C455.268 192.102 455.919 192.24 456.865 192.24C458.561 192.24 460.158 191.958 461.657 191.392C463.168 190.827 464.614 190.097 465.995 189.204C467.375 188.297 468.709 187.271 469.998 186.128C471.286 184.971 472.554 183.801 473.803 182.618ZM462.15 174.869C461.637 174.869 461.072 175.145 460.454 175.697C459.836 176.249 459.218 176.978 458.6 177.885C457.983 178.779 457.391 179.811 456.826 180.981C456.261 182.151 455.774 183.36 455.367 184.609C456.313 184.005 457.247 183.354 458.167 182.657C459.074 181.96 459.889 181.231 460.612 180.468C461.322 179.719 461.893 178.944 462.327 178.142C462.774 177.353 462.998 176.558 462.998 175.756C462.998 175.532 462.925 175.329 462.781 175.145C462.636 174.961 462.426 174.869 462.15 174.869Z" fill="#DBCC9A"/>
<path d="M491.254 178.023C490.925 179.036 490.511 180.179 490.011 181.454C489.512 182.743 489.032 184.005 488.572 185.24C488.099 186.463 487.704 187.58 487.389 188.592C487.073 189.591 486.916 190.308 486.916 190.742C486.916 190.899 486.988 190.978 487.133 190.978C487.422 190.978 487.849 190.807 488.414 190.466C488.98 190.137 489.624 189.703 490.347 189.164C491.083 188.625 491.852 188.034 492.654 187.39C493.442 186.745 494.205 186.108 494.941 185.477C495.664 184.846 496.321 184.274 496.913 183.761C497.504 183.249 497.958 182.868 498.273 182.618C498.497 182.841 498.773 183.137 499.101 183.505C499.417 183.86 499.719 184.195 500.008 184.511C499.443 185.063 498.733 185.746 497.879 186.561C497.038 187.376 496.124 188.205 495.138 189.046C494.139 189.887 493.107 190.735 492.042 191.589C490.978 192.431 489.939 193.187 488.927 193.857C487.915 194.527 486.975 195.066 486.107 195.474C485.227 195.881 484.49 196.085 483.899 196.085C483.518 196.085 483.031 195.954 482.44 195.691C481.848 195.415 481.283 195.08 480.744 194.685C480.205 194.291 479.745 193.85 479.364 193.364C478.969 192.878 478.772 192.398 478.772 191.925C479.166 190.216 479.554 188.717 479.935 187.429C480.317 186.141 480.678 185.043 481.02 184.136C481.349 183.229 481.644 182.493 481.907 181.928C482.157 181.362 482.348 180.935 482.479 180.646C482.164 180.514 481.868 180.376 481.592 180.232C481.316 180.074 481.033 179.916 480.744 179.759C480.336 180.192 479.883 180.659 479.383 181.159C478.884 181.645 478.378 182.131 477.865 182.618C477.339 183.104 476.82 183.577 476.307 184.037C475.795 184.498 475.335 184.925 474.927 185.319L473.074 183.426C473.744 182.782 474.546 182.006 475.479 181.099C476.426 180.179 477.346 179.259 478.24 178.339C477.596 177.958 477.017 177.59 476.505 177.235C475.992 176.893 475.558 176.584 475.203 176.308C474.769 175.992 474.382 175.71 474.04 175.46C473.882 175.381 473.803 175.21 473.803 174.947C473.803 174.671 473.915 174.27 474.138 173.745C474.362 173.219 474.638 172.654 474.966 172.049C475.295 171.444 475.657 170.826 476.051 170.195C476.432 169.564 476.8 168.993 477.155 168.48C477.523 167.967 477.839 167.553 478.102 167.238C478.378 166.909 478.555 166.745 478.634 166.745C478.687 166.745 478.858 166.81 479.147 166.942C479.436 167.073 479.751 167.218 480.093 167.376C480.422 167.547 480.731 167.737 481.02 167.948C481.296 168.145 481.473 168.322 481.552 168.48C481.579 168.611 481.605 168.881 481.631 169.288C481.658 169.696 481.684 170.195 481.71 170.787C482.709 171.3 483.735 171.885 484.786 172.542C485.838 173.199 486.804 173.824 487.685 174.415C488.71 175.085 489.683 175.762 490.603 176.446C490.932 176.656 491.142 176.913 491.234 177.215C491.326 177.53 491.333 177.8 491.254 178.023Z" fill="#DBCC9A"/>
</g>
<g clip-path="url(#clip3_1_2)">
<path d="M236.558 26.828L255.614 19.234L255.778 19.17L256.054 19.086C258.608 18.316 261.13 17.928 263.55 17.928C269.344 17.928 274.526 20.162 278.186 24.22C280.224 26.468 281.698 29.168 282.54 32.096C283.982 28.672 284.61 23.978 282.006 18.248C268.864 -1.764 236.558 26.828 236.558 26.828Z" fill="#A16941"/>
<path d="M235.55 21.782C235.55 23.07 230.958 30.85 222.89 30.85C217.482 30.85 213.766 27.738 210.396 26.578C206.306 25.17 203.172 24.684 203.172 24.684C200.938 24.684 200.266 23.492 200.266 22.066C200.266 20.642 201.596 19.448 202.884 19.448H233.212C234.506 19.448 235.55 20.49 235.55 21.782Z" fill="#A16941"/>
<path d="M172.654 21.212C171.484 21.212 170.536 20.26 170.536 19.088C170.536 17.92 171.484 16.97 172.654 16.97H193.788C194.956 16.97 195.906 17.918 195.906 19.088C195.906 20.258 194.958 21.212 193.788 21.212H172.654Z" fill="#A16941"/>
<path d="M229.166 75.51L266.852 75.508C269.014 75.504 270.758 73.76 270.758 71.622C270.756 70.28 270.092 69.112 269.08 68.406C268.488 69.718 268.034 71.506 264.078 71.532C258.31 71.532 238.506 71.524 222.358 71.516C225.19 71.758 227.652 73.278 229.166 75.51Z" fill="#A16941"/>
<path d="M188.214 25.09C180.204 25.092 172.77 27.58 166.622 31.806C163.92 31.806 156.55 31.81 156.55 31.81C155.394 31.834 154.462 33.706 154.454 36.018C154.454 36.024 154.454 36.028 154.454 36.034V36.038V36.044C154.454 38.37 155.39 40.252 156.552 40.28L157.788 40.282C152.924 46.698 150.002 54.66 150 63.312C150 65.39 150.166 67.43 150.488 69.42C150.488 69.42 154.336 68.6 154.04 63.312C154.072 44.47 169.376 29.16 188.216 29.13C196.646 29.13 204.36 32.202 210.326 37.278L214.51 35.61C207.654 29.102 198.394 25.09 188.214 25.09Z" fill="#A16941"/>
<path d="M308.976 9.94C308.976 4.532 307.74 0.152 306.202 0.022L306.184 0C306.166 0 306.152 0 306.14 0H306.136L306.132 0.002C296.818 0.018 289.292 4.442 289.26 9.91C289.366 9.906 289.468 9.886 289.57 9.886C292.036 9.886 294.316 11.092 295.696 13.118L300.506 19.298C302.266 19.668 304.148 19.876 306.12 19.882C306.124 19.882 306.128 19.886 306.132 19.886C306.136 19.886 306.138 19.884 306.142 19.884C306.154 19.884 306.17 19.886 306.184 19.886L306.202 19.864C307.736 19.736 308.976 15.352 308.976 9.94Z" fill="#A16941"/>
<path d="M271.146 39.118C271.204 38.702 271.232 38.278 271.232 37.882C271.228 37.59 271.186 37.3 271.156 37.01H243.684C242.57 37.01 241.664 37.916 241.664 39.028C241.664 39.028 241.678 47.838 241.684 52.638C241.782 52.608 241.876 52.566 241.976 52.542C244.942 50.01 249.252 48.53 253.84 48.53C258.498 48.53 262.858 50.052 265.83 52.654C266.984 52.966 268.02 53.54 268.908 54.284L271.146 39.118Z" fill="#A16941"/>
<path d="M281.398 9.58C280.072 7.384 278.242 7.308 277.626 7.276C277.538 7.272 277.538 7.276 277.538 7.276L277.424 7.288L267.588 7.298V7.3C266.472 7.3 265.566 6.398 265.566 5.284C265.562 4.168 266.464 3.264 267.58 3.264L277.172 3.254C277.276 3.246 277.428 3.238 277.626 3.238C278.89 3.204 282.568 3.68 284.862 7.496C285.434 8.452 285.124 9.692 284.17 10.272C283.846 10.466 283.486 10.56 283.13 10.56C282.448 10.556 281.778 10.208 281.398 9.58Z" fill="#A16941"/>
<path d="M267.136 58.238C266.416 57.198 265.244 56.492 263.898 56.416C261.816 54.114 258.1 52.574 253.84 52.574C249.594 52.574 245.886 54.104 243.802 56.392H243.778C241.434 56.392 239.534 58.288 239.534 60.634C239.534 62.97 241.43 64.872 243.778 64.872H243.802C245.884 67.162 249.594 68.694 253.84 68.694C258.1 68.694 261.816 67.152 263.898 64.848C265.316 64.768 266.544 63.99 267.252 62.856C271.45 63.072 274.788 66.506 274.796 70.762C274.786 75.14 271.24 78.688 266.856 78.696H226.316C225.546 76.83 223.72 75.554 221.586 75.554H188.186L183.706 83.454C174.768 81.324 168.118 73.318 168.1 63.73C168.122 52.516 177.192 43.444 188.404 43.422C190.104 43.424 191.744 43.662 193.32 44.056L205.512 39.198C200.656 35.798 194.764 33.782 188.398 33.77C171.896 33.796 158.48 47.208 158.45 63.722C158.48 80.23 171.896 93.64 188.402 93.668C196.184 93.654 203.272 90.672 208.598 85.792H221.586C223.69 85.792 225.49 84.55 226.28 82.73H266.86C273.472 82.73 278.836 77.37 278.836 70.758C278.836 64.228 273.624 58.932 267.136 58.238ZM253.716 63.658C252.044 63.658 250.688 62.302 250.688 60.63C250.688 58.954 252.044 57.602 253.716 57.602C255.388 57.602 256.744 58.954 256.744 60.63C256.744 62.302 255.388 63.658 253.716 63.658Z" fill="#A16941"/>
<path d="M320.05 34.172C316.936 34.176 313.936 34.662 311.11 35.548L316.302 44.19C317.518 43.96 318.768 43.824 320.05 43.822C331.258 43.844 340.33 52.916 340.354 64.128C340.328 75.336 331.256 84.41 320.05 84.428C308.842 84.408 299.764 75.334 299.746 64.128C299.756 58.48 302.092 53.404 305.816 49.73L310.366 56.156C308.576 58.322 307.504 61.1 307.504 64.13C307.504 71.042 313.108 76.65 320.03 76.65C326.946 76.646 332.552 71.042 332.556 64.13C332.552 57.208 326.946 51.598 320.03 51.594C318.756 51.594 317.528 51.788 316.372 52.14L305.008 33.236C309.556 31.006 314.646 29.716 320.048 29.708C326.402 29.708 332.344 31.432 337.456 34.444C341.736 36.616 343.376 33.314 343.376 33.314C336.89 28.392 328.798 25.468 320.048 25.468C313.846 25.468 308.004 26.97 302.804 29.574L301.7 27.738L292.24 15.58C291.282 14.104 289.316 13.684 287.838 14.638C286.368 15.592 285.946 17.562 286.898 19.036L293.884 32.878L295.12 34.622C286.738 41.72 281.396 52.3 281.394 64.126C281.394 70.104 282.766 75.782 285.2 80.842C285.2 80.842 288.548 78.994 287.45 75.162C286.272 71.7 285.632 67.984 285.632 64.122C285.652 53.732 290.302 44.43 297.598 38.118L300.18 41.766C294.01 47.252 290.11 55.23 290.094 64.124C290.124 80.63 303.54 94.042 320.046 94.07C336.558 94.042 349.968 80.63 350 64.124C349.972 47.618 336.562 34.198 320.05 34.172ZM312.978 59.842L316.992 65.514C317.602 66.456 318.622 66.966 319.664 66.966C320.256 66.966 320.856 66.802 321.386 66.456C322.858 65.5 323.282 63.532 322.332 62.06L318.674 55.976C319.118 55.9 319.566 55.84 320.032 55.838C324.604 55.85 328.306 59.552 328.318 64.132C328.306 68.696 324.606 72.4 320.032 72.412C315.458 72.4 311.754 68.698 311.746 64.132H311.742C311.75 62.55 312.212 61.096 312.978 59.842Z" fill="#A16941"/>
<path d="M336.83 21.81C336.308 23.202 334.938 23.976 333.756 23.61C328.712 22.036 323.434 21.344 318.154 21.55C316.918 21.6 315.798 20.494 315.652 19.016C315.572 18.122 315.496 17.23 315.412 16.334C315.274 14.854 316.352 13.54 317.834 13.478C324.038 13.236 330.238 14.054 336.162 15.898C337.58 16.34 338.28 17.89 337.756 19.286C337.448 20.126 337.14 20.97 336.83 21.81Z" fill="#A16941"/>
<path d="M275.184 26.924C272.486 23.928 268.438 21.952 263.55 21.964C261.562 21.964 259.444 22.282 257.214 22.95L257.106 22.984L184.192 52.03L184.196 52.042C179.404 53.768 175.98 58.338 175.978 63.724C175.98 66.618 176.996 69.254 178.654 71.362L178.658 71.366C178.696 71.412 178.72 71.464 178.756 71.508H178.786C180.108 73.136 181.798 74.448 183.776 75.242L184.744 73.536L185.81 71.652C185.638 71.594 185.474 71.516 185.31 71.442C182.224 70.206 180.026 67.242 180.018 63.722C180.026 59.088 183.776 55.342 188.404 55.338C192.318 55.342 195.574 58.034 196.5 61.662H191.86C191.158 60.474 189.882 59.672 188.404 59.67C186.174 59.674 184.368 61.48 184.364 63.716C184.368 65.902 186.106 67.674 188.276 67.746H188.534C189.982 67.7 191.226 66.882 191.9 65.7H196.524C195.86 68.38 193.918 70.54 191.362 71.51H198.052C199.384 69.866 200.298 67.88 200.652 65.7H208.594C208.39 67.736 207.878 69.674 207.122 71.492H217.272C217.78 69.62 218.142 67.694 218.28 65.7H222.766C223.104 66.33 223.752 66.778 224.522 66.778L238.276 66.806C236.576 65.29 235.5 63.088 235.5 60.634C235.5 58.634 236.218 56.802 237.404 55.368L225.66 55.342C224.616 50.538 222.678 46.058 220.012 42.11L242.948 32.974H274.28C274.91 34.496 275.252 36.156 275.274 37.852C275.278 38.46 275.23 39.082 275.144 39.706L272.68 56.412C274.04 56.946 275.304 57.658 276.452 58.524L279.142 40.28C279.256 39.47 279.318 38.662 279.318 37.852C279.308 33.858 277.894 29.916 275.184 26.924ZM200.64 61.662C199.964 57.638 197.366 54.274 193.81 52.544L202.456 49.098C205.828 52.34 208.062 56.738 208.57 61.658L200.64 61.662ZM222.426 61.662H218.248C217.816 55.524 215.56 49.882 211.982 45.306L216.146 43.648C219.818 48.788 222.08 54.966 222.426 61.662Z" fill="#A16941"/>
</g>
<g clip-path="url(#clip4_1_2)">
<path d="M89.1667 257.733H50.8333V259.4H89.1667V257.733Z" fill="#A16941" stroke="#A16941" stroke-width="16.6667"/>
</g>
<g clip-path="url(#clip5_1_2)">
<path d="M449.167 257.733H410.833V259.4H449.167V257.733Z" fill="#A16941" stroke="#A16941" stroke-width="16.6667"/>
</g>
</g>
<defs>
<clipPath id="clip0_1_2">
<rect width="500" height="271.996" fill="white"/>
</clipPath>
<clipPath id="clip1_1_2">
<rect width="290.092" height="26.8588" fill="white" transform="translate(104.954 245.137)"/>
</clipPath>
<clipPath id="clip2_1_2">
<rect width="500" height="89.155" fill="white" transform="translate(0 132.279)"/>
</clipPath>
<clipPath id="clip3_1_2">
<rect width="200" height="94.07" fill="white" transform="translate(150)"/>
</clipPath>
<clipPath id="clip4_1_2">
<rect width="40" height="3.33333" fill="white" transform="translate(50 256.9)"/>
</clipPath>
<clipPath id="clip5_1_2">
<rect width="40" height="3.33333" fill="white" transform="translate(410 256.9)"/>
</clipPath>
</defs>
</svg>
